<?xml version="1.0" encoding="utf-8" standalone="no"?>
<!DOCTYPE svg PUBLIC "-//W3C//DTD SVG 1.1//EN"
  "http://www.w3.org/Graphics/SVG/1.1/DTD/svg11.dtd">
<svg xmlns:xlink="http://www.w3.org/1999/xlink" width="426.666667pt" height="240pt" viewBox="0 0 426.666667 240" xmlns="http://www.w3.org/2000/svg" version="1.1">
 <metadata>
  <rdf:RDF xmlns:dc="http://purl.org/dc/elements/1.1/" xmlns:cc="http://creativecommons.org/ns#" xmlns:rdf="http://www.w3.org/1999/02/22-rdf-syntax-ns#">
   <cc:Work>
    <dc:type rdf:resource="http://purl.org/dc/dcmitype/StillImage"/>
    <dc:date>2024-12-26T16:09:23.161366</dc:date>
    <dc:format>image/svg+xml</dc:format>
    <dc:creator>
     <cc:Agent>
      <dc:title>Matplotlib v3.9.3, https://matplotlib.org/</dc:title>
     </cc:Agent>
    </dc:creator>
   </cc:Work>
  </rdf:RDF>
 </metadata>
 <defs>
  <style type="text/css">*{stroke-linejoin: round; stroke-linecap: butt}</style>
 </defs>
 <g id="figure_1">
  <g id="patch_1">
   <path d="M 0 240 
L 426.666667 240 
L 426.666667 0 
L 0 0 
L 0 240 
z
" style="fill: none"/>
  </g>
  <g id="axes_1">
   <g id="patch_2">
    <path d="M 266.942529 98.8 
C 266.942529 89.376236 264.183158 80.155558 259.006469 72.280964 
C 253.829779 64.406371 246.458892 58.217264 237.807503 54.480848 
C 229.156114 50.744431 219.597108 49.621748 210.31542 51.251966 
C 201.033732 52.882184 192.429414 57.195039 185.569057 63.65591 
L 171.384367 48.594156 
C 181.184877 39.364342 193.476761 33.20312 206.736314 30.874237 
C 219.995868 28.545354 233.651592 30.149188 246.010718 35.486925 
C 258.369845 40.824663 268.899684 49.666244 276.294955 60.915664 
C 283.690226 72.165083 287.632184 85.337479 287.632184 98.8 
z
" clip-path="url(#p0f44d6f2d2)" style="fill: #3572a5"/>
   </g>
   <g id="patch_3">
    <path d="M 185.569057 63.65591 
C 180.64785 68.290549 176.754551 73.907599 174.141934 80.142373 
C 171.529317 86.377146 170.255174 93.091726 170.402228 99.850168 
C 170.549283 106.60861 172.114282 113.261415 174.995618 119.376647 
C 177.876955 125.491879 182.010892 130.934268 187.129033 135.350465 
C 192.247174 139.766662 198.236303 143.05898 204.707577 145.013663 
C 211.17885 146.968347 217.989119 147.542158 224.696227 146.697842 
C 231.403335 145.853526 237.858917 143.609759 243.643844 140.112219 
C 249.428771 136.614679 254.415077 131.940733 258.279027 126.393836 
L 275.255752 138.219766 
C 269.735825 146.143904 262.61253 152.82097 254.348349 157.817456 
C 246.084167 162.813942 236.861907 166.019323 227.280325 167.225488 
C 217.698742 168.431654 207.969786 167.611924 198.72511 164.819519 
C 189.480433 162.027114 180.924534 157.323803 173.612904 151.01495 
C 166.301274 144.706097 160.39565 136.931256 156.279455 128.19521 
C 152.16326 119.459164 149.927547 109.955158 149.717469 100.30024 
C 149.507391 90.645323 151.327596 81.053066 155.059906 72.146247 
C 158.792216 63.239428 164.354071 55.21507 171.384367 48.594156 
z
" clip-path="url(#p0f44d6f2d2)" style="fill: #555555"/>
   </g>
   <g id="patch_4">
    <path d="M 258.279027 126.393836 
C 261.082601 122.369162 263.256504 117.94062 264.725757 113.260948 
C 266.195011 108.581276 266.942529 103.704899 266.942529 98.8 
L 287.632184 98.8 
C 287.632184 105.806999 286.564302 112.773252 284.465368 119.458497 
C 282.366434 126.143743 279.260859 132.470231 275.255752 138.219766 
z
" clip-path="url(#p0f44d6f2d2)" style="fill: #89e051"/>
   </g>
  </g>
  <g id="axes_2">
   <g id="legend_1">
    <g id="patch_5">
     <path d="M 101.661042 206.67125 
L 335.672292 206.67125 
Q 337.272292 206.67125 337.272292 205.07125 
L 337.272292 194.12875 
Q 337.272292 192.52875 335.672292 192.52875 
L 101.661042 192.52875 
Q 100.061042 192.52875 100.061042 194.12875 
L 100.061042 205.07125 
Q 100.061042 206.67125 101.661042 206.67125 
z
" style="fill: #ffffff; opacity: 0.8; stroke: #cccccc; stroke-linejoin: miter"/>
    </g>
    <g id="patch_6">
     <path d="M 103.261042 201.8075 
L 119.261042 201.8075 
L 119.261042 196.2075 
L 103.261042 196.2075 
z
" style="fill: #3572a5"/>
    </g>
    <g id="text_1">
     <!-- Python 37.0% -->
     <g transform="translate(125.661042 201.8075) scale(0.08 -0.08)">
      <defs>
       <path id="DejaVuSans-50" d="M 1259 4147 
L 1259 2394 
L 2053 2394 
Q 2494 2394 2734 2622 
Q 2975 2850 2975 3272 
Q 2975 3691 2734 3919 
Q 2494 4147 2053 4147 
L 1259 4147 
z
M 628 4666 
L 2053 4666 
Q 2838 4666 3239 4311 
Q 3641 3956 3641 3272 
Q 3641 2581 3239 2228 
Q 2838 1875 2053 1875 
L 1259 1875 
L 1259 0 
L 628 0 
L 628 4666 
z
" transform="scale(0.015625)"/>
       <path id="DejaVuSans-79" d="M 2059 -325 
Q 1816 -950 1584 -1140 
Q 1353 -1331 966 -1331 
L 506 -1331 
L 506 -850 
L 844 -850 
Q 1081 -850 1212 -737 
Q 1344 -625 1503 -206 
L 1606 56 
L 191 3500 
L 800 3500 
L 1894 763 
L 2988 3500 
L 3597 3500 
L 2059 -325 
z
" transform="scale(0.015625)"/>
       <path id="DejaVuSans-74" d="M 1172 4494 
L 1172 3500 
L 2356 3500 
L 2356 3053 
L 1172 3053 
L 1172 1153 
Q 1172 725 1289 603 
Q 1406 481 1766 481 
L 2356 481 
L 2356 0 
L 1766 0 
Q 1100 0 847 248 
Q 594 497 594 1153 
L 594 3053 
L 172 3053 
L 172 3500 
L 594 3500 
L 594 4494 
L 1172 4494 
z
" transform="scale(0.015625)"/>
       <path id="DejaVuSans-68" d="M 3513 2113 
L 3513 0 
L 2938 0 
L 2938 2094 
Q 2938 2591 2744 2837 
Q 2550 3084 2163 3084 
Q 1697 3084 1428 2787 
Q 1159 2491 1159 1978 
L 1159 0 
L 581 0 
L 581 4863 
L 1159 4863 
L 1159 2956 
Q 1366 3272 1645 3428 
Q 1925 3584 2291 3584 
Q 2894 3584 3203 3211 
Q 3513 2838 3513 2113 
z
" transform="scale(0.015625)"/>
       <path id="DejaVuSans-6f" d="M 1959 3097 
Q 1497 3097 1228 2736 
Q 959 2375 959 1747 
Q 959 1119 1226 758 
Q 1494 397 1959 397 
Q 2419 397 2687 759 
Q 2956 1122 2956 1747 
Q 2956 2369 2687 2733 
Q 2419 3097 1959 3097 
z
M 1959 3584 
Q 2709 3584 3137 3096 
Q 3566 2609 3566 1747 
Q 3566 888 3137 398 
Q 2709 -91 1959 -91 
Q 1206 -91 779 398 
Q 353 888 353 1747 
Q 353 2609 779 3096 
Q 1206 3584 1959 3584 
z
" transform="scale(0.015625)"/>
       <path id="DejaVuSans-6e" d="M 3513 2113 
L 3513 0 
L 2938 0 
L 2938 2094 
Q 2938 2591 2744 2837 
Q 2550 3084 2163 3084 
Q 1697 3084 1428 2787 
Q 1159 2491 1159 1978 
L 1159 0 
L 581 0 
L 581 3500 
L 1159 3500 
L 1159 2956 
Q 1366 3272 1645 3428 
Q 1925 3584 2291 3584 
Q 2894 3584 3203 3211 
Q 3513 2838 3513 2113 
z
" transform="scale(0.015625)"/>
       <path id="DejaVuSans-20" transform="scale(0.015625)"/>
       <path id="DejaVuSans-33" d="M 2597 2516 
Q 3050 2419 3304 2112 
Q 3559 1806 3559 1356 
Q 3559 666 3084 287 
Q 2609 -91 1734 -91 
Q 1441 -91 1130 -33 
Q 819 25 488 141 
L 488 750 
Q 750 597 1062 519 
Q 1375 441 1716 441 
Q 2309 441 2620 675 
Q 2931 909 2931 1356 
Q 2931 1769 2642 2001 
Q 2353 2234 1838 2234 
L 1294 2234 
L 1294 2753 
L 1863 2753 
Q 2328 2753 2575 2939 
Q 2822 3125 2822 3475 
Q 2822 3834 2567 4026 
Q 2313 4219 1838 4219 
Q 1578 4219 1281 4162 
Q 984 4106 628 3988 
L 628 4550 
Q 988 4650 1302 4700 
Q 1616 4750 1894 4750 
Q 2613 4750 3031 4423 
Q 3450 4097 3450 3541 
Q 3450 3153 3228 2886 
Q 3006 2619 2597 2516 
z
" transform="scale(0.015625)"/>
       <path id="DejaVuSans-37" d="M 525 4666 
L 3525 4666 
L 3525 4397 
L 1831 0 
L 1172 0 
L 2766 4134 
L 525 4134 
L 525 4666 
z
" transform="scale(0.015625)"/>
       <path id="DejaVuSans-2e" d="M 684 794 
L 1344 794 
L 1344 0 
L 684 0 
L 684 794 
z
" transform="scale(0.015625)"/>
       <path id="DejaVuSans-30" d="M 2034 4250 
Q 1547 4250 1301 3770 
Q 1056 3291 1056 2328 
Q 1056 1369 1301 889 
Q 1547 409 2034 409 
Q 2525 409 2770 889 
Q 3016 1369 3016 2328 
Q 3016 3291 2770 3770 
Q 2525 4250 2034 4250 
z
M 2034 4750 
Q 2819 4750 3233 4129 
Q 3647 3509 3647 2328 
Q 3647 1150 3233 529 
Q 2819 -91 2034 -91 
Q 1250 -91 836 529 
Q 422 1150 422 2328 
Q 422 3509 836 4129 
Q 1250 4750 2034 4750 
z
" transform="scale(0.015625)"/>
       <path id="DejaVuSans-25" d="M 4653 2053 
Q 4381 2053 4226 1822 
Q 4072 1591 4072 1178 
Q 4072 772 4226 539 
Q 4381 306 4653 306 
Q 4919 306 5073 539 
Q 5228 772 5228 1178 
Q 5228 1588 5073 1820 
Q 4919 2053 4653 2053 
z
M 4653 2450 
Q 5147 2450 5437 2106 
Q 5728 1763 5728 1178 
Q 5728 594 5436 251 
Q 5144 -91 4653 -91 
Q 4153 -91 3862 251 
Q 3572 594 3572 1178 
Q 3572 1766 3864 2108 
Q 4156 2450 4653 2450 
z
M 1428 4353 
Q 1159 4353 1004 4120 
Q 850 3888 850 3481 
Q 850 3069 1003 2837 
Q 1156 2606 1428 2606 
Q 1700 2606 1854 2837 
Q 2009 3069 2009 3481 
Q 2009 3884 1853 4118 
Q 1697 4353 1428 4353 
z
M 4250 4750 
L 4750 4750 
L 1831 -91 
L 1331 -91 
L 4250 4750 
z
M 1428 4750 
Q 1922 4750 2215 4408 
Q 2509 4066 2509 3481 
Q 2509 2891 2217 2550 
Q 1925 2209 1428 2209 
Q 931 2209 642 2551 
Q 353 2894 353 3481 
Q 353 4063 643 4406 
Q 934 4750 1428 4750 
z
" transform="scale(0.015625)"/>
      </defs>
      <use xlink:href="#DejaVuSans-50"/>
      <use xlink:href="#DejaVuSans-79" x="60.302734"/>
      <use xlink:href="#DejaVuSans-74" x="119.482422"/>
      <use xlink:href="#DejaVuSans-68" x="158.691406"/>
      <use xlink:href="#DejaVuSans-6f" x="222.070312"/>
      <use xlink:href="#DejaVuSans-6e" x="283.251953"/>
      <use xlink:href="#DejaVuSans-20" x="346.630859"/>
      <use xlink:href="#DejaVuSans-33" x="378.417969"/>
      <use xlink:href="#DejaVuSans-37" x="442.041016"/>
      <use xlink:href="#DejaVuSans-2e" x="505.664062"/>
      <use xlink:href="#DejaVuSans-30" x="537.451172"/>
      <use xlink:href="#DejaVuSans-25" x="601.074219"/>
     </g>
    </g>
    <g id="patch_7">
     <path d="M 197.347292 201.8075 
L 213.347292 201.8075 
L 213.347292 196.2075 
L 197.347292 196.2075 
z
" style="fill: #555555"/>
    </g>
    <g id="text_2">
     <!-- C 53.3% -->
     <g transform="translate(219.747292 201.8075) scale(0.08 -0.08)">
      <defs>
       <path id="DejaVuSans-43" d="M 4122 4306 
L 4122 3641 
Q 3803 3938 3442 4084 
Q 3081 4231 2675 4231 
Q 1875 4231 1450 3742 
Q 1025 3253 1025 2328 
Q 1025 1406 1450 917 
Q 1875 428 2675 428 
Q 3081 428 3442 575 
Q 3803 722 4122 1019 
L 4122 359 
Q 3791 134 3420 21 
Q 3050 -91 2638 -91 
Q 1578 -91 968 557 
Q 359 1206 359 2328 
Q 359 3453 968 4101 
Q 1578 4750 2638 4750 
Q 3056 4750 3426 4639 
Q 3797 4528 4122 4306 
z
" transform="scale(0.015625)"/>
       <path id="DejaVuSans-35" d="M 691 4666 
L 3169 4666 
L 3169 4134 
L 1269 4134 
L 1269 2991 
Q 1406 3038 1543 3061 
Q 1681 3084 1819 3084 
Q 2600 3084 3056 2656 
Q 3513 2228 3513 1497 
Q 3513 744 3044 326 
Q 2575 -91 1722 -91 
Q 1428 -91 1123 -41 
Q 819 9 494 109 
L 494 744 
Q 775 591 1075 516 
Q 1375 441 1709 441 
Q 2250 441 2565 725 
Q 2881 1009 2881 1497 
Q 2881 1984 2565 2268 
Q 2250 2553 1709 2553 
Q 1456 2553 1204 2497 
Q 953 2441 691 2322 
L 691 4666 
z
" transform="scale(0.015625)"/>
      </defs>
      <use xlink:href="#DejaVuSans-43"/>
      <use xlink:href="#DejaVuSans-20" x="69.824219"/>
      <use xlink:href="#DejaVuSans-35" x="101.611328"/>
      <use xlink:href="#DejaVuSans-33" x="165.234375"/>
      <use xlink:href="#DejaVuSans-2e" x="228.857422"/>
      <use xlink:href="#DejaVuSans-33" x="260.644531"/>
      <use xlink:href="#DejaVuSans-25" x="324.267578"/>
     </g>
    </g>
    <g id="patch_8">
     <path d="M 269.289792 201.8075 
L 285.289792 201.8075 
L 285.289792 196.2075 
L 269.289792 196.2075 
z
" style="fill: #89e051"/>
    </g>
    <g id="text_3">
     <!-- Shell 9.7% -->
     <g transform="translate(291.689792 201.8075) scale(0.08 -0.08)">
      <defs>
       <path id="DejaVuSans-53" d="M 3425 4513 
L 3425 3897 
Q 3066 4069 2747 4153 
Q 2428 4238 2131 4238 
Q 1616 4238 1336 4038 
Q 1056 3838 1056 3469 
Q 1056 3159 1242 3001 
Q 1428 2844 1947 2747 
L 2328 2669 
Q 3034 2534 3370 2195 
Q 3706 1856 3706 1288 
Q 3706 609 3251 259 
Q 2797 -91 1919 -91 
Q 1588 -91 1214 -16 
Q 841 59 441 206 
L 441 856 
Q 825 641 1194 531 
Q 1563 422 1919 422 
Q 2459 422 2753 634 
Q 3047 847 3047 1241 
Q 3047 1584 2836 1778 
Q 2625 1972 2144 2069 
L 1759 2144 
Q 1053 2284 737 2584 
Q 422 2884 422 3419 
Q 422 4038 858 4394 
Q 1294 4750 2059 4750 
Q 2388 4750 2728 4690 
Q 3069 4631 3425 4513 
z
" transform="scale(0.015625)"/>
       <path id="DejaVuSans-65" d="M 3597 1894 
L 3597 1613 
L 953 1613 
Q 991 1019 1311 708 
Q 1631 397 2203 397 
Q 2534 397 2845 478 
Q 3156 559 3463 722 
L 3463 178 
Q 3153 47 2828 -22 
Q 2503 -91 2169 -91 
Q 1331 -91 842 396 
Q 353 884 353 1716 
Q 353 2575 817 3079 
Q 1281 3584 2069 3584 
Q 2775 3584 3186 3129 
Q 3597 2675 3597 1894 
z
M 3022 2063 
Q 3016 2534 2758 2815 
Q 2500 3097 2075 3097 
Q 1594 3097 1305 2825 
Q 1016 2553 972 2059 
L 3022 2063 
z
" transform="scale(0.015625)"/>
       <path id="DejaVuSans-6c" d="M 603 4863 
L 1178 4863 
L 1178 0 
L 603 0 
L 603 4863 
z
" transform="scale(0.015625)"/>
       <path id="DejaVuSans-39" d="M 703 97 
L 703 672 
Q 941 559 1184 500 
Q 1428 441 1663 441 
Q 2288 441 2617 861 
Q 2947 1281 2994 2138 
Q 2813 1869 2534 1725 
Q 2256 1581 1919 1581 
Q 1219 1581 811 2004 
Q 403 2428 403 3163 
Q 403 3881 828 4315 
Q 1253 4750 1959 4750 
Q 2769 4750 3195 4129 
Q 3622 3509 3622 2328 
Q 3622 1225 3098 567 
Q 2575 -91 1691 -91 
Q 1453 -91 1209 -44 
Q 966 3 703 97 
z
M 1959 2075 
Q 2384 2075 2632 2365 
Q 2881 2656 2881 3163 
Q 2881 3666 2632 3958 
Q 2384 4250 1959 4250 
Q 1534 4250 1286 3958 
Q 1038 3666 1038 3163 
Q 1038 2656 1286 2365 
Q 1534 2075 1959 2075 
z
" transform="scale(0.015625)"/>
      </defs>
      <use xlink:href="#DejaVuSans-53"/>
      <use xlink:href="#DejaVuSans-68" x="63.476562"/>
      <use xlink:href="#DejaVuSans-65" x="126.855469"/>
      <use xlink:href="#DejaVuSans-6c" x="188.378906"/>
      <use xlink:href="#DejaVuSans-6c" x="216.162109"/>
      <use xlink:href="#DejaVuSans-20" x="243.945312"/>
      <use xlink:href="#DejaVuSans-39" x="275.732422"/>
      <use xlink:href="#DejaVuSans-2e" x="339.355469"/>
      <use xlink:href="#DejaVuSans-37" x="371.142578"/>
      <use xlink:href="#DejaVuSans-25" x="434.765625"/>
     </g>
    </g>
   </g>
  </g>
 </g>
 <defs>
  <clipPath id="p0f44d6f2d2">
   <path d="M 288.666667 98.8 
C 288.666667 89.607684 286.855981 80.504752 283.338234 72.01216 
C 279.820487 63.519567 274.66409 55.802474 268.164141 49.302525 
C 261.664193 42.802576 253.947099 37.64618 245.454507 34.128433 
C 236.961915 30.610686 227.858982 28.8 218.666667 28.8 
C 209.474351 28.8 200.371419 30.610686 191.878826 34.128433 
C 183.386234 37.64618 175.669141 42.802576 169.169192 49.302525 
C 162.669243 55.802474 157.512846 63.519567 153.995099 72.01216 
C 150.477352 80.504752 148.666667 89.607684 148.666667 98.8 
C 148.666667 107.992316 150.477352 117.095248 153.995099 125.58784 
C 157.512846 134.080433 162.669243 141.797526 169.169192 148.297475 
C 175.669141 154.797424 183.386234 159.95382 191.878826 163.471567 
C 200.371419 166.989314 209.474351 168.8 218.666667 168.8 
C 227.858982 168.8 236.961915 166.989314 245.454507 163.471567 
C 253.947099 159.95382 261.664193 154.797424 268.164141 148.297475 
C 274.66409 141.797526 279.820487 134.080433 283.338234 125.58784 
C 286.855981 117.095248 288.666667 107.992316 288.666667 98.8 
M 218.666667 98.8 
C 218.666667 98.8 218.666667 98.8 218.666667 98.8 
C 218.666667 98.8 218.666667 98.8 218.666667 98.8 
C 218.666667 98.8 218.666667 98.8 218.666667 98.8 
C 218.666667 98.8 218.666667 98.8 218.666667 98.8 
C 218.666667 98.8 218.666667 98.8 218.666667 98.8 
C 218.666667 98.8 218.666667 98.8 218.666667 98.8 
C 218.666667 98.8 218.666667 98.8 218.666667 98.8 
C 218.666667 98.8 218.666667 98.8 218.666667 98.8 
C 218.666667 98.8 218.666667 98.8 218.666667 98.8 
C 218.666667 98.8 218.666667 98.8 218.666667 98.8 
C 218.666667 98.8 218.666667 98.8 218.666667 98.8 
C 218.666667 98.8 218.666667 98.8 218.666667 98.8 
C 218.666667 98.8 218.666667 98.8 218.666667 98.8 
C 218.666667 98.8 218.666667 98.8 218.666667 98.8 
C 218.666667 98.8 218.666667 98.8 218.666667 98.8 
C 218.666667 98.8 218.666667 98.8 218.666667 98.8 
z
"/>
  </clipPath>
 </defs>
</svg>
