<?xml version="1.0" encoding="utf-8" standalone="no"?>
<!DOCTYPE svg PUBLIC "-//W3C//DTD SVG 1.1//EN"
  "http://www.w3.org/Graphics/SVG/1.1/DTD/svg11.dtd">
<svg xmlns:xlink="http://www.w3.org/1999/xlink" width="400pt" height="225pt" viewBox="0 0 400 225" xmlns="http://www.w3.org/2000/svg" version="1.1">
 <metadata>
  <rdf:RDF xmlns:dc="http://purl.org/dc/elements/1.1/" xmlns:cc="http://creativecommons.org/ns#" xmlns:rdf="http://www.w3.org/1999/02/22-rdf-syntax-ns#">
   <cc:Work>
    <dc:type rdf:resource="http://purl.org/dc/dcmitype/StillImage"/>
    <dc:date>2024-12-08T04:52:07.666693</dc:date>
    <dc:format>image/svg+xml</dc:format>
    <dc:creator>
     <cc:Agent>
      <dc:title>Matplotlib v3.9.3, https://matplotlib.org/</dc:title>
     </cc:Agent>
    </dc:creator>
   </cc:Work>
  </rdf:RDF>
 </metadata>
 <defs>
  <style type="text/css">*{stroke-linejoin: round; stroke-linecap: butt}</style>
 </defs>
 <g id="figure_1">
  <g id="patch_1">
   <path d="M 0 225 
L 400 225 
L 400 0 
L 0 0 
L 0 225 
z
" style="fill: none"/>
  </g>
  <g id="axes_1">
   <g id="patch_2">
    <path d="M 264.741379 113.625 
C 264.741379 105.779834 263.196053 98.010952 260.193838 90.762964 
C 257.191623 83.514976 252.790905 76.928836 247.243534 71.381466 
C 241.696164 65.834095 235.110024 61.433377 227.862036 58.431162 
C 220.614048 55.428947 212.845166 53.883621 205 53.883621 
C 197.154834 53.883621 189.385952 55.428947 182.137964 58.431162 
C 174.889976 61.433377 168.303836 65.834095 162.756466 71.381466 
C 157.209095 76.928836 152.808377 83.514976 149.806162 90.762964 
C 146.803947 98.010952 145.258621 105.779834 145.258621 113.625 
C 145.258621 121.470166 146.803947 129.239048 149.806162 136.487036 
C 152.808377 143.735024 157.209095 150.321164 162.756466 155.868534 
C 168.303836 161.415905 174.889976 165.816623 182.137964 168.818838 
C 189.385952 171.821053 197.154834 173.366379 205 173.366379 
C 212.845166 173.366379 220.614048 171.821053 227.862036 168.818838 
C 235.110024 165.816623 241.696164 161.415905 247.243534 155.868534 
C 252.790905 150.321164 257.191623 143.735024 260.193838 136.487036 
C 263.196053 129.239048 264.741379 121.470166 264.741379 113.625 
L 290.344828 113.625 
C 290.344828 124.83238 288.137218 135.930782 283.848339 146.285052 
C 279.559461 156.639321 273.272721 166.048092 265.347906 173.972906 
C 257.423092 181.897721 248.014321 188.184461 237.660052 192.473339 
C 227.305782 196.762218 216.20738 198.969828 205 198.969828 
C 193.79262 198.969828 182.694218 196.762218 172.339948 192.473339 
C 161.985679 188.184461 152.576908 181.897721 144.652094 173.972906 
C 136.727279 166.048092 130.440539 156.639321 126.151661 146.285052 
C 121.862782 135.930782 119.655172 124.83238 119.655172 113.625 
C 119.655172 102.41762 121.862782 91.319218 126.151661 80.964948 
C 130.440539 70.610679 136.727279 61.201908 144.652094 53.277094 
C 152.576908 45.352279 161.985679 39.065539 172.339948 34.776661 
C 182.694218 30.487782 193.79262 28.280172 205 28.280172 
C 216.20738 28.280172 227.305782 30.487782 237.660052 34.776661 
C 248.014321 39.065539 257.423092 45.352279 265.347906 53.277094 
C 273.272721 61.201908 279.559461 70.610679 283.848339 80.964948 
C 288.137218 91.319218 290.344828 102.41762 290.344828 113.625 
z
" clip-path="url(#pcba4c79b55)" style="fill: #dea584"/>
   </g>
   <g id="text_1">
    <!-- Rust (100.0%) -->
    <g style="opacity: 0.5" transform="translate(71.210926 116.85377) scale(0.1 -0.1)">
     <defs>
      <path id="DejaVuSans-Bold-52" d="M 2297 2597 
Q 2675 2597 2839 2737 
Q 3003 2878 3003 3200 
Q 3003 3519 2839 3656 
Q 2675 3794 2297 3794 
L 1791 3794 
L 1791 2597 
L 2297 2597 
z
M 1791 1766 
L 1791 0 
L 588 0 
L 588 4666 
L 2425 4666 
Q 3347 4666 3776 4356 
Q 4206 4047 4206 3378 
Q 4206 2916 3982 2619 
Q 3759 2322 3309 2181 
Q 3556 2125 3751 1926 
Q 3947 1728 4147 1325 
L 4800 0 
L 3519 0 
L 2950 1159 
Q 2778 1509 2601 1637 
Q 2425 1766 2131 1766 
L 1791 1766 
z
" transform="scale(0.015625)"/>
      <path id="DejaVuSans-Bold-75" d="M 500 1363 
L 500 3500 
L 1625 3500 
L 1625 3150 
Q 1625 2866 1622 2436 
Q 1619 2006 1619 1863 
Q 1619 1441 1641 1255 
Q 1663 1069 1716 984 
Q 1784 875 1895 815 
Q 2006 756 2150 756 
Q 2500 756 2700 1025 
Q 2900 1294 2900 1772 
L 2900 3500 
L 4019 3500 
L 4019 0 
L 2900 0 
L 2900 506 
Q 2647 200 2364 54 
Q 2081 -91 1741 -91 
Q 1134 -91 817 281 
Q 500 653 500 1363 
z
" transform="scale(0.015625)"/>
      <path id="DejaVuSans-Bold-73" d="M 3272 3391 
L 3272 2541 
Q 2913 2691 2578 2766 
Q 2244 2841 1947 2841 
Q 1628 2841 1473 2761 
Q 1319 2681 1319 2516 
Q 1319 2381 1436 2309 
Q 1553 2238 1856 2203 
L 2053 2175 
Q 2913 2066 3209 1816 
Q 3506 1566 3506 1031 
Q 3506 472 3093 190 
Q 2681 -91 1863 -91 
Q 1516 -91 1145 -36 
Q 775 19 384 128 
L 384 978 
Q 719 816 1070 734 
Q 1422 653 1784 653 
Q 2113 653 2278 743 
Q 2444 834 2444 1013 
Q 2444 1163 2330 1236 
Q 2216 1309 1875 1350 
L 1678 1375 
Q 931 1469 631 1722 
Q 331 1975 331 2491 
Q 331 3047 712 3315 
Q 1094 3584 1881 3584 
Q 2191 3584 2531 3537 
Q 2872 3491 3272 3391 
z
" transform="scale(0.015625)"/>
      <path id="DejaVuSans-Bold-74" d="M 1759 4494 
L 1759 3500 
L 2913 3500 
L 2913 2700 
L 1759 2700 
L 1759 1216 
Q 1759 972 1856 886 
Q 1953 800 2241 800 
L 2816 800 
L 2816 0 
L 1856 0 
Q 1194 0 917 276 
Q 641 553 641 1216 
L 641 2700 
L 84 2700 
L 84 3500 
L 641 3500 
L 641 4494 
L 1759 4494 
z
" transform="scale(0.015625)"/>
      <path id="DejaVuSans-Bold-20" transform="scale(0.015625)"/>
      <path id="DejaVuSans-Bold-28" d="M 2413 -844 
L 1484 -844 
Q 1006 -72 778 623 
Q 550 1319 550 2003 
Q 550 2688 779 3389 
Q 1009 4091 1484 4856 
L 2413 4856 
Q 2013 4116 1813 3408 
Q 1613 2700 1613 2009 
Q 1613 1319 1811 609 
Q 2009 -100 2413 -844 
z
" transform="scale(0.015625)"/>
      <path id="DejaVuSans-Bold-31" d="M 750 831 
L 1813 831 
L 1813 3847 
L 722 3622 
L 722 4441 
L 1806 4666 
L 2950 4666 
L 2950 831 
L 4013 831 
L 4013 0 
L 750 0 
L 750 831 
z
" transform="scale(0.015625)"/>
      <path id="DejaVuSans-Bold-30" d="M 2944 2338 
Q 2944 3213 2780 3570 
Q 2616 3928 2228 3928 
Q 1841 3928 1675 3570 
Q 1509 3213 1509 2338 
Q 1509 1453 1675 1090 
Q 1841 728 2228 728 
Q 2613 728 2778 1090 
Q 2944 1453 2944 2338 
z
M 4147 2328 
Q 4147 1169 3647 539 
Q 3147 -91 2228 -91 
Q 1306 -91 806 539 
Q 306 1169 306 2328 
Q 306 3491 806 4120 
Q 1306 4750 2228 4750 
Q 3147 4750 3647 4120 
Q 4147 3491 4147 2328 
z
" transform="scale(0.015625)"/>
      <path id="DejaVuSans-Bold-2e" d="M 653 1209 
L 1778 1209 
L 1778 0 
L 653 0 
L 653 1209 
z
" transform="scale(0.015625)"/>
      <path id="DejaVuSans-Bold-25" d="M 4959 1925 
Q 4738 1925 4616 1733 
Q 4494 1541 4494 1184 
Q 4494 825 4614 633 
Q 4734 441 4959 441 
Q 5184 441 5303 633 
Q 5422 825 5422 1184 
Q 5422 1541 5301 1733 
Q 5181 1925 4959 1925 
z
M 4959 2450 
Q 5541 2450 5875 2112 
Q 6209 1775 6209 1184 
Q 6209 594 5875 251 
Q 5541 -91 4959 -91 
Q 4378 -91 4042 251 
Q 3706 594 3706 1184 
Q 3706 1772 4042 2111 
Q 4378 2450 4959 2450 
z
M 2094 -91 
L 1403 -91 
L 4319 4750 
L 5013 4750 
L 2094 -91 
z
M 1453 4750 
Q 2034 4750 2367 4411 
Q 2700 4072 2700 3481 
Q 2700 2891 2367 2550 
Q 2034 2209 1453 2209 
Q 872 2209 539 2550 
Q 206 2891 206 3481 
Q 206 4072 539 4411 
Q 872 4750 1453 4750 
z
M 1453 4225 
Q 1228 4225 1106 4031 
Q 984 3838 984 3481 
Q 984 3122 1106 2926 
Q 1228 2731 1453 2731 
Q 1678 2731 1798 2926 
Q 1919 3122 1919 3481 
Q 1919 3838 1797 4031 
Q 1675 4225 1453 4225 
z
" transform="scale(0.015625)"/>
      <path id="DejaVuSans-Bold-29" d="M 513 -844 
Q 913 -100 1113 609 
Q 1313 1319 1313 2009 
Q 1313 2700 1113 3408 
Q 913 4116 513 4856 
L 1441 4856 
Q 1916 4091 2145 3389 
Q 2375 2688 2375 2003 
Q 2375 1319 2147 623 
Q 1919 -72 1441 -844 
L 513 -844 
z
" transform="scale(0.015625)"/>
     </defs>
     <use xlink:href="#DejaVuSans-Bold-52"/>
     <use xlink:href="#DejaVuSans-Bold-75" x="77.001953"/>
     <use xlink:href="#DejaVuSans-Bold-73" x="148.193359"/>
     <use xlink:href="#DejaVuSans-Bold-74" x="207.714844"/>
     <use xlink:href="#DejaVuSans-Bold-20" x="255.517578"/>
     <use xlink:href="#DejaVuSans-Bold-28" x="290.332031"/>
     <use xlink:href="#DejaVuSans-Bold-31" x="336.035156"/>
     <use xlink:href="#DejaVuSans-Bold-30" x="405.615234"/>
     <use xlink:href="#DejaVuSans-Bold-30" x="475.195312"/>
     <use xlink:href="#DejaVuSans-Bold-2e" x="544.775391"/>
     <use xlink:href="#DejaVuSans-Bold-30" x="582.763672"/>
     <use xlink:href="#DejaVuSans-Bold-25" x="652.34375"/>
     <use xlink:href="#DejaVuSans-Bold-29" x="752.539062"/>
    </g>
   </g>
   <g id="text_2">
    <!-- Rust (100.0%) -->
    <g style="fill: #ffffff" transform="translate(71.209752 116.384375) scale(0.1 -0.1)">
     <use xlink:href="#DejaVuSans-Bold-52"/>
     <use xlink:href="#DejaVuSans-Bold-75" x="77.001953"/>
     <use xlink:href="#DejaVuSans-Bold-73" x="148.193359"/>
     <use xlink:href="#DejaVuSans-Bold-74" x="207.714844"/>
     <use xlink:href="#DejaVuSans-Bold-20" x="255.517578"/>
     <use xlink:href="#DejaVuSans-Bold-28" x="290.332031"/>
     <use xlink:href="#DejaVuSans-Bold-31" x="336.035156"/>
     <use xlink:href="#DejaVuSans-Bold-30" x="405.615234"/>
     <use xlink:href="#DejaVuSans-Bold-30" x="475.195312"/>
     <use xlink:href="#DejaVuSans-Bold-2e" x="544.775391"/>
     <use xlink:href="#DejaVuSans-Bold-30" x="582.763672"/>
     <use xlink:href="#DejaVuSans-Bold-25" x="652.34375"/>
     <use xlink:href="#DejaVuSans-Bold-29" x="752.539062"/>
    </g>
   </g>
  </g>
 </g>
 <defs>
  <clipPath id="pcba4c79b55">
   <path d="M 291.625 113.625 
C 291.625 102.249509 289.384276 90.984631 285.031065 80.475048 
C 280.677853 69.965465 274.296812 60.415562 266.253125 52.371875 
C 258.209438 44.328188 248.659535 37.947147 238.149952 33.593935 
C 227.640369 29.240724 216.375491 27 205 27 
C 193.624509 27 182.359631 29.240724 171.850048 33.593935 
C 161.340465 37.947147 151.790562 44.328188 143.746875 52.371875 
C 135.703188 60.415562 129.322147 69.965465 124.968935 80.475048 
C 120.615724 90.984631 118.375 102.249509 118.375 113.625 
C 118.375 125.000491 120.615724 136.265369 124.968935 146.774952 
C 129.322147 157.284535 135.703188 166.834438 143.746875 174.878125 
C 151.790562 182.921812 161.340465 189.302853 171.850048 193.656065 
C 182.359631 198.009276 193.624509 200.25 205 200.25 
C 216.375491 200.25 227.640369 198.009276 238.149952 193.656065 
C 248.659535 189.302853 258.209438 182.921812 266.253125 174.878125 
C 274.296812 166.834438 280.677853 157.284535 285.031065 146.774952 
C 289.384276 136.265369 291.625 125.000491 291.625 113.625 
M 205 113.625 
C 205 113.625 205 113.625 205 113.625 
C 205 113.625 205 113.625 205 113.625 
C 205 113.625 205 113.625 205 113.625 
C 205 113.625 205 113.625 205 113.625 
C 205 113.625 205 113.625 205 113.625 
C 205 113.625 205 113.625 205 113.625 
C 205 113.625 205 113.625 205 113.625 
C 205 113.625 205 113.625 205 113.625 
C 205 113.625 205 113.625 205 113.625 
C 205 113.625 205 113.625 205 113.625 
C 205 113.625 205 113.625 205 113.625 
C 205 113.625 205 113.625 205 113.625 
C 205 113.625 205 113.625 205 113.625 
C 205 113.625 205 113.625 205 113.625 
C 205 113.625 205 113.625 205 113.625 
C 205 113.625 205 113.625 205 113.625 
z
"/>
  </clipPath>
 </defs>
</svg>
