<?xml version="1.0" encoding="utf-8" standalone="no"?>
<!DOCTYPE svg PUBLIC "-//W3C//DTD SVG 1.1//EN"
  "http://www.w3.org/Graphics/SVG/1.1/DTD/svg11.dtd">
<svg xmlns:xlink="http://www.w3.org/1999/xlink" width="480pt" height="240pt" viewBox="0 0 480 240" xmlns="http://www.w3.org/2000/svg" version="1.1">
 <metadata>
  <rdf:RDF xmlns:dc="http://purl.org/dc/elements/1.1/" xmlns:cc="http://creativecommons.org/ns#" xmlns:rdf="http://www.w3.org/1999/02/22-rdf-syntax-ns#">
   <cc:Work>
    <dc:type rdf:resource="http://purl.org/dc/dcmitype/StillImage"/>
    <dc:date>2025-01-02T00:49:10.030099</dc:date>
    <dc:format>image/svg+xml</dc:format>
    <dc:creator>
     <cc:Agent>
      <dc:title>Matplotlib v3.9.3, https://matplotlib.org/</dc:title>
     </cc:Agent>
    </dc:creator>
   </cc:Work>
  </rdf:RDF>
 </metadata>
 <defs>
  <style type="text/css">*{stroke-linejoin: round; stroke-linecap: butt}</style>
 </defs>
 <g id="figure_1">
  <g id="patch_1">
   <path d="M 0 240 
L 480 240 
L 480 0 
L 0 0 
L 0 240 
z
" style="fill: none"/>
  </g>
  <g id="axes_1">
   <g id="patch_2">
    <path d="M 294.275862 98.8 
C 294.275862 92.460472 293.027113 86.182588 290.601081 80.325627 
C 288.175048 74.468667 284.618913 69.146534 280.136189 64.663811 
C 275.653466 60.181087 270.331333 56.624952 264.474373 54.198919 
C 258.617412 51.772887 252.339528 50.524138 246 50.524138 
C 239.660472 50.524138 233.382588 51.772887 227.525627 54.198919 
C 221.668667 56.624952 216.346534 60.181087 211.863811 64.663811 
C 207.381087 69.146534 203.824952 74.468667 201.398919 80.325627 
C 198.972887 86.182588 197.724138 92.460472 197.724138 98.8 
C 197.724138 105.139528 198.972887 111.417412 201.398919 117.274373 
C 203.824952 123.131333 207.381087 128.453466 211.863811 132.936189 
C 216.346534 137.418913 221.668667 140.975048 227.525627 143.401081 
C 233.382588 145.827113 239.660472 147.075862 246 147.075862 
C 252.339528 147.075862 258.617412 145.827113 264.474373 143.401081 
C 270.331333 140.975048 275.653466 137.418913 280.136189 132.936189 
C 284.618913 128.453466 288.175048 123.131333 290.601081 117.274373 
C 293.027113 111.417412 294.275862 105.139528 294.275862 98.8 
L 314.965517 98.8 
C 314.965517 107.856469 313.18159 116.824875 309.71583 125.191961 
C 306.250069 133.559047 301.169875 141.162094 294.765985 147.565985 
C 288.362094 153.969875 280.759047 159.050069 272.391961 162.51583 
C 264.024875 165.98159 255.056469 167.765517 246 167.765517 
C 236.943531 167.765517 227.975125 165.98159 219.608039 162.51583 
C 211.240953 159.050069 203.637906 153.969875 197.234015 147.565985 
C 190.830125 141.162094 185.749931 133.559047 182.28417 125.191961 
C 178.81841 116.824875 177.034483 107.856469 177.034483 98.8 
C 177.034483 89.743531 178.81841 80.775125 182.28417 72.408039 
C 185.749931 64.040953 190.830125 56.437906 197.234015 50.034015 
C 203.637906 43.630125 211.240953 38.549931 219.608039 35.08417 
C 227.975125 31.61841 236.943531 29.834483 246 29.834483 
C 255.056469 29.834483 264.024875 31.61841 272.391961 35.08417 
C 280.759047 38.549931 288.362094 43.630125 294.765985 50.034015 
C 301.169875 56.437906 306.250069 64.040953 309.71583 72.408039 
C 313.18159 80.775125 314.965517 89.743531 314.965517 98.8 
z
" clip-path="url(#pb9590d94d4)" style="fill: #dea584"/>
   </g>
  </g>
  <g id="axes_2">
   <g id="legend_1">
    <g id="patch_3">
     <path d="M 207.890625 206.67125 
L 284.109375 206.67125 
Q 285.709375 206.67125 285.709375 205.07125 
L 285.709375 194.12875 
Q 285.709375 192.52875 284.109375 192.52875 
L 207.890625 192.52875 
Q 206.290625 192.52875 206.290625 194.12875 
L 206.290625 205.07125 
Q 206.290625 206.67125 207.890625 206.67125 
z
" style="fill: #ffffff; opacity: 0.8; stroke: #cccccc; stroke-linejoin: miter"/>
    </g>
    <g id="patch_4">
     <path d="M 209.490625 201.8075 
L 225.490625 201.8075 
L 225.490625 196.2075 
L 209.490625 196.2075 
z
" style="fill: #dea584"/>
    </g>
    <g id="text_1">
     <!-- Rust 100.0% -->
     <g transform="translate(231.890625 201.8075) scale(0.08 -0.08)">
      <defs>
       <path id="DejaVuSans-52" d="M 2841 2188 
Q 3044 2119 3236 1894 
Q 3428 1669 3622 1275 
L 4263 0 
L 3584 0 
L 2988 1197 
Q 2756 1666 2539 1819 
Q 2322 1972 1947 1972 
L 1259 1972 
L 1259 0 
L 628 0 
L 628 4666 
L 2053 4666 
Q 2853 4666 3247 4331 
Q 3641 3997 3641 3322 
Q 3641 2881 3436 2590 
Q 3231 2300 2841 2188 
z
M 1259 4147 
L 1259 2491 
L 2053 2491 
Q 2509 2491 2742 2702 
Q 2975 2913 2975 3322 
Q 2975 3731 2742 3939 
Q 2509 4147 2053 4147 
L 1259 4147 
z
" transform="scale(0.015625)"/>
       <path id="DejaVuSans-75" d="M 544 1381 
L 544 3500 
L 1119 3500 
L 1119 1403 
Q 1119 906 1312 657 
Q 1506 409 1894 409 
Q 2359 409 2629 706 
Q 2900 1003 2900 1516 
L 2900 3500 
L 3475 3500 
L 3475 0 
L 2900 0 
L 2900 538 
Q 2691 219 2414 64 
Q 2138 -91 1772 -91 
Q 1169 -91 856 284 
Q 544 659 544 1381 
z
M 1991 3584 
L 1991 3584 
z
" transform="scale(0.015625)"/>
       <path id="DejaVuSans-73" d="M 2834 3397 
L 2834 2853 
Q 2591 2978 2328 3040 
Q 2066 3103 1784 3103 
Q 1356 3103 1142 2972 
Q 928 2841 928 2578 
Q 928 2378 1081 2264 
Q 1234 2150 1697 2047 
L 1894 2003 
Q 2506 1872 2764 1633 
Q 3022 1394 3022 966 
Q 3022 478 2636 193 
Q 2250 -91 1575 -91 
Q 1294 -91 989 -36 
Q 684 19 347 128 
L 347 722 
Q 666 556 975 473 
Q 1284 391 1588 391 
Q 1994 391 2212 530 
Q 2431 669 2431 922 
Q 2431 1156 2273 1281 
Q 2116 1406 1581 1522 
L 1381 1569 
Q 847 1681 609 1914 
Q 372 2147 372 2553 
Q 372 3047 722 3315 
Q 1072 3584 1716 3584 
Q 2034 3584 2315 3537 
Q 2597 3491 2834 3397 
z
" transform="scale(0.015625)"/>
       <path id="DejaVuSans-74" d="M 1172 4494 
L 1172 3500 
L 2356 3500 
L 2356 3053 
L 1172 3053 
L 1172 1153 
Q 1172 725 1289 603 
Q 1406 481 1766 481 
L 2356 481 
L 2356 0 
L 1766 0 
Q 1100 0 847 248 
Q 594 497 594 1153 
L 594 3053 
L 172 3053 
L 172 3500 
L 594 3500 
L 594 4494 
L 1172 4494 
z
" transform="scale(0.015625)"/>
       <path id="DejaVuSans-20" transform="scale(0.015625)"/>
       <path id="DejaVuSans-31" d="M 794 531 
L 1825 531 
L 1825 4091 
L 703 3866 
L 703 4441 
L 1819 4666 
L 2450 4666 
L 2450 531 
L 3481 531 
L 3481 0 
L 794 0 
L 794 531 
z
" transform="scale(0.015625)"/>
       <path id="DejaVuSans-30" d="M 2034 4250 
Q 1547 4250 1301 3770 
Q 1056 3291 1056 2328 
Q 1056 1369 1301 889 
Q 1547 409 2034 409 
Q 2525 409 2770 889 
Q 3016 1369 3016 2328 
Q 3016 3291 2770 3770 
Q 2525 4250 2034 4250 
z
M 2034 4750 
Q 2819 4750 3233 4129 
Q 3647 3509 3647 2328 
Q 3647 1150 3233 529 
Q 2819 -91 2034 -91 
Q 1250 -91 836 529 
Q 422 1150 422 2328 
Q 422 3509 836 4129 
Q 1250 4750 2034 4750 
z
" transform="scale(0.015625)"/>
       <path id="DejaVuSans-2e" d="M 684 794 
L 1344 794 
L 1344 0 
L 684 0 
L 684 794 
z
" transform="scale(0.015625)"/>
       <path id="DejaVuSans-25" d="M 4653 2053 
Q 4381 2053 4226 1822 
Q 4072 1591 4072 1178 
Q 4072 772 4226 539 
Q 4381 306 4653 306 
Q 4919 306 5073 539 
Q 5228 772 5228 1178 
Q 5228 1588 5073 1820 
Q 4919 2053 4653 2053 
z
M 4653 2450 
Q 5147 2450 5437 2106 
Q 5728 1763 5728 1178 
Q 5728 594 5436 251 
Q 5144 -91 4653 -91 
Q 4153 -91 3862 251 
Q 3572 594 3572 1178 
Q 3572 1766 3864 2108 
Q 4156 2450 4653 2450 
z
M 1428 4353 
Q 1159 4353 1004 4120 
Q 850 3888 850 3481 
Q 850 3069 1003 2837 
Q 1156 2606 1428 2606 
Q 1700 2606 1854 2837 
Q 2009 3069 2009 3481 
Q 2009 3884 1853 4118 
Q 1697 4353 1428 4353 
z
M 4250 4750 
L 4750 4750 
L 1831 -91 
L 1331 -91 
L 4250 4750 
z
M 1428 4750 
Q 1922 4750 2215 4408 
Q 2509 4066 2509 3481 
Q 2509 2891 2217 2550 
Q 1925 2209 1428 2209 
Q 931 2209 642 2551 
Q 353 2894 353 3481 
Q 353 4063 643 4406 
Q 934 4750 1428 4750 
z
" transform="scale(0.015625)"/>
      </defs>
      <use xlink:href="#DejaVuSans-52"/>
      <use xlink:href="#DejaVuSans-75" x="64.982422"/>
      <use xlink:href="#DejaVuSans-73" x="128.361328"/>
      <use xlink:href="#DejaVuSans-74" x="180.460938"/>
      <use xlink:href="#DejaVuSans-20" x="219.669922"/>
      <use xlink:href="#DejaVuSans-31" x="251.457031"/>
      <use xlink:href="#DejaVuSans-30" x="315.080078"/>
      <use xlink:href="#DejaVuSans-30" x="378.703125"/>
      <use xlink:href="#DejaVuSans-2e" x="442.326172"/>
      <use xlink:href="#DejaVuSans-30" x="474.113281"/>
      <use xlink:href="#DejaVuSans-25" x="537.736328"/>
     </g>
    </g>
   </g>
  </g>
 </g>
 <defs>
  <clipPath id="pb9590d94d4">
   <path d="M 316 98.8 
C 316 89.607684 314.189314 80.504752 310.671567 72.01216 
C 307.15382 63.519567 301.997424 55.802474 295.497475 49.302525 
C 288.997526 42.802576 281.280433 37.64618 272.78784 34.128433 
C 264.295248 30.610686 255.192316 28.8 246 28.8 
C 236.807684 28.8 227.704752 30.610686 219.21216 34.128433 
C 210.719567 37.64618 203.002474 42.802576 196.502525 49.302525 
C 190.002576 55.802474 184.84618 63.519567 181.328433 72.01216 
C 177.810686 80.504752 176 89.607684 176 98.8 
C 176 107.992316 177.810686 117.095248 181.328433 125.58784 
C 184.84618 134.080433 190.002576 141.797526 196.502525 148.297475 
C 203.002474 154.797424 210.719567 159.95382 219.21216 163.471567 
C 227.704752 166.989314 236.807684 168.8 246 168.8 
C 255.192316 168.8 264.295248 166.989314 272.78784 163.471567 
C 281.280433 159.95382 288.997526 154.797424 295.497475 148.297475 
C 301.997424 141.797526 307.15382 134.080433 310.671567 125.58784 
C 314.189314 117.095248 316 107.992316 316 98.8 
M 246 98.8 
C 246 98.8 246 98.8 246 98.8 
C 246 98.8 246 98.8 246 98.8 
C 246 98.8 246 98.8 246 98.8 
C 246 98.8 246 98.8 246 98.8 
C 246 98.8 246 98.8 246 98.8 
C 246 98.8 246 98.8 246 98.8 
C 246 98.8 246 98.8 246 98.8 
C 246 98.8 246 98.8 246 98.8 
C 246 98.8 246 98.8 246 98.8 
C 246 98.8 246 98.8 246 98.8 
C 246 98.8 246 98.8 246 98.8 
C 246 98.8 246 98.8 246 98.8 
C 246 98.8 246 98.8 246 98.8 
C 246 98.8 246 98.8 246 98.8 
C 246 98.8 246 98.8 246 98.8 
C 246 98.8 246 98.8 246 98.8 
z
"/>
  </clipPath>
 </defs>
</svg>
