<?xml version="1.0" encoding="utf-8" standalone="no"?>
<!DOCTYPE svg PUBLIC "-//W3C//DTD SVG 1.1//EN"
  "http://www.w3.org/Graphics/SVG/1.1/DTD/svg11.dtd">
<svg xmlns:xlink="http://www.w3.org/1999/xlink" width="426.666667pt" height="240pt" viewBox="0 0 426.666667 240" xmlns="http://www.w3.org/2000/svg" version="1.1">
 <metadata>
  <rdf:RDF xmlns:dc="http://purl.org/dc/elements/1.1/" xmlns:cc="http://creativecommons.org/ns#" xmlns:rdf="http://www.w3.org/1999/02/22-rdf-syntax-ns#">
   <cc:Work>
    <dc:type rdf:resource="http://purl.org/dc/dcmitype/StillImage"/>
    <dc:date>2024-12-26T16:09:23.274822</dc:date>
    <dc:format>image/svg+xml</dc:format>
    <dc:creator>
     <cc:Agent>
      <dc:title>Matplotlib v3.9.3, https://matplotlib.org/</dc:title>
     </cc:Agent>
    </dc:creator>
   </cc:Work>
  </rdf:RDF>
 </metadata>
 <defs>
  <style type="text/css">*{stroke-linejoin: round; stroke-linecap: butt}</style>
 </defs>
 <g id="figure_1">
  <g id="patch_1">
   <path d="M 0 240 
L 426.666667 240 
L 426.666667 0 
L 0 0 
L 0 240 
z
" style="fill: none"/>
  </g>
  <g id="axes_1">
   <g id="patch_2">
    <path d="M 266.942529 98.8 
C 266.942529 92.460472 265.69378 86.182588 263.267748 80.325627 
C 260.841715 74.468667 257.285579 69.146534 252.802856 64.663811 
C 248.320133 60.181087 242.998 56.624952 237.141039 54.198919 
C 231.284079 51.772887 225.006195 50.524138 218.666667 50.524138 
C 212.327139 50.524138 206.049254 51.772887 200.192294 54.198919 
C 194.335334 56.624952 189.013201 60.181087 184.530477 64.663811 
C 180.047754 69.146534 176.491618 74.468667 174.065586 80.325627 
C 171.639553 86.182588 170.390805 92.460472 170.390805 98.8 
C 170.390805 105.139528 171.639553 111.417412 174.065586 117.274373 
C 176.491618 123.131333 180.047754 128.453466 184.530477 132.936189 
C 189.013201 137.418913 194.335334 140.975048 200.192294 143.401081 
C 206.049254 145.827113 212.327139 147.075862 218.666667 147.075862 
C 225.006195 147.075862 231.284079 145.827113 237.141039 143.401081 
C 242.998 140.975048 248.320133 137.418913 252.802856 132.936189 
C 257.285579 128.453466 260.841715 123.131333 263.267748 117.274373 
C 265.69378 111.417412 266.942529 105.139528 266.942529 98.8 
L 287.632184 98.8 
C 287.632184 107.856469 285.848257 116.824875 282.382496 125.191961 
C 278.916736 133.559047 273.836542 141.162094 267.432652 147.565985 
C 261.028761 153.969875 253.425714 159.050069 245.058628 162.51583 
C 236.691541 165.98159 227.723135 167.765517 218.666667 167.765517 
C 209.610198 167.765517 200.641792 165.98159 192.274706 162.51583 
C 183.90762 159.050069 176.304572 153.969875 169.900682 147.565985 
C 163.496791 141.162094 158.416597 133.559047 154.950837 125.191961 
C 151.485076 116.824875 149.701149 107.856469 149.701149 98.8 
C 149.701149 89.743531 151.485076 80.775125 154.950837 72.408039 
C 158.416597 64.040953 163.496791 56.437906 169.900682 50.034015 
C 176.304572 43.630125 183.90762 38.549931 192.274706 35.08417 
C 200.641792 31.61841 209.610198 29.834483 218.666667 29.834483 
C 227.723135 29.834483 236.691541 31.61841 245.058628 35.08417 
C 253.425714 38.549931 261.028761 43.630125 267.432652 50.034015 
C 273.836542 56.437906 278.916736 64.040953 282.382496 72.408039 
C 285.848257 80.775125 287.632184 89.743531 287.632184 98.8 
z
" clip-path="url(#p8f14320a2b)" style="fill: #dea584"/>
   </g>
  </g>
  <g id="axes_2">
   <g id="legend_1">
    <g id="patch_3">
     <path d="M 180.557292 206.67125 
L 256.776042 206.67125 
Q 258.376042 206.67125 258.376042 205.07125 
L 258.376042 194.12875 
Q 258.376042 192.52875 256.776042 192.52875 
L 180.557292 192.52875 
Q 178.957292 192.52875 178.957292 194.12875 
L 178.957292 205.07125 
Q 178.957292 206.67125 180.557292 206.67125 
z
" style="fill: #ffffff; opacity: 0.8; stroke: #cccccc; stroke-linejoin: miter"/>
    </g>
    <g id="patch_4">
     <path d="M 182.157292 201.8075 
L 198.157292 201.8075 
L 198.157292 196.2075 
L 182.157292 196.2075 
z
" style="fill: #dea584"/>
    </g>
    <g id="text_1">
     <!-- Rust 100.0% -->
     <g transform="translate(204.557292 201.8075) scale(0.08 -0.08)">
      <defs>
       <path id="DejaVuSans-52" d="M 2841 2188 
Q 3044 2119 3236 1894 
Q 3428 1669 3622 1275 
L 4263 0 
L 3584 0 
L 2988 1197 
Q 2756 1666 2539 1819 
Q 2322 1972 1947 1972 
L 1259 1972 
L 1259 0 
L 628 0 
L 628 4666 
L 2053 4666 
Q 2853 4666 3247 4331 
Q 3641 3997 3641 3322 
Q 3641 2881 3436 2590 
Q 3231 2300 2841 2188 
z
M 1259 4147 
L 1259 2491 
L 2053 2491 
Q 2509 2491 2742 2702 
Q 2975 2913 2975 3322 
Q 2975 3731 2742 3939 
Q 2509 4147 2053 4147 
L 1259 4147 
z
" transform="scale(0.015625)"/>
       <path id="DejaVuSans-75" d="M 544 1381 
L 544 3500 
L 1119 3500 
L 1119 1403 
Q 1119 906 1312 657 
Q 1506 409 1894 409 
Q 2359 409 2629 706 
Q 2900 1003 2900 1516 
L 2900 3500 
L 3475 3500 
L 3475 0 
L 2900 0 
L 2900 538 
Q 2691 219 2414 64 
Q 2138 -91 1772 -91 
Q 1169 -91 856 284 
Q 544 659 544 1381 
z
M 1991 3584 
L 1991 3584 
z
" transform="scale(0.015625)"/>
       <path id="DejaVuSans-73" d="M 2834 3397 
L 2834 2853 
Q 2591 2978 2328 3040 
Q 2066 3103 1784 3103 
Q 1356 3103 1142 2972 
Q 928 2841 928 2578 
Q 928 2378 1081 2264 
Q 1234 2150 1697 2047 
L 1894 2003 
Q 2506 1872 2764 1633 
Q 3022 1394 3022 966 
Q 3022 478 2636 193 
Q 2250 -91 1575 -91 
Q 1294 -91 989 -36 
Q 684 19 347 128 
L 347 722 
Q 666 556 975 473 
Q 1284 391 1588 391 
Q 1994 391 2212 530 
Q 2431 669 2431 922 
Q 2431 1156 2273 1281 
Q 2116 1406 1581 1522 
L 1381 1569 
Q 847 1681 609 1914 
Q 372 2147 372 2553 
Q 372 3047 722 3315 
Q 1072 3584 1716 3584 
Q 2034 3584 2315 3537 
Q 2597 3491 2834 3397 
z
" transform="scale(0.015625)"/>
       <path id="DejaVuSans-74" d="M 1172 4494 
L 1172 3500 
L 2356 3500 
L 2356 3053 
L 1172 3053 
L 1172 1153 
Q 1172 725 1289 603 
Q 1406 481 1766 481 
L 2356 481 
L 2356 0 
L 1766 0 
Q 1100 0 847 248 
Q 594 497 594 1153 
L 594 3053 
L 172 3053 
L 172 3500 
L 594 3500 
L 594 4494 
L 1172 4494 
z
" transform="scale(0.015625)"/>
       <path id="DejaVuSans-20" transform="scale(0.015625)"/>
       <path id="DejaVuSans-31" d="M 794 531 
L 1825 531 
L 1825 4091 
L 703 3866 
L 703 4441 
L 1819 4666 
L 2450 4666 
L 2450 531 
L 3481 531 
L 3481 0 
L 794 0 
L 794 531 
z
" transform="scale(0.015625)"/>
       <path id="DejaVuSans-30" d="M 2034 4250 
Q 1547 4250 1301 3770 
Q 1056 3291 1056 2328 
Q 1056 1369 1301 889 
Q 1547 409 2034 409 
Q 2525 409 2770 889 
Q 3016 1369 3016 2328 
Q 3016 3291 2770 3770 
Q 2525 4250 2034 4250 
z
M 2034 4750 
Q 2819 4750 3233 4129 
Q 3647 3509 3647 2328 
Q 3647 1150 3233 529 
Q 2819 -91 2034 -91 
Q 1250 -91 836 529 
Q 422 1150 422 2328 
Q 422 3509 836 4129 
Q 1250 4750 2034 4750 
z
" transform="scale(0.015625)"/>
       <path id="DejaVuSans-2e" d="M 684 794 
L 1344 794 
L 1344 0 
L 684 0 
L 684 794 
z
" transform="scale(0.015625)"/>
       <path id="DejaVuSans-25" d="M 4653 2053 
Q 4381 2053 4226 1822 
Q 4072 1591 4072 1178 
Q 4072 772 4226 539 
Q 4381 306 4653 306 
Q 4919 306 5073 539 
Q 5228 772 5228 1178 
Q 5228 1588 5073 1820 
Q 4919 2053 4653 2053 
z
M 4653 2450 
Q 5147 2450 5437 2106 
Q 5728 1763 5728 1178 
Q 5728 594 5436 251 
Q 5144 -91 4653 -91 
Q 4153 -91 3862 251 
Q 3572 594 3572 1178 
Q 3572 1766 3864 2108 
Q 4156 2450 4653 2450 
z
M 1428 4353 
Q 1159 4353 1004 4120 
Q 850 3888 850 3481 
Q 850 3069 1003 2837 
Q 1156 2606 1428 2606 
Q 1700 2606 1854 2837 
Q 2009 3069 2009 3481 
Q 2009 3884 1853 4118 
Q 1697 4353 1428 4353 
z
M 4250 4750 
L 4750 4750 
L 1831 -91 
L 1331 -91 
L 4250 4750 
z
M 1428 4750 
Q 1922 4750 2215 4408 
Q 2509 4066 2509 3481 
Q 2509 2891 2217 2550 
Q 1925 2209 1428 2209 
Q 931 2209 642 2551 
Q 353 2894 353 3481 
Q 353 4063 643 4406 
Q 934 4750 1428 4750 
z
" transform="scale(0.015625)"/>
      </defs>
      <use xlink:href="#DejaVuSans-52"/>
      <use xlink:href="#DejaVuSans-75" x="64.982422"/>
      <use xlink:href="#DejaVuSans-73" x="128.361328"/>
      <use xlink:href="#DejaVuSans-74" x="180.460938"/>
      <use xlink:href="#DejaVuSans-20" x="219.669922"/>
      <use xlink:href="#DejaVuSans-31" x="251.457031"/>
      <use xlink:href="#DejaVuSans-30" x="315.080078"/>
      <use xlink:href="#DejaVuSans-30" x="378.703125"/>
      <use xlink:href="#DejaVuSans-2e" x="442.326172"/>
      <use xlink:href="#DejaVuSans-30" x="474.113281"/>
      <use xlink:href="#DejaVuSans-25" x="537.736328"/>
     </g>
    </g>
   </g>
  </g>
 </g>
 <defs>
  <clipPath id="p8f14320a2b">
   <path d="M 288.666667 98.8 
C 288.666667 89.607684 286.855981 80.504752 283.338234 72.01216 
C 279.820487 63.519567 274.66409 55.802474 268.164141 49.302525 
C 261.664193 42.802576 253.947099 37.64618 245.454507 34.128433 
C 236.961915 30.610686 227.858982 28.8 218.666667 28.8 
C 209.474351 28.8 200.371419 30.610686 191.878826 34.128433 
C 183.386234 37.64618 175.669141 42.802576 169.169192 49.302525 
C 162.669243 55.802474 157.512846 63.519567 153.995099 72.01216 
C 150.477352 80.504752 148.666667 89.607684 148.666667 98.8 
C 148.666667 107.992316 150.477352 117.095248 153.995099 125.58784 
C 157.512846 134.080433 162.669243 141.797526 169.169192 148.297475 
C 175.669141 154.797424 183.386234 159.95382 191.878826 163.471567 
C 200.371419 166.989314 209.474351 168.8 218.666667 168.8 
C 227.858982 168.8 236.961915 166.989314 245.454507 163.471567 
C 253.947099 159.95382 261.664193 154.797424 268.164141 148.297475 
C 274.66409 141.797526 279.820487 134.080433 283.338234 125.58784 
C 286.855981 117.095248 288.666667 107.992316 288.666667 98.8 
M 218.666667 98.8 
C 218.666667 98.8 218.666667 98.8 218.666667 98.8 
C 218.666667 98.8 218.666667 98.8 218.666667 98.8 
C 218.666667 98.8 218.666667 98.8 218.666667 98.8 
C 218.666667 98.8 218.666667 98.8 218.666667 98.8 
C 218.666667 98.8 218.666667 98.8 218.666667 98.8 
C 218.666667 98.8 218.666667 98.8 218.666667 98.8 
C 218.666667 98.8 218.666667 98.8 218.666667 98.8 
C 218.666667 98.8 218.666667 98.8 218.666667 98.8 
C 218.666667 98.8 218.666667 98.8 218.666667 98.8 
C 218.666667 98.8 218.666667 98.8 218.666667 98.8 
C 218.666667 98.8 218.666667 98.8 218.666667 98.8 
C 218.666667 98.8 218.666667 98.8 218.666667 98.8 
C 218.666667 98.8 218.666667 98.8 218.666667 98.8 
C 218.666667 98.8 218.666667 98.8 218.666667 98.8 
C 218.666667 98.8 218.666667 98.8 218.666667 98.8 
C 218.666667 98.8 218.666667 98.8 218.666667 98.8 
z
"/>
  </clipPath>
 </defs>
</svg>
