<?xml version="1.0" encoding="utf-8" standalone="no"?>
<!DOCTYPE svg PUBLIC "-//W3C//DTD SVG 1.1//EN"
  "http://www.w3.org/Graphics/SVG/1.1/DTD/svg11.dtd">
<svg xmlns:xlink="http://www.w3.org/1999/xlink" width="400pt" height="225pt" viewBox="0 0 400 225" xmlns="http://www.w3.org/2000/svg" version="1.1">
 <metadata>
  <rdf:RDF xmlns:dc="http://purl.org/dc/elements/1.1/" xmlns:cc="http://creativecommons.org/ns#" xmlns:rdf="http://www.w3.org/1999/02/22-rdf-syntax-ns#">
   <cc:Work>
    <dc:type rdf:resource="http://purl.org/dc/dcmitype/StillImage"/>
    <dc:date>2024-12-08T04:21:17.790047</dc:date>
    <dc:format>image/svg+xml</dc:format>
    <dc:creator>
     <cc:Agent>
      <dc:title>Matplotlib v3.9.3, https://matplotlib.org/</dc:title>
     </cc:Agent>
    </dc:creator>
   </cc:Work>
  </rdf:RDF>
 </metadata>
 <defs>
  <style type="text/css">*{stroke-linejoin: round; stroke-linecap: butt}</style>
 </defs>
 <g id="figure_1">
  <g id="patch_1">
   <path d="M 0 225 
L 400 225 
L 400 0 
L 0 0 
L 0 225 
z
" style="fill: none"/>
  </g>
  <g id="axes_1">
   <g id="patch_2">
    <path d="M 264.741379 113.625 
C 264.741379 112.201082 264.690471 110.777619 264.588753 109.357339 
C 264.487034 107.937058 264.334571 106.520868 264.131653 105.111483 
L 289.473791 101.462833 
C 289.763672 103.476241 289.981478 105.499369 290.12679 107.528341 
C 290.272102 109.557313 290.344828 111.590831 290.344828 113.625 
z
" clip-path="url(#pce541d2de4)" style="fill: #89e051"/>
   </g>
   <g id="patch_3">
    <path d="M 264.131653 105.111483 
C 262.278202 92.238114 256.270566 80.315536 247.026944 71.16598 
C 237.783322 62.016424 225.799922 56.131048 212.908269 54.409363 
L 216.297527 29.031233 
C 234.714174 31.490782 251.833318 39.898463 265.038492 52.969257 
C 278.243666 66.040052 286.826003 83.072305 289.473791 101.462833 
z
" clip-path="url(#pce541d2de4)" style="fill: #178600"/>
   </g>
   <g id="patch_4">
    <path d="M 212.908269 54.409363 
C 203.927033 53.209916 194.78951 54.069315 186.189414 56.922317 
C 177.589318 59.775318 169.749939 64.547848 163.266438 70.877577 
L 145.380625 52.557253 
C 154.64277 43.514782 165.841883 36.696884 178.127734 32.621167 
C 190.413585 28.545451 203.46719 27.317737 216.297527 29.031233 
z
" clip-path="url(#pce541d2de4)" style="fill: #00add8"/>
   </g>
   <g id="patch_5">
    <path d="M 163.266438 70.877577 
C 160.337448 73.737098 157.710094 76.890098 155.425813 80.286847 
C 153.141533 83.683597 151.212399 87.306143 149.668838 91.097351 
L 125.955483 81.442645 
C 128.16057 76.026633 130.916476 70.851566 134.179733 65.999068 
C 137.442991 61.146569 141.196354 56.642283 145.380625 52.557253 
z
" clip-path="url(#pce541d2de4)" style="fill: #5e5086"/>
   </g>
   <g id="patch_6">
    <path d="M 149.668838 91.097351 
C 149.319012 91.956575 148.989248 92.82383 148.679813 93.698412 
C 148.370378 94.572993 148.081357 95.454664 147.812985 96.342707 
L 123.304264 88.936009 
C 123.687653 87.667377 124.10054 86.407848 124.54259 85.158445 
C 124.98464 83.909043 125.455732 82.670107 125.955483 81.442645 
z
" clip-path="url(#pce541d2de4)" style="fill: #6e4c13"/>
   </g>
   <g id="patch_7">
    <path d="M 147.812985 96.342707 
C 143.453283 110.768936 144.709892 126.323755 151.328814 139.863067 
C 157.947735 153.402379 169.450791 163.948049 183.512869 169.36848 
L 174.304098 193.258543 
C 154.215416 185.51507 137.782479 170.449828 128.326877 151.107953 
C 118.871274 131.766078 117.076118 109.544909 123.304264 88.936009 
z
" clip-path="url(#pce541d2de4)" style="fill: #b07219"/>
   </g>
   <g id="patch_8">
    <path d="M 183.512869 169.36848 
C 196.766829 174.477411 211.418011 174.695534 224.818184 169.983424 
C 238.218357 165.271314 249.508387 155.931081 256.647577 143.650992 
L 278.782253 156.519274 
C 268.583411 174.062258 252.454796 187.405449 233.311692 194.137034 
C 214.168588 200.86862 193.238327 200.557016 174.304098 193.258543 
z
" clip-path="url(#pce541d2de4)" style="fill: #f34b7d"/>
   </g>
   <g id="patch_9">
    <path d="M 256.647577 143.650992 
C 259.286674 139.111492 261.3158 134.2438 262.682449 129.173873 
C 264.049098 124.103946 264.741379 118.875894 264.741379 113.625 
L 290.344828 113.625 
C 290.344828 121.126277 289.355854 128.594923 287.403499 135.837676 
C 285.451143 143.080429 282.552392 150.034275 278.782253 156.519274 
z
" clip-path="url(#pce541d2de4)" style="fill: #000080"/>
   </g>
   <g id="text_1">
    <!-- Shell (2.3%) -->
    <g style="opacity: 0.5" transform="translate(285.720765 107.579384) scale(0.1 -0.1)">
     <defs>
      <path id="DejaVuSans-Bold-53" d="M 3834 4519 
L 3834 3531 
Q 3450 3703 3084 3790 
Q 2719 3878 2394 3878 
Q 1963 3878 1756 3759 
Q 1550 3641 1550 3391 
Q 1550 3203 1689 3098 
Q 1828 2994 2194 2919 
L 2706 2816 
Q 3484 2659 3812 2340 
Q 4141 2022 4141 1434 
Q 4141 663 3683 286 
Q 3225 -91 2284 -91 
Q 1841 -91 1394 -6 
Q 947 78 500 244 
L 500 1259 
Q 947 1022 1364 901 
Q 1781 781 2169 781 
Q 2563 781 2772 912 
Q 2981 1044 2981 1288 
Q 2981 1506 2839 1625 
Q 2697 1744 2272 1838 
L 1806 1941 
Q 1106 2091 782 2419 
Q 459 2747 459 3303 
Q 459 4000 909 4375 
Q 1359 4750 2203 4750 
Q 2588 4750 2994 4692 
Q 3400 4634 3834 4519 
z
" transform="scale(0.015625)"/>
      <path id="DejaVuSans-Bold-68" d="M 4056 2131 
L 4056 0 
L 2931 0 
L 2931 347 
L 2931 1625 
Q 2931 2084 2911 2256 
Q 2891 2428 2841 2509 
Q 2775 2619 2662 2680 
Q 2550 2741 2406 2741 
Q 2056 2741 1856 2470 
Q 1656 2200 1656 1722 
L 1656 0 
L 538 0 
L 538 4863 
L 1656 4863 
L 1656 2988 
Q 1909 3294 2193 3439 
Q 2478 3584 2822 3584 
Q 3428 3584 3742 3212 
Q 4056 2841 4056 2131 
z
" transform="scale(0.015625)"/>
      <path id="DejaVuSans-Bold-65" d="M 4031 1759 
L 4031 1441 
L 1416 1441 
Q 1456 1047 1700 850 
Q 1944 653 2381 653 
Q 2734 653 3104 758 
Q 3475 863 3866 1075 
L 3866 213 
Q 3469 63 3072 -14 
Q 2675 -91 2278 -91 
Q 1328 -91 801 392 
Q 275 875 275 1747 
Q 275 2603 792 3093 
Q 1309 3584 2216 3584 
Q 3041 3584 3536 3087 
Q 4031 2591 4031 1759 
z
M 2881 2131 
Q 2881 2450 2695 2645 
Q 2509 2841 2209 2841 
Q 1884 2841 1681 2658 
Q 1478 2475 1428 2131 
L 2881 2131 
z
" transform="scale(0.015625)"/>
      <path id="DejaVuSans-Bold-6c" d="M 538 4863 
L 1656 4863 
L 1656 0 
L 538 0 
L 538 4863 
z
" transform="scale(0.015625)"/>
      <path id="DejaVuSans-Bold-20" transform="scale(0.015625)"/>
      <path id="DejaVuSans-Bold-28" d="M 2413 -844 
L 1484 -844 
Q 1006 -72 778 623 
Q 550 1319 550 2003 
Q 550 2688 779 3389 
Q 1009 4091 1484 4856 
L 2413 4856 
Q 2013 4116 1813 3408 
Q 1613 2700 1613 2009 
Q 1613 1319 1811 609 
Q 2009 -100 2413 -844 
z
" transform="scale(0.015625)"/>
      <path id="DejaVuSans-Bold-32" d="M 1844 884 
L 3897 884 
L 3897 0 
L 506 0 
L 506 884 
L 2209 2388 
Q 2438 2594 2547 2791 
Q 2656 2988 2656 3200 
Q 2656 3528 2436 3728 
Q 2216 3928 1850 3928 
Q 1569 3928 1234 3808 
Q 900 3688 519 3450 
L 519 4475 
Q 925 4609 1322 4679 
Q 1719 4750 2100 4750 
Q 2938 4750 3402 4381 
Q 3866 4013 3866 3353 
Q 3866 2972 3669 2642 
Q 3472 2313 2841 1759 
L 1844 884 
z
" transform="scale(0.015625)"/>
      <path id="DejaVuSans-Bold-2e" d="M 653 1209 
L 1778 1209 
L 1778 0 
L 653 0 
L 653 1209 
z
" transform="scale(0.015625)"/>
      <path id="DejaVuSans-Bold-33" d="M 2981 2516 
Q 3453 2394 3698 2092 
Q 3944 1791 3944 1325 
Q 3944 631 3412 270 
Q 2881 -91 1863 -91 
Q 1503 -91 1142 -33 
Q 781 25 428 141 
L 428 1069 
Q 766 900 1098 814 
Q 1431 728 1753 728 
Q 2231 728 2486 893 
Q 2741 1059 2741 1369 
Q 2741 1688 2480 1852 
Q 2219 2016 1709 2016 
L 1228 2016 
L 1228 2791 
L 1734 2791 
Q 2188 2791 2409 2933 
Q 2631 3075 2631 3366 
Q 2631 3634 2415 3781 
Q 2200 3928 1806 3928 
Q 1516 3928 1219 3862 
Q 922 3797 628 3669 
L 628 4550 
Q 984 4650 1334 4700 
Q 1684 4750 2022 4750 
Q 2931 4750 3382 4451 
Q 3834 4153 3834 3553 
Q 3834 3144 3618 2883 
Q 3403 2622 2981 2516 
z
" transform="scale(0.015625)"/>
      <path id="DejaVuSans-Bold-25" d="M 4959 1925 
Q 4738 1925 4616 1733 
Q 4494 1541 4494 1184 
Q 4494 825 4614 633 
Q 4734 441 4959 441 
Q 5184 441 5303 633 
Q 5422 825 5422 1184 
Q 5422 1541 5301 1733 
Q 5181 1925 4959 1925 
z
M 4959 2450 
Q 5541 2450 5875 2112 
Q 6209 1775 6209 1184 
Q 6209 594 5875 251 
Q 5541 -91 4959 -91 
Q 4378 -91 4042 251 
Q 3706 594 3706 1184 
Q 3706 1772 4042 2111 
Q 4378 2450 4959 2450 
z
M 2094 -91 
L 1403 -91 
L 4319 4750 
L 5013 4750 
L 2094 -91 
z
M 1453 4750 
Q 2034 4750 2367 4411 
Q 2700 4072 2700 3481 
Q 2700 2891 2367 2550 
Q 2034 2209 1453 2209 
Q 872 2209 539 2550 
Q 206 2891 206 3481 
Q 206 4072 539 4411 
Q 872 4750 1453 4750 
z
M 1453 4225 
Q 1228 4225 1106 4031 
Q 984 3838 984 3481 
Q 984 3122 1106 2926 
Q 1228 2731 1453 2731 
Q 1678 2731 1798 2926 
Q 1919 3122 1919 3481 
Q 1919 3838 1797 4031 
Q 1675 4225 1453 4225 
z
" transform="scale(0.015625)"/>
      <path id="DejaVuSans-Bold-29" d="M 513 -844 
Q 913 -100 1113 609 
Q 1313 1319 1313 2009 
Q 1313 2700 1113 3408 
Q 913 4116 513 4856 
L 1441 4856 
Q 1916 4091 2145 3389 
Q 2375 2688 2375 2003 
Q 2375 1319 2147 623 
Q 1919 -72 1441 -844 
L 513 -844 
z
" transform="scale(0.015625)"/>
     </defs>
     <use xlink:href="#DejaVuSans-Bold-53"/>
     <use xlink:href="#DejaVuSans-Bold-68" x="72.021484"/>
     <use xlink:href="#DejaVuSans-Bold-65" x="143.212891"/>
     <use xlink:href="#DejaVuSans-Bold-6c" x="211.035156"/>
     <use xlink:href="#DejaVuSans-Bold-6c" x="245.3125"/>
     <use xlink:href="#DejaVuSans-Bold-20" x="279.589844"/>
     <use xlink:href="#DejaVuSans-Bold-28" x="314.404297"/>
     <use xlink:href="#DejaVuSans-Bold-32" x="360.107422"/>
     <use xlink:href="#DejaVuSans-Bold-2e" x="429.6875"/>
     <use xlink:href="#DejaVuSans-Bold-33" x="467.675781"/>
     <use xlink:href="#DejaVuSans-Bold-25" x="537.255859"/>
     <use xlink:href="#DejaVuSans-Bold-29" x="637.451172"/>
    </g>
   </g>
   <g id="text_2">
    <!-- C# (20.6%) -->
    <g style="opacity: 0.5" transform="translate(254.12512 34.094888) scale(0.1 -0.1)">
     <defs>
      <path id="DejaVuSans-Bold-43" d="M 4288 256 
Q 3956 84 3597 -3 
Q 3238 -91 2847 -91 
Q 1681 -91 1000 561 
Q 319 1213 319 2328 
Q 319 3447 1000 4098 
Q 1681 4750 2847 4750 
Q 3238 4750 3597 4662 
Q 3956 4575 4288 4403 
L 4288 3438 
Q 3953 3666 3628 3772 
Q 3303 3878 2944 3878 
Q 2300 3878 1931 3465 
Q 1563 3053 1563 2328 
Q 1563 1606 1931 1193 
Q 2300 781 2944 781 
Q 3303 781 3628 887 
Q 3953 994 4288 1222 
L 4288 256 
z
" transform="scale(0.015625)"/>
      <path id="DejaVuSans-Bold-23" d="M 2847 4594 
L 2547 3391 
L 3372 3391 
L 3675 4594 
L 4366 4594 
L 4063 3391 
L 4928 3391 
L 4928 2725 
L 3897 2725 
L 3681 1869 
L 4569 1869 
L 4569 1197 
L 3519 1197 
L 3219 0 
L 2528 0 
L 2828 1197 
L 2003 1197 
L 1703 0 
L 1006 0 
L 1306 1197 
L 434 1197 
L 434 1869 
L 1459 1869 
L 1678 2725 
L 794 2725 
L 794 3391 
L 1850 3391 
L 2150 4594 
L 2847 4594 
z
M 3200 2725 
L 2375 2725 
L 2156 1869 
L 2981 1869 
L 3200 2725 
z
" transform="scale(0.015625)"/>
      <path id="DejaVuSans-Bold-30" d="M 2944 2338 
Q 2944 3213 2780 3570 
Q 2616 3928 2228 3928 
Q 1841 3928 1675 3570 
Q 1509 3213 1509 2338 
Q 1509 1453 1675 1090 
Q 1841 728 2228 728 
Q 2613 728 2778 1090 
Q 2944 1453 2944 2338 
z
M 4147 2328 
Q 4147 1169 3647 539 
Q 3147 -91 2228 -91 
Q 1306 -91 806 539 
Q 306 1169 306 2328 
Q 306 3491 806 4120 
Q 1306 4750 2228 4750 
Q 3147 4750 3647 4120 
Q 4147 3491 4147 2328 
z
" transform="scale(0.015625)"/>
      <path id="DejaVuSans-Bold-36" d="M 2316 2303 
Q 2000 2303 1842 2098 
Q 1684 1894 1684 1484 
Q 1684 1075 1842 870 
Q 2000 666 2316 666 
Q 2634 666 2792 870 
Q 2950 1075 2950 1484 
Q 2950 1894 2792 2098 
Q 2634 2303 2316 2303 
z
M 3803 4544 
L 3803 3681 
Q 3506 3822 3243 3889 
Q 2981 3956 2731 3956 
Q 2194 3956 1894 3657 
Q 1594 3359 1544 2772 
Q 1750 2925 1990 3001 
Q 2231 3078 2516 3078 
Q 3231 3078 3670 2659 
Q 4109 2241 4109 1563 
Q 4109 813 3618 361 
Q 3128 -91 2303 -91 
Q 1394 -91 895 523 
Q 397 1138 397 2266 
Q 397 3422 980 4083 
Q 1563 4744 2578 4744 
Q 2900 4744 3203 4694 
Q 3506 4644 3803 4544 
z
" transform="scale(0.015625)"/>
     </defs>
     <use xlink:href="#DejaVuSans-Bold-43"/>
     <use xlink:href="#DejaVuSans-Bold-23" x="73.388672"/>
     <use xlink:href="#DejaVuSans-Bold-20" x="157.177734"/>
     <use xlink:href="#DejaVuSans-Bold-28" x="191.992188"/>
     <use xlink:href="#DejaVuSans-Bold-32" x="237.695312"/>
     <use xlink:href="#DejaVuSans-Bold-30" x="307.275391"/>
     <use xlink:href="#DejaVuSans-Bold-2e" x="376.855469"/>
     <use xlink:href="#DejaVuSans-Bold-36" x="414.84375"/>
     <use xlink:href="#DejaVuSans-Bold-25" x="484.423828"/>
     <use xlink:href="#DejaVuSans-Bold-29" x="584.619141"/>
    </g>
   </g>
   <g id="text_3">
    <!-- Go (14.4%) -->
    <g style="opacity: 0.5" transform="translate(136.980028 7.211955) scale(0.1 -0.1)">
     <defs>
      <path id="DejaVuSans-Bold-47" d="M 4781 347 
Q 4331 128 3847 18 
Q 3363 -91 2847 -91 
Q 1681 -91 1000 561 
Q 319 1213 319 2328 
Q 319 3456 1012 4103 
Q 1706 4750 2913 4750 
Q 3378 4750 3804 4662 
Q 4231 4575 4609 4403 
L 4609 3438 
Q 4219 3659 3833 3768 
Q 3447 3878 3059 3878 
Q 2341 3878 1952 3476 
Q 1563 3075 1563 2328 
Q 1563 1588 1938 1184 
Q 2313 781 3003 781 
Q 3191 781 3352 804 
Q 3513 828 3641 878 
L 3641 1784 
L 2906 1784 
L 2906 2591 
L 4781 2591 
L 4781 347 
z
" transform="scale(0.015625)"/>
      <path id="DejaVuSans-Bold-6f" d="M 2203 2784 
Q 1831 2784 1636 2517 
Q 1441 2250 1441 1747 
Q 1441 1244 1636 976 
Q 1831 709 2203 709 
Q 2569 709 2762 976 
Q 2956 1244 2956 1747 
Q 2956 2250 2762 2517 
Q 2569 2784 2203 2784 
z
M 2203 3584 
Q 3106 3584 3614 3096 
Q 4122 2609 4122 1747 
Q 4122 884 3614 396 
Q 3106 -91 2203 -91 
Q 1297 -91 786 396 
Q 275 884 275 1747 
Q 275 2609 786 3096 
Q 1297 3584 2203 3584 
z
" transform="scale(0.015625)"/>
      <path id="DejaVuSans-Bold-31" d="M 750 831 
L 1813 831 
L 1813 3847 
L 722 3622 
L 722 4441 
L 1806 4666 
L 2950 4666 
L 2950 831 
L 4013 831 
L 4013 0 
L 750 0 
L 750 831 
z
" transform="scale(0.015625)"/>
      <path id="DejaVuSans-Bold-34" d="M 2356 3675 
L 1038 1722 
L 2356 1722 
L 2356 3675 
z
M 2156 4666 
L 3494 4666 
L 3494 1722 
L 4159 1722 
L 4159 850 
L 3494 850 
L 3494 0 
L 2356 0 
L 2356 850 
L 288 850 
L 288 1881 
L 2156 4666 
z
" transform="scale(0.015625)"/>
     </defs>
     <use xlink:href="#DejaVuSans-Bold-47"/>
     <use xlink:href="#DejaVuSans-Bold-6f" x="82.080078"/>
     <use xlink:href="#DejaVuSans-Bold-20" x="150.78125"/>
     <use xlink:href="#DejaVuSans-Bold-28" x="185.595703"/>
     <use xlink:href="#DejaVuSans-Bold-31" x="231.298828"/>
     <use xlink:href="#DejaVuSans-Bold-34" x="300.878906"/>
     <use xlink:href="#DejaVuSans-Bold-2e" x="370.458984"/>
     <use xlink:href="#DejaVuSans-Bold-34" x="408.447266"/>
     <use xlink:href="#DejaVuSans-Bold-25" x="478.027344"/>
     <use xlink:href="#DejaVuSans-Bold-29" x="578.222656"/>
    </g>
   </g>
   <g id="text_4">
    <!-- Haskell (6.5%) -->
    <g style="opacity: 0.5" transform="translate(68.34658 52.568205) scale(0.1 -0.1)">
     <defs>
      <path id="DejaVuSans-Bold-48" d="M 588 4666 
L 1791 4666 
L 1791 2888 
L 3566 2888 
L 3566 4666 
L 4769 4666 
L 4769 0 
L 3566 0 
L 3566 1978 
L 1791 1978 
L 1791 0 
L 588 0 
L 588 4666 
z
" transform="scale(0.015625)"/>
      <path id="DejaVuSans-Bold-61" d="M 2106 1575 
Q 1756 1575 1579 1456 
Q 1403 1338 1403 1106 
Q 1403 894 1545 773 
Q 1688 653 1941 653 
Q 2256 653 2472 879 
Q 2688 1106 2688 1447 
L 2688 1575 
L 2106 1575 
z
M 3816 1997 
L 3816 0 
L 2688 0 
L 2688 519 
Q 2463 200 2181 54 
Q 1900 -91 1497 -91 
Q 953 -91 614 226 
Q 275 544 275 1050 
Q 275 1666 698 1953 
Q 1122 2241 2028 2241 
L 2688 2241 
L 2688 2328 
Q 2688 2594 2478 2717 
Q 2269 2841 1825 2841 
Q 1466 2841 1156 2769 
Q 847 2697 581 2553 
L 581 3406 
Q 941 3494 1303 3539 
Q 1666 3584 2028 3584 
Q 2975 3584 3395 3211 
Q 3816 2838 3816 1997 
z
" transform="scale(0.015625)"/>
      <path id="DejaVuSans-Bold-73" d="M 3272 3391 
L 3272 2541 
Q 2913 2691 2578 2766 
Q 2244 2841 1947 2841 
Q 1628 2841 1473 2761 
Q 1319 2681 1319 2516 
Q 1319 2381 1436 2309 
Q 1553 2238 1856 2203 
L 2053 2175 
Q 2913 2066 3209 1816 
Q 3506 1566 3506 1031 
Q 3506 472 3093 190 
Q 2681 -91 1863 -91 
Q 1516 -91 1145 -36 
Q 775 19 384 128 
L 384 978 
Q 719 816 1070 734 
Q 1422 653 1784 653 
Q 2113 653 2278 743 
Q 2444 834 2444 1013 
Q 2444 1163 2330 1236 
Q 2216 1309 1875 1350 
L 1678 1375 
Q 931 1469 631 1722 
Q 331 1975 331 2491 
Q 331 3047 712 3315 
Q 1094 3584 1881 3584 
Q 2191 3584 2531 3537 
Q 2872 3491 3272 3391 
z
" transform="scale(0.015625)"/>
      <path id="DejaVuSans-Bold-6b" d="M 538 4863 
L 1656 4863 
L 1656 2216 
L 2944 3500 
L 4244 3500 
L 2534 1894 
L 4378 0 
L 3022 0 
L 1656 1459 
L 1656 0 
L 538 0 
L 538 4863 
z
" transform="scale(0.015625)"/>
      <path id="DejaVuSans-Bold-35" d="M 678 4666 
L 3669 4666 
L 3669 3781 
L 1638 3781 
L 1638 3059 
Q 1775 3097 1914 3117 
Q 2053 3138 2203 3138 
Q 3056 3138 3531 2711 
Q 4006 2284 4006 1522 
Q 4006 766 3489 337 
Q 2972 -91 2053 -91 
Q 1656 -91 1267 -14 
Q 878 63 494 219 
L 494 1166 
Q 875 947 1217 837 
Q 1559 728 1863 728 
Q 2300 728 2551 942 
Q 2803 1156 2803 1522 
Q 2803 1891 2551 2103 
Q 2300 2316 1863 2316 
Q 1603 2316 1309 2248 
Q 1016 2181 678 2041 
L 678 4666 
z
" transform="scale(0.015625)"/>
     </defs>
     <use xlink:href="#DejaVuSans-Bold-48"/>
     <use xlink:href="#DejaVuSans-Bold-61" x="83.691406"/>
     <use xlink:href="#DejaVuSans-Bold-73" x="151.171875"/>
     <use xlink:href="#DejaVuSans-Bold-6b" x="210.693359"/>
     <use xlink:href="#DejaVuSans-Bold-65" x="274.572266"/>
     <use xlink:href="#DejaVuSans-Bold-6c" x="342.394531"/>
     <use xlink:href="#DejaVuSans-Bold-6c" x="376.671875"/>
     <use xlink:href="#DejaVuSans-Bold-20" x="410.949219"/>
     <use xlink:href="#DejaVuSans-Bold-28" x="445.763672"/>
     <use xlink:href="#DejaVuSans-Bold-36" x="491.466797"/>
     <use xlink:href="#DejaVuSans-Bold-2e" x="561.046875"/>
     <use xlink:href="#DejaVuSans-Bold-35" x="599.035156"/>
     <use xlink:href="#DejaVuSans-Bold-25" x="668.615234"/>
     <use xlink:href="#DejaVuSans-Bold-29" x="768.810547"/>
    </g>
   </g>
   <g id="text_5">
    <!-- Assembly (1.5%) -->
    <g style="opacity: 0.5" transform="translate(49.038581 78.459029) scale(0.1 -0.1)">
     <defs>
      <path id="DejaVuSans-Bold-41" d="M 3419 850 
L 1538 850 
L 1241 0 
L 31 0 
L 1759 4666 
L 3194 4666 
L 4922 0 
L 3713 0 
L 3419 850 
z
M 1838 1716 
L 3116 1716 
L 2478 3572 
L 1838 1716 
z
" transform="scale(0.015625)"/>
      <path id="DejaVuSans-Bold-6d" d="M 3781 2919 
Q 3994 3244 4286 3414 
Q 4578 3584 4928 3584 
Q 5531 3584 5847 3212 
Q 6163 2841 6163 2131 
L 6163 0 
L 5038 0 
L 5038 1825 
Q 5041 1866 5042 1909 
Q 5044 1953 5044 2034 
Q 5044 2406 4934 2573 
Q 4825 2741 4581 2741 
Q 4263 2741 4089 2478 
Q 3916 2216 3909 1719 
L 3909 0 
L 2784 0 
L 2784 1825 
Q 2784 2406 2684 2573 
Q 2584 2741 2328 2741 
Q 2006 2741 1831 2477 
Q 1656 2213 1656 1722 
L 1656 0 
L 531 0 
L 531 3500 
L 1656 3500 
L 1656 2988 
Q 1863 3284 2130 3434 
Q 2397 3584 2719 3584 
Q 3081 3584 3359 3409 
Q 3638 3234 3781 2919 
z
" transform="scale(0.015625)"/>
      <path id="DejaVuSans-Bold-62" d="M 2400 722 
Q 2759 722 2948 984 
Q 3138 1247 3138 1747 
Q 3138 2247 2948 2509 
Q 2759 2772 2400 2772 
Q 2041 2772 1848 2508 
Q 1656 2244 1656 1747 
Q 1656 1250 1848 986 
Q 2041 722 2400 722 
z
M 1656 2988 
Q 1888 3294 2169 3439 
Q 2450 3584 2816 3584 
Q 3463 3584 3878 3070 
Q 4294 2556 4294 1747 
Q 4294 938 3878 423 
Q 3463 -91 2816 -91 
Q 2450 -91 2169 54 
Q 1888 200 1656 506 
L 1656 0 
L 538 0 
L 538 4863 
L 1656 4863 
L 1656 2988 
z
" transform="scale(0.015625)"/>
      <path id="DejaVuSans-Bold-79" d="M 78 3500 
L 1197 3500 
L 2138 1125 
L 2938 3500 
L 4056 3500 
L 2584 -331 
Q 2363 -916 2067 -1148 
Q 1772 -1381 1288 -1381 
L 641 -1381 
L 641 -647 
L 991 -647 
Q 1275 -647 1404 -556 
Q 1534 -466 1606 -231 
L 1638 -134 
L 78 3500 
z
" transform="scale(0.015625)"/>
     </defs>
     <use xlink:href="#DejaVuSans-Bold-41"/>
     <use xlink:href="#DejaVuSans-Bold-73" x="77.392578"/>
     <use xlink:href="#DejaVuSans-Bold-73" x="136.914062"/>
     <use xlink:href="#DejaVuSans-Bold-65" x="196.435547"/>
     <use xlink:href="#DejaVuSans-Bold-6d" x="264.257812"/>
     <use xlink:href="#DejaVuSans-Bold-62" x="368.457031"/>
     <use xlink:href="#DejaVuSans-Bold-6c" x="440.039062"/>
     <use xlink:href="#DejaVuSans-Bold-79" x="474.316406"/>
     <use xlink:href="#DejaVuSans-Bold-20" x="539.501953"/>
     <use xlink:href="#DejaVuSans-Bold-28" x="574.316406"/>
     <use xlink:href="#DejaVuSans-Bold-31" x="620.019531"/>
     <use xlink:href="#DejaVuSans-Bold-2e" x="689.599609"/>
     <use xlink:href="#DejaVuSans-Bold-35" x="727.587891"/>
     <use xlink:href="#DejaVuSans-Bold-25" x="797.167969"/>
     <use xlink:href="#DejaVuSans-Bold-29" x="897.363281"/>
    </g>
   </g>
   <g id="text_6">
    <!-- Java (23.8%) -->
    <g style="opacity: 0.5" transform="translate(66.220586 167.50327) scale(0.1 -0.1)">
     <defs>
      <path id="DejaVuSans-Bold-4a" d="M 588 4666 
L 1791 4666 
L 1791 453 
Q 1791 -419 1317 -850 
Q 844 -1281 -116 -1281 
L -359 -1281 
L -359 -372 
L -172 -372 
Q 203 -372 395 -162 
Q 588 47 588 453 
L 588 4666 
z
" transform="scale(0.015625)"/>
      <path id="DejaVuSans-Bold-76" d="M 97 3500 
L 1216 3500 
L 2088 1081 
L 2956 3500 
L 4078 3500 
L 2700 0 
L 1472 0 
L 97 3500 
z
" transform="scale(0.015625)"/>
      <path id="DejaVuSans-Bold-38" d="M 2228 2088 
Q 1891 2088 1709 1903 
Q 1528 1719 1528 1375 
Q 1528 1031 1709 848 
Q 1891 666 2228 666 
Q 2563 666 2741 848 
Q 2919 1031 2919 1375 
Q 2919 1722 2741 1905 
Q 2563 2088 2228 2088 
z
M 1350 2484 
Q 925 2613 709 2878 
Q 494 3144 494 3541 
Q 494 4131 934 4440 
Q 1375 4750 2228 4750 
Q 3075 4750 3515 4442 
Q 3956 4134 3956 3541 
Q 3956 3144 3739 2878 
Q 3522 2613 3097 2484 
Q 3572 2353 3814 2058 
Q 4056 1763 4056 1313 
Q 4056 619 3595 264 
Q 3134 -91 2228 -91 
Q 1319 -91 855 264 
Q 391 619 391 1313 
Q 391 1763 633 2058 
Q 875 2353 1350 2484 
z
M 1631 3419 
Q 1631 3141 1786 2991 
Q 1941 2841 2228 2841 
Q 2509 2841 2662 2991 
Q 2816 3141 2816 3419 
Q 2816 3697 2662 3845 
Q 2509 3994 2228 3994 
Q 1941 3994 1786 3844 
Q 1631 3694 1631 3419 
z
" transform="scale(0.015625)"/>
     </defs>
     <use xlink:href="#DejaVuSans-Bold-4a"/>
     <use xlink:href="#DejaVuSans-Bold-61" x="37.207031"/>
     <use xlink:href="#DejaVuSans-Bold-76" x="104.6875"/>
     <use xlink:href="#DejaVuSans-Bold-61" x="169.873047"/>
     <use xlink:href="#DejaVuSans-Bold-20" x="237.353516"/>
     <use xlink:href="#DejaVuSans-Bold-28" x="272.167969"/>
     <use xlink:href="#DejaVuSans-Bold-32" x="317.871094"/>
     <use xlink:href="#DejaVuSans-Bold-33" x="387.451172"/>
     <use xlink:href="#DejaVuSans-Bold-2e" x="457.03125"/>
     <use xlink:href="#DejaVuSans-Bold-38" x="495.019531"/>
     <use xlink:href="#DejaVuSans-Bold-25" x="564.599609"/>
     <use xlink:href="#DejaVuSans-Bold-29" x="664.794922"/>
    </g>
   </g>
   <g id="text_7">
    <!-- C++ (22.5%) -->
    <g style="opacity: 0.5" transform="translate(208.05751 224.88316) scale(0.1 -0.1)">
     <defs>
      <path id="DejaVuSans-Bold-2b" d="M 3053 4013 
L 3053 2375 
L 4684 2375 
L 4684 1638 
L 3053 1638 
L 3053 0 
L 2309 0 
L 2309 1638 
L 678 1638 
L 678 2375 
L 2309 2375 
L 2309 4013 
L 3053 4013 
z
" transform="scale(0.015625)"/>
     </defs>
     <use xlink:href="#DejaVuSans-Bold-43"/>
     <use xlink:href="#DejaVuSans-Bold-2b" x="73.388672"/>
     <use xlink:href="#DejaVuSans-Bold-2b" x="157.177734"/>
     <use xlink:href="#DejaVuSans-Bold-20" x="240.966797"/>
     <use xlink:href="#DejaVuSans-Bold-28" x="275.78125"/>
     <use xlink:href="#DejaVuSans-Bold-32" x="321.484375"/>
     <use xlink:href="#DejaVuSans-Bold-32" x="391.064453"/>
     <use xlink:href="#DejaVuSans-Bold-2e" x="460.644531"/>
     <use xlink:href="#DejaVuSans-Bold-35" x="498.632812"/>
     <use xlink:href="#DejaVuSans-Bold-25" x="568.212891"/>
     <use xlink:href="#DejaVuSans-Bold-29" x="668.408203"/>
    </g>
   </g>
   <g id="text_8">
    <!-- Lua (8.4%) -->
    <g style="opacity: 0.5" transform="translate(286.095612 145.814891) scale(0.1 -0.1)">
     <defs>
      <path id="DejaVuSans-Bold-4c" d="M 588 4666 
L 1791 4666 
L 1791 909 
L 3903 909 
L 3903 0 
L 588 0 
L 588 4666 
z
" transform="scale(0.015625)"/>
      <path id="DejaVuSans-Bold-75" d="M 500 1363 
L 500 3500 
L 1625 3500 
L 1625 3150 
Q 1625 2866 1622 2436 
Q 1619 2006 1619 1863 
Q 1619 1441 1641 1255 
Q 1663 1069 1716 984 
Q 1784 875 1895 815 
Q 2006 756 2150 756 
Q 2500 756 2700 1025 
Q 2900 1294 2900 1772 
L 2900 3500 
L 4019 3500 
L 4019 0 
L 2900 0 
L 2900 506 
Q 2647 200 2364 54 
Q 2081 -91 1741 -91 
Q 1134 -91 817 281 
Q 500 653 500 1363 
z
" transform="scale(0.015625)"/>
     </defs>
     <use xlink:href="#DejaVuSans-Bold-4c"/>
     <use xlink:href="#DejaVuSans-Bold-75" x="63.720703"/>
     <use xlink:href="#DejaVuSans-Bold-61" x="134.912109"/>
     <use xlink:href="#DejaVuSans-Bold-20" x="202.392578"/>
     <use xlink:href="#DejaVuSans-Bold-28" x="237.207031"/>
     <use xlink:href="#DejaVuSans-Bold-38" x="282.910156"/>
     <use xlink:href="#DejaVuSans-Bold-2e" x="352.490234"/>
     <use xlink:href="#DejaVuSans-Bold-34" x="390.478516"/>
     <use xlink:href="#DejaVuSans-Bold-25" x="460.058594"/>
     <use xlink:href="#DejaVuSans-Bold-29" x="560.253906"/>
    </g>
   </g>
   <g id="text_9">
    <!-- Shell (2.3%) -->
    <g style="fill: #ffffff" transform="translate(285.763354 108.153885) scale(0.1 -0.1)">
     <use xlink:href="#DejaVuSans-Bold-53"/>
     <use xlink:href="#DejaVuSans-Bold-68" x="72.021484"/>
     <use xlink:href="#DejaVuSans-Bold-65" x="143.212891"/>
     <use xlink:href="#DejaVuSans-Bold-6c" x="211.035156"/>
     <use xlink:href="#DejaVuSans-Bold-6c" x="245.3125"/>
     <use xlink:href="#DejaVuSans-Bold-20" x="279.589844"/>
     <use xlink:href="#DejaVuSans-Bold-28" x="314.404297"/>
     <use xlink:href="#DejaVuSans-Bold-32" x="360.107422"/>
     <use xlink:href="#DejaVuSans-Bold-2e" x="429.6875"/>
     <use xlink:href="#DejaVuSans-Bold-33" x="467.675781"/>
     <use xlink:href="#DejaVuSans-Bold-25" x="537.255859"/>
     <use xlink:href="#DejaVuSans-Bold-29" x="637.451172"/>
    </g>
   </g>
   <g id="text_10">
    <!-- C# (20.6%) -->
    <g style="fill: #ffffff" transform="translate(254.535558 34.499122) scale(0.1 -0.1)">
     <use xlink:href="#DejaVuSans-Bold-43"/>
     <use xlink:href="#DejaVuSans-Bold-23" x="73.388672"/>
     <use xlink:href="#DejaVuSans-Bold-20" x="157.177734"/>
     <use xlink:href="#DejaVuSans-Bold-28" x="191.992188"/>
     <use xlink:href="#DejaVuSans-Bold-32" x="237.695312"/>
     <use xlink:href="#DejaVuSans-Bold-30" x="307.275391"/>
     <use xlink:href="#DejaVuSans-Bold-2e" x="376.855469"/>
     <use xlink:href="#DejaVuSans-Bold-36" x="414.84375"/>
     <use xlink:href="#DejaVuSans-Bold-25" x="484.423828"/>
     <use xlink:href="#DejaVuSans-Bold-29" x="584.619141"/>
    </g>
   </g>
   <g id="text_11">
    <!-- Go (14.4%) -->
    <g style="fill: #ffffff" transform="translate(137.526348 7.029201) scale(0.1 -0.1)">
     <use xlink:href="#DejaVuSans-Bold-47"/>
     <use xlink:href="#DejaVuSans-Bold-6f" x="82.080078"/>
     <use xlink:href="#DejaVuSans-Bold-20" x="150.78125"/>
     <use xlink:href="#DejaVuSans-Bold-28" x="185.595703"/>
     <use xlink:href="#DejaVuSans-Bold-31" x="231.298828"/>
     <use xlink:href="#DejaVuSans-Bold-34" x="300.878906"/>
     <use xlink:href="#DejaVuSans-Bold-2e" x="370.458984"/>
     <use xlink:href="#DejaVuSans-Bold-34" x="408.447266"/>
     <use xlink:href="#DejaVuSans-Bold-25" x="478.027344"/>
     <use xlink:href="#DejaVuSans-Bold-29" x="578.222656"/>
    </g>
   </g>
   <g id="text_12">
    <!-- Haskell (6.5%) -->
    <g style="fill: #ffffff" transform="translate(68.666859 52.089366) scale(0.1 -0.1)">
     <use xlink:href="#DejaVuSans-Bold-48"/>
     <use xlink:href="#DejaVuSans-Bold-61" x="83.691406"/>
     <use xlink:href="#DejaVuSans-Bold-73" x="151.171875"/>
     <use xlink:href="#DejaVuSans-Bold-6b" x="210.693359"/>
     <use xlink:href="#DejaVuSans-Bold-65" x="274.572266"/>
     <use xlink:href="#DejaVuSans-Bold-6c" x="342.394531"/>
     <use xlink:href="#DejaVuSans-Bold-6c" x="376.671875"/>
     <use xlink:href="#DejaVuSans-Bold-20" x="410.949219"/>
     <use xlink:href="#DejaVuSans-Bold-28" x="445.763672"/>
     <use xlink:href="#DejaVuSans-Bold-36" x="491.466797"/>
     <use xlink:href="#DejaVuSans-Bold-2e" x="561.046875"/>
     <use xlink:href="#DejaVuSans-Bold-35" x="599.035156"/>
     <use xlink:href="#DejaVuSans-Bold-25" x="668.615234"/>
     <use xlink:href="#DejaVuSans-Bold-29" x="768.810547"/>
    </g>
   </g>
   <g id="text_13">
    <!-- Assembly (1.5%) -->
    <g style="fill: #ffffff" transform="translate(49.229371 77.915464) scale(0.1 -0.1)">
     <use xlink:href="#DejaVuSans-Bold-41"/>
     <use xlink:href="#DejaVuSans-Bold-73" x="77.392578"/>
     <use xlink:href="#DejaVuSans-Bold-73" x="136.914062"/>
     <use xlink:href="#DejaVuSans-Bold-65" x="196.435547"/>
     <use xlink:href="#DejaVuSans-Bold-6d" x="264.257812"/>
     <use xlink:href="#DejaVuSans-Bold-62" x="368.457031"/>
     <use xlink:href="#DejaVuSans-Bold-6c" x="440.039062"/>
     <use xlink:href="#DejaVuSans-Bold-79" x="474.316406"/>
     <use xlink:href="#DejaVuSans-Bold-20" x="539.501953"/>
     <use xlink:href="#DejaVuSans-Bold-28" x="574.316406"/>
     <use xlink:href="#DejaVuSans-Bold-31" x="620.019531"/>
     <use xlink:href="#DejaVuSans-Bold-2e" x="689.599609"/>
     <use xlink:href="#DejaVuSans-Bold-35" x="727.587891"/>
     <use xlink:href="#DejaVuSans-Bold-25" x="797.167969"/>
     <use xlink:href="#DejaVuSans-Bold-29" x="897.363281"/>
    </g>
   </g>
   <g id="text_14">
    <!-- Java (23.8%) -->
    <g style="fill: #ffffff" transform="translate(65.966283 166.986361) scale(0.1 -0.1)">
     <use xlink:href="#DejaVuSans-Bold-4a"/>
     <use xlink:href="#DejaVuSans-Bold-61" x="37.207031"/>
     <use xlink:href="#DejaVuSans-Bold-76" x="104.6875"/>
     <use xlink:href="#DejaVuSans-Bold-61" x="169.873047"/>
     <use xlink:href="#DejaVuSans-Bold-20" x="237.353516"/>
     <use xlink:href="#DejaVuSans-Bold-28" x="272.167969"/>
     <use xlink:href="#DejaVuSans-Bold-32" x="317.871094"/>
     <use xlink:href="#DejaVuSans-Bold-33" x="387.451172"/>
     <use xlink:href="#DejaVuSans-Bold-2e" x="457.03125"/>
     <use xlink:href="#DejaVuSans-Bold-38" x="495.019531"/>
     <use xlink:href="#DejaVuSans-Bold-25" x="564.599609"/>
     <use xlink:href="#DejaVuSans-Bold-29" x="664.794922"/>
    </g>
   </g>
   <g id="text_15">
    <!-- C++ (22.5%) -->
    <g style="fill: #ffffff" transform="translate(207.514534 225.075622) scale(0.1 -0.1)">
     <use xlink:href="#DejaVuSans-Bold-43"/>
     <use xlink:href="#DejaVuSans-Bold-2b" x="73.388672"/>
     <use xlink:href="#DejaVuSans-Bold-2b" x="157.177734"/>
     <use xlink:href="#DejaVuSans-Bold-20" x="240.966797"/>
     <use xlink:href="#DejaVuSans-Bold-28" x="275.78125"/>
     <use xlink:href="#DejaVuSans-Bold-32" x="321.484375"/>
     <use xlink:href="#DejaVuSans-Bold-32" x="391.064453"/>
     <use xlink:href="#DejaVuSans-Bold-2e" x="460.644531"/>
     <use xlink:href="#DejaVuSans-Bold-35" x="498.632812"/>
     <use xlink:href="#DejaVuSans-Bold-25" x="568.212891"/>
     <use xlink:href="#DejaVuSans-Bold-29" x="668.408203"/>
    </g>
   </g>
   <g id="text_16">
    <!-- Lua (8.4%) -->
    <g style="fill: #ffffff" transform="translate(285.947067 146.371487) scale(0.1 -0.1)">
     <use xlink:href="#DejaVuSans-Bold-4c"/>
     <use xlink:href="#DejaVuSans-Bold-75" x="63.720703"/>
     <use xlink:href="#DejaVuSans-Bold-61" x="134.912109"/>
     <use xlink:href="#DejaVuSans-Bold-20" x="202.392578"/>
     <use xlink:href="#DejaVuSans-Bold-28" x="237.207031"/>
     <use xlink:href="#DejaVuSans-Bold-38" x="282.910156"/>
     <use xlink:href="#DejaVuSans-Bold-2e" x="352.490234"/>
     <use xlink:href="#DejaVuSans-Bold-34" x="390.478516"/>
     <use xlink:href="#DejaVuSans-Bold-25" x="460.058594"/>
     <use xlink:href="#DejaVuSans-Bold-29" x="560.253906"/>
    </g>
   </g>
  </g>
 </g>
 <defs>
  <clipPath id="pce541d2de4">
   <path d="M 291.625 113.625 
C 291.625 102.249509 289.384276 90.984631 285.031065 80.475048 
C 280.677853 69.965465 274.296812 60.415562 266.253125 52.371875 
C 258.209438 44.328188 248.659535 37.947147 238.149952 33.593935 
C 227.640369 29.240724 216.375491 27 205 27 
C 193.624509 27 182.359631 29.240724 171.850048 33.593935 
C 161.340465 37.947147 151.790562 44.328188 143.746875 52.371875 
C 135.703188 60.415562 129.322147 69.965465 124.968935 80.475048 
C 120.615724 90.984631 118.375 102.249509 118.375 113.625 
C 118.375 125.000491 120.615724 136.265369 124.968935 146.774952 
C 129.322147 157.284535 135.703188 166.834438 143.746875 174.878125 
C 151.790562 182.921812 161.340465 189.302853 171.850048 193.656065 
C 182.359631 198.009276 193.624509 200.25 205 200.25 
C 216.375491 200.25 227.640369 198.009276 238.149952 193.656065 
C 248.659535 189.302853 258.209438 182.921812 266.253125 174.878125 
C 274.296812 166.834438 280.677853 157.284535 285.031065 146.774952 
C 289.384276 136.265369 291.625 125.000491 291.625 113.625 
M 205 113.625 
C 205 113.625 205 113.625 205 113.625 
C 205 113.625 205 113.625 205 113.625 
C 205 113.625 205 113.625 205 113.625 
C 205 113.625 205 113.625 205 113.625 
C 205 113.625 205 113.625 205 113.625 
C 205 113.625 205 113.625 205 113.625 
C 205 113.625 205 113.625 205 113.625 
C 205 113.625 205 113.625 205 113.625 
C 205 113.625 205 113.625 205 113.625 
C 205 113.625 205 113.625 205 113.625 
C 205 113.625 205 113.625 205 113.625 
C 205 113.625 205 113.625 205 113.625 
C 205 113.625 205 113.625 205 113.625 
C 205 113.625 205 113.625 205 113.625 
C 205 113.625 205 113.625 205 113.625 
C 205 113.625 205 113.625 205 113.625 
z
"/>
  </clipPath>
 </defs>
</svg>
