<?xml version="1.0" encoding="utf-8" standalone="no"?>
<!DOCTYPE svg PUBLIC "-//W3C//DTD SVG 1.1//EN"
  "http://www.w3.org/Graphics/SVG/1.1/DTD/svg11.dtd">
<svg xmlns:xlink="http://www.w3.org/1999/xlink" width="400pt" height="225pt" viewBox="0 0 400 225" xmlns="http://www.w3.org/2000/svg" version="1.1">
 <metadata>
  <rdf:RDF xmlns:dc="http://purl.org/dc/elements/1.1/" xmlns:cc="http://creativecommons.org/ns#" xmlns:rdf="http://www.w3.org/1999/02/22-rdf-syntax-ns#">
   <cc:Work>
    <dc:type rdf:resource="http://purl.org/dc/dcmitype/StillImage"/>
    <dc:date>2024-12-13T04:08:58.160605</dc:date>
    <dc:format>image/svg+xml</dc:format>
    <dc:creator>
     <cc:Agent>
      <dc:title>Matplotlib v3.9.3, https://matplotlib.org/</dc:title>
     </cc:Agent>
    </dc:creator>
   </cc:Work>
  </rdf:RDF>
 </metadata>
 <defs>
  <style type="text/css">*{stroke-linejoin: round; stroke-linecap: butt}</style>
 </defs>
 <g id="figure_1">
  <g id="patch_1">
   <path d="M 0 225 
L 400 225 
L 400 0 
L 0 0 
L 0 225 
z
" style="fill: none"/>
  </g>
  <g id="axes_1">
   <g id="patch_2">
    <path d="M 257.404719 102.986842 
C 257.404719 93.582218 254.873068 84.348748 250.076498 76.259256 
C 245.279928 68.169765 238.393023 61.518692 230.141378 57.006785 
L 240.916254 37.301046 
C 252.704319 43.746627 262.542755 53.24816 269.394997 64.804576 
C 276.24724 76.360993 279.863884 89.551665 279.863884 102.986842 
z
" clip-path="url(#p90e8dc3283)" style="fill: #f34b7d"/>
   </g>
   <g id="patch_3">
    <path d="M 230.141378 57.006785 
C 228.451704 56.08289 226.712386 55.252835 224.931342 54.520399 
C 223.150298 53.787962 221.330234 53.154256 219.479433 52.622166 
L 225.684905 31.037305 
C 228.328905 31.797434 230.928997 32.702728 233.473346 33.749066 
C 236.017694 34.795404 238.502434 35.981196 240.916254 37.301046 
z
" clip-path="url(#p90e8dc3283)" style="fill: #5e5086"/>
   </g>
   <g id="patch_4">
    <path d="M 219.479433 52.622166 
C 217.670634 52.102151 215.835134 51.679956 213.980912 51.357415 
C 212.126691 51.034874 210.25644 50.812456 208.378289 50.691128 
L 209.826127 28.278679 
C 212.509199 28.452005 215.180987 28.769745 217.829875 29.230518 
C 220.478763 29.69129 223.100906 30.294427 225.684905 31.037305 
z
" clip-path="url(#p90e8dc3283)" style="fill: #3572a5"/>
   </g>
   <g id="patch_5">
    <path d="M 208.378289 50.691128 
C 203.333303 50.365223 198.267602 50.771064 193.338853 51.896019 
C 188.410104 53.020974 183.669977 54.853249 179.266007 57.335817 
L 168.237153 37.771091 
C 174.528539 34.224567 181.300148 31.607031 188.341219 29.999952 
C 195.382289 28.392874 202.619005 27.813101 209.826127 28.278679 
z
" clip-path="url(#p90e8dc3283)" style="fill: #555555"/>
   </g>
   <g id="patch_6">
    <path d="M 179.266007 57.335817 
C 174.526056 60.00778 170.231037 63.40174 166.535584 67.395505 
C 162.840132 71.38927 159.789133 75.934328 157.492431 80.867044 
L 137.132045 71.387131 
C 140.413046 64.340393 144.771617 57.847453 150.050835 52.142075 
C 155.330053 46.436697 161.465794 41.588182 168.237153 37.771091 
z
" clip-path="url(#p90e8dc3283)" style="fill: #3178c6"/>
   </g>
   <g id="patch_7">
    <path d="M 157.492431 80.867044 
C 154.596485 87.086783 152.949969 93.81512 152.646552 100.669287 
C 152.343136 107.523453 153.388683 114.370961 155.723714 120.822263 
L 134.605306 128.466014 
C 131.269547 119.24987 129.775908 109.467715 130.209361 99.676049 
C 130.642813 89.884382 132.994978 80.272472 137.132045 71.387131 
z
" clip-path="url(#p90e8dc3283)" style="fill: #dea584"/>
   </g>
   <g id="patch_8">
    <path d="M 155.723714 120.822263 
C 155.951831 121.452511 156.192018 122.078325 156.444143 122.699359 
C 156.696268 123.320393 156.960285 123.936533 157.236047 124.547438 
L 136.765781 133.787693 
C 136.371835 132.914971 135.994669 132.034772 135.63449 131.14758 
C 135.274312 130.260389 134.931187 129.366369 134.605306 128.466014 
z
" clip-path="url(#p90e8dc3283)" style="fill: #89e051"/>
   </g>
   <g id="patch_9">
    <path d="M 157.236047 124.547438 
C 158.857126 128.138673 160.878069 131.535653 163.26053 134.673925 
C 165.642992 137.812197 168.371808 140.671785 171.395203 143.198434 
L 156.993147 160.431974 
C 152.674011 156.822475 148.775703 152.737349 145.372186 148.254103 
C 141.96867 143.770858 139.081609 138.91803 136.765781 133.787693 
z
" clip-path="url(#p90e8dc3283)" style="fill: #f1e05a"/>
   </g>
   <g id="patch_10">
    <path d="M 171.395203 143.198434 
C 174.658351 145.925445 178.241344 148.245141 182.065062 150.106298 
C 185.88878 151.967456 189.924869 153.356274 194.084204 154.242085 
L 189.406005 176.208618 
C 183.464098 174.943174 177.698257 172.959148 172.235803 170.300351 
C 166.773349 167.641555 161.654787 164.327703 156.993147 160.431974 
z
" clip-path="url(#p90e8dc3283)" style="fill: #00add8"/>
   </g>
   <g id="patch_11">
    <path d="M 194.084204 154.242085 
C 196.499375 154.756442 198.947883 155.099451 201.411422 155.268547 
C 203.87496 155.437642 206.347372 155.432402 208.810172 155.252865 
L 210.443102 177.652589 
C 206.924818 177.90907 203.3928 177.916557 199.87346 177.674992 
C 196.354119 177.433427 192.856249 176.943414 189.406005 176.208618 
z
" clip-path="url(#p90e8dc3283)" style="fill: #000080"/>
   </g>
   <g id="patch_12">
    <path d="M 208.810172 155.252865 
C 215.828812 154.741209 222.673015 152.820989 228.933495 149.607035 
C 235.193975 146.393081 240.743401 141.95076 245.249919 136.545725 
L 262.499884 150.928103 
C 256.062002 158.649582 248.134249 164.995754 239.190707 169.587118 
C 230.247164 174.178481 220.469732 176.921652 210.443102 177.652589 
z
" clip-path="url(#p90e8dc3283)" style="fill: #b07219"/>
   </g>
   <g id="patch_13">
    <path d="M 245.249919 136.545725 
C 249.146862 131.871801 252.200069 126.554612 254.272407 120.832974 
C 256.344746 115.111337 257.404719 109.072212 257.404719 102.986842 
L 279.863884 102.986842 
C 279.863884 111.680228 278.349637 120.307548 275.389153 128.481317 
C 272.428669 136.655085 268.066946 144.251069 262.499884 150.928103 
z
" clip-path="url(#p90e8dc3283)" style="fill: #178600"/>
   </g>
  </g>
  <g id="axes_2">
   <g id="legend_1">
    <g id="patch_14">
     <path d="M 22.634375 219.06375 
L 387.365625 219.06375 
Q 388.965625 219.06375 388.965625 217.46375 
L 388.965625 183.03625 
Q 388.965625 181.43625 387.365625 181.43625 
L 22.634375 181.43625 
Q 21.034375 181.43625 21.034375 183.03625 
L 21.034375 217.46375 
Q 21.034375 219.06375 22.634375 219.06375 
z
" style="fill: #ffffff; opacity: 0.8; stroke: #cccccc; stroke-linejoin: miter"/>
    </g>
    <g id="patch_15">
     <path d="M 24.234375 190.715 
L 40.234375 190.715 
L 40.234375 185.115 
L 24.234375 185.115 
z
" style="fill: #f34b7d"/>
    </g>
    <g id="text_1">
     <!-- C++ 17.0% -->
     <g transform="translate(46.634375 190.715) scale(0.08 -0.08)">
      <defs>
       <path id="DejaVuSans-43" d="M 4122 4306 
L 4122 3641 
Q 3803 3938 3442 4084 
Q 3081 4231 2675 4231 
Q 1875 4231 1450 3742 
Q 1025 3253 1025 2328 
Q 1025 1406 1450 917 
Q 1875 428 2675 428 
Q 3081 428 3442 575 
Q 3803 722 4122 1019 
L 4122 359 
Q 3791 134 3420 21 
Q 3050 -91 2638 -91 
Q 1578 -91 968 557 
Q 359 1206 359 2328 
Q 359 3453 968 4101 
Q 1578 4750 2638 4750 
Q 3056 4750 3426 4639 
Q 3797 4528 4122 4306 
z
" transform="scale(0.015625)"/>
       <path id="DejaVuSans-2b" d="M 2944 4013 
L 2944 2272 
L 4684 2272 
L 4684 1741 
L 2944 1741 
L 2944 0 
L 2419 0 
L 2419 1741 
L 678 1741 
L 678 2272 
L 2419 2272 
L 2419 4013 
L 2944 4013 
z
" transform="scale(0.015625)"/>
       <path id="DejaVuSans-20" transform="scale(0.015625)"/>
       <path id="DejaVuSans-31" d="M 794 531 
L 1825 531 
L 1825 4091 
L 703 3866 
L 703 4441 
L 1819 4666 
L 2450 4666 
L 2450 531 
L 3481 531 
L 3481 0 
L 794 0 
L 794 531 
z
" transform="scale(0.015625)"/>
       <path id="DejaVuSans-37" d="M 525 4666 
L 3525 4666 
L 3525 4397 
L 1831 0 
L 1172 0 
L 2766 4134 
L 525 4134 
L 525 4666 
z
" transform="scale(0.015625)"/>
       <path id="DejaVuSans-2e" d="M 684 794 
L 1344 794 
L 1344 0 
L 684 0 
L 684 794 
z
" transform="scale(0.015625)"/>
       <path id="DejaVuSans-30" d="M 2034 4250 
Q 1547 4250 1301 3770 
Q 1056 3291 1056 2328 
Q 1056 1369 1301 889 
Q 1547 409 2034 409 
Q 2525 409 2770 889 
Q 3016 1369 3016 2328 
Q 3016 3291 2770 3770 
Q 2525 4250 2034 4250 
z
M 2034 4750 
Q 2819 4750 3233 4129 
Q 3647 3509 3647 2328 
Q 3647 1150 3233 529 
Q 2819 -91 2034 -91 
Q 1250 -91 836 529 
Q 422 1150 422 2328 
Q 422 3509 836 4129 
Q 1250 4750 2034 4750 
z
" transform="scale(0.015625)"/>
       <path id="DejaVuSans-25" d="M 4653 2053 
Q 4381 2053 4226 1822 
Q 4072 1591 4072 1178 
Q 4072 772 4226 539 
Q 4381 306 4653 306 
Q 4919 306 5073 539 
Q 5228 772 5228 1178 
Q 5228 1588 5073 1820 
Q 4919 2053 4653 2053 
z
M 4653 2450 
Q 5147 2450 5437 2106 
Q 5728 1763 5728 1178 
Q 5728 594 5436 251 
Q 5144 -91 4653 -91 
Q 4153 -91 3862 251 
Q 3572 594 3572 1178 
Q 3572 1766 3864 2108 
Q 4156 2450 4653 2450 
z
M 1428 4353 
Q 1159 4353 1004 4120 
Q 850 3888 850 3481 
Q 850 3069 1003 2837 
Q 1156 2606 1428 2606 
Q 1700 2606 1854 2837 
Q 2009 3069 2009 3481 
Q 2009 3884 1853 4118 
Q 1697 4353 1428 4353 
z
M 4250 4750 
L 4750 4750 
L 1831 -91 
L 1331 -91 
L 4250 4750 
z
M 1428 4750 
Q 1922 4750 2215 4408 
Q 2509 4066 2509 3481 
Q 2509 2891 2217 2550 
Q 1925 2209 1428 2209 
Q 931 2209 642 2551 
Q 353 2894 353 3481 
Q 353 4063 643 4406 
Q 934 4750 1428 4750 
z
" transform="scale(0.015625)"/>
      </defs>
      <use xlink:href="#DejaVuSans-43"/>
      <use xlink:href="#DejaVuSans-2b" x="69.824219"/>
      <use xlink:href="#DejaVuSans-2b" x="153.613281"/>
      <use xlink:href="#DejaVuSans-20" x="237.402344"/>
      <use xlink:href="#DejaVuSans-31" x="269.189453"/>
      <use xlink:href="#DejaVuSans-37" x="332.8125"/>
      <use xlink:href="#DejaVuSans-2e" x="396.435547"/>
      <use xlink:href="#DejaVuSans-30" x="428.222656"/>
      <use xlink:href="#DejaVuSans-25" x="491.845703"/>
     </g>
    </g>
    <g id="patch_16">
     <path d="M 24.234375 202.4575 
L 40.234375 202.4575 
L 40.234375 196.8575 
L 24.234375 196.8575 
z
" style="fill: #5e5086"/>
    </g>
    <g id="text_2">
     <!-- Haskell 3.5% -->
     <g transform="translate(46.634375 202.4575) scale(0.08 -0.08)">
      <defs>
       <path id="DejaVuSans-48" d="M 628 4666 
L 1259 4666 
L 1259 2753 
L 3553 2753 
L 3553 4666 
L 4184 4666 
L 4184 0 
L 3553 0 
L 3553 2222 
L 1259 2222 
L 1259 0 
L 628 0 
L 628 4666 
z
" transform="scale(0.015625)"/>
       <path id="DejaVuSans-61" d="M 2194 1759 
Q 1497 1759 1228 1600 
Q 959 1441 959 1056 
Q 959 750 1161 570 
Q 1363 391 1709 391 
Q 2188 391 2477 730 
Q 2766 1069 2766 1631 
L 2766 1759 
L 2194 1759 
z
M 3341 1997 
L 3341 0 
L 2766 0 
L 2766 531 
Q 2569 213 2275 61 
Q 1981 -91 1556 -91 
Q 1019 -91 701 211 
Q 384 513 384 1019 
Q 384 1609 779 1909 
Q 1175 2209 1959 2209 
L 2766 2209 
L 2766 2266 
Q 2766 2663 2505 2880 
Q 2244 3097 1772 3097 
Q 1472 3097 1187 3025 
Q 903 2953 641 2809 
L 641 3341 
Q 956 3463 1253 3523 
Q 1550 3584 1831 3584 
Q 2591 3584 2966 3190 
Q 3341 2797 3341 1997 
z
" transform="scale(0.015625)"/>
       <path id="DejaVuSans-73" d="M 2834 3397 
L 2834 2853 
Q 2591 2978 2328 3040 
Q 2066 3103 1784 3103 
Q 1356 3103 1142 2972 
Q 928 2841 928 2578 
Q 928 2378 1081 2264 
Q 1234 2150 1697 2047 
L 1894 2003 
Q 2506 1872 2764 1633 
Q 3022 1394 3022 966 
Q 3022 478 2636 193 
Q 2250 -91 1575 -91 
Q 1294 -91 989 -36 
Q 684 19 347 128 
L 347 722 
Q 666 556 975 473 
Q 1284 391 1588 391 
Q 1994 391 2212 530 
Q 2431 669 2431 922 
Q 2431 1156 2273 1281 
Q 2116 1406 1581 1522 
L 1381 1569 
Q 847 1681 609 1914 
Q 372 2147 372 2553 
Q 372 3047 722 3315 
Q 1072 3584 1716 3584 
Q 2034 3584 2315 3537 
Q 2597 3491 2834 3397 
z
" transform="scale(0.015625)"/>
       <path id="DejaVuSans-6b" d="M 581 4863 
L 1159 4863 
L 1159 1991 
L 2875 3500 
L 3609 3500 
L 1753 1863 
L 3688 0 
L 2938 0 
L 1159 1709 
L 1159 0 
L 581 0 
L 581 4863 
z
" transform="scale(0.015625)"/>
       <path id="DejaVuSans-65" d="M 3597 1894 
L 3597 1613 
L 953 1613 
Q 991 1019 1311 708 
Q 1631 397 2203 397 
Q 2534 397 2845 478 
Q 3156 559 3463 722 
L 3463 178 
Q 3153 47 2828 -22 
Q 2503 -91 2169 -91 
Q 1331 -91 842 396 
Q 353 884 353 1716 
Q 353 2575 817 3079 
Q 1281 3584 2069 3584 
Q 2775 3584 3186 3129 
Q 3597 2675 3597 1894 
z
M 3022 2063 
Q 3016 2534 2758 2815 
Q 2500 3097 2075 3097 
Q 1594 3097 1305 2825 
Q 1016 2553 972 2059 
L 3022 2063 
z
" transform="scale(0.015625)"/>
       <path id="DejaVuSans-6c" d="M 603 4863 
L 1178 4863 
L 1178 0 
L 603 0 
L 603 4863 
z
" transform="scale(0.015625)"/>
       <path id="DejaVuSans-33" d="M 2597 2516 
Q 3050 2419 3304 2112 
Q 3559 1806 3559 1356 
Q 3559 666 3084 287 
Q 2609 -91 1734 -91 
Q 1441 -91 1130 -33 
Q 819 25 488 141 
L 488 750 
Q 750 597 1062 519 
Q 1375 441 1716 441 
Q 2309 441 2620 675 
Q 2931 909 2931 1356 
Q 2931 1769 2642 2001 
Q 2353 2234 1838 2234 
L 1294 2234 
L 1294 2753 
L 1863 2753 
Q 2328 2753 2575 2939 
Q 2822 3125 2822 3475 
Q 2822 3834 2567 4026 
Q 2313 4219 1838 4219 
Q 1578 4219 1281 4162 
Q 984 4106 628 3988 
L 628 4550 
Q 988 4650 1302 4700 
Q 1616 4750 1894 4750 
Q 2613 4750 3031 4423 
Q 3450 4097 3450 3541 
Q 3450 3153 3228 2886 
Q 3006 2619 2597 2516 
z
" transform="scale(0.015625)"/>
       <path id="DejaVuSans-35" d="M 691 4666 
L 3169 4666 
L 3169 4134 
L 1269 4134 
L 1269 2991 
Q 1406 3038 1543 3061 
Q 1681 3084 1819 3084 
Q 2600 3084 3056 2656 
Q 3513 2228 3513 1497 
Q 3513 744 3044 326 
Q 2575 -91 1722 -91 
Q 1428 -91 1123 -41 
Q 819 9 494 109 
L 494 744 
Q 775 591 1075 516 
Q 1375 441 1709 441 
Q 2250 441 2565 725 
Q 2881 1009 2881 1497 
Q 2881 1984 2565 2268 
Q 2250 2553 1709 2553 
Q 1456 2553 1204 2497 
Q 953 2441 691 2322 
L 691 4666 
z
" transform="scale(0.015625)"/>
      </defs>
      <use xlink:href="#DejaVuSans-48"/>
      <use xlink:href="#DejaVuSans-61" x="75.195312"/>
      <use xlink:href="#DejaVuSans-73" x="136.474609"/>
      <use xlink:href="#DejaVuSans-6b" x="188.574219"/>
      <use xlink:href="#DejaVuSans-65" x="242.859375"/>
      <use xlink:href="#DejaVuSans-6c" x="304.382812"/>
      <use xlink:href="#DejaVuSans-6c" x="332.166016"/>
      <use xlink:href="#DejaVuSans-20" x="359.949219"/>
      <use xlink:href="#DejaVuSans-33" x="391.736328"/>
      <use xlink:href="#DejaVuSans-2e" x="455.359375"/>
      <use xlink:href="#DejaVuSans-35" x="487.146484"/>
      <use xlink:href="#DejaVuSans-25" x="550.769531"/>
     </g>
    </g>
    <g id="patch_17">
     <path d="M 24.234375 214.2 
L 40.234375 214.2 
L 40.234375 208.6 
L 24.234375 208.6 
z
" style="fill: #3572a5"/>
    </g>
    <g id="text_3">
     <!-- Python 3.4% -->
     <g transform="translate(46.634375 214.2) scale(0.08 -0.08)">
      <defs>
       <path id="DejaVuSans-50" d="M 1259 4147 
L 1259 2394 
L 2053 2394 
Q 2494 2394 2734 2622 
Q 2975 2850 2975 3272 
Q 2975 3691 2734 3919 
Q 2494 4147 2053 4147 
L 1259 4147 
z
M 628 4666 
L 2053 4666 
Q 2838 4666 3239 4311 
Q 3641 3956 3641 3272 
Q 3641 2581 3239 2228 
Q 2838 1875 2053 1875 
L 1259 1875 
L 1259 0 
L 628 0 
L 628 4666 
z
" transform="scale(0.015625)"/>
       <path id="DejaVuSans-79" d="M 2059 -325 
Q 1816 -950 1584 -1140 
Q 1353 -1331 966 -1331 
L 506 -1331 
L 506 -850 
L 844 -850 
Q 1081 -850 1212 -737 
Q 1344 -625 1503 -206 
L 1606 56 
L 191 3500 
L 800 3500 
L 1894 763 
L 2988 3500 
L 3597 3500 
L 2059 -325 
z
" transform="scale(0.015625)"/>
       <path id="DejaVuSans-74" d="M 1172 4494 
L 1172 3500 
L 2356 3500 
L 2356 3053 
L 1172 3053 
L 1172 1153 
Q 1172 725 1289 603 
Q 1406 481 1766 481 
L 2356 481 
L 2356 0 
L 1766 0 
Q 1100 0 847 248 
Q 594 497 594 1153 
L 594 3053 
L 172 3053 
L 172 3500 
L 594 3500 
L 594 4494 
L 1172 4494 
z
" transform="scale(0.015625)"/>
       <path id="DejaVuSans-68" d="M 3513 2113 
L 3513 0 
L 2938 0 
L 2938 2094 
Q 2938 2591 2744 2837 
Q 2550 3084 2163 3084 
Q 1697 3084 1428 2787 
Q 1159 2491 1159 1978 
L 1159 0 
L 581 0 
L 581 4863 
L 1159 4863 
L 1159 2956 
Q 1366 3272 1645 3428 
Q 1925 3584 2291 3584 
Q 2894 3584 3203 3211 
Q 3513 2838 3513 2113 
z
" transform="scale(0.015625)"/>
       <path id="DejaVuSans-6f" d="M 1959 3097 
Q 1497 3097 1228 2736 
Q 959 2375 959 1747 
Q 959 1119 1226 758 
Q 1494 397 1959 397 
Q 2419 397 2687 759 
Q 2956 1122 2956 1747 
Q 2956 2369 2687 2733 
Q 2419 3097 1959 3097 
z
M 1959 3584 
Q 2709 3584 3137 3096 
Q 3566 2609 3566 1747 
Q 3566 888 3137 398 
Q 2709 -91 1959 -91 
Q 1206 -91 779 398 
Q 353 888 353 1747 
Q 353 2609 779 3096 
Q 1206 3584 1959 3584 
z
" transform="scale(0.015625)"/>
       <path id="DejaVuSans-6e" d="M 3513 2113 
L 3513 0 
L 2938 0 
L 2938 2094 
Q 2938 2591 2744 2837 
Q 2550 3084 2163 3084 
Q 1697 3084 1428 2787 
Q 1159 2491 1159 1978 
L 1159 0 
L 581 0 
L 581 3500 
L 1159 3500 
L 1159 2956 
Q 1366 3272 1645 3428 
Q 1925 3584 2291 3584 
Q 2894 3584 3203 3211 
Q 3513 2838 3513 2113 
z
" transform="scale(0.015625)"/>
       <path id="DejaVuSans-34" d="M 2419 4116 
L 825 1625 
L 2419 1625 
L 2419 4116 
z
M 2253 4666 
L 3047 4666 
L 3047 1625 
L 3713 1625 
L 3713 1100 
L 3047 1100 
L 3047 0 
L 2419 0 
L 2419 1100 
L 313 1100 
L 313 1709 
L 2253 4666 
z
" transform="scale(0.015625)"/>
      </defs>
      <use xlink:href="#DejaVuSans-50"/>
      <use xlink:href="#DejaVuSans-79" x="60.302734"/>
      <use xlink:href="#DejaVuSans-74" x="119.482422"/>
      <use xlink:href="#DejaVuSans-68" x="158.691406"/>
      <use xlink:href="#DejaVuSans-6f" x="222.070312"/>
      <use xlink:href="#DejaVuSans-6e" x="283.251953"/>
      <use xlink:href="#DejaVuSans-20" x="346.630859"/>
      <use xlink:href="#DejaVuSans-33" x="378.417969"/>
      <use xlink:href="#DejaVuSans-2e" x="442.041016"/>
      <use xlink:href="#DejaVuSans-34" x="473.828125"/>
      <use xlink:href="#DejaVuSans-25" x="537.451172"/>
     </g>
    </g>
    <g id="patch_18">
     <path d="M 114.296875 190.715 
L 130.296875 190.715 
L 130.296875 185.115 
L 114.296875 185.115 
z
" style="fill: #555555"/>
    </g>
    <g id="text_4">
     <!-- C 9.2% -->
     <g transform="translate(136.696875 190.715) scale(0.08 -0.08)">
      <defs>
       <path id="DejaVuSans-39" d="M 703 97 
L 703 672 
Q 941 559 1184 500 
Q 1428 441 1663 441 
Q 2288 441 2617 861 
Q 2947 1281 2994 2138 
Q 2813 1869 2534 1725 
Q 2256 1581 1919 1581 
Q 1219 1581 811 2004 
Q 403 2428 403 3163 
Q 403 3881 828 4315 
Q 1253 4750 1959 4750 
Q 2769 4750 3195 4129 
Q 3622 3509 3622 2328 
Q 3622 1225 3098 567 
Q 2575 -91 1691 -91 
Q 1453 -91 1209 -44 
Q 966 3 703 97 
z
M 1959 2075 
Q 2384 2075 2632 2365 
Q 2881 2656 2881 3163 
Q 2881 3666 2632 3958 
Q 2384 4250 1959 4250 
Q 1534 4250 1286 3958 
Q 1038 3666 1038 3163 
Q 1038 2656 1286 2365 
Q 1534 2075 1959 2075 
z
" transform="scale(0.015625)"/>
       <path id="DejaVuSans-32" d="M 1228 531 
L 3431 531 
L 3431 0 
L 469 0 
L 469 531 
Q 828 903 1448 1529 
Q 2069 2156 2228 2338 
Q 2531 2678 2651 2914 
Q 2772 3150 2772 3378 
Q 2772 3750 2511 3984 
Q 2250 4219 1831 4219 
Q 1534 4219 1204 4116 
Q 875 4013 500 3803 
L 500 4441 
Q 881 4594 1212 4672 
Q 1544 4750 1819 4750 
Q 2544 4750 2975 4387 
Q 3406 4025 3406 3419 
Q 3406 3131 3298 2873 
Q 3191 2616 2906 2266 
Q 2828 2175 2409 1742 
Q 1991 1309 1228 531 
z
" transform="scale(0.015625)"/>
      </defs>
      <use xlink:href="#DejaVuSans-43"/>
      <use xlink:href="#DejaVuSans-20" x="69.824219"/>
      <use xlink:href="#DejaVuSans-39" x="101.611328"/>
      <use xlink:href="#DejaVuSans-2e" x="165.234375"/>
      <use xlink:href="#DejaVuSans-32" x="197.021484"/>
      <use xlink:href="#DejaVuSans-25" x="260.644531"/>
     </g>
    </g>
    <g id="patch_19">
     <path d="M 114.296875 202.4575 
L 130.296875 202.4575 
L 130.296875 196.8575 
L 114.296875 196.8575 
z
" style="fill: #3178c6"/>
    </g>
    <g id="text_5">
     <!-- TypeScript 9.9% -->
     <g transform="translate(136.696875 202.4575) scale(0.08 -0.08)">
      <defs>
       <path id="DejaVuSans-54" d="M -19 4666 
L 3928 4666 
L 3928 4134 
L 2272 4134 
L 2272 0 
L 1638 0 
L 1638 4134 
L -19 4134 
L -19 4666 
z
" transform="scale(0.015625)"/>
       <path id="DejaVuSans-70" d="M 1159 525 
L 1159 -1331 
L 581 -1331 
L 581 3500 
L 1159 3500 
L 1159 2969 
Q 1341 3281 1617 3432 
Q 1894 3584 2278 3584 
Q 2916 3584 3314 3078 
Q 3713 2572 3713 1747 
Q 3713 922 3314 415 
Q 2916 -91 2278 -91 
Q 1894 -91 1617 61 
Q 1341 213 1159 525 
z
M 3116 1747 
Q 3116 2381 2855 2742 
Q 2594 3103 2138 3103 
Q 1681 3103 1420 2742 
Q 1159 2381 1159 1747 
Q 1159 1113 1420 752 
Q 1681 391 2138 391 
Q 2594 391 2855 752 
Q 3116 1113 3116 1747 
z
" transform="scale(0.015625)"/>
       <path id="DejaVuSans-53" d="M 3425 4513 
L 3425 3897 
Q 3066 4069 2747 4153 
Q 2428 4238 2131 4238 
Q 1616 4238 1336 4038 
Q 1056 3838 1056 3469 
Q 1056 3159 1242 3001 
Q 1428 2844 1947 2747 
L 2328 2669 
Q 3034 2534 3370 2195 
Q 3706 1856 3706 1288 
Q 3706 609 3251 259 
Q 2797 -91 1919 -91 
Q 1588 -91 1214 -16 
Q 841 59 441 206 
L 441 856 
Q 825 641 1194 531 
Q 1563 422 1919 422 
Q 2459 422 2753 634 
Q 3047 847 3047 1241 
Q 3047 1584 2836 1778 
Q 2625 1972 2144 2069 
L 1759 2144 
Q 1053 2284 737 2584 
Q 422 2884 422 3419 
Q 422 4038 858 4394 
Q 1294 4750 2059 4750 
Q 2388 4750 2728 4690 
Q 3069 4631 3425 4513 
z
" transform="scale(0.015625)"/>
       <path id="DejaVuSans-63" d="M 3122 3366 
L 3122 2828 
Q 2878 2963 2633 3030 
Q 2388 3097 2138 3097 
Q 1578 3097 1268 2742 
Q 959 2388 959 1747 
Q 959 1106 1268 751 
Q 1578 397 2138 397 
Q 2388 397 2633 464 
Q 2878 531 3122 666 
L 3122 134 
Q 2881 22 2623 -34 
Q 2366 -91 2075 -91 
Q 1284 -91 818 406 
Q 353 903 353 1747 
Q 353 2603 823 3093 
Q 1294 3584 2113 3584 
Q 2378 3584 2631 3529 
Q 2884 3475 3122 3366 
z
" transform="scale(0.015625)"/>
       <path id="DejaVuSans-72" d="M 2631 2963 
Q 2534 3019 2420 3045 
Q 2306 3072 2169 3072 
Q 1681 3072 1420 2755 
Q 1159 2438 1159 1844 
L 1159 0 
L 581 0 
L 581 3500 
L 1159 3500 
L 1159 2956 
Q 1341 3275 1631 3429 
Q 1922 3584 2338 3584 
Q 2397 3584 2469 3576 
Q 2541 3569 2628 3553 
L 2631 2963 
z
" transform="scale(0.015625)"/>
       <path id="DejaVuSans-69" d="M 603 3500 
L 1178 3500 
L 1178 0 
L 603 0 
L 603 3500 
z
M 603 4863 
L 1178 4863 
L 1178 4134 
L 603 4134 
L 603 4863 
z
" transform="scale(0.015625)"/>
      </defs>
      <use xlink:href="#DejaVuSans-54"/>
      <use xlink:href="#DejaVuSans-79" x="45.458984"/>
      <use xlink:href="#DejaVuSans-70" x="104.638672"/>
      <use xlink:href="#DejaVuSans-65" x="168.115234"/>
      <use xlink:href="#DejaVuSans-53" x="229.638672"/>
      <use xlink:href="#DejaVuSans-63" x="293.115234"/>
      <use xlink:href="#DejaVuSans-72" x="348.095703"/>
      <use xlink:href="#DejaVuSans-69" x="389.208984"/>
      <use xlink:href="#DejaVuSans-70" x="416.992188"/>
      <use xlink:href="#DejaVuSans-74" x="480.46875"/>
      <use xlink:href="#DejaVuSans-20" x="519.677734"/>
      <use xlink:href="#DejaVuSans-39" x="551.464844"/>
      <use xlink:href="#DejaVuSans-2e" x="615.087891"/>
      <use xlink:href="#DejaVuSans-39" x="646.875"/>
      <use xlink:href="#DejaVuSans-25" x="710.498047"/>
     </g>
    </g>
    <g id="patch_20">
     <path d="M 114.296875 214.2 
L 130.296875 214.2 
L 130.296875 208.6 
L 114.296875 208.6 
z
" style="fill: #dea584"/>
    </g>
    <g id="text_6">
     <!-- Rust 12.5% -->
     <g transform="translate(136.696875 214.2) scale(0.08 -0.08)">
      <defs>
       <path id="DejaVuSans-52" d="M 2841 2188 
Q 3044 2119 3236 1894 
Q 3428 1669 3622 1275 
L 4263 0 
L 3584 0 
L 2988 1197 
Q 2756 1666 2539 1819 
Q 2322 1972 1947 1972 
L 1259 1972 
L 1259 0 
L 628 0 
L 628 4666 
L 2053 4666 
Q 2853 4666 3247 4331 
Q 3641 3997 3641 3322 
Q 3641 2881 3436 2590 
Q 3231 2300 2841 2188 
z
M 1259 4147 
L 1259 2491 
L 2053 2491 
Q 2509 2491 2742 2702 
Q 2975 2913 2975 3322 
Q 2975 3731 2742 3939 
Q 2509 4147 2053 4147 
L 1259 4147 
z
" transform="scale(0.015625)"/>
       <path id="DejaVuSans-75" d="M 544 1381 
L 544 3500 
L 1119 3500 
L 1119 1403 
Q 1119 906 1312 657 
Q 1506 409 1894 409 
Q 2359 409 2629 706 
Q 2900 1003 2900 1516 
L 2900 3500 
L 3475 3500 
L 3475 0 
L 2900 0 
L 2900 538 
Q 2691 219 2414 64 
Q 2138 -91 1772 -91 
Q 1169 -91 856 284 
Q 544 659 544 1381 
z
M 1991 3584 
L 1991 3584 
z
" transform="scale(0.015625)"/>
      </defs>
      <use xlink:href="#DejaVuSans-52"/>
      <use xlink:href="#DejaVuSans-75" x="64.982422"/>
      <use xlink:href="#DejaVuSans-73" x="128.361328"/>
      <use xlink:href="#DejaVuSans-74" x="180.460938"/>
      <use xlink:href="#DejaVuSans-20" x="219.669922"/>
      <use xlink:href="#DejaVuSans-31" x="251.457031"/>
      <use xlink:href="#DejaVuSans-32" x="315.080078"/>
      <use xlink:href="#DejaVuSans-2e" x="378.703125"/>
      <use xlink:href="#DejaVuSans-35" x="410.490234"/>
      <use xlink:href="#DejaVuSans-25" x="474.113281"/>
     </g>
    </g>
    <g id="patch_21">
     <path d="M 217.139375 190.715 
L 233.139375 190.715 
L 233.139375 185.115 
L 217.139375 185.115 
z
" style="fill: #89e051"/>
    </g>
    <g id="text_7">
     <!-- Shell 1.2% -->
     <g transform="translate(239.539375 190.715) scale(0.08 -0.08)">
      <use xlink:href="#DejaVuSans-53"/>
      <use xlink:href="#DejaVuSans-68" x="63.476562"/>
      <use xlink:href="#DejaVuSans-65" x="126.855469"/>
      <use xlink:href="#DejaVuSans-6c" x="188.378906"/>
      <use xlink:href="#DejaVuSans-6c" x="216.162109"/>
      <use xlink:href="#DejaVuSans-20" x="243.945312"/>
      <use xlink:href="#DejaVuSans-31" x="275.732422"/>
      <use xlink:href="#DejaVuSans-2e" x="339.355469"/>
      <use xlink:href="#DejaVuSans-32" x="371.142578"/>
      <use xlink:href="#DejaVuSans-25" x="434.765625"/>
     </g>
    </g>
    <g id="patch_22">
     <path d="M 217.139375 202.4575 
L 233.139375 202.4575 
L 233.139375 196.8575 
L 217.139375 196.8575 
z
" style="fill: #f1e05a"/>
    </g>
    <g id="text_8">
     <!-- JavaScript 7.2% -->
     <g transform="translate(239.539375 202.4575) scale(0.08 -0.08)">
      <defs>
       <path id="DejaVuSans-4a" d="M 628 4666 
L 1259 4666 
L 1259 325 
Q 1259 -519 939 -900 
Q 619 -1281 -91 -1281 
L -331 -1281 
L -331 -750 
L -134 -750 
Q 284 -750 456 -515 
Q 628 -281 628 325 
L 628 4666 
z
" transform="scale(0.015625)"/>
       <path id="DejaVuSans-76" d="M 191 3500 
L 800 3500 
L 1894 563 
L 2988 3500 
L 3597 3500 
L 2284 0 
L 1503 0 
L 191 3500 
z
" transform="scale(0.015625)"/>
      </defs>
      <use xlink:href="#DejaVuSans-4a"/>
      <use xlink:href="#DejaVuSans-61" x="29.492188"/>
      <use xlink:href="#DejaVuSans-76" x="90.771484"/>
      <use xlink:href="#DejaVuSans-61" x="149.951172"/>
      <use xlink:href="#DejaVuSans-53" x="211.230469"/>
      <use xlink:href="#DejaVuSans-63" x="274.707031"/>
      <use xlink:href="#DejaVuSans-72" x="329.6875"/>
      <use xlink:href="#DejaVuSans-69" x="370.800781"/>
      <use xlink:href="#DejaVuSans-70" x="398.583984"/>
      <use xlink:href="#DejaVuSans-74" x="462.060547"/>
      <use xlink:href="#DejaVuSans-20" x="501.269531"/>
      <use xlink:href="#DejaVuSans-37" x="533.056641"/>
      <use xlink:href="#DejaVuSans-2e" x="596.679688"/>
      <use xlink:href="#DejaVuSans-32" x="628.466797"/>
      <use xlink:href="#DejaVuSans-25" x="692.089844"/>
     </g>
    </g>
    <g id="patch_23">
     <path d="M 217.139375 214.2 
L 233.139375 214.2 
L 233.139375 208.6 
L 217.139375 208.6 
z
" style="fill: #00add8"/>
    </g>
    <g id="text_9">
     <!-- Go 7.7% -->
     <g transform="translate(239.539375 214.2) scale(0.08 -0.08)">
      <defs>
       <path id="DejaVuSans-47" d="M 3809 666 
L 3809 1919 
L 2778 1919 
L 2778 2438 
L 4434 2438 
L 4434 434 
Q 4069 175 3628 42 
Q 3188 -91 2688 -91 
Q 1594 -91 976 548 
Q 359 1188 359 2328 
Q 359 3472 976 4111 
Q 1594 4750 2688 4750 
Q 3144 4750 3555 4637 
Q 3966 4525 4313 4306 
L 4313 3634 
Q 3963 3931 3569 4081 
Q 3175 4231 2741 4231 
Q 1884 4231 1454 3753 
Q 1025 3275 1025 2328 
Q 1025 1384 1454 906 
Q 1884 428 2741 428 
Q 3075 428 3337 486 
Q 3600 544 3809 666 
z
" transform="scale(0.015625)"/>
      </defs>
      <use xlink:href="#DejaVuSans-47"/>
      <use xlink:href="#DejaVuSans-6f" x="77.490234"/>
      <use xlink:href="#DejaVuSans-20" x="138.671875"/>
      <use xlink:href="#DejaVuSans-37" x="170.458984"/>
      <use xlink:href="#DejaVuSans-2e" x="234.082031"/>
      <use xlink:href="#DejaVuSans-37" x="265.869141"/>
      <use xlink:href="#DejaVuSans-25" x="329.492188"/>
     </g>
    </g>
    <g id="patch_24">
     <path d="M 318.509375 190.715 
L 334.509375 190.715 
L 334.509375 185.115 
L 318.509375 185.115 
z
" style="fill: #000080"/>
    </g>
    <g id="text_10">
     <!-- Lua 4.5% -->
     <g transform="translate(340.909375 190.715) scale(0.08 -0.08)">
      <defs>
       <path id="DejaVuSans-4c" d="M 628 4666 
L 1259 4666 
L 1259 531 
L 3531 531 
L 3531 0 
L 628 0 
L 628 4666 
z
" transform="scale(0.015625)"/>
      </defs>
      <use xlink:href="#DejaVuSans-4c"/>
      <use xlink:href="#DejaVuSans-75" x="53.962891"/>
      <use xlink:href="#DejaVuSans-61" x="117.341797"/>
      <use xlink:href="#DejaVuSans-20" x="178.621094"/>
      <use xlink:href="#DejaVuSans-34" x="210.408203"/>
      <use xlink:href="#DejaVuSans-2e" x="274.03125"/>
      <use xlink:href="#DejaVuSans-35" x="305.818359"/>
      <use xlink:href="#DejaVuSans-25" x="369.441406"/>
     </g>
    </g>
    <g id="patch_25">
     <path d="M 318.509375 202.4575 
L 334.509375 202.4575 
L 334.509375 196.8575 
L 318.509375 196.8575 
z
" style="fill: #b07219"/>
    </g>
    <g id="text_11">
     <!-- Java 12.8% -->
     <g transform="translate(340.909375 202.4575) scale(0.08 -0.08)">
      <defs>
       <path id="DejaVuSans-38" d="M 2034 2216 
Q 1584 2216 1326 1975 
Q 1069 1734 1069 1313 
Q 1069 891 1326 650 
Q 1584 409 2034 409 
Q 2484 409 2743 651 
Q 3003 894 3003 1313 
Q 3003 1734 2745 1975 
Q 2488 2216 2034 2216 
z
M 1403 2484 
Q 997 2584 770 2862 
Q 544 3141 544 3541 
Q 544 4100 942 4425 
Q 1341 4750 2034 4750 
Q 2731 4750 3128 4425 
Q 3525 4100 3525 3541 
Q 3525 3141 3298 2862 
Q 3072 2584 2669 2484 
Q 3125 2378 3379 2068 
Q 3634 1759 3634 1313 
Q 3634 634 3220 271 
Q 2806 -91 2034 -91 
Q 1263 -91 848 271 
Q 434 634 434 1313 
Q 434 1759 690 2068 
Q 947 2378 1403 2484 
z
M 1172 3481 
Q 1172 3119 1398 2916 
Q 1625 2713 2034 2713 
Q 2441 2713 2670 2916 
Q 2900 3119 2900 3481 
Q 2900 3844 2670 4047 
Q 2441 4250 2034 4250 
Q 1625 4250 1398 4047 
Q 1172 3844 1172 3481 
z
" transform="scale(0.015625)"/>
      </defs>
      <use xlink:href="#DejaVuSans-4a"/>
      <use xlink:href="#DejaVuSans-61" x="29.492188"/>
      <use xlink:href="#DejaVuSans-76" x="90.771484"/>
      <use xlink:href="#DejaVuSans-61" x="149.951172"/>
      <use xlink:href="#DejaVuSans-20" x="211.230469"/>
      <use xlink:href="#DejaVuSans-31" x="243.017578"/>
      <use xlink:href="#DejaVuSans-32" x="306.640625"/>
      <use xlink:href="#DejaVuSans-2e" x="370.263672"/>
      <use xlink:href="#DejaVuSans-38" x="402.050781"/>
      <use xlink:href="#DejaVuSans-25" x="465.673828"/>
     </g>
    </g>
    <g id="patch_26">
     <path d="M 318.509375 214.2 
L 334.509375 214.2 
L 334.509375 208.6 
L 318.509375 208.6 
z
" style="fill: #178600"/>
    </g>
    <g id="text_12">
     <!-- C# 11.1% -->
     <g transform="translate(340.909375 214.2) scale(0.08 -0.08)">
      <defs>
       <path id="DejaVuSans-23" d="M 3272 2816 
L 2363 2816 
L 2100 1772 
L 3016 1772 
L 3272 2816 
z
M 2803 4594 
L 2478 3297 
L 3391 3297 
L 3719 4594 
L 4219 4594 
L 3897 3297 
L 4872 3297 
L 4872 2816 
L 3775 2816 
L 3519 1772 
L 4513 1772 
L 4513 1294 
L 3397 1294 
L 3072 0 
L 2572 0 
L 2894 1294 
L 1978 1294 
L 1656 0 
L 1153 0 
L 1478 1294 
L 494 1294 
L 494 1772 
L 1594 1772 
L 1856 2816 
L 850 2816 
L 850 3297 
L 1978 3297 
L 2297 4594 
L 2803 4594 
z
" transform="scale(0.015625)"/>
      </defs>
      <use xlink:href="#DejaVuSans-43"/>
      <use xlink:href="#DejaVuSans-23" x="69.824219"/>
      <use xlink:href="#DejaVuSans-20" x="153.613281"/>
      <use xlink:href="#DejaVuSans-31" x="185.400391"/>
      <use xlink:href="#DejaVuSans-31" x="249.023438"/>
      <use xlink:href="#DejaVuSans-2e" x="312.646484"/>
      <use xlink:href="#DejaVuSans-31" x="344.433594"/>
      <use xlink:href="#DejaVuSans-25" x="408.056641"/>
     </g>
    </g>
   </g>
  </g>
 </g>
 <defs>
  <clipPath id="p90e8dc3283">
   <path d="M 280.986842 102.986842 
C 280.986842 93.008341 279.021295 83.126869 275.202688 73.907937 
C 271.384081 64.689004 265.786677 56.311896 258.730811 49.256031 
C 251.674946 42.200165 243.297838 36.602761 234.078906 32.784154 
C 224.859973 28.965547 214.978501 27 205 27 
C 195.021499 27 185.140027 28.965547 175.921094 32.784154 
C 166.702162 36.602761 158.325054 42.200165 151.269189 49.256031 
C 144.213323 56.311896 138.615919 64.689004 134.797312 73.907937 
C 130.978705 83.126869 129.013158 93.008341 129.013158 102.986842 
C 129.013158 112.965343 130.978705 122.846815 134.797312 132.065748 
C 138.615919 141.28468 144.213323 149.661788 151.269189 156.717653 
C 158.325054 163.773519 166.702162 169.370923 175.921094 173.18953 
C 185.140027 177.008137 195.021499 178.973684 205 178.973684 
C 214.978501 178.973684 224.859973 177.008137 234.078906 173.18953 
C 243.297838 169.370923 251.674946 163.773519 258.730811 156.717653 
C 265.786677 149.661788 271.384081 141.28468 275.202688 132.065748 
C 279.021295 122.846815 280.986842 112.965343 280.986842 102.986842 
M 205 102.986842 
C 205 102.986842 205 102.986842 205 102.986842 
C 205 102.986842 205 102.986842 205 102.986842 
C 205 102.986842 205 102.986842 205 102.986842 
C 205 102.986842 205 102.986842 205 102.986842 
C 205 102.986842 205 102.986842 205 102.986842 
C 205 102.986842 205 102.986842 205 102.986842 
C 205 102.986842 205 102.986842 205 102.986842 
C 205 102.986842 205 102.986842 205 102.986842 
C 205 102.986842 205 102.986842 205 102.986842 
C 205 102.986842 205 102.986842 205 102.986842 
C 205 102.986842 205 102.986842 205 102.986842 
C 205 102.986842 205 102.986842 205 102.986842 
C 205 102.986842 205 102.986842 205 102.986842 
C 205 102.986842 205 102.986842 205 102.986842 
C 205 102.986842 205 102.986842 205 102.986842 
C 205 102.986842 205 102.986842 205 102.986842 
z
"/>
  </clipPath>
 </defs>
</svg>
