<?xml version="1.0" encoding="utf-8" standalone="no"?>
<!DOCTYPE svg PUBLIC "-//W3C//DTD SVG 1.1//EN"
  "http://www.w3.org/Graphics/SVG/1.1/DTD/svg11.dtd">
<svg xmlns:xlink="http://www.w3.org/1999/xlink" width="400pt" height="225pt" viewBox="0 0 400 225" xmlns="http://www.w3.org/2000/svg" version="1.1">
 <metadata>
  <rdf:RDF xmlns:dc="http://purl.org/dc/elements/1.1/" xmlns:cc="http://creativecommons.org/ns#" xmlns:rdf="http://www.w3.org/1999/02/22-rdf-syntax-ns#">
   <cc:Work>
    <dc:type rdf:resource="http://purl.org/dc/dcmitype/StillImage"/>
    <dc:date>2024-12-20T14:25:43.431257</dc:date>
    <dc:format>image/svg+xml</dc:format>
    <dc:creator>
     <cc:Agent>
      <dc:title>Matplotlib v3.10.0, https://matplotlib.org/</dc:title>
     </cc:Agent>
    </dc:creator>
   </cc:Work>
  </rdf:RDF>
 </metadata>
 <defs>
  <style type="text/css">*{stroke-linejoin: round; stroke-linecap: butt}</style>
 </defs>
 <g id="figure_1">
  <g id="patch_1">
   <path d="M 0 225 
L 400 225 
L 400 0 
L 0 0 
L 0 225 
z
" style="fill: none"/>
  </g>
  <g id="axes_1">
   <g id="patch_2">
    <path d="M 257.404719 102.986842 
C 257.404719 98.771775 256.896173 94.572061 255.890116 90.478818 
C 254.884058 86.385574 253.387817 82.428621 251.433856 78.693808 
L 271.334081 68.282507 
C 274.125453 73.617955 276.26294 79.270746 277.700165 85.118236 
C 279.13739 90.965726 279.863884 96.965318 279.863884 102.986842 
z
" clip-path="url(#p4195a806ea)" style="fill: #ffc200"/>
   </g>
   <g id="patch_3">
    <path d="M 251.433856 78.693808 
C 248.531689 73.146587 244.658819 68.164049 239.999208 63.982869 
C 235.339598 59.801688 229.968214 56.489131 224.140197 54.202548 
L 232.343139 33.294993 
C 240.668876 36.561541 248.342283 41.293765 254.998869 47.26688 
C 261.655455 53.239995 267.188127 60.357906 271.334081 68.282507 
z
" clip-path="url(#p4195a806ea)" style="fill: #f34b7d"/>
   </g>
   <g id="patch_4">
    <path d="M 224.140197 54.202548 
C 222.943075 53.732865 221.72907 53.307405 220.500648 52.927033 
C 219.272226 52.546662 218.030219 52.211635 216.77715 51.922635 
L 221.8245 30.037974 
C 223.614599 30.450832 225.388894 30.929441 227.143783 31.47283 
C 228.898672 32.016218 230.632965 32.624017 232.343139 33.294993 
z
" clip-path="url(#p4195a806ea)" style="fill: #5e5086"/>
   </g>
   <g id="patch_5">
    <path d="M 216.77715 51.922635 
C 211.116166 50.617018 205.277273 50.26181 199.499768 50.871566 
C 193.722262 51.481323 188.086163 53.047599 182.822454 55.506204 
L 173.317791 35.157359 
C 180.837376 31.645066 188.888946 29.407528 197.142526 28.536448 
C 205.396105 27.665367 213.73738 28.172808 221.8245 30.037974 
z
" clip-path="url(#p4195a806ea)" style="fill: #3572a5"/>
   </g>
   <g id="patch_6">
    <path d="M 182.822454 55.506204 
C 179.76627 56.933705 176.855039 58.652953 174.129303 60.640005 
C 171.403566 62.627058 168.876036 64.872648 166.581912 67.345503 
L 150.117018 52.070643 
C 153.394338 48.537993 157.005094 45.330007 160.899004 42.491361 
C 164.792913 39.652715 168.951815 37.196646 173.317791 35.157359 
z
" clip-path="url(#p4195a806ea)" style="fill: #555555"/>
   </g>
   <g id="patch_7">
    <path d="M 166.581912 67.345503 
C 164.11314 70.006612 161.927527 72.917041 160.060297 76.029884 
C 158.193066 79.142727 156.654305 82.441169 155.468814 85.87205 
L 134.241162 78.537139 
C 135.934722 73.63588 138.132952 68.92382 140.800424 64.476902 
C 143.467895 60.029984 146.5902 55.872228 150.117018 52.070643 
z
" clip-path="url(#p4195a806ea)" style="fill: #3178c6"/>
   </g>
   <g id="patch_8">
    <path d="M 155.468814 85.87205 
C 153.974974 90.195308 153.053566 94.695601 152.728106 99.258077 
C 152.402647 103.820554 152.675927 108.406069 153.540972 112.897595 
L 131.487104 117.145061 
C 130.251324 110.728594 129.860924 104.177859 130.325866 97.660035 
C 130.790809 91.142212 132.107105 84.713222 134.241162 78.537139 
z
" clip-path="url(#p4195a806ea)" style="fill: #dea584"/>
   </g>
   <g id="patch_9">
    <path d="M 153.540972 112.897595 
C 153.625629 113.337151 153.715913 113.775604 153.811804 114.212846 
C 153.907695 114.650088 154.009184 115.086083 154.116247 115.520725 
L 132.308924 120.892389 
C 132.155978 120.271472 132.010993 119.648621 131.874006 119.02399 
C 131.737019 118.399358 131.608041 117.772997 131.487104 117.145061 
z
" clip-path="url(#p4195a806ea)" style="fill: #89e051"/>
   </g>
   <g id="patch_10">
    <path d="M 154.116247 115.520725 
C 154.745262 118.074335 155.565616 120.576976 156.570353 123.007427 
C 157.575089 125.437877 158.761361 127.789249 160.119109 130.041605 
L 140.884442 141.636503 
C 138.944802 138.418852 137.250128 135.05975 135.81479 131.587677 
C 134.379451 128.115605 133.207517 124.540404 132.308924 120.892389 
z
" clip-path="url(#p4195a806ea)" style="fill: #f1e05a"/>
   </g>
   <g id="patch_11">
    <path d="M 160.119109 130.041605 
C 161.132133 131.7221 162.238743 133.344374 163.43371 134.900759 
C 164.628677 136.457144 165.910116 137.945186 167.271972 139.357854 
L 151.102818 154.94543 
C 149.157309 152.927333 147.326682 150.801559 145.619586 148.578152 
C 143.91249 146.354744 142.331619 144.037211 140.884442 141.636503 
z
" clip-path="url(#p4195a806ea)" style="fill: #701516"/>
   </g>
   <g id="patch_12">
    <path d="M 167.271972 139.357854 
C 169.241814 141.40119 171.374403 143.281125 173.648689 144.979101 
C 175.922975 146.677077 178.33145 148.187489 180.850338 149.495426 
L 170.500483 169.427676 
C 166.902071 167.559195 163.461393 165.401464 160.212413 162.975784 
C 156.963433 160.550104 153.916877 157.864482 151.102818 154.94543 
z
" clip-path="url(#p4195a806ea)" style="fill: #00add8"/>
   </g>
   <g id="patch_13">
    <path d="M 180.850338 149.495426 
C 182.416094 150.308447 184.021908 151.041881 185.661644 151.692925 
C 187.30138 152.343969 188.972948 152.911793 190.669961 153.394228 
L 184.528515 174.997393 
C 182.104212 174.308201 179.716258 173.497024 177.373777 172.566961 
C 175.031297 171.636898 172.737277 170.589135 170.500483 169.427676 
z
" clip-path="url(#p4195a806ea)" style="fill: #800000"/>
   </g>
   <g id="patch_14">
    <path d="M 190.669961 153.394228 
C 192.255911 153.845089 193.862256 154.220851 195.483634 154.520262 
C 197.105012 154.819672 198.739618 155.042396 200.381995 155.18769 
L 198.40285 177.559483 
C 196.056597 177.351919 193.721446 177.033741 191.405191 176.606013 
C 189.088937 176.178284 186.794158 175.64148 184.528515 174.997393 
z
" clip-path="url(#p4195a806ea)" style="fill: #000080"/>
   </g>
   <g id="patch_15">
    <path d="M 200.381995 155.18769 
C 205.054987 155.601092 209.762401 155.385142 214.377917 154.545636 
C 218.993432 153.70613 223.475391 152.250645 227.70352 150.218238 
L 237.433599 170.460265 
C 231.393415 173.363703 224.990618 175.442967 218.397024 176.642262 
C 211.803431 177.841556 205.078553 178.150056 198.40285 177.559483 
z
" clip-path="url(#p4195a806ea)" style="fill: #b07219"/>
   </g>
   <g id="patch_16">
    <path d="M 227.70352 150.218238 
C 231.361416 148.459935 234.802699 146.282633 237.958117 143.730149 
C 241.113534 141.177666 243.961777 138.267238 246.445525 135.057436 
L 264.207893 148.801977 
C 260.659681 153.387408 256.590763 157.545162 252.083024 161.191567 
C 247.575284 164.837972 242.659165 167.948403 237.433599 170.460265 
z
" clip-path="url(#p4195a806ea)" style="fill: #178600"/>
   </g>
   <g id="patch_17">
    <path d="M 246.445525 135.057436 
C 249.973529 130.49812 252.725138 125.387733 254.589291 119.932542 
C 256.453444 114.477351 257.404719 108.751751 257.404719 102.986842 
L 279.863884 102.986842 
C 279.863884 111.222427 278.50492 119.401854 275.841845 127.194984 
C 273.178769 134.988115 269.247898 142.288668 264.207893 148.801977 
z
" clip-path="url(#p4195a806ea)" style="fill: #ec915c"/>
   </g>
  </g>
  <g id="axes_2">
   <g id="legend_1">
    <g id="patch_18">
     <path d="M 22.681875 224.935 
L 387.318125 224.935 
Q 388.918125 224.935 388.918125 223.335 
L 388.918125 177.165 
Q 388.918125 175.565 387.318125 175.565 
L 22.681875 175.565 
Q 21.081875 175.565 21.081875 177.165 
L 21.081875 223.335 
Q 21.081875 224.935 22.681875 224.935 
z
" style="fill: #ffffff; opacity: 0.8; stroke: #cccccc; stroke-linejoin: miter"/>
    </g>
    <g id="patch_19">
     <path d="M 24.281875 184.84375 
L 40.281875 184.84375 
L 40.281875 179.24375 
L 24.281875 179.24375 
z
" style="fill: #ffc200"/>
    </g>
    <g id="text_1">
     <!-- Nim 7.7% -->
     <g transform="translate(46.681875 184.84375) scale(0.08 -0.08)">
      <defs>
       <path id="DejaVuSans-4e" d="M 628 4666 
L 1478 4666 
L 3547 763 
L 3547 4666 
L 4159 4666 
L 4159 0 
L 3309 0 
L 1241 3903 
L 1241 0 
L 628 0 
L 628 4666 
z
" transform="scale(0.015625)"/>
       <path id="DejaVuSans-69" d="M 603 3500 
L 1178 3500 
L 1178 0 
L 603 0 
L 603 3500 
z
M 603 4863 
L 1178 4863 
L 1178 4134 
L 603 4134 
L 603 4863 
z
" transform="scale(0.015625)"/>
       <path id="DejaVuSans-6d" d="M 3328 2828 
Q 3544 3216 3844 3400 
Q 4144 3584 4550 3584 
Q 5097 3584 5394 3201 
Q 5691 2819 5691 2113 
L 5691 0 
L 5113 0 
L 5113 2094 
Q 5113 2597 4934 2840 
Q 4756 3084 4391 3084 
Q 3944 3084 3684 2787 
Q 3425 2491 3425 1978 
L 3425 0 
L 2847 0 
L 2847 2094 
Q 2847 2600 2669 2842 
Q 2491 3084 2119 3084 
Q 1678 3084 1418 2786 
Q 1159 2488 1159 1978 
L 1159 0 
L 581 0 
L 581 3500 
L 1159 3500 
L 1159 2956 
Q 1356 3278 1631 3431 
Q 1906 3584 2284 3584 
Q 2666 3584 2933 3390 
Q 3200 3197 3328 2828 
z
" transform="scale(0.015625)"/>
       <path id="DejaVuSans-20" transform="scale(0.015625)"/>
       <path id="DejaVuSans-37" d="M 525 4666 
L 3525 4666 
L 3525 4397 
L 1831 0 
L 1172 0 
L 2766 4134 
L 525 4134 
L 525 4666 
z
" transform="scale(0.015625)"/>
       <path id="DejaVuSans-2e" d="M 684 794 
L 1344 794 
L 1344 0 
L 684 0 
L 684 794 
z
" transform="scale(0.015625)"/>
       <path id="DejaVuSans-25" d="M 4653 2053 
Q 4381 2053 4226 1822 
Q 4072 1591 4072 1178 
Q 4072 772 4226 539 
Q 4381 306 4653 306 
Q 4919 306 5073 539 
Q 5228 772 5228 1178 
Q 5228 1588 5073 1820 
Q 4919 2053 4653 2053 
z
M 4653 2450 
Q 5147 2450 5437 2106 
Q 5728 1763 5728 1178 
Q 5728 594 5436 251 
Q 5144 -91 4653 -91 
Q 4153 -91 3862 251 
Q 3572 594 3572 1178 
Q 3572 1766 3864 2108 
Q 4156 2450 4653 2450 
z
M 1428 4353 
Q 1159 4353 1004 4120 
Q 850 3888 850 3481 
Q 850 3069 1003 2837 
Q 1156 2606 1428 2606 
Q 1700 2606 1854 2837 
Q 2009 3069 2009 3481 
Q 2009 3884 1853 4118 
Q 1697 4353 1428 4353 
z
M 4250 4750 
L 4750 4750 
L 1831 -91 
L 1331 -91 
L 4250 4750 
z
M 1428 4750 
Q 1922 4750 2215 4408 
Q 2509 4066 2509 3481 
Q 2509 2891 2217 2550 
Q 1925 2209 1428 2209 
Q 931 2209 642 2551 
Q 353 2894 353 3481 
Q 353 4063 643 4406 
Q 934 4750 1428 4750 
z
" transform="scale(0.015625)"/>
      </defs>
      <use xlink:href="#DejaVuSans-4e"/>
      <use xlink:href="#DejaVuSans-69" transform="translate(74.804688 0)"/>
      <use xlink:href="#DejaVuSans-6d" transform="translate(102.587891 0)"/>
      <use xlink:href="#DejaVuSans-20" transform="translate(200 0)"/>
      <use xlink:href="#DejaVuSans-37" transform="translate(231.787109 0)"/>
      <use xlink:href="#DejaVuSans-2e" transform="translate(295.410156 0)"/>
      <use xlink:href="#DejaVuSans-37" transform="translate(327.197266 0)"/>
      <use xlink:href="#DejaVuSans-25" transform="translate(390.820312 0)"/>
     </g>
    </g>
    <g id="patch_20">
     <path d="M 24.281875 196.58625 
L 40.281875 196.58625 
L 40.281875 190.98625 
L 24.281875 190.98625 
z
" style="fill: #f34b7d"/>
    </g>
    <g id="text_2">
     <!-- C++ 11.4% -->
     <g transform="translate(46.681875 196.58625) scale(0.08 -0.08)">
      <defs>
       <path id="DejaVuSans-43" d="M 4122 4306 
L 4122 3641 
Q 3803 3938 3442 4084 
Q 3081 4231 2675 4231 
Q 1875 4231 1450 3742 
Q 1025 3253 1025 2328 
Q 1025 1406 1450 917 
Q 1875 428 2675 428 
Q 3081 428 3442 575 
Q 3803 722 4122 1019 
L 4122 359 
Q 3791 134 3420 21 
Q 3050 -91 2638 -91 
Q 1578 -91 968 557 
Q 359 1206 359 2328 
Q 359 3453 968 4101 
Q 1578 4750 2638 4750 
Q 3056 4750 3426 4639 
Q 3797 4528 4122 4306 
z
" transform="scale(0.015625)"/>
       <path id="DejaVuSans-2b" d="M 2944 4013 
L 2944 2272 
L 4684 2272 
L 4684 1741 
L 2944 1741 
L 2944 0 
L 2419 0 
L 2419 1741 
L 678 1741 
L 678 2272 
L 2419 2272 
L 2419 4013 
L 2944 4013 
z
" transform="scale(0.015625)"/>
       <path id="DejaVuSans-31" d="M 794 531 
L 1825 531 
L 1825 4091 
L 703 3866 
L 703 4441 
L 1819 4666 
L 2450 4666 
L 2450 531 
L 3481 531 
L 3481 0 
L 794 0 
L 794 531 
z
" transform="scale(0.015625)"/>
       <path id="DejaVuSans-34" d="M 2419 4116 
L 825 1625 
L 2419 1625 
L 2419 4116 
z
M 2253 4666 
L 3047 4666 
L 3047 1625 
L 3713 1625 
L 3713 1100 
L 3047 1100 
L 3047 0 
L 2419 0 
L 2419 1100 
L 313 1100 
L 313 1709 
L 2253 4666 
z
" transform="scale(0.015625)"/>
      </defs>
      <use xlink:href="#DejaVuSans-43"/>
      <use xlink:href="#DejaVuSans-2b" transform="translate(69.824219 0)"/>
      <use xlink:href="#DejaVuSans-2b" transform="translate(153.613281 0)"/>
      <use xlink:href="#DejaVuSans-20" transform="translate(237.402344 0)"/>
      <use xlink:href="#DejaVuSans-31" transform="translate(269.189453 0)"/>
      <use xlink:href="#DejaVuSans-31" transform="translate(332.8125 0)"/>
      <use xlink:href="#DejaVuSans-2e" transform="translate(396.435547 0)"/>
      <use xlink:href="#DejaVuSans-34" transform="translate(428.222656 0)"/>
      <use xlink:href="#DejaVuSans-25" transform="translate(491.845703 0)"/>
     </g>
    </g>
    <g id="patch_21">
     <path d="M 24.281875 208.32875 
L 40.281875 208.32875 
L 40.281875 202.72875 
L 24.281875 202.72875 
z
" style="fill: #5e5086"/>
    </g>
    <g id="text_3">
     <!-- Haskell 2.3% -->
     <g transform="translate(46.681875 208.32875) scale(0.08 -0.08)">
      <defs>
       <path id="DejaVuSans-48" d="M 628 4666 
L 1259 4666 
L 1259 2753 
L 3553 2753 
L 3553 4666 
L 4184 4666 
L 4184 0 
L 3553 0 
L 3553 2222 
L 1259 2222 
L 1259 0 
L 628 0 
L 628 4666 
z
" transform="scale(0.015625)"/>
       <path id="DejaVuSans-61" d="M 2194 1759 
Q 1497 1759 1228 1600 
Q 959 1441 959 1056 
Q 959 750 1161 570 
Q 1363 391 1709 391 
Q 2188 391 2477 730 
Q 2766 1069 2766 1631 
L 2766 1759 
L 2194 1759 
z
M 3341 1997 
L 3341 0 
L 2766 0 
L 2766 531 
Q 2569 213 2275 61 
Q 1981 -91 1556 -91 
Q 1019 -91 701 211 
Q 384 513 384 1019 
Q 384 1609 779 1909 
Q 1175 2209 1959 2209 
L 2766 2209 
L 2766 2266 
Q 2766 2663 2505 2880 
Q 2244 3097 1772 3097 
Q 1472 3097 1187 3025 
Q 903 2953 641 2809 
L 641 3341 
Q 956 3463 1253 3523 
Q 1550 3584 1831 3584 
Q 2591 3584 2966 3190 
Q 3341 2797 3341 1997 
z
" transform="scale(0.015625)"/>
       <path id="DejaVuSans-73" d="M 2834 3397 
L 2834 2853 
Q 2591 2978 2328 3040 
Q 2066 3103 1784 3103 
Q 1356 3103 1142 2972 
Q 928 2841 928 2578 
Q 928 2378 1081 2264 
Q 1234 2150 1697 2047 
L 1894 2003 
Q 2506 1872 2764 1633 
Q 3022 1394 3022 966 
Q 3022 478 2636 193 
Q 2250 -91 1575 -91 
Q 1294 -91 989 -36 
Q 684 19 347 128 
L 347 722 
Q 666 556 975 473 
Q 1284 391 1588 391 
Q 1994 391 2212 530 
Q 2431 669 2431 922 
Q 2431 1156 2273 1281 
Q 2116 1406 1581 1522 
L 1381 1569 
Q 847 1681 609 1914 
Q 372 2147 372 2553 
Q 372 3047 722 3315 
Q 1072 3584 1716 3584 
Q 2034 3584 2315 3537 
Q 2597 3491 2834 3397 
z
" transform="scale(0.015625)"/>
       <path id="DejaVuSans-6b" d="M 581 4863 
L 1159 4863 
L 1159 1991 
L 2875 3500 
L 3609 3500 
L 1753 1863 
L 3688 0 
L 2938 0 
L 1159 1709 
L 1159 0 
L 581 0 
L 581 4863 
z
" transform="scale(0.015625)"/>
       <path id="DejaVuSans-65" d="M 3597 1894 
L 3597 1613 
L 953 1613 
Q 991 1019 1311 708 
Q 1631 397 2203 397 
Q 2534 397 2845 478 
Q 3156 559 3463 722 
L 3463 178 
Q 3153 47 2828 -22 
Q 2503 -91 2169 -91 
Q 1331 -91 842 396 
Q 353 884 353 1716 
Q 353 2575 817 3079 
Q 1281 3584 2069 3584 
Q 2775 3584 3186 3129 
Q 3597 2675 3597 1894 
z
M 3022 2063 
Q 3016 2534 2758 2815 
Q 2500 3097 2075 3097 
Q 1594 3097 1305 2825 
Q 1016 2553 972 2059 
L 3022 2063 
z
" transform="scale(0.015625)"/>
       <path id="DejaVuSans-6c" d="M 603 4863 
L 1178 4863 
L 1178 0 
L 603 0 
L 603 4863 
z
" transform="scale(0.015625)"/>
       <path id="DejaVuSans-32" d="M 1228 531 
L 3431 531 
L 3431 0 
L 469 0 
L 469 531 
Q 828 903 1448 1529 
Q 2069 2156 2228 2338 
Q 2531 2678 2651 2914 
Q 2772 3150 2772 3378 
Q 2772 3750 2511 3984 
Q 2250 4219 1831 4219 
Q 1534 4219 1204 4116 
Q 875 4013 500 3803 
L 500 4441 
Q 881 4594 1212 4672 
Q 1544 4750 1819 4750 
Q 2544 4750 2975 4387 
Q 3406 4025 3406 3419 
Q 3406 3131 3298 2873 
Q 3191 2616 2906 2266 
Q 2828 2175 2409 1742 
Q 1991 1309 1228 531 
z
" transform="scale(0.015625)"/>
       <path id="DejaVuSans-33" d="M 2597 2516 
Q 3050 2419 3304 2112 
Q 3559 1806 3559 1356 
Q 3559 666 3084 287 
Q 2609 -91 1734 -91 
Q 1441 -91 1130 -33 
Q 819 25 488 141 
L 488 750 
Q 750 597 1062 519 
Q 1375 441 1716 441 
Q 2309 441 2620 675 
Q 2931 909 2931 1356 
Q 2931 1769 2642 2001 
Q 2353 2234 1838 2234 
L 1294 2234 
L 1294 2753 
L 1863 2753 
Q 2328 2753 2575 2939 
Q 2822 3125 2822 3475 
Q 2822 3834 2567 4026 
Q 2313 4219 1838 4219 
Q 1578 4219 1281 4162 
Q 984 4106 628 3988 
L 628 4550 
Q 988 4650 1302 4700 
Q 1616 4750 1894 4750 
Q 2613 4750 3031 4423 
Q 3450 4097 3450 3541 
Q 3450 3153 3228 2886 
Q 3006 2619 2597 2516 
z
" transform="scale(0.015625)"/>
      </defs>
      <use xlink:href="#DejaVuSans-48"/>
      <use xlink:href="#DejaVuSans-61" transform="translate(75.195312 0)"/>
      <use xlink:href="#DejaVuSans-73" transform="translate(136.474609 0)"/>
      <use xlink:href="#DejaVuSans-6b" transform="translate(188.574219 0)"/>
      <use xlink:href="#DejaVuSans-65" transform="translate(242.859375 0)"/>
      <use xlink:href="#DejaVuSans-6c" transform="translate(304.382812 0)"/>
      <use xlink:href="#DejaVuSans-6c" transform="translate(332.166016 0)"/>
      <use xlink:href="#DejaVuSans-20" transform="translate(359.949219 0)"/>
      <use xlink:href="#DejaVuSans-32" transform="translate(391.736328 0)"/>
      <use xlink:href="#DejaVuSans-2e" transform="translate(455.359375 0)"/>
      <use xlink:href="#DejaVuSans-33" transform="translate(487.146484 0)"/>
      <use xlink:href="#DejaVuSans-25" transform="translate(550.769531 0)"/>
     </g>
    </g>
    <g id="patch_22">
     <path d="M 24.281875 220.07125 
L 40.281875 220.07125 
L 40.281875 214.47125 
L 24.281875 214.47125 
z
" style="fill: #3572a5"/>
    </g>
    <g id="text_4">
     <!-- Python 10.6% -->
     <g transform="translate(46.681875 220.07125) scale(0.08 -0.08)">
      <defs>
       <path id="DejaVuSans-50" d="M 1259 4147 
L 1259 2394 
L 2053 2394 
Q 2494 2394 2734 2622 
Q 2975 2850 2975 3272 
Q 2975 3691 2734 3919 
Q 2494 4147 2053 4147 
L 1259 4147 
z
M 628 4666 
L 2053 4666 
Q 2838 4666 3239 4311 
Q 3641 3956 3641 3272 
Q 3641 2581 3239 2228 
Q 2838 1875 2053 1875 
L 1259 1875 
L 1259 0 
L 628 0 
L 628 4666 
z
" transform="scale(0.015625)"/>
       <path id="DejaVuSans-79" d="M 2059 -325 
Q 1816 -950 1584 -1140 
Q 1353 -1331 966 -1331 
L 506 -1331 
L 506 -850 
L 844 -850 
Q 1081 -850 1212 -737 
Q 1344 -625 1503 -206 
L 1606 56 
L 191 3500 
L 800 3500 
L 1894 763 
L 2988 3500 
L 3597 3500 
L 2059 -325 
z
" transform="scale(0.015625)"/>
       <path id="DejaVuSans-74" d="M 1172 4494 
L 1172 3500 
L 2356 3500 
L 2356 3053 
L 1172 3053 
L 1172 1153 
Q 1172 725 1289 603 
Q 1406 481 1766 481 
L 2356 481 
L 2356 0 
L 1766 0 
Q 1100 0 847 248 
Q 594 497 594 1153 
L 594 3053 
L 172 3053 
L 172 3500 
L 594 3500 
L 594 4494 
L 1172 4494 
z
" transform="scale(0.015625)"/>
       <path id="DejaVuSans-68" d="M 3513 2113 
L 3513 0 
L 2938 0 
L 2938 2094 
Q 2938 2591 2744 2837 
Q 2550 3084 2163 3084 
Q 1697 3084 1428 2787 
Q 1159 2491 1159 1978 
L 1159 0 
L 581 0 
L 581 4863 
L 1159 4863 
L 1159 2956 
Q 1366 3272 1645 3428 
Q 1925 3584 2291 3584 
Q 2894 3584 3203 3211 
Q 3513 2838 3513 2113 
z
" transform="scale(0.015625)"/>
       <path id="DejaVuSans-6f" d="M 1959 3097 
Q 1497 3097 1228 2736 
Q 959 2375 959 1747 
Q 959 1119 1226 758 
Q 1494 397 1959 397 
Q 2419 397 2687 759 
Q 2956 1122 2956 1747 
Q 2956 2369 2687 2733 
Q 2419 3097 1959 3097 
z
M 1959 3584 
Q 2709 3584 3137 3096 
Q 3566 2609 3566 1747 
Q 3566 888 3137 398 
Q 2709 -91 1959 -91 
Q 1206 -91 779 398 
Q 353 888 353 1747 
Q 353 2609 779 3096 
Q 1206 3584 1959 3584 
z
" transform="scale(0.015625)"/>
       <path id="DejaVuSans-6e" d="M 3513 2113 
L 3513 0 
L 2938 0 
L 2938 2094 
Q 2938 2591 2744 2837 
Q 2550 3084 2163 3084 
Q 1697 3084 1428 2787 
Q 1159 2491 1159 1978 
L 1159 0 
L 581 0 
L 581 3500 
L 1159 3500 
L 1159 2956 
Q 1366 3272 1645 3428 
Q 1925 3584 2291 3584 
Q 2894 3584 3203 3211 
Q 3513 2838 3513 2113 
z
" transform="scale(0.015625)"/>
       <path id="DejaVuSans-30" d="M 2034 4250 
Q 1547 4250 1301 3770 
Q 1056 3291 1056 2328 
Q 1056 1369 1301 889 
Q 1547 409 2034 409 
Q 2525 409 2770 889 
Q 3016 1369 3016 2328 
Q 3016 3291 2770 3770 
Q 2525 4250 2034 4250 
z
M 2034 4750 
Q 2819 4750 3233 4129 
Q 3647 3509 3647 2328 
Q 3647 1150 3233 529 
Q 2819 -91 2034 -91 
Q 1250 -91 836 529 
Q 422 1150 422 2328 
Q 422 3509 836 4129 
Q 1250 4750 2034 4750 
z
" transform="scale(0.015625)"/>
       <path id="DejaVuSans-36" d="M 2113 2584 
Q 1688 2584 1439 2293 
Q 1191 2003 1191 1497 
Q 1191 994 1439 701 
Q 1688 409 2113 409 
Q 2538 409 2786 701 
Q 3034 994 3034 1497 
Q 3034 2003 2786 2293 
Q 2538 2584 2113 2584 
z
M 3366 4563 
L 3366 3988 
Q 3128 4100 2886 4159 
Q 2644 4219 2406 4219 
Q 1781 4219 1451 3797 
Q 1122 3375 1075 2522 
Q 1259 2794 1537 2939 
Q 1816 3084 2150 3084 
Q 2853 3084 3261 2657 
Q 3669 2231 3669 1497 
Q 3669 778 3244 343 
Q 2819 -91 2113 -91 
Q 1303 -91 875 529 
Q 447 1150 447 2328 
Q 447 3434 972 4092 
Q 1497 4750 2381 4750 
Q 2619 4750 2861 4703 
Q 3103 4656 3366 4563 
z
" transform="scale(0.015625)"/>
      </defs>
      <use xlink:href="#DejaVuSans-50"/>
      <use xlink:href="#DejaVuSans-79" transform="translate(60.302734 0)"/>
      <use xlink:href="#DejaVuSans-74" transform="translate(119.482422 0)"/>
      <use xlink:href="#DejaVuSans-68" transform="translate(158.691406 0)"/>
      <use xlink:href="#DejaVuSans-6f" transform="translate(222.070312 0)"/>
      <use xlink:href="#DejaVuSans-6e" transform="translate(283.251953 0)"/>
      <use xlink:href="#DejaVuSans-20" transform="translate(346.630859 0)"/>
      <use xlink:href="#DejaVuSans-31" transform="translate(378.417969 0)"/>
      <use xlink:href="#DejaVuSans-30" transform="translate(442.041016 0)"/>
      <use xlink:href="#DejaVuSans-2e" transform="translate(505.664062 0)"/>
      <use xlink:href="#DejaVuSans-36" transform="translate(537.451172 0)"/>
      <use xlink:href="#DejaVuSans-25" transform="translate(601.074219 0)"/>
     </g>
    </g>
    <g id="patch_23">
     <path d="M 118.368125 184.84375 
L 134.368125 184.84375 
L 134.368125 179.24375 
L 118.368125 179.24375 
z
" style="fill: #555555"/>
    </g>
    <g id="text_5">
     <!-- C 6.1% -->
     <g transform="translate(140.768125 184.84375) scale(0.08 -0.08)">
      <use xlink:href="#DejaVuSans-43"/>
      <use xlink:href="#DejaVuSans-20" transform="translate(69.824219 0)"/>
      <use xlink:href="#DejaVuSans-36" transform="translate(101.611328 0)"/>
      <use xlink:href="#DejaVuSans-2e" transform="translate(165.234375 0)"/>
      <use xlink:href="#DejaVuSans-31" transform="translate(197.021484 0)"/>
      <use xlink:href="#DejaVuSans-25" transform="translate(260.644531 0)"/>
     </g>
    </g>
    <g id="patch_24">
     <path d="M 118.368125 196.58625 
L 134.368125 196.58625 
L 134.368125 190.98625 
L 118.368125 190.98625 
z
" style="fill: #3178c6"/>
    </g>
    <g id="text_6">
     <!-- TypeScript 6.6% -->
     <g transform="translate(140.768125 196.58625) scale(0.08 -0.08)">
      <defs>
       <path id="DejaVuSans-54" d="M -19 4666 
L 3928 4666 
L 3928 4134 
L 2272 4134 
L 2272 0 
L 1638 0 
L 1638 4134 
L -19 4134 
L -19 4666 
z
" transform="scale(0.015625)"/>
       <path id="DejaVuSans-70" d="M 1159 525 
L 1159 -1331 
L 581 -1331 
L 581 3500 
L 1159 3500 
L 1159 2969 
Q 1341 3281 1617 3432 
Q 1894 3584 2278 3584 
Q 2916 3584 3314 3078 
Q 3713 2572 3713 1747 
Q 3713 922 3314 415 
Q 2916 -91 2278 -91 
Q 1894 -91 1617 61 
Q 1341 213 1159 525 
z
M 3116 1747 
Q 3116 2381 2855 2742 
Q 2594 3103 2138 3103 
Q 1681 3103 1420 2742 
Q 1159 2381 1159 1747 
Q 1159 1113 1420 752 
Q 1681 391 2138 391 
Q 2594 391 2855 752 
Q 3116 1113 3116 1747 
z
" transform="scale(0.015625)"/>
       <path id="DejaVuSans-53" d="M 3425 4513 
L 3425 3897 
Q 3066 4069 2747 4153 
Q 2428 4238 2131 4238 
Q 1616 4238 1336 4038 
Q 1056 3838 1056 3469 
Q 1056 3159 1242 3001 
Q 1428 2844 1947 2747 
L 2328 2669 
Q 3034 2534 3370 2195 
Q 3706 1856 3706 1288 
Q 3706 609 3251 259 
Q 2797 -91 1919 -91 
Q 1588 -91 1214 -16 
Q 841 59 441 206 
L 441 856 
Q 825 641 1194 531 
Q 1563 422 1919 422 
Q 2459 422 2753 634 
Q 3047 847 3047 1241 
Q 3047 1584 2836 1778 
Q 2625 1972 2144 2069 
L 1759 2144 
Q 1053 2284 737 2584 
Q 422 2884 422 3419 
Q 422 4038 858 4394 
Q 1294 4750 2059 4750 
Q 2388 4750 2728 4690 
Q 3069 4631 3425 4513 
z
" transform="scale(0.015625)"/>
       <path id="DejaVuSans-63" d="M 3122 3366 
L 3122 2828 
Q 2878 2963 2633 3030 
Q 2388 3097 2138 3097 
Q 1578 3097 1268 2742 
Q 959 2388 959 1747 
Q 959 1106 1268 751 
Q 1578 397 2138 397 
Q 2388 397 2633 464 
Q 2878 531 3122 666 
L 3122 134 
Q 2881 22 2623 -34 
Q 2366 -91 2075 -91 
Q 1284 -91 818 406 
Q 353 903 353 1747 
Q 353 2603 823 3093 
Q 1294 3584 2113 3584 
Q 2378 3584 2631 3529 
Q 2884 3475 3122 3366 
z
" transform="scale(0.015625)"/>
       <path id="DejaVuSans-72" d="M 2631 2963 
Q 2534 3019 2420 3045 
Q 2306 3072 2169 3072 
Q 1681 3072 1420 2755 
Q 1159 2438 1159 1844 
L 1159 0 
L 581 0 
L 581 3500 
L 1159 3500 
L 1159 2956 
Q 1341 3275 1631 3429 
Q 1922 3584 2338 3584 
Q 2397 3584 2469 3576 
Q 2541 3569 2628 3553 
L 2631 2963 
z
" transform="scale(0.015625)"/>
      </defs>
      <use xlink:href="#DejaVuSans-54"/>
      <use xlink:href="#DejaVuSans-79" transform="translate(45.458984 0)"/>
      <use xlink:href="#DejaVuSans-70" transform="translate(104.638672 0)"/>
      <use xlink:href="#DejaVuSans-65" transform="translate(168.115234 0)"/>
      <use xlink:href="#DejaVuSans-53" transform="translate(229.638672 0)"/>
      <use xlink:href="#DejaVuSans-63" transform="translate(293.115234 0)"/>
      <use xlink:href="#DejaVuSans-72" transform="translate(348.095703 0)"/>
      <use xlink:href="#DejaVuSans-69" transform="translate(389.208984 0)"/>
      <use xlink:href="#DejaVuSans-70" transform="translate(416.992188 0)"/>
      <use xlink:href="#DejaVuSans-74" transform="translate(480.46875 0)"/>
      <use xlink:href="#DejaVuSans-20" transform="translate(519.677734 0)"/>
      <use xlink:href="#DejaVuSans-36" transform="translate(551.464844 0)"/>
      <use xlink:href="#DejaVuSans-2e" transform="translate(615.087891 0)"/>
      <use xlink:href="#DejaVuSans-36" transform="translate(646.875 0)"/>
      <use xlink:href="#DejaVuSans-25" transform="translate(710.498047 0)"/>
     </g>
    </g>
    <g id="patch_25">
     <path d="M 118.368125 208.32875 
L 134.368125 208.32875 
L 134.368125 202.72875 
L 118.368125 202.72875 
z
" style="fill: #dea584"/>
    </g>
    <g id="text_7">
     <!-- Rust 8.3% -->
     <g transform="translate(140.768125 208.32875) scale(0.08 -0.08)">
      <defs>
       <path id="DejaVuSans-52" d="M 2841 2188 
Q 3044 2119 3236 1894 
Q 3428 1669 3622 1275 
L 4263 0 
L 3584 0 
L 2988 1197 
Q 2756 1666 2539 1819 
Q 2322 1972 1947 1972 
L 1259 1972 
L 1259 0 
L 628 0 
L 628 4666 
L 2053 4666 
Q 2853 4666 3247 4331 
Q 3641 3997 3641 3322 
Q 3641 2881 3436 2590 
Q 3231 2300 2841 2188 
z
M 1259 4147 
L 1259 2491 
L 2053 2491 
Q 2509 2491 2742 2702 
Q 2975 2913 2975 3322 
Q 2975 3731 2742 3939 
Q 2509 4147 2053 4147 
L 1259 4147 
z
" transform="scale(0.015625)"/>
       <path id="DejaVuSans-75" d="M 544 1381 
L 544 3500 
L 1119 3500 
L 1119 1403 
Q 1119 906 1312 657 
Q 1506 409 1894 409 
Q 2359 409 2629 706 
Q 2900 1003 2900 1516 
L 2900 3500 
L 3475 3500 
L 3475 0 
L 2900 0 
L 2900 538 
Q 2691 219 2414 64 
Q 2138 -91 1772 -91 
Q 1169 -91 856 284 
Q 544 659 544 1381 
z
M 1991 3584 
L 1991 3584 
z
" transform="scale(0.015625)"/>
       <path id="DejaVuSans-38" d="M 2034 2216 
Q 1584 2216 1326 1975 
Q 1069 1734 1069 1313 
Q 1069 891 1326 650 
Q 1584 409 2034 409 
Q 2484 409 2743 651 
Q 3003 894 3003 1313 
Q 3003 1734 2745 1975 
Q 2488 2216 2034 2216 
z
M 1403 2484 
Q 997 2584 770 2862 
Q 544 3141 544 3541 
Q 544 4100 942 4425 
Q 1341 4750 2034 4750 
Q 2731 4750 3128 4425 
Q 3525 4100 3525 3541 
Q 3525 3141 3298 2862 
Q 3072 2584 2669 2484 
Q 3125 2378 3379 2068 
Q 3634 1759 3634 1313 
Q 3634 634 3220 271 
Q 2806 -91 2034 -91 
Q 1263 -91 848 271 
Q 434 634 434 1313 
Q 434 1759 690 2068 
Q 947 2378 1403 2484 
z
M 1172 3481 
Q 1172 3119 1398 2916 
Q 1625 2713 2034 2713 
Q 2441 2713 2670 2916 
Q 2900 3119 2900 3481 
Q 2900 3844 2670 4047 
Q 2441 4250 2034 4250 
Q 1625 4250 1398 4047 
Q 1172 3844 1172 3481 
z
" transform="scale(0.015625)"/>
      </defs>
      <use xlink:href="#DejaVuSans-52"/>
      <use xlink:href="#DejaVuSans-75" transform="translate(64.982422 0)"/>
      <use xlink:href="#DejaVuSans-73" transform="translate(128.361328 0)"/>
      <use xlink:href="#DejaVuSans-74" transform="translate(180.460938 0)"/>
      <use xlink:href="#DejaVuSans-20" transform="translate(219.669922 0)"/>
      <use xlink:href="#DejaVuSans-38" transform="translate(251.457031 0)"/>
      <use xlink:href="#DejaVuSans-2e" transform="translate(315.080078 0)"/>
      <use xlink:href="#DejaVuSans-33" transform="translate(346.867188 0)"/>
      <use xlink:href="#DejaVuSans-25" transform="translate(410.490234 0)"/>
     </g>
    </g>
    <g id="patch_26">
     <path d="M 118.368125 220.07125 
L 134.368125 220.07125 
L 134.368125 214.47125 
L 118.368125 214.47125 
z
" style="fill: #89e051"/>
    </g>
    <g id="text_8">
     <!-- Shell 0.8% -->
     <g transform="translate(140.768125 220.07125) scale(0.08 -0.08)">
      <use xlink:href="#DejaVuSans-53"/>
      <use xlink:href="#DejaVuSans-68" transform="translate(63.476562 0)"/>
      <use xlink:href="#DejaVuSans-65" transform="translate(126.855469 0)"/>
      <use xlink:href="#DejaVuSans-6c" transform="translate(188.378906 0)"/>
      <use xlink:href="#DejaVuSans-6c" transform="translate(216.162109 0)"/>
      <use xlink:href="#DejaVuSans-20" transform="translate(243.945312 0)"/>
      <use xlink:href="#DejaVuSans-30" transform="translate(275.732422 0)"/>
      <use xlink:href="#DejaVuSans-2e" transform="translate(339.355469 0)"/>
      <use xlink:href="#DejaVuSans-38" transform="translate(371.142578 0)"/>
      <use xlink:href="#DejaVuSans-25" transform="translate(434.765625 0)"/>
     </g>
    </g>
    <g id="patch_27">
     <path d="M 221.210625 184.84375 
L 237.210625 184.84375 
L 237.210625 179.24375 
L 221.210625 179.24375 
z
" style="fill: #f1e05a"/>
    </g>
    <g id="text_9">
     <!-- JavaScript 4.8% -->
     <g transform="translate(243.610625 184.84375) scale(0.08 -0.08)">
      <defs>
       <path id="DejaVuSans-4a" d="M 628 4666 
L 1259 4666 
L 1259 325 
Q 1259 -519 939 -900 
Q 619 -1281 -91 -1281 
L -331 -1281 
L -331 -750 
L -134 -750 
Q 284 -750 456 -515 
Q 628 -281 628 325 
L 628 4666 
z
" transform="scale(0.015625)"/>
       <path id="DejaVuSans-76" d="M 191 3500 
L 800 3500 
L 1894 563 
L 2988 3500 
L 3597 3500 
L 2284 0 
L 1503 0 
L 191 3500 
z
" transform="scale(0.015625)"/>
      </defs>
      <use xlink:href="#DejaVuSans-4a"/>
      <use xlink:href="#DejaVuSans-61" transform="translate(29.492188 0)"/>
      <use xlink:href="#DejaVuSans-76" transform="translate(90.771484 0)"/>
      <use xlink:href="#DejaVuSans-61" transform="translate(149.951172 0)"/>
      <use xlink:href="#DejaVuSans-53" transform="translate(211.230469 0)"/>
      <use xlink:href="#DejaVuSans-63" transform="translate(274.707031 0)"/>
      <use xlink:href="#DejaVuSans-72" transform="translate(329.6875 0)"/>
      <use xlink:href="#DejaVuSans-69" transform="translate(370.800781 0)"/>
      <use xlink:href="#DejaVuSans-70" transform="translate(398.583984 0)"/>
      <use xlink:href="#DejaVuSans-74" transform="translate(462.060547 0)"/>
      <use xlink:href="#DejaVuSans-20" transform="translate(501.269531 0)"/>
      <use xlink:href="#DejaVuSans-34" transform="translate(533.056641 0)"/>
      <use xlink:href="#DejaVuSans-2e" transform="translate(596.679688 0)"/>
      <use xlink:href="#DejaVuSans-38" transform="translate(628.466797 0)"/>
      <use xlink:href="#DejaVuSans-25" transform="translate(692.089844 0)"/>
     </g>
    </g>
    <g id="patch_28">
     <path d="M 221.210625 196.58625 
L 237.210625 196.58625 
L 237.210625 190.98625 
L 221.210625 190.98625 
z
" style="fill: #701516"/>
    </g>
    <g id="text_10">
     <!-- Ruby 3.6% -->
     <g transform="translate(243.610625 196.58625) scale(0.08 -0.08)">
      <defs>
       <path id="DejaVuSans-62" d="M 3116 1747 
Q 3116 2381 2855 2742 
Q 2594 3103 2138 3103 
Q 1681 3103 1420 2742 
Q 1159 2381 1159 1747 
Q 1159 1113 1420 752 
Q 1681 391 2138 391 
Q 2594 391 2855 752 
Q 3116 1113 3116 1747 
z
M 1159 2969 
Q 1341 3281 1617 3432 
Q 1894 3584 2278 3584 
Q 2916 3584 3314 3078 
Q 3713 2572 3713 1747 
Q 3713 922 3314 415 
Q 2916 -91 2278 -91 
Q 1894 -91 1617 61 
Q 1341 213 1159 525 
L 1159 0 
L 581 0 
L 581 4863 
L 1159 4863 
L 1159 2969 
z
" transform="scale(0.015625)"/>
      </defs>
      <use xlink:href="#DejaVuSans-52"/>
      <use xlink:href="#DejaVuSans-75" transform="translate(64.982422 0)"/>
      <use xlink:href="#DejaVuSans-62" transform="translate(128.361328 0)"/>
      <use xlink:href="#DejaVuSans-79" transform="translate(191.837891 0)"/>
      <use xlink:href="#DejaVuSans-20" transform="translate(251.017578 0)"/>
      <use xlink:href="#DejaVuSans-33" transform="translate(282.804688 0)"/>
      <use xlink:href="#DejaVuSans-2e" transform="translate(346.427734 0)"/>
      <use xlink:href="#DejaVuSans-36" transform="translate(378.214844 0)"/>
      <use xlink:href="#DejaVuSans-25" transform="translate(441.837891 0)"/>
     </g>
    </g>
    <g id="patch_29">
     <path d="M 221.210625 208.32875 
L 237.210625 208.32875 
L 237.210625 202.72875 
L 221.210625 202.72875 
z
" style="fill: #00add8"/>
    </g>
    <g id="text_11">
     <!-- Go 5.2% -->
     <g transform="translate(243.610625 208.32875) scale(0.08 -0.08)">
      <defs>
       <path id="DejaVuSans-47" d="M 3809 666 
L 3809 1919 
L 2778 1919 
L 2778 2438 
L 4434 2438 
L 4434 434 
Q 4069 175 3628 42 
Q 3188 -91 2688 -91 
Q 1594 -91 976 548 
Q 359 1188 359 2328 
Q 359 3472 976 4111 
Q 1594 4750 2688 4750 
Q 3144 4750 3555 4637 
Q 3966 4525 4313 4306 
L 4313 3634 
Q 3963 3931 3569 4081 
Q 3175 4231 2741 4231 
Q 1884 4231 1454 3753 
Q 1025 3275 1025 2328 
Q 1025 1384 1454 906 
Q 1884 428 2741 428 
Q 3075 428 3337 486 
Q 3600 544 3809 666 
z
" transform="scale(0.015625)"/>
       <path id="DejaVuSans-35" d="M 691 4666 
L 3169 4666 
L 3169 4134 
L 1269 4134 
L 1269 2991 
Q 1406 3038 1543 3061 
Q 1681 3084 1819 3084 
Q 2600 3084 3056 2656 
Q 3513 2228 3513 1497 
Q 3513 744 3044 326 
Q 2575 -91 1722 -91 
Q 1428 -91 1123 -41 
Q 819 9 494 109 
L 494 744 
Q 775 591 1075 516 
Q 1375 441 1709 441 
Q 2250 441 2565 725 
Q 2881 1009 2881 1497 
Q 2881 1984 2565 2268 
Q 2250 2553 1709 2553 
Q 1456 2553 1204 2497 
Q 953 2441 691 2322 
L 691 4666 
z
" transform="scale(0.015625)"/>
      </defs>
      <use xlink:href="#DejaVuSans-47"/>
      <use xlink:href="#DejaVuSans-6f" transform="translate(77.490234 0)"/>
      <use xlink:href="#DejaVuSans-20" transform="translate(138.671875 0)"/>
      <use xlink:href="#DejaVuSans-35" transform="translate(170.458984 0)"/>
      <use xlink:href="#DejaVuSans-2e" transform="translate(234.082031 0)"/>
      <use xlink:href="#DejaVuSans-32" transform="translate(265.869141 0)"/>
      <use xlink:href="#DejaVuSans-25" transform="translate(329.492188 0)"/>
     </g>
    </g>
    <g id="patch_30">
     <path d="M 221.210625 220.07125 
L 237.210625 220.07125 
L 237.210625 214.47125 
L 221.210625 214.47125 
z
" style="fill: #800000"/>
    </g>
    <g id="text_12">
     <!-- Squirrel 3.2% -->
     <g transform="translate(243.610625 220.07125) scale(0.08 -0.08)">
      <defs>
       <path id="DejaVuSans-71" d="M 947 1747 
Q 947 1113 1208 752 
Q 1469 391 1925 391 
Q 2381 391 2643 752 
Q 2906 1113 2906 1747 
Q 2906 2381 2643 2742 
Q 2381 3103 1925 3103 
Q 1469 3103 1208 2742 
Q 947 2381 947 1747 
z
M 2906 525 
Q 2725 213 2448 61 
Q 2172 -91 1784 -91 
Q 1150 -91 751 415 
Q 353 922 353 1747 
Q 353 2572 751 3078 
Q 1150 3584 1784 3584 
Q 2172 3584 2448 3432 
Q 2725 3281 2906 2969 
L 2906 3500 
L 3481 3500 
L 3481 -1331 
L 2906 -1331 
L 2906 525 
z
" transform="scale(0.015625)"/>
      </defs>
      <use xlink:href="#DejaVuSans-53"/>
      <use xlink:href="#DejaVuSans-71" transform="translate(63.476562 0)"/>
      <use xlink:href="#DejaVuSans-75" transform="translate(126.953125 0)"/>
      <use xlink:href="#DejaVuSans-69" transform="translate(190.332031 0)"/>
      <use xlink:href="#DejaVuSans-72" transform="translate(218.115234 0)"/>
      <use xlink:href="#DejaVuSans-72" transform="translate(257.478516 0)"/>
      <use xlink:href="#DejaVuSans-65" transform="translate(296.341797 0)"/>
      <use xlink:href="#DejaVuSans-6c" transform="translate(357.865234 0)"/>
      <use xlink:href="#DejaVuSans-20" transform="translate(385.648438 0)"/>
      <use xlink:href="#DejaVuSans-33" transform="translate(417.435547 0)"/>
      <use xlink:href="#DejaVuSans-2e" transform="translate(481.058594 0)"/>
      <use xlink:href="#DejaVuSans-32" transform="translate(512.845703 0)"/>
      <use xlink:href="#DejaVuSans-25" transform="translate(576.46875 0)"/>
     </g>
    </g>
    <g id="patch_31">
     <path d="M 322.580625 184.84375 
L 338.580625 184.84375 
L 338.580625 179.24375 
L 322.580625 179.24375 
z
" style="fill: #000080"/>
    </g>
    <g id="text_13">
     <!-- Lua 3.0% -->
     <g transform="translate(344.980625 184.84375) scale(0.08 -0.08)">
      <defs>
       <path id="DejaVuSans-4c" d="M 628 4666 
L 1259 4666 
L 1259 531 
L 3531 531 
L 3531 0 
L 628 0 
L 628 4666 
z
" transform="scale(0.015625)"/>
      </defs>
      <use xlink:href="#DejaVuSans-4c"/>
      <use xlink:href="#DejaVuSans-75" transform="translate(53.962891 0)"/>
      <use xlink:href="#DejaVuSans-61" transform="translate(117.341797 0)"/>
      <use xlink:href="#DejaVuSans-20" transform="translate(178.621094 0)"/>
      <use xlink:href="#DejaVuSans-33" transform="translate(210.408203 0)"/>
      <use xlink:href="#DejaVuSans-2e" transform="translate(274.03125 0)"/>
      <use xlink:href="#DejaVuSans-30" transform="translate(305.818359 0)"/>
      <use xlink:href="#DejaVuSans-25" transform="translate(369.441406 0)"/>
     </g>
    </g>
    <g id="patch_32">
     <path d="M 322.580625 196.58625 
L 338.580625 196.58625 
L 338.580625 190.98625 
L 322.580625 190.98625 
z
" style="fill: #b07219"/>
    </g>
    <g id="text_14">
     <!-- Java 8.5% -->
     <g transform="translate(344.980625 196.58625) scale(0.08 -0.08)">
      <use xlink:href="#DejaVuSans-4a"/>
      <use xlink:href="#DejaVuSans-61" transform="translate(29.492188 0)"/>
      <use xlink:href="#DejaVuSans-76" transform="translate(90.771484 0)"/>
      <use xlink:href="#DejaVuSans-61" transform="translate(149.951172 0)"/>
      <use xlink:href="#DejaVuSans-20" transform="translate(211.230469 0)"/>
      <use xlink:href="#DejaVuSans-38" transform="translate(243.017578 0)"/>
      <use xlink:href="#DejaVuSans-2e" transform="translate(306.640625 0)"/>
      <use xlink:href="#DejaVuSans-35" transform="translate(338.427734 0)"/>
      <use xlink:href="#DejaVuSans-25" transform="translate(402.050781 0)"/>
     </g>
    </g>
    <g id="patch_33">
     <path d="M 322.580625 208.32875 
L 338.580625 208.32875 
L 338.580625 202.72875 
L 322.580625 202.72875 
z
" style="fill: #178600"/>
    </g>
    <g id="text_15">
     <!-- C# 7.4% -->
     <g transform="translate(344.980625 208.32875) scale(0.08 -0.08)">
      <defs>
       <path id="DejaVuSans-23" d="M 3272 2816 
L 2363 2816 
L 2100 1772 
L 3016 1772 
L 3272 2816 
z
M 2803 4594 
L 2478 3297 
L 3391 3297 
L 3719 4594 
L 4219 4594 
L 3897 3297 
L 4872 3297 
L 4872 2816 
L 3775 2816 
L 3519 1772 
L 4513 1772 
L 4513 1294 
L 3397 1294 
L 3072 0 
L 2572 0 
L 2894 1294 
L 1978 1294 
L 1656 0 
L 1153 0 
L 1478 1294 
L 494 1294 
L 494 1772 
L 1594 1772 
L 1856 2816 
L 850 2816 
L 850 3297 
L 1978 3297 
L 2297 4594 
L 2803 4594 
z
" transform="scale(0.015625)"/>
      </defs>
      <use xlink:href="#DejaVuSans-43"/>
      <use xlink:href="#DejaVuSans-23" transform="translate(69.824219 0)"/>
      <use xlink:href="#DejaVuSans-20" transform="translate(153.613281 0)"/>
      <use xlink:href="#DejaVuSans-37" transform="translate(185.400391 0)"/>
      <use xlink:href="#DejaVuSans-2e" transform="translate(249.023438 0)"/>
      <use xlink:href="#DejaVuSans-34" transform="translate(280.810547 0)"/>
      <use xlink:href="#DejaVuSans-25" transform="translate(344.433594 0)"/>
     </g>
    </g>
    <g id="patch_34">
     <path d="M 322.580625 220.07125 
L 338.580625 220.07125 
L 338.580625 214.47125 
L 322.580625 214.47125 
z
" style="fill: #ec915c"/>
    </g>
    <g id="text_16">
     <!-- Zig 10.5% -->
     <g transform="translate(344.980625 220.07125) scale(0.08 -0.08)">
      <defs>
       <path id="DejaVuSans-5a" d="M 359 4666 
L 4025 4666 
L 4025 4184 
L 1075 531 
L 4097 531 
L 4097 0 
L 288 0 
L 288 481 
L 3238 4134 
L 359 4134 
L 359 4666 
z
" transform="scale(0.015625)"/>
       <path id="DejaVuSans-67" d="M 2906 1791 
Q 2906 2416 2648 2759 
Q 2391 3103 1925 3103 
Q 1463 3103 1205 2759 
Q 947 2416 947 1791 
Q 947 1169 1205 825 
Q 1463 481 1925 481 
Q 2391 481 2648 825 
Q 2906 1169 2906 1791 
z
M 3481 434 
Q 3481 -459 3084 -895 
Q 2688 -1331 1869 -1331 
Q 1566 -1331 1297 -1286 
Q 1028 -1241 775 -1147 
L 775 -588 
Q 1028 -725 1275 -790 
Q 1522 -856 1778 -856 
Q 2344 -856 2625 -561 
Q 2906 -266 2906 331 
L 2906 616 
Q 2728 306 2450 153 
Q 2172 0 1784 0 
Q 1141 0 747 490 
Q 353 981 353 1791 
Q 353 2603 747 3093 
Q 1141 3584 1784 3584 
Q 2172 3584 2450 3431 
Q 2728 3278 2906 2969 
L 2906 3500 
L 3481 3500 
L 3481 434 
z
" transform="scale(0.015625)"/>
      </defs>
      <use xlink:href="#DejaVuSans-5a"/>
      <use xlink:href="#DejaVuSans-69" transform="translate(68.505859 0)"/>
      <use xlink:href="#DejaVuSans-67" transform="translate(96.289062 0)"/>
      <use xlink:href="#DejaVuSans-20" transform="translate(159.765625 0)"/>
      <use xlink:href="#DejaVuSans-31" transform="translate(191.552734 0)"/>
      <use xlink:href="#DejaVuSans-30" transform="translate(255.175781 0)"/>
      <use xlink:href="#DejaVuSans-2e" transform="translate(318.798828 0)"/>
      <use xlink:href="#DejaVuSans-35" transform="translate(350.585938 0)"/>
      <use xlink:href="#DejaVuSans-25" transform="translate(414.208984 0)"/>
     </g>
    </g>
   </g>
  </g>
 </g>
 <defs>
  <clipPath id="p4195a806ea">
   <path d="M 280.986842 102.986842 
C 280.986842 93.008341 279.021295 83.126869 275.202688 73.907937 
C 271.384081 64.689004 265.786677 56.311896 258.730811 49.256031 
C 251.674946 42.200165 243.297838 36.602761 234.078906 32.784154 
C 224.859973 28.965547 214.978501 27 205 27 
C 195.021499 27 185.140027 28.965547 175.921094 32.784154 
C 166.702162 36.602761 158.325054 42.200165 151.269189 49.256031 
C 144.213323 56.311896 138.615919 64.689004 134.797312 73.907937 
C 130.978705 83.126869 129.013158 93.008341 129.013158 102.986842 
C 129.013158 112.965343 130.978705 122.846815 134.797312 132.065748 
C 138.615919 141.28468 144.213323 149.661788 151.269189 156.717653 
C 158.325054 163.773519 166.702162 169.370923 175.921094 173.18953 
C 185.140027 177.008137 195.021499 178.973684 205 178.973684 
C 214.978501 178.973684 224.859973 177.008137 234.078906 173.18953 
C 243.297838 169.370923 251.674946 163.773519 258.730811 156.717653 
C 265.786677 149.661788 271.384081 141.28468 275.202688 132.065748 
C 279.021295 122.846815 280.986842 112.965343 280.986842 102.986842 
M 205 102.986842 
C 205 102.986842 205 102.986842 205 102.986842 
C 205 102.986842 205 102.986842 205 102.986842 
C 205 102.986842 205 102.986842 205 102.986842 
C 205 102.986842 205 102.986842 205 102.986842 
C 205 102.986842 205 102.986842 205 102.986842 
C 205 102.986842 205 102.986842 205 102.986842 
C 205 102.986842 205 102.986842 205 102.986842 
C 205 102.986842 205 102.986842 205 102.986842 
C 205 102.986842 205 102.986842 205 102.986842 
C 205 102.986842 205 102.986842 205 102.986842 
C 205 102.986842 205 102.986842 205 102.986842 
C 205 102.986842 205 102.986842 205 102.986842 
C 205 102.986842 205 102.986842 205 102.986842 
C 205 102.986842 205 102.986842 205 102.986842 
C 205 102.986842 205 102.986842 205 102.986842 
C 205 102.986842 205 102.986842 205 102.986842 
z
"/>
  </clipPath>
 </defs>
</svg>
