<?xml version="1.0" encoding="utf-8" standalone="no"?>
<!DOCTYPE svg PUBLIC "-//W3C//DTD SVG 1.1//EN"
  "http://www.w3.org/Graphics/SVG/1.1/DTD/svg11.dtd">
<svg xmlns:xlink="http://www.w3.org/1999/xlink" width="400pt" height="225pt" viewBox="0 0 400 225" xmlns="http://www.w3.org/2000/svg" version="1.1">
 <metadata>
  <rdf:RDF xmlns:dc="http://purl.org/dc/elements/1.1/" xmlns:cc="http://creativecommons.org/ns#" xmlns:rdf="http://www.w3.org/1999/02/22-rdf-syntax-ns#">
   <cc:Work>
    <dc:type rdf:resource="http://purl.org/dc/dcmitype/StillImage"/>
    <dc:date>2024-12-20T17:19:19.598789</dc:date>
    <dc:format>image/svg+xml</dc:format>
    <dc:creator>
     <cc:Agent>
      <dc:title>Matplotlib v3.9.3, https://matplotlib.org/</dc:title>
     </cc:Agent>
    </dc:creator>
   </cc:Work>
  </rdf:RDF>
 </metadata>
 <defs>
  <style type="text/css">*{stroke-linejoin: round; stroke-linecap: butt}</style>
 </defs>
 <g id="figure_1">
  <g id="patch_1">
   <path d="M 0 225 
L 400 225 
L 400 0 
L 0 0 
L 0 225 
z
" style="fill: none"/>
  </g>
  <g id="axes_1">
   <g id="patch_2">
    <path d="M 257.404719 102.986842 
C 257.404719 101.020267 257.29402 99.055249 257.073148 97.101116 
C 256.852276 95.146983 256.521581 93.206832 256.082633 91.28987 
L 277.97519 86.276882 
C 278.602259 89.015399 279.074681 91.787044 279.390212 94.578662 
C 279.705743 97.370281 279.863884 100.177448 279.863884 102.986842 
z
" clip-path="url(#pe11cbd61e0)" style="fill: #800000"/>
   </g>
   <g id="patch_3">
    <path d="M 256.082633 91.28987 
C 255.974531 90.817769 255.859889 90.34719 255.738741 89.878268 
C 255.617593 89.409346 255.48995 88.942125 255.355849 88.476742 
L 276.936927 82.258127 
C 277.1285 82.922961 277.310847 83.590419 277.483916 84.260308 
C 277.656984 84.930196 277.820758 85.602452 277.97519 86.276882 
z
" clip-path="url(#pe11cbd61e0)" style="fill: #89e051"/>
   </g>
   <g id="patch_4">
    <path d="M 255.355849 88.476742 
C 254.13977 84.256461 252.397953 80.205749 250.171406 76.419972 
C 247.94486 72.634195 245.251195 69.143298 242.153828 66.029467 
L 258.076898 50.190592 
C 262.501706 54.638921 266.349799 59.625917 269.53058 65.03417 
C 272.711362 70.442423 275.199671 76.229155 276.936927 82.258127 
z
" clip-path="url(#pe11cbd61e0)" style="fill: #178600"/>
   </g>
   <g id="patch_5">
    <path d="M 242.153828 66.029467 
C 240.146957 64.011928 237.97908 62.161203 235.67171 60.495658 
C 233.36434 58.830113 230.925134 57.355274 228.378297 56.085778 
L 238.397567 35.985323 
C 242.035906 37.798888 245.520485 39.9058 248.816728 42.28515 
C 252.112972 44.6645 255.209939 47.308393 258.076898 50.190592 
z
" clip-path="url(#pe11cbd61e0)" style="fill: #f1e05a"/>
   </g>
   <g id="patch_6">
    <path d="M 228.378297 56.085778 
C 223.948048 53.877477 219.227169 52.307992 214.356587 51.424173 
C 209.486006 50.540355 204.514672 50.351087 199.590989 50.862019 
L 197.272842 28.52281 
C 204.306674 27.792906 211.408579 28.063289 218.366553 29.325887 
C 225.324528 30.588484 232.06864 32.830606 238.397567 35.985323 
z
" clip-path="url(#pe11cbd61e0)" style="fill: #dea584"/>
   </g>
   <g id="patch_7">
    <path d="M 199.590989 50.862019 
C 196.536286 51.179007 193.515351 51.763907 190.563083 52.609963 
C 187.610815 53.456018 184.738627 54.559959 181.979696 55.909033 
L 172.113852 35.732828 
C 176.055181 33.805581 180.158308 32.228523 184.375833 31.019872 
C 188.593359 29.811221 192.90898 28.975649 197.272842 28.52281 
z
" clip-path="url(#pe11cbd61e0)" style="fill: #00add8"/>
   </g>
   <g id="patch_8">
    <path d="M 181.979696 55.909033 
C 178.450973 57.634522 175.127412 59.751298 172.071687 62.219444 
C 169.015962 64.68759 166.247401 67.491493 163.818214 70.578278 
L 146.168877 56.688894 
C 149.639145 52.2792 153.594231 48.273624 157.959553 44.747702 
C 162.324875 41.22178 167.072819 38.197814 172.113852 35.732828 
z
" clip-path="url(#pe11cbd61e0)" style="fill: #3178c6"/>
   </g>
   <g id="patch_9">
    <path d="M 163.818214 70.578278 
C 162.957746 71.671681 162.141165 72.798918 161.370413 73.957311 
C 160.59966 75.115704 159.875348 76.304334 159.199197 77.520374 
L 139.570282 66.606173 
C 140.536211 64.868973 141.570944 63.170931 142.672018 61.516084 
C 143.773093 59.861237 144.939637 58.250897 146.168877 56.688894 
z
" clip-path="url(#pe11cbd61e0)" style="fill: #5e5086"/>
   </g>
   <g id="patch_10">
    <path d="M 159.199197 77.520374 
C 156.166948 82.973798 154.132923 88.925213 153.193109 95.093771 
C 152.253294 101.26233 152.422709 107.549451 153.693359 113.658446 
L 131.704799 118.231991 
C 129.889585 109.504855 129.647563 100.523254 130.990155 91.711027 
C 132.332748 82.8988 135.238497 74.396779 139.570282 66.606173 
z
" clip-path="url(#pe11cbd61e0)" style="fill: #ec915c"/>
   </g>
   <g id="patch_11">
    <path d="M 153.693359 113.658446 
C 154.727228 118.629054 156.477964 123.423142 158.890614 127.890238 
C 161.303265 132.357333 164.352323 136.450206 167.942085 140.040391 
L 152.060122 155.920484 
C 146.93189 150.791647 142.576093 144.944687 139.129449 138.563121 
C 135.682805 132.181556 133.181755 125.332859 131.704799 118.231991 
z
" clip-path="url(#pe11cbd61e0)" style="fill: #b07219"/>
   </g>
   <g id="patch_12">
    <path d="M 167.942085 140.040391 
C 169.443267 141.541749 171.0343 142.950493 172.706386 144.258831 
C 174.378473 145.567169 176.128524 146.772685 177.94686 147.868711 
L 166.352657 167.103798 
C 163.755034 165.538046 161.254961 163.81588 158.866266 161.946826 
C 156.477572 160.077772 154.204666 158.065281 152.060122 155.920484 
z
" clip-path="url(#pe11cbd61e0)" style="fill: #701516"/>
   </g>
   <g id="patch_13">
    <path d="M 177.94686 147.868711 
C 183.332322 151.114869 189.258347 153.365366 195.440994 154.512369 
C 201.623641 155.659373 207.96256 155.684266 214.154025 154.585857 
L 218.077178 176.699721 
C 209.232228 178.268877 200.17663 178.233314 191.344277 176.594738 
C 182.511925 174.956162 174.046174 171.741167 166.352657 167.103798 
z
" clip-path="url(#pe11cbd61e0)" style="fill: #3572a5"/>
   </g>
   <g id="patch_14">
    <path d="M 214.154025 154.585857 
C 217.747955 153.948269 221.265458 152.93694 224.649215 151.56835 
C 228.032973 150.199759 231.264504 148.481383 234.291151 146.44122 
L 246.844502 165.064525 
C 242.52072 167.979043 237.904247 170.433867 233.070308 172.388996 
C 228.236369 174.344125 223.211364 175.788881 218.077178 176.699721 
z
" clip-path="url(#pe11cbd61e0)" style="fill: #555555"/>
   </g>
   <g id="patch_15">
    <path d="M 234.291151 146.44122 
C 239.910393 142.653476 244.741945 137.811478 248.517543 132.184068 
C 252.293141 126.556658 254.941591 120.249951 256.315842 113.614115 
L 278.308345 118.168661 
C 276.34513 127.648427 272.56163 136.658008 267.167918 144.697165 
C 261.774207 152.736322 254.87199 159.653463 246.844502 165.064525 
z
" clip-path="url(#pe11cbd61e0)" style="fill: #f34b7d"/>
   </g>
   <g id="patch_16">
    <path d="M 256.315842 113.614115 
C 256.677617 111.867213 256.949954 110.102976 257.131789 108.328298 
C 257.313623 106.553619 257.404719 104.770812 257.404719 102.986842 
L 279.863884 102.986842 
C 279.863884 105.535371 279.733748 108.082237 279.473984 110.617493 
C 279.21422 113.152748 278.825167 115.673086 278.308345 118.168661 
z
" clip-path="url(#pe11cbd61e0)" style="fill: #000080"/>
   </g>
  </g>
  <g id="axes_2">
   <g id="legend_1">
    <g id="patch_17">
     <path d="M 19.575625 224.935 
L 390.424375 224.935 
Q 392.024375 224.935 392.024375 223.335 
L 392.024375 177.165 
Q 392.024375 175.565 390.424375 175.565 
L 19.575625 175.565 
Q 17.975625 175.565 17.975625 177.165 
L 17.975625 223.335 
Q 17.975625 224.935 19.575625 224.935 
z
" style="fill: #ffffff; opacity: 0.8; stroke: #cccccc; stroke-linejoin: miter"/>
    </g>
    <g id="patch_18">
     <path d="M 21.175625 184.84375 
L 37.175625 184.84375 
L 37.175625 179.24375 
L 21.175625 179.24375 
z
" style="fill: #800000"/>
    </g>
    <g id="text_1">
     <!-- Squirrel 3.6% -->
     <g transform="translate(43.575625 184.84375) scale(0.08 -0.08)">
      <defs>
       <path id="DejaVuSans-53" d="M 3425 4513 
L 3425 3897 
Q 3066 4069 2747 4153 
Q 2428 4238 2131 4238 
Q 1616 4238 1336 4038 
Q 1056 3838 1056 3469 
Q 1056 3159 1242 3001 
Q 1428 2844 1947 2747 
L 2328 2669 
Q 3034 2534 3370 2195 
Q 3706 1856 3706 1288 
Q 3706 609 3251 259 
Q 2797 -91 1919 -91 
Q 1588 -91 1214 -16 
Q 841 59 441 206 
L 441 856 
Q 825 641 1194 531 
Q 1563 422 1919 422 
Q 2459 422 2753 634 
Q 3047 847 3047 1241 
Q 3047 1584 2836 1778 
Q 2625 1972 2144 2069 
L 1759 2144 
Q 1053 2284 737 2584 
Q 422 2884 422 3419 
Q 422 4038 858 4394 
Q 1294 4750 2059 4750 
Q 2388 4750 2728 4690 
Q 3069 4631 3425 4513 
z
" transform="scale(0.015625)"/>
       <path id="DejaVuSans-71" d="M 947 1747 
Q 947 1113 1208 752 
Q 1469 391 1925 391 
Q 2381 391 2643 752 
Q 2906 1113 2906 1747 
Q 2906 2381 2643 2742 
Q 2381 3103 1925 3103 
Q 1469 3103 1208 2742 
Q 947 2381 947 1747 
z
M 2906 525 
Q 2725 213 2448 61 
Q 2172 -91 1784 -91 
Q 1150 -91 751 415 
Q 353 922 353 1747 
Q 353 2572 751 3078 
Q 1150 3584 1784 3584 
Q 2172 3584 2448 3432 
Q 2725 3281 2906 2969 
L 2906 3500 
L 3481 3500 
L 3481 -1331 
L 2906 -1331 
L 2906 525 
z
" transform="scale(0.015625)"/>
       <path id="DejaVuSans-75" d="M 544 1381 
L 544 3500 
L 1119 3500 
L 1119 1403 
Q 1119 906 1312 657 
Q 1506 409 1894 409 
Q 2359 409 2629 706 
Q 2900 1003 2900 1516 
L 2900 3500 
L 3475 3500 
L 3475 0 
L 2900 0 
L 2900 538 
Q 2691 219 2414 64 
Q 2138 -91 1772 -91 
Q 1169 -91 856 284 
Q 544 659 544 1381 
z
M 1991 3584 
L 1991 3584 
z
" transform="scale(0.015625)"/>
       <path id="DejaVuSans-69" d="M 603 3500 
L 1178 3500 
L 1178 0 
L 603 0 
L 603 3500 
z
M 603 4863 
L 1178 4863 
L 1178 4134 
L 603 4134 
L 603 4863 
z
" transform="scale(0.015625)"/>
       <path id="DejaVuSans-72" d="M 2631 2963 
Q 2534 3019 2420 3045 
Q 2306 3072 2169 3072 
Q 1681 3072 1420 2755 
Q 1159 2438 1159 1844 
L 1159 0 
L 581 0 
L 581 3500 
L 1159 3500 
L 1159 2956 
Q 1341 3275 1631 3429 
Q 1922 3584 2338 3584 
Q 2397 3584 2469 3576 
Q 2541 3569 2628 3553 
L 2631 2963 
z
" transform="scale(0.015625)"/>
       <path id="DejaVuSans-65" d="M 3597 1894 
L 3597 1613 
L 953 1613 
Q 991 1019 1311 708 
Q 1631 397 2203 397 
Q 2534 397 2845 478 
Q 3156 559 3463 722 
L 3463 178 
Q 3153 47 2828 -22 
Q 2503 -91 2169 -91 
Q 1331 -91 842 396 
Q 353 884 353 1716 
Q 353 2575 817 3079 
Q 1281 3584 2069 3584 
Q 2775 3584 3186 3129 
Q 3597 2675 3597 1894 
z
M 3022 2063 
Q 3016 2534 2758 2815 
Q 2500 3097 2075 3097 
Q 1594 3097 1305 2825 
Q 1016 2553 972 2059 
L 3022 2063 
z
" transform="scale(0.015625)"/>
       <path id="DejaVuSans-6c" d="M 603 4863 
L 1178 4863 
L 1178 0 
L 603 0 
L 603 4863 
z
" transform="scale(0.015625)"/>
       <path id="DejaVuSans-20" transform="scale(0.015625)"/>
       <path id="DejaVuSans-33" d="M 2597 2516 
Q 3050 2419 3304 2112 
Q 3559 1806 3559 1356 
Q 3559 666 3084 287 
Q 2609 -91 1734 -91 
Q 1441 -91 1130 -33 
Q 819 25 488 141 
L 488 750 
Q 750 597 1062 519 
Q 1375 441 1716 441 
Q 2309 441 2620 675 
Q 2931 909 2931 1356 
Q 2931 1769 2642 2001 
Q 2353 2234 1838 2234 
L 1294 2234 
L 1294 2753 
L 1863 2753 
Q 2328 2753 2575 2939 
Q 2822 3125 2822 3475 
Q 2822 3834 2567 4026 
Q 2313 4219 1838 4219 
Q 1578 4219 1281 4162 
Q 984 4106 628 3988 
L 628 4550 
Q 988 4650 1302 4700 
Q 1616 4750 1894 4750 
Q 2613 4750 3031 4423 
Q 3450 4097 3450 3541 
Q 3450 3153 3228 2886 
Q 3006 2619 2597 2516 
z
" transform="scale(0.015625)"/>
       <path id="DejaVuSans-2e" d="M 684 794 
L 1344 794 
L 1344 0 
L 684 0 
L 684 794 
z
" transform="scale(0.015625)"/>
       <path id="DejaVuSans-36" d="M 2113 2584 
Q 1688 2584 1439 2293 
Q 1191 2003 1191 1497 
Q 1191 994 1439 701 
Q 1688 409 2113 409 
Q 2538 409 2786 701 
Q 3034 994 3034 1497 
Q 3034 2003 2786 2293 
Q 2538 2584 2113 2584 
z
M 3366 4563 
L 3366 3988 
Q 3128 4100 2886 4159 
Q 2644 4219 2406 4219 
Q 1781 4219 1451 3797 
Q 1122 3375 1075 2522 
Q 1259 2794 1537 2939 
Q 1816 3084 2150 3084 
Q 2853 3084 3261 2657 
Q 3669 2231 3669 1497 
Q 3669 778 3244 343 
Q 2819 -91 2113 -91 
Q 1303 -91 875 529 
Q 447 1150 447 2328 
Q 447 3434 972 4092 
Q 1497 4750 2381 4750 
Q 2619 4750 2861 4703 
Q 3103 4656 3366 4563 
z
" transform="scale(0.015625)"/>
       <path id="DejaVuSans-25" d="M 4653 2053 
Q 4381 2053 4226 1822 
Q 4072 1591 4072 1178 
Q 4072 772 4226 539 
Q 4381 306 4653 306 
Q 4919 306 5073 539 
Q 5228 772 5228 1178 
Q 5228 1588 5073 1820 
Q 4919 2053 4653 2053 
z
M 4653 2450 
Q 5147 2450 5437 2106 
Q 5728 1763 5728 1178 
Q 5728 594 5436 251 
Q 5144 -91 4653 -91 
Q 4153 -91 3862 251 
Q 3572 594 3572 1178 
Q 3572 1766 3864 2108 
Q 4156 2450 4653 2450 
z
M 1428 4353 
Q 1159 4353 1004 4120 
Q 850 3888 850 3481 
Q 850 3069 1003 2837 
Q 1156 2606 1428 2606 
Q 1700 2606 1854 2837 
Q 2009 3069 2009 3481 
Q 2009 3884 1853 4118 
Q 1697 4353 1428 4353 
z
M 4250 4750 
L 4750 4750 
L 1831 -91 
L 1331 -91 
L 4250 4750 
z
M 1428 4750 
Q 1922 4750 2215 4408 
Q 2509 4066 2509 3481 
Q 2509 2891 2217 2550 
Q 1925 2209 1428 2209 
Q 931 2209 642 2551 
Q 353 2894 353 3481 
Q 353 4063 643 4406 
Q 934 4750 1428 4750 
z
" transform="scale(0.015625)"/>
      </defs>
      <use xlink:href="#DejaVuSans-53"/>
      <use xlink:href="#DejaVuSans-71" x="63.476562"/>
      <use xlink:href="#DejaVuSans-75" x="126.953125"/>
      <use xlink:href="#DejaVuSans-69" x="190.332031"/>
      <use xlink:href="#DejaVuSans-72" x="218.115234"/>
      <use xlink:href="#DejaVuSans-72" x="257.478516"/>
      <use xlink:href="#DejaVuSans-65" x="296.341797"/>
      <use xlink:href="#DejaVuSans-6c" x="357.865234"/>
      <use xlink:href="#DejaVuSans-20" x="385.648438"/>
      <use xlink:href="#DejaVuSans-33" x="417.435547"/>
      <use xlink:href="#DejaVuSans-2e" x="481.058594"/>
      <use xlink:href="#DejaVuSans-36" x="512.845703"/>
      <use xlink:href="#DejaVuSans-25" x="576.46875"/>
     </g>
    </g>
    <g id="patch_19">
     <path d="M 21.175625 196.58625 
L 37.175625 196.58625 
L 37.175625 190.98625 
L 21.175625 190.98625 
z
" style="fill: #89e051"/>
    </g>
    <g id="text_2">
     <!-- Shell 0.9% -->
     <g transform="translate(43.575625 196.58625) scale(0.08 -0.08)">
      <defs>
       <path id="DejaVuSans-68" d="M 3513 2113 
L 3513 0 
L 2938 0 
L 2938 2094 
Q 2938 2591 2744 2837 
Q 2550 3084 2163 3084 
Q 1697 3084 1428 2787 
Q 1159 2491 1159 1978 
L 1159 0 
L 581 0 
L 581 4863 
L 1159 4863 
L 1159 2956 
Q 1366 3272 1645 3428 
Q 1925 3584 2291 3584 
Q 2894 3584 3203 3211 
Q 3513 2838 3513 2113 
z
" transform="scale(0.015625)"/>
       <path id="DejaVuSans-30" d="M 2034 4250 
Q 1547 4250 1301 3770 
Q 1056 3291 1056 2328 
Q 1056 1369 1301 889 
Q 1547 409 2034 409 
Q 2525 409 2770 889 
Q 3016 1369 3016 2328 
Q 3016 3291 2770 3770 
Q 2525 4250 2034 4250 
z
M 2034 4750 
Q 2819 4750 3233 4129 
Q 3647 3509 3647 2328 
Q 3647 1150 3233 529 
Q 2819 -91 2034 -91 
Q 1250 -91 836 529 
Q 422 1150 422 2328 
Q 422 3509 836 4129 
Q 1250 4750 2034 4750 
z
" transform="scale(0.015625)"/>
       <path id="DejaVuSans-39" d="M 703 97 
L 703 672 
Q 941 559 1184 500 
Q 1428 441 1663 441 
Q 2288 441 2617 861 
Q 2947 1281 2994 2138 
Q 2813 1869 2534 1725 
Q 2256 1581 1919 1581 
Q 1219 1581 811 2004 
Q 403 2428 403 3163 
Q 403 3881 828 4315 
Q 1253 4750 1959 4750 
Q 2769 4750 3195 4129 
Q 3622 3509 3622 2328 
Q 3622 1225 3098 567 
Q 2575 -91 1691 -91 
Q 1453 -91 1209 -44 
Q 966 3 703 97 
z
M 1959 2075 
Q 2384 2075 2632 2365 
Q 2881 2656 2881 3163 
Q 2881 3666 2632 3958 
Q 2384 4250 1959 4250 
Q 1534 4250 1286 3958 
Q 1038 3666 1038 3163 
Q 1038 2656 1286 2365 
Q 1534 2075 1959 2075 
z
" transform="scale(0.015625)"/>
      </defs>
      <use xlink:href="#DejaVuSans-53"/>
      <use xlink:href="#DejaVuSans-68" x="63.476562"/>
      <use xlink:href="#DejaVuSans-65" x="126.855469"/>
      <use xlink:href="#DejaVuSans-6c" x="188.378906"/>
      <use xlink:href="#DejaVuSans-6c" x="216.162109"/>
      <use xlink:href="#DejaVuSans-20" x="243.945312"/>
      <use xlink:href="#DejaVuSans-30" x="275.732422"/>
      <use xlink:href="#DejaVuSans-2e" x="339.355469"/>
      <use xlink:href="#DejaVuSans-39" x="371.142578"/>
      <use xlink:href="#DejaVuSans-25" x="434.765625"/>
     </g>
    </g>
    <g id="patch_20">
     <path d="M 21.175625 208.32875 
L 37.175625 208.32875 
L 37.175625 202.72875 
L 21.175625 202.72875 
z
" style="fill: #178600"/>
    </g>
    <g id="text_3">
     <!-- C# 8.0% -->
     <g transform="translate(43.575625 208.32875) scale(0.08 -0.08)">
      <defs>
       <path id="DejaVuSans-43" d="M 4122 4306 
L 4122 3641 
Q 3803 3938 3442 4084 
Q 3081 4231 2675 4231 
Q 1875 4231 1450 3742 
Q 1025 3253 1025 2328 
Q 1025 1406 1450 917 
Q 1875 428 2675 428 
Q 3081 428 3442 575 
Q 3803 722 4122 1019 
L 4122 359 
Q 3791 134 3420 21 
Q 3050 -91 2638 -91 
Q 1578 -91 968 557 
Q 359 1206 359 2328 
Q 359 3453 968 4101 
Q 1578 4750 2638 4750 
Q 3056 4750 3426 4639 
Q 3797 4528 4122 4306 
z
" transform="scale(0.015625)"/>
       <path id="DejaVuSans-23" d="M 3272 2816 
L 2363 2816 
L 2100 1772 
L 3016 1772 
L 3272 2816 
z
M 2803 4594 
L 2478 3297 
L 3391 3297 
L 3719 4594 
L 4219 4594 
L 3897 3297 
L 4872 3297 
L 4872 2816 
L 3775 2816 
L 3519 1772 
L 4513 1772 
L 4513 1294 
L 3397 1294 
L 3072 0 
L 2572 0 
L 2894 1294 
L 1978 1294 
L 1656 0 
L 1153 0 
L 1478 1294 
L 494 1294 
L 494 1772 
L 1594 1772 
L 1856 2816 
L 850 2816 
L 850 3297 
L 1978 3297 
L 2297 4594 
L 2803 4594 
z
" transform="scale(0.015625)"/>
       <path id="DejaVuSans-39" d="M 703 97 
L 703 672 
Q 941 559 1184 500 
Q 1428 441 1663 441 
Q 2288 441 2617 861 
Q 2947 1281 2994 2138 
Q 2813 1869 2534 1725 
Q 2256 1581 1919 1581 
Q 1219 1581 811 2004 
Q 403 2428 403 3163 
Q 403 3881 828 4315 
Q 1253 4750 1959 4750 
Q 2769 4750 3195 4129 
Q 3622 3509 3622 2328 
Q 3622 1225 3098 567 
Q 2575 -91 1691 -91 
Q 1453 -91 1209 -44 
Q 966 3 703 97 
z
M 1959 2075 
Q 2384 2075 2632 2365 
Q 2881 2656 2881 3163 
Q 2881 3666 2632 3958 
Q 2384 4250 1959 4250 
Q 1534 4250 1286 3958 
Q 1038 3666 1038 3163 
Q 1038 2656 1286 2365 
Q 1534 2075 1959 2075 
z
" transform="scale(0.015625)"/>
      </defs>
      <use xlink:href="#DejaVuSans-43"/>
      <use xlink:href="#DejaVuSans-23" x="69.824219"/>
      <use xlink:href="#DejaVuSans-20" x="153.613281"/>
      <use xlink:href="#DejaVuSans-38" x="185.400391"/>
      <use xlink:href="#DejaVuSans-2e" x="249.023438"/>
      <use xlink:href="#DejaVuSans-30" x="280.810547"/>
      <use xlink:href="#DejaVuSans-25" x="344.433594"/>
     </g>
    </g>
    <g id="patch_21">
     <path d="M 21.175625 220.07125 
L 37.175625 220.07125 
L 37.175625 214.47125 
L 21.175625 214.47125 
z
" style="fill: #f1e05a"/>
    </g>
    <g id="text_4">
     <!-- JavaScript 5.2% -->
     <g transform="translate(43.575625 220.07125) scale(0.08 -0.08)">
      <defs>
       <path id="DejaVuSans-4a" d="M 628 4666 
L 1259 4666 
L 1259 325 
Q 1259 -519 939 -900 
Q 619 -1281 -91 -1281 
L -331 -1281 
L -331 -750 
L -134 -750 
Q 284 -750 456 -515 
Q 628 -281 628 325 
L 628 4666 
z
" transform="scale(0.015625)"/>
       <path id="DejaVuSans-61" d="M 2194 1759 
Q 1497 1759 1228 1600 
Q 959 1441 959 1056 
Q 959 750 1161 570 
Q 1363 391 1709 391 
Q 2188 391 2477 730 
Q 2766 1069 2766 1631 
L 2766 1759 
L 2194 1759 
z
M 3341 1997 
L 3341 0 
L 2766 0 
L 2766 531 
Q 2569 213 2275 61 
Q 1981 -91 1556 -91 
Q 1019 -91 701 211 
Q 384 513 384 1019 
Q 384 1609 779 1909 
Q 1175 2209 1959 2209 
L 2766 2209 
L 2766 2266 
Q 2766 2663 2505 2880 
Q 2244 3097 1772 3097 
Q 1472 3097 1187 3025 
Q 903 2953 641 2809 
L 641 3341 
Q 956 3463 1253 3523 
Q 1550 3584 1831 3584 
Q 2591 3584 2966 3190 
Q 3341 2797 3341 1997 
z
" transform="scale(0.015625)"/>
       <path id="DejaVuSans-76" d="M 191 3500 
L 800 3500 
L 1894 563 
L 2988 3500 
L 3597 3500 
L 2284 0 
L 1503 0 
L 191 3500 
z
" transform="scale(0.015625)"/>
       <path id="DejaVuSans-63" d="M 3122 3366 
L 3122 2828 
Q 2878 2963 2633 3030 
Q 2388 3097 2138 3097 
Q 1578 3097 1268 2742 
Q 959 2388 959 1747 
Q 959 1106 1268 751 
Q 1578 397 2138 397 
Q 2388 397 2633 464 
Q 2878 531 3122 666 
L 3122 134 
Q 2881 22 2623 -34 
Q 2366 -91 2075 -91 
Q 1284 -91 818 406 
Q 353 903 353 1747 
Q 353 2603 823 3093 
Q 1294 3584 2113 3584 
Q 2378 3584 2631 3529 
Q 2884 3475 3122 3366 
z
" transform="scale(0.015625)"/>
       <path id="DejaVuSans-70" d="M 1159 525 
L 1159 -1331 
L 581 -1331 
L 581 3500 
L 1159 3500 
L 1159 2969 
Q 1341 3281 1617 3432 
Q 1894 3584 2278 3584 
Q 2916 3584 3314 3078 
Q 3713 2572 3713 1747 
Q 3713 922 3314 415 
Q 2916 -91 2278 -91 
Q 1894 -91 1617 61 
Q 1341 213 1159 525 
z
M 3116 1747 
Q 3116 2381 2855 2742 
Q 2594 3103 2138 3103 
Q 1681 3103 1420 2742 
Q 1159 2381 1159 1747 
Q 1159 1113 1420 752 
Q 1681 391 2138 391 
Q 2594 391 2855 752 
Q 3116 1113 3116 1747 
z
" transform="scale(0.015625)"/>
       <path id="DejaVuSans-74" d="M 1172 4494 
L 1172 3500 
L 2356 3500 
L 2356 3053 
L 1172 3053 
L 1172 1153 
Q 1172 725 1289 603 
Q 1406 481 1766 481 
L 2356 481 
L 2356 0 
L 1766 0 
Q 1100 0 847 248 
Q 594 497 594 1153 
L 594 3053 
L 172 3053 
L 172 3500 
L 594 3500 
L 594 4494 
L 1172 4494 
z
" transform="scale(0.015625)"/>
       <path id="DejaVuSans-35" d="M 691 4666 
L 3169 4666 
L 3169 4134 
L 1269 4134 
L 1269 2991 
Q 1406 3038 1543 3061 
Q 1681 3084 1819 3084 
Q 2600 3084 3056 2656 
Q 3513 2228 3513 1497 
Q 3513 744 3044 326 
Q 2575 -91 1722 -91 
Q 1428 -91 1123 -41 
Q 819 9 494 109 
L 494 744 
Q 775 591 1075 516 
Q 1375 441 1709 441 
Q 2250 441 2565 725 
Q 2881 1009 2881 1497 
Q 2881 1984 2565 2268 
Q 2250 2553 1709 2553 
Q 1456 2553 1204 2497 
Q 953 2441 691 2322 
L 691 4666 
z
" transform="scale(0.015625)"/>
       <path id="DejaVuSans-32" d="M 1228 531 
L 3431 531 
L 3431 0 
L 469 0 
L 469 531 
Q 828 903 1448 1529 
Q 2069 2156 2228 2338 
Q 2531 2678 2651 2914 
Q 2772 3150 2772 3378 
Q 2772 3750 2511 3984 
Q 2250 4219 1831 4219 
Q 1534 4219 1204 4116 
Q 875 4013 500 3803 
L 500 4441 
Q 881 4594 1212 4672 
Q 1544 4750 1819 4750 
Q 2544 4750 2975 4387 
Q 3406 4025 3406 3419 
Q 3406 3131 3298 2873 
Q 3191 2616 2906 2266 
Q 2828 2175 2409 1742 
Q 1991 1309 1228 531 
z
" transform="scale(0.015625)"/>
      </defs>
      <use xlink:href="#DejaVuSans-4a"/>
      <use xlink:href="#DejaVuSans-61" x="29.492188"/>
      <use xlink:href="#DejaVuSans-76" x="90.771484"/>
      <use xlink:href="#DejaVuSans-61" x="149.951172"/>
      <use xlink:href="#DejaVuSans-53" x="211.230469"/>
      <use xlink:href="#DejaVuSans-63" x="274.707031"/>
      <use xlink:href="#DejaVuSans-72" x="329.6875"/>
      <use xlink:href="#DejaVuSans-69" x="370.800781"/>
      <use xlink:href="#DejaVuSans-70" x="398.583984"/>
      <use xlink:href="#DejaVuSans-74" x="462.060547"/>
      <use xlink:href="#DejaVuSans-20" x="501.269531"/>
      <use xlink:href="#DejaVuSans-35" x="533.056641"/>
      <use xlink:href="#DejaVuSans-2e" x="596.679688"/>
      <use xlink:href="#DejaVuSans-32" x="628.466797"/>
      <use xlink:href="#DejaVuSans-25" x="692.089844"/>
     </g>
    </g>
    <g id="patch_22">
     <path d="M 122.545625 184.84375 
L 138.545625 184.84375 
L 138.545625 179.24375 
L 122.545625 179.24375 
z
" style="fill: #dea584"/>
    </g>
    <g id="text_5">
     <!-- Rust 9.0% -->
     <g transform="translate(144.945625 184.84375) scale(0.08 -0.08)">
      <defs>
       <path id="DejaVuSans-52" d="M 2841 2188 
Q 3044 2119 3236 1894 
Q 3428 1669 3622 1275 
L 4263 0 
L 3584 0 
L 2988 1197 
Q 2756 1666 2539 1819 
Q 2322 1972 1947 1972 
L 1259 1972 
L 1259 0 
L 628 0 
L 628 4666 
L 2053 4666 
Q 2853 4666 3247 4331 
Q 3641 3997 3641 3322 
Q 3641 2881 3436 2590 
Q 3231 2300 2841 2188 
z
M 1259 4147 
L 1259 2491 
L 2053 2491 
Q 2509 2491 2742 2702 
Q 2975 2913 2975 3322 
Q 2975 3731 2742 3939 
Q 2509 4147 2053 4147 
L 1259 4147 
z
" transform="scale(0.015625)"/>
       <path id="DejaVuSans-73" d="M 2834 3397 
L 2834 2853 
Q 2591 2978 2328 3040 
Q 2066 3103 1784 3103 
Q 1356 3103 1142 2972 
Q 928 2841 928 2578 
Q 928 2378 1081 2264 
Q 1234 2150 1697 2047 
L 1894 2003 
Q 2506 1872 2764 1633 
Q 3022 1394 3022 966 
Q 3022 478 2636 193 
Q 2250 -91 1575 -91 
Q 1294 -91 989 -36 
Q 684 19 347 128 
L 347 722 
Q 666 556 975 473 
Q 1284 391 1588 391 
Q 1994 391 2212 530 
Q 2431 669 2431 922 
Q 2431 1156 2273 1281 
Q 2116 1406 1581 1522 
L 1381 1569 
Q 847 1681 609 1914 
Q 372 2147 372 2553 
Q 372 3047 722 3315 
Q 1072 3584 1716 3584 
Q 2034 3584 2315 3537 
Q 2597 3491 2834 3397 
z
" transform="scale(0.015625)"/>
      </defs>
      <use xlink:href="#DejaVuSans-52"/>
      <use xlink:href="#DejaVuSans-75" x="64.982422"/>
      <use xlink:href="#DejaVuSans-73" x="128.361328"/>
      <use xlink:href="#DejaVuSans-74" x="180.460938"/>
      <use xlink:href="#DejaVuSans-20" x="219.669922"/>
      <use xlink:href="#DejaVuSans-39" x="251.457031"/>
      <use xlink:href="#DejaVuSans-2e" x="315.080078"/>
      <use xlink:href="#DejaVuSans-30" x="346.867188"/>
      <use xlink:href="#DejaVuSans-25" x="410.490234"/>
     </g>
    </g>
    <g id="patch_23">
     <path d="M 122.545625 196.58625 
L 138.545625 196.58625 
L 138.545625 190.98625 
L 122.545625 190.98625 
z
" style="fill: #00add8"/>
    </g>
    <g id="text_6">
     <!-- Go 5.6% -->
     <g transform="translate(144.945625 196.58625) scale(0.08 -0.08)">
      <defs>
       <path id="DejaVuSans-47" d="M 3809 666 
L 3809 1919 
L 2778 1919 
L 2778 2438 
L 4434 2438 
L 4434 434 
Q 4069 175 3628 42 
Q 3188 -91 2688 -91 
Q 1594 -91 976 548 
Q 359 1188 359 2328 
Q 359 3472 976 4111 
Q 1594 4750 2688 4750 
Q 3144 4750 3555 4637 
Q 3966 4525 4313 4306 
L 4313 3634 
Q 3963 3931 3569 4081 
Q 3175 4231 2741 4231 
Q 1884 4231 1454 3753 
Q 1025 3275 1025 2328 
Q 1025 1384 1454 906 
Q 1884 428 2741 428 
Q 3075 428 3337 486 
Q 3600 544 3809 666 
z
" transform="scale(0.015625)"/>
       <path id="DejaVuSans-6f" d="M 1959 3097 
Q 1497 3097 1228 2736 
Q 959 2375 959 1747 
Q 959 1119 1226 758 
Q 1494 397 1959 397 
Q 2419 397 2687 759 
Q 2956 1122 2956 1747 
Q 2956 2369 2687 2733 
Q 2419 3097 1959 3097 
z
M 1959 3584 
Q 2709 3584 3137 3096 
Q 3566 2609 3566 1747 
Q 3566 888 3137 398 
Q 2709 -91 1959 -91 
Q 1206 -91 779 398 
Q 353 888 353 1747 
Q 353 2609 779 3096 
Q 1206 3584 1959 3584 
z
" transform="scale(0.015625)"/>
      </defs>
      <use xlink:href="#DejaVuSans-47"/>
      <use xlink:href="#DejaVuSans-6f" x="77.490234"/>
      <use xlink:href="#DejaVuSans-20" x="138.671875"/>
      <use xlink:href="#DejaVuSans-35" x="170.458984"/>
      <use xlink:href="#DejaVuSans-2e" x="234.082031"/>
      <use xlink:href="#DejaVuSans-36" x="265.869141"/>
      <use xlink:href="#DejaVuSans-25" x="329.492188"/>
     </g>
    </g>
    <g id="patch_24">
     <path d="M 122.545625 208.32875 
L 138.545625 208.32875 
L 138.545625 202.72875 
L 122.545625 202.72875 
z
" style="fill: #3178c6"/>
    </g>
    <g id="text_7">
     <!-- TypeScript 7.2% -->
     <g transform="translate(144.945625 208.32875) scale(0.08 -0.08)">
      <defs>
       <path id="DejaVuSans-54" d="M -19 4666 
L 3928 4666 
L 3928 4134 
L 2272 4134 
L 2272 0 
L 1638 0 
L 1638 4134 
L -19 4134 
L -19 4666 
z
" transform="scale(0.015625)"/>
       <path id="DejaVuSans-79" d="M 2059 -325 
Q 1816 -950 1584 -1140 
Q 1353 -1331 966 -1331 
L 506 -1331 
L 506 -850 
L 844 -850 
Q 1081 -850 1212 -737 
Q 1344 -625 1503 -206 
L 1606 56 
L 191 3500 
L 800 3500 
L 1894 763 
L 2988 3500 
L 3597 3500 
L 2059 -325 
z
" transform="scale(0.015625)"/>
       <path id="DejaVuSans-37" d="M 525 4666 
L 3525 4666 
L 3525 4397 
L 1831 0 
L 1172 0 
L 2766 4134 
L 525 4134 
L 525 4666 
z
" transform="scale(0.015625)"/>
      </defs>
      <use xlink:href="#DejaVuSans-54"/>
      <use xlink:href="#DejaVuSans-79" x="45.458984"/>
      <use xlink:href="#DejaVuSans-70" x="104.638672"/>
      <use xlink:href="#DejaVuSans-65" x="168.115234"/>
      <use xlink:href="#DejaVuSans-53" x="229.638672"/>
      <use xlink:href="#DejaVuSans-63" x="293.115234"/>
      <use xlink:href="#DejaVuSans-72" x="348.095703"/>
      <use xlink:href="#DejaVuSans-69" x="389.208984"/>
      <use xlink:href="#DejaVuSans-70" x="416.992188"/>
      <use xlink:href="#DejaVuSans-74" x="480.46875"/>
      <use xlink:href="#DejaVuSans-20" x="519.677734"/>
      <use xlink:href="#DejaVuSans-37" x="551.464844"/>
      <use xlink:href="#DejaVuSans-2e" x="615.087891"/>
      <use xlink:href="#DejaVuSans-32" x="646.875"/>
      <use xlink:href="#DejaVuSans-25" x="710.498047"/>
     </g>
    </g>
    <g id="patch_25">
     <path d="M 122.545625 220.07125 
L 138.545625 220.07125 
L 138.545625 214.47125 
L 122.545625 214.47125 
z
" style="fill: #5e5086"/>
    </g>
    <g id="text_8">
     <!-- Haskell 2.5% -->
     <g transform="translate(144.945625 220.07125) scale(0.08 -0.08)">
      <defs>
       <path id="DejaVuSans-48" d="M 628 4666 
L 1259 4666 
L 1259 2753 
L 3553 2753 
L 3553 4666 
L 4184 4666 
L 4184 0 
L 3553 0 
L 3553 2222 
L 1259 2222 
L 1259 0 
L 628 0 
L 628 4666 
z
" transform="scale(0.015625)"/>
       <path id="DejaVuSans-6b" d="M 581 4863 
L 1159 4863 
L 1159 1991 
L 2875 3500 
L 3609 3500 
L 1753 1863 
L 3688 0 
L 2938 0 
L 1159 1709 
L 1159 0 
L 581 0 
L 581 4863 
z
" transform="scale(0.015625)"/>
      </defs>
      <use xlink:href="#DejaVuSans-48"/>
      <use xlink:href="#DejaVuSans-61" x="75.195312"/>
      <use xlink:href="#DejaVuSans-73" x="136.474609"/>
      <use xlink:href="#DejaVuSans-6b" x="188.574219"/>
      <use xlink:href="#DejaVuSans-65" x="242.859375"/>
      <use xlink:href="#DejaVuSans-6c" x="304.382812"/>
      <use xlink:href="#DejaVuSans-6c" x="332.166016"/>
      <use xlink:href="#DejaVuSans-20" x="359.949219"/>
      <use xlink:href="#DejaVuSans-32" x="391.736328"/>
      <use xlink:href="#DejaVuSans-2e" x="455.359375"/>
      <use xlink:href="#DejaVuSans-35" x="487.146484"/>
      <use xlink:href="#DejaVuSans-25" x="550.769531"/>
     </g>
    </g>
    <g id="patch_26">
     <path d="M 225.388125 184.84375 
L 241.388125 184.84375 
L 241.388125 179.24375 
L 225.388125 179.24375 
z
" style="fill: #ec915c"/>
    </g>
    <g id="text_9">
     <!-- Zig 11.3% -->
     <g transform="translate(247.788125 184.84375) scale(0.08 -0.08)">
      <defs>
       <path id="DejaVuSans-5a" d="M 359 4666 
L 4025 4666 
L 4025 4184 
L 1075 531 
L 4097 531 
L 4097 0 
L 288 0 
L 288 481 
L 3238 4134 
L 359 4134 
L 359 4666 
z
" transform="scale(0.015625)"/>
       <path id="DejaVuSans-67" d="M 2906 1791 
Q 2906 2416 2648 2759 
Q 2391 3103 1925 3103 
Q 1463 3103 1205 2759 
Q 947 2416 947 1791 
Q 947 1169 1205 825 
Q 1463 481 1925 481 
Q 2391 481 2648 825 
Q 2906 1169 2906 1791 
z
M 3481 434 
Q 3481 -459 3084 -895 
Q 2688 -1331 1869 -1331 
Q 1566 -1331 1297 -1286 
Q 1028 -1241 775 -1147 
L 775 -588 
Q 1028 -725 1275 -790 
Q 1522 -856 1778 -856 
Q 2344 -856 2625 -561 
Q 2906 -266 2906 331 
L 2906 616 
Q 2728 306 2450 153 
Q 2172 0 1784 0 
Q 1141 0 747 490 
Q 353 981 353 1791 
Q 353 2603 747 3093 
Q 1141 3584 1784 3584 
Q 2172 3584 2450 3431 
Q 2728 3278 2906 2969 
L 2906 3500 
L 3481 3500 
L 3481 434 
z
" transform="scale(0.015625)"/>
       <path id="DejaVuSans-31" d="M 794 531 
L 1825 531 
L 1825 4091 
L 703 3866 
L 703 4441 
L 1819 4666 
L 2450 4666 
L 2450 531 
L 3481 531 
L 3481 0 
L 794 0 
L 794 531 
z
" transform="scale(0.015625)"/>
      </defs>
      <use xlink:href="#DejaVuSans-5a"/>
      <use xlink:href="#DejaVuSans-69" x="68.505859"/>
      <use xlink:href="#DejaVuSans-67" x="96.289062"/>
      <use xlink:href="#DejaVuSans-20" x="159.765625"/>
      <use xlink:href="#DejaVuSans-31" x="191.552734"/>
      <use xlink:href="#DejaVuSans-31" x="255.175781"/>
      <use xlink:href="#DejaVuSans-2e" x="318.798828"/>
      <use xlink:href="#DejaVuSans-33" x="350.585938"/>
      <use xlink:href="#DejaVuSans-25" x="414.208984"/>
     </g>
    </g>
    <g id="patch_27">
     <path d="M 225.388125 196.58625 
L 241.388125 196.58625 
L 241.388125 190.98625 
L 225.388125 190.98625 
z
" style="fill: #b07219"/>
    </g>
    <g id="text_10">
     <!-- Java 9.2% -->
     <g transform="translate(247.788125 196.58625) scale(0.08 -0.08)">
      <use xlink:href="#DejaVuSans-4a"/>
      <use xlink:href="#DejaVuSans-61" x="29.492188"/>
      <use xlink:href="#DejaVuSans-76" x="90.771484"/>
      <use xlink:href="#DejaVuSans-61" x="149.951172"/>
      <use xlink:href="#DejaVuSans-20" x="211.230469"/>
      <use xlink:href="#DejaVuSans-39" x="243.017578"/>
      <use xlink:href="#DejaVuSans-2e" x="306.640625"/>
      <use xlink:href="#DejaVuSans-32" x="338.427734"/>
      <use xlink:href="#DejaVuSans-25" x="402.050781"/>
     </g>
    </g>
    <g id="patch_28">
     <path d="M 225.388125 208.32875 
L 241.388125 208.32875 
L 241.388125 202.72875 
L 225.388125 202.72875 
z
" style="fill: #701516"/>
    </g>
    <g id="text_11">
     <!-- Ruby 3.9% -->
     <g transform="translate(247.788125 208.32875) scale(0.08 -0.08)">
      <defs>
       <path id="DejaVuSans-62" d="M 3116 1747 
Q 3116 2381 2855 2742 
Q 2594 3103 2138 3103 
Q 1681 3103 1420 2742 
Q 1159 2381 1159 1747 
Q 1159 1113 1420 752 
Q 1681 391 2138 391 
Q 2594 391 2855 752 
Q 3116 1113 3116 1747 
z
M 1159 2969 
Q 1341 3281 1617 3432 
Q 1894 3584 2278 3584 
Q 2916 3584 3314 3078 
Q 3713 2572 3713 1747 
Q 3713 922 3314 415 
Q 2916 -91 2278 -91 
Q 1894 -91 1617 61 
Q 1341 213 1159 525 
L 1159 0 
L 581 0 
L 581 4863 
L 1159 4863 
L 1159 2969 
z
" transform="scale(0.015625)"/>
      </defs>
      <use xlink:href="#DejaVuSans-52"/>
      <use xlink:href="#DejaVuSans-75" x="64.982422"/>
      <use xlink:href="#DejaVuSans-62" x="128.361328"/>
      <use xlink:href="#DejaVuSans-79" x="191.837891"/>
      <use xlink:href="#DejaVuSans-20" x="251.017578"/>
      <use xlink:href="#DejaVuSans-33" x="282.804688"/>
      <use xlink:href="#DejaVuSans-2e" x="346.427734"/>
      <use xlink:href="#DejaVuSans-39" x="378.214844"/>
      <use xlink:href="#DejaVuSans-25" x="441.837891"/>
     </g>
    </g>
    <g id="patch_29">
     <path d="M 225.388125 220.07125 
L 241.388125 220.07125 
L 241.388125 214.47125 
L 225.388125 214.47125 
z
" style="fill: #3572a5"/>
    </g>
    <g id="text_12">
     <!-- Python 11.4% -->
     <g transform="translate(247.788125 220.07125) scale(0.08 -0.08)">
      <defs>
       <path id="DejaVuSans-50" d="M 1259 4147 
L 1259 2394 
L 2053 2394 
Q 2494 2394 2734 2622 
Q 2975 2850 2975 3272 
Q 2975 3691 2734 3919 
Q 2494 4147 2053 4147 
L 1259 4147 
z
M 628 4666 
L 2053 4666 
Q 2838 4666 3239 4311 
Q 3641 3956 3641 3272 
Q 3641 2581 3239 2228 
Q 2838 1875 2053 1875 
L 1259 1875 
L 1259 0 
L 628 0 
L 628 4666 
z
" transform="scale(0.015625)"/>
       <path id="DejaVuSans-6e" d="M 3513 2113 
L 3513 0 
L 2938 0 
L 2938 2094 
Q 2938 2591 2744 2837 
Q 2550 3084 2163 3084 
Q 1697 3084 1428 2787 
Q 1159 2491 1159 1978 
L 1159 0 
L 581 0 
L 581 3500 
L 1159 3500 
L 1159 2956 
Q 1366 3272 1645 3428 
Q 1925 3584 2291 3584 
Q 2894 3584 3203 3211 
Q 3513 2838 3513 2113 
z
" transform="scale(0.015625)"/>
       <path id="DejaVuSans-34" d="M 2419 4116 
L 825 1625 
L 2419 1625 
L 2419 4116 
z
M 2253 4666 
L 3047 4666 
L 3047 1625 
L 3713 1625 
L 3713 1100 
L 3047 1100 
L 3047 0 
L 2419 0 
L 2419 1100 
L 313 1100 
L 313 1709 
L 2253 4666 
z
" transform="scale(0.015625)"/>
      </defs>
      <use xlink:href="#DejaVuSans-50"/>
      <use xlink:href="#DejaVuSans-79" x="60.302734"/>
      <use xlink:href="#DejaVuSans-74" x="119.482422"/>
      <use xlink:href="#DejaVuSans-68" x="158.691406"/>
      <use xlink:href="#DejaVuSans-6f" x="222.070312"/>
      <use xlink:href="#DejaVuSans-6e" x="283.251953"/>
      <use xlink:href="#DejaVuSans-20" x="346.630859"/>
      <use xlink:href="#DejaVuSans-31" x="378.417969"/>
      <use xlink:href="#DejaVuSans-31" x="442.041016"/>
      <use xlink:href="#DejaVuSans-2e" x="505.664062"/>
      <use xlink:href="#DejaVuSans-34" x="537.451172"/>
      <use xlink:href="#DejaVuSans-25" x="601.074219"/>
     </g>
    </g>
    <g id="patch_30">
     <path d="M 319.474375 184.84375 
L 335.474375 184.84375 
L 335.474375 179.24375 
L 319.474375 179.24375 
z
" style="fill: #555555"/>
    </g>
    <g id="text_13">
     <!-- C 6.6% -->
     <g transform="translate(341.874375 184.84375) scale(0.08 -0.08)">
      <use xlink:href="#DejaVuSans-43"/>
      <use xlink:href="#DejaVuSans-20" x="69.824219"/>
      <use xlink:href="#DejaVuSans-36" x="101.611328"/>
      <use xlink:href="#DejaVuSans-2e" x="165.234375"/>
      <use xlink:href="#DejaVuSans-36" x="197.021484"/>
      <use xlink:href="#DejaVuSans-25" x="260.644531"/>
     </g>
    </g>
    <g id="patch_31">
     <path d="M 319.474375 196.58625 
L 335.474375 196.58625 
L 335.474375 190.98625 
L 319.474375 190.98625 
z
" style="fill: #f34b7d"/>
    </g>
    <g id="text_14">
     <!-- C++ 12.3% -->
     <g transform="translate(341.874375 196.58625) scale(0.08 -0.08)">
      <defs>
       <path id="DejaVuSans-2b" d="M 2944 4013 
L 2944 2272 
L 4684 2272 
L 4684 1741 
L 2944 1741 
L 2944 0 
L 2419 0 
L 2419 1741 
L 678 1741 
L 678 2272 
L 2419 2272 
L 2419 4013 
L 2944 4013 
z
" transform="scale(0.015625)"/>
      </defs>
      <use xlink:href="#DejaVuSans-43"/>
      <use xlink:href="#DejaVuSans-2b" x="69.824219"/>
      <use xlink:href="#DejaVuSans-2b" x="153.613281"/>
      <use xlink:href="#DejaVuSans-20" x="237.402344"/>
      <use xlink:href="#DejaVuSans-31" x="269.189453"/>
      <use xlink:href="#DejaVuSans-32" x="332.8125"/>
      <use xlink:href="#DejaVuSans-2e" x="396.435547"/>
      <use xlink:href="#DejaVuSans-33" x="428.222656"/>
      <use xlink:href="#DejaVuSans-25" x="491.845703"/>
     </g>
    </g>
    <g id="patch_32">
     <path d="M 319.474375 208.32875 
L 335.474375 208.32875 
L 335.474375 202.72875 
L 319.474375 202.72875 
z
" style="fill: #000080"/>
    </g>
    <g id="text_15">
     <!-- Lua 3.3% -->
     <g transform="translate(341.874375 208.32875) scale(0.08 -0.08)">
      <defs>
       <path id="DejaVuSans-4c" d="M 628 4666 
L 1259 4666 
L 1259 531 
L 3531 531 
L 3531 0 
L 628 0 
L 628 4666 
z
" transform="scale(0.015625)"/>
      </defs>
      <use xlink:href="#DejaVuSans-4c"/>
      <use xlink:href="#DejaVuSans-75" x="53.962891"/>
      <use xlink:href="#DejaVuSans-61" x="117.341797"/>
      <use xlink:href="#DejaVuSans-20" x="178.621094"/>
      <use xlink:href="#DejaVuSans-33" x="210.408203"/>
      <use xlink:href="#DejaVuSans-2e" x="274.03125"/>
      <use xlink:href="#DejaVuSans-33" x="305.818359"/>
      <use xlink:href="#DejaVuSans-25" x="369.441406"/>
     </g>
    </g>
   </g>
  </g>
 </g>
 <defs>
  <clipPath id="pe11cbd61e0">
   <path d="M 280.986842 102.986842 
C 280.986842 93.008341 279.021295 83.126869 275.202688 73.907937 
C 271.384081 64.689004 265.786677 56.311896 258.730811 49.256031 
C 251.674946 42.200165 243.297838 36.602761 234.078906 32.784154 
C 224.859973 28.965547 214.978501 27 205 27 
C 195.021499 27 185.140027 28.965547 175.921094 32.784154 
C 166.702162 36.602761 158.325054 42.200165 151.269189 49.256031 
C 144.213323 56.311896 138.615919 64.689004 134.797312 73.907937 
C 130.978705 83.126869 129.013158 93.008341 129.013158 102.986842 
C 129.013158 112.965343 130.978705 122.846815 134.797312 132.065748 
C 138.615919 141.28468 144.213323 149.661788 151.269189 156.717653 
C 158.325054 163.773519 166.702162 169.370923 175.921094 173.18953 
C 185.140027 177.008137 195.021499 178.973684 205 178.973684 
C 214.978501 178.973684 224.859973 177.008137 234.078906 173.18953 
C 243.297838 169.370923 251.674946 163.773519 258.730811 156.717653 
C 265.786677 149.661788 271.384081 141.28468 275.202688 132.065748 
C 279.021295 122.846815 280.986842 112.965343 280.986842 102.986842 
M 205 102.986842 
C 205 102.986842 205 102.986842 205 102.986842 
C 205 102.986842 205 102.986842 205 102.986842 
C 205 102.986842 205 102.986842 205 102.986842 
C 205 102.986842 205 102.986842 205 102.986842 
C 205 102.986842 205 102.986842 205 102.986842 
C 205 102.986842 205 102.986842 205 102.986842 
C 205 102.986842 205 102.986842 205 102.986842 
C 205 102.986842 205 102.986842 205 102.986842 
C 205 102.986842 205 102.986842 205 102.986842 
C 205 102.986842 205 102.986842 205 102.986842 
C 205 102.986842 205 102.986842 205 102.986842 
C 205 102.986842 205 102.986842 205 102.986842 
C 205 102.986842 205 102.986842 205 102.986842 
C 205 102.986842 205 102.986842 205 102.986842 
C 205 102.986842 205 102.986842 205 102.986842 
C 205 102.986842 205 102.986842 205 102.986842 
z
"/>
  </clipPath>
 </defs>
</svg>
