<?xml version="1.0" encoding="utf-8" standalone="no"?>
<!DOCTYPE svg PUBLIC "-//W3C//DTD SVG 1.1//EN"
  "http://www.w3.org/Graphics/SVG/1.1/DTD/svg11.dtd">
<svg xmlns:xlink="http://www.w3.org/1999/xlink" width="426.666667pt" height="240pt" viewBox="0 0 426.666667 240" xmlns="http://www.w3.org/2000/svg" version="1.1">
 <metadata>
  <rdf:RDF xmlns:dc="http://purl.org/dc/elements/1.1/" xmlns:cc="http://creativecommons.org/ns#" xmlns:rdf="http://www.w3.org/1999/02/22-rdf-syntax-ns#">
   <cc:Work>
    <dc:type rdf:resource="http://purl.org/dc/dcmitype/StillImage"/>
    <dc:date>2024-12-26T16:09:23.477369</dc:date>
    <dc:format>image/svg+xml</dc:format>
    <dc:creator>
     <cc:Agent>
      <dc:title>Matplotlib v3.9.3, https://matplotlib.org/</dc:title>
     </cc:Agent>
    </dc:creator>
   </cc:Work>
  </rdf:RDF>
 </metadata>
 <defs>
  <style type="text/css">*{stroke-linejoin: round; stroke-linecap: butt}</style>
 </defs>
 <g id="figure_1">
  <g id="patch_1">
   <path d="M 0 240 
L 426.666667 240 
L 426.666667 0 
L 0 0 
L 0 240 
z
" style="fill: none"/>
  </g>
  <g id="axes_1">
   <g id="patch_2">
    <path d="M 266.942529 98.8 
C 266.942529 97.52259 266.891827 96.245684 266.790544 94.972295 
C 266.68926 93.698907 266.537475 92.430041 266.335545 91.168692 
L 286.765065 87.898132 
C 287.053535 89.700058 287.270372 91.512725 287.415062 93.331851 
C 287.559753 95.150977 287.632184 96.975129 287.632184 98.8 
z
" clip-path="url(#pebff5748ab)" style="fill: #800000"/>
   </g>
   <g id="patch_3">
    <path d="M 266.335545 91.168692 
C 266.284307 90.848634 266.229847 90.529099 266.172173 90.210138 
C 266.114499 89.891176 266.053614 89.572803 265.989527 89.255068 
L 286.270753 85.164383 
C 286.362306 85.618291 286.449284 86.073109 286.531676 86.528768 
C 286.614067 86.984428 286.691868 87.440905 286.765065 87.898132 
z
" clip-path="url(#pebff5748ab)" style="fill: #89e051"/>
   </g>
   <g id="patch_4">
    <path d="M 265.989527 89.255068 
C 265.40872 86.375479 264.566289 83.554904 263.472723 80.828463 
C 262.379158 78.102021 261.039016 75.481076 259.468984 72.998261 
L 276.955692 61.940373 
C 279.198595 65.487251 281.113083 69.231459 282.675319 73.126375 
C 284.237555 77.021292 285.441028 81.050685 286.270753 85.164383 
z
" clip-path="url(#pebff5748ab)" style="fill: #178600"/>
   </g>
   <g id="patch_5">
    <path d="M 259.468984 72.998261 
C 258.451352 71.388999 257.339405 69.841349 256.138973 68.363425 
C 254.938541 66.8855 253.651724 65.479887 252.285268 64.153954 
L 266.69324 49.305649 
C 268.64532 51.199838 270.483629 53.207857 272.198533 55.319178 
C 273.913436 57.430499 275.501932 59.641427 276.955692 61.940373 
z
" clip-path="url(#pebff5748ab)" style="fill: #f1e05a"/>
   </g>
   <g id="patch_6">
    <path d="M 252.285268 64.153954 
C 249.909549 61.848688 247.303005 59.793881 244.506809 58.021993 
C 241.710614 56.250104 238.739569 54.770513 235.640605 53.60659 
L 242.91515 34.237986 
C 247.342242 35.900733 251.586592 38.014435 255.581156 40.545704 
C 259.575721 43.076973 263.299355 46.012411 266.69324 49.305649 
z
" clip-path="url(#pebff5748ab)" style="fill: #dea584"/>
   </g>
   <g id="patch_7">
    <path d="M 235.640605 53.60659 
C 233.491581 52.79945 231.287719 52.146622 229.045802 51.653076 
C 226.803885 51.159531 224.529617 50.826523 222.240316 50.65659 
L 223.771879 30.023701 
C 227.04231 30.266462 230.291265 30.742187 233.494003 31.447252 
C 236.696742 32.152317 239.845115 33.084929 242.91515 34.237986 
z
" clip-path="url(#pebff5748ab)" style="fill: #0000fb"/>
   </g>
   <g id="patch_8">
    <path d="M 222.240316 50.65659 
C 220.191201 50.504486 218.134464 50.483361 216.082658 50.593343 
C 214.030851 50.703326 211.988157 50.944192 209.967044 51.314471 
L 206.238634 30.963531 
C 209.125939 30.43456 212.044073 30.090465 214.975225 29.933347 
C 217.906377 29.77623 220.844573 29.806409 223.771879 30.023701 
z
" clip-path="url(#pebff5748ab)" style="fill: #00add8"/>
   </g>
   <g id="patch_9">
    <path d="M 209.967044 51.314471 
C 208.96623 51.497826 207.971463 51.712775 206.984234 51.958996 
C 205.997004 52.205218 205.017805 52.482588 204.048104 52.790691 
L 197.783006 33.072416 
C 199.168293 32.632268 200.567149 32.236025 201.977477 31.884281 
C 203.387805 31.532536 204.808901 31.225466 206.238634 30.963531 
z
" clip-path="url(#pebff5748ab)" style="fill: #ffaff3"/>
   </g>
   <g id="patch_10">
    <path d="M 204.048104 52.790691 
C 201.643829 53.554603 199.303126 54.505799 197.047511 55.635536 
C 194.791897 56.765272 192.628302 58.070078 190.576613 59.53796 
L 178.538019 42.711372 
C 181.469003 40.614398 184.559852 38.750389 187.782159 37.136479 
C 191.004466 35.52257 194.348327 34.163719 197.783006 33.072416 
z
" clip-path="url(#pebff5748ab)" style="fill: #ffc200"/>
   </g>
   <g id="patch_11">
    <path d="M 190.576613 59.53796 
C 187.443911 61.779255 184.590684 64.387451 182.077859 67.306858 
C 179.565034 70.226264 177.410622 73.435953 175.660628 76.867388 
L 157.229468 67.467697 
C 159.72946 62.565647 162.807191 57.980378 166.396941 53.809797 
C 169.986692 49.639216 174.062729 45.913221 178.538019 42.711372 
z
" clip-path="url(#pebff5748ab)" style="fill: #60affe"/>
   </g>
   <g id="patch_12">
    <path d="M 175.660628 76.867388 
C 174.466878 79.208123 173.466221 81.642416 172.668632 84.146 
C 171.871044 86.649584 171.279182 89.214111 170.898949 91.814015 
L 150.42707 88.820022 
C 150.97026 85.105873 151.815777 81.442263 152.955189 77.865715 
C 154.094602 74.289166 155.524112 70.811604 157.229468 67.467697 
z
" clip-path="url(#pebff5748ab)" style="fill: #3178c6"/>
   </g>
   <g id="patch_13">
    <path d="M 170.898949 91.814015 
C 170.541605 94.257404 170.372263 96.724613 170.392412 99.193911 
C 170.412561 101.66321 170.622143 104.127327 171.019311 106.564559 
L 150.599016 109.892227 
C 150.031632 106.410467 149.73223 102.8903 149.703445 99.362731 
C 149.674661 95.835161 149.916579 92.310577 150.42707 88.820022 
z
" clip-path="url(#pebff5748ab)" style="fill: #ff4c1f"/>
   </g>
   <g id="patch_14">
    <path d="M 171.019311 106.564559 
C 171.169073 107.483575 171.345392 108.398066 171.548048 109.306884 
C 171.750703 110.215702 171.97961 111.118466 172.234481 112.014044 
L 152.334972 117.677206 
C 151.970871 116.397809 151.643862 115.108145 151.354354 113.809834 
C 151.064846 112.511523 150.812961 111.205107 150.599016 109.892227 
z
" clip-path="url(#pebff5748ab)" style="fill: #5e5086"/>
   </g>
   <g id="patch_15">
    <path d="M 172.234481 112.014044 
C 172.704336 113.665045 173.261914 115.289812 173.90484 116.88142 
C 174.547766 118.473027 175.275124 120.029212 176.083815 121.543341 
L 157.834021 131.290488 
C 156.678748 129.127446 155.639665 126.904325 154.7212 124.6306 
C 153.802735 122.356874 153.006194 120.035779 152.334972 117.677206 
z
" clip-path="url(#pebff5748ab)" style="fill: #000100"/>
   </g>
   <g id="patch_16">
    <path d="M 176.083815 121.543341 
C 178.04875 125.222332 180.482202 128.631216 183.323314 131.684742 
C 186.164426 134.738268 189.389315 137.410769 192.917334 139.63541 
L 181.881905 157.1363 
C 176.841879 153.958242 172.234894 150.140383 168.176162 145.778203 
C 164.117431 141.416022 160.641071 136.546189 157.834021 131.290488 
z
" clip-path="url(#pebff5748ab)" style="fill: #ec915c"/>
   </g>
   <g id="patch_17">
    <path d="M 192.917334 139.63541 
C 195.789115 141.446251 198.843924 142.949111 202.031018 144.119025 
C 205.218113 145.28894 208.519747 146.119395 211.881079 146.596597 
L 208.97297 167.080852 
C 204.171068 166.399136 199.454447 165.212771 194.901455 163.541465 
C 190.348463 161.870159 185.98445 159.723216 181.881905 157.1363 
z
" clip-path="url(#pebff5748ab)" style="fill: #b07219"/>
   </g>
   <g id="patch_18">
    <path d="M 211.881079 146.596597 
C 213.287689 146.79629 214.70243 146.933794 216.121168 147.008706 
C 217.539907 147.083617 218.961261 147.095864 220.381079 147.045411 
L 221.115828 167.722015 
C 219.087515 167.794092 217.05701 167.776596 215.03024 167.669579 
C 213.003471 167.562563 210.982413 167.366129 208.97297 167.080852 
z
" clip-path="url(#pebff5748ab)" style="fill: #701516"/>
   </g>
   <g id="patch_19">
    <path d="M 220.381079 147.045411 
C 224.581545 146.896146 228.744588 146.198951 232.764493 144.97153 
C 236.784397 143.744109 240.626845 141.99694 244.194263 139.774391 
L 255.134661 157.334844 
C 250.03835 160.509914 244.549139 163.005869 238.806418 164.759328 
C 233.063698 166.512787 227.116493 167.50878 221.115828 167.722015 
z
" clip-path="url(#pebff5748ab)" style="fill: #3572a5"/>
   </g>
   <g id="patch_20">
    <path d="M 244.194263 139.774391 
C 246.266749 138.483204 248.238288 137.036637 250.091902 135.447148 
C 251.945515 133.857659 253.675866 132.129824 255.268051 130.278525 
L 270.954358 143.769322 
C 268.679809 146.414034 266.207879 148.88237 263.55986 151.153068 
C 260.91184 153.423767 258.095355 155.490292 255.134661 157.334844 
z
" clip-path="url(#pebff5748ab)" style="fill: #555555"/>
   </g>
   <g id="patch_21">
    <path d="M 255.268051 130.278525 
C 258.221033 126.84497 260.676231 123.012906 262.561347 118.89517 
C 264.446464 114.777435 265.742814 110.414845 266.412225 105.935861 
L 286.874607 108.994088 
C 285.918306 115.392636 284.066377 121.624907 281.373353 127.507386 
C 278.680329 133.389865 275.172905 138.864243 270.954358 143.769322 
z
" clip-path="url(#pebff5748ab)" style="fill: #f34b7d"/>
   </g>
   <g id="patch_22">
    <path d="M 266.412225 105.935861 
C 266.588689 104.755154 266.721295 103.568308 266.80977 102.37777 
C 266.898245 101.187231 266.942529 99.993821 266.942529 98.8 
L 287.632184 98.8 
C 287.632184 100.505459 287.568922 102.210331 287.442529 103.911099 
C 287.316136 105.611868 287.126698 107.307363 286.874607 108.994088 
z
" clip-path="url(#pebff5748ab)" style="fill: #000080"/>
   </g>
  </g>
  <g id="axes_2">
   <g id="legend_1">
    <g id="patch_23">
     <path d="M 33.431042 236.0275 
L 403.902292 236.0275 
Q 405.502292 236.0275 405.502292 234.4275 
L 405.502292 164.7725 
Q 405.502292 163.1725 403.902292 163.1725 
L 33.431042 163.1725 
Q 31.831042 163.1725 31.831042 164.7725 
L 31.831042 234.4275 
Q 31.831042 236.0275 33.431042 236.0275 
z
" style="fill: #ffffff; opacity: 0.8; stroke: #cccccc; stroke-linejoin: miter"/>
    </g>
    <g id="patch_24">
     <path d="M 35.031042 172.45125 
L 51.031042 172.45125 
L 51.031042 166.85125 
L 35.031042 166.85125 
z
" style="fill: #800000"/>
    </g>
    <g id="text_1">
     <!-- Squirrel 2.5% -->
     <g transform="translate(57.431042 172.45125) scale(0.08 -0.08)">
      <defs>
       <path id="DejaVuSans-53" d="M 3425 4513 
L 3425 3897 
Q 3066 4069 2747 4153 
Q 2428 4238 2131 4238 
Q 1616 4238 1336 4038 
Q 1056 3838 1056 3469 
Q 1056 3159 1242 3001 
Q 1428 2844 1947 2747 
L 2328 2669 
Q 3034 2534 3370 2195 
Q 3706 1856 3706 1288 
Q 3706 609 3251 259 
Q 2797 -91 1919 -91 
Q 1588 -91 1214 -16 
Q 841 59 441 206 
L 441 856 
Q 825 641 1194 531 
Q 1563 422 1919 422 
Q 2459 422 2753 634 
Q 3047 847 3047 1241 
Q 3047 1584 2836 1778 
Q 2625 1972 2144 2069 
L 1759 2144 
Q 1053 2284 737 2584 
Q 422 2884 422 3419 
Q 422 4038 858 4394 
Q 1294 4750 2059 4750 
Q 2388 4750 2728 4690 
Q 3069 4631 3425 4513 
z
" transform="scale(0.015625)"/>
       <path id="DejaVuSans-71" d="M 947 1747 
Q 947 1113 1208 752 
Q 1469 391 1925 391 
Q 2381 391 2643 752 
Q 2906 1113 2906 1747 
Q 2906 2381 2643 2742 
Q 2381 3103 1925 3103 
Q 1469 3103 1208 2742 
Q 947 2381 947 1747 
z
M 2906 525 
Q 2725 213 2448 61 
Q 2172 -91 1784 -91 
Q 1150 -91 751 415 
Q 353 922 353 1747 
Q 353 2572 751 3078 
Q 1150 3584 1784 3584 
Q 2172 3584 2448 3432 
Q 2725 3281 2906 2969 
L 2906 3500 
L 3481 3500 
L 3481 -1331 
L 2906 -1331 
L 2906 525 
z
" transform="scale(0.015625)"/>
       <path id="DejaVuSans-75" d="M 544 1381 
L 544 3500 
L 1119 3500 
L 1119 1403 
Q 1119 906 1312 657 
Q 1506 409 1894 409 
Q 2359 409 2629 706 
Q 2900 1003 2900 1516 
L 2900 3500 
L 3475 3500 
L 3475 0 
L 2900 0 
L 2900 538 
Q 2691 219 2414 64 
Q 2138 -91 1772 -91 
Q 1169 -91 856 284 
Q 544 659 544 1381 
z
M 1991 3584 
L 1991 3584 
z
" transform="scale(0.015625)"/>
       <path id="DejaVuSans-69" d="M 603 3500 
L 1178 3500 
L 1178 0 
L 603 0 
L 603 3500 
z
M 603 4863 
L 1178 4863 
L 1178 4134 
L 603 4134 
L 603 4863 
z
" transform="scale(0.015625)"/>
       <path id="DejaVuSans-72" d="M 2631 2963 
Q 2534 3019 2420 3045 
Q 2306 3072 2169 3072 
Q 1681 3072 1420 2755 
Q 1159 2438 1159 1844 
L 1159 0 
L 581 0 
L 581 3500 
L 1159 3500 
L 1159 2956 
Q 1341 3275 1631 3429 
Q 1922 3584 2338 3584 
Q 2397 3584 2469 3576 
Q 2541 3569 2628 3553 
L 2631 2963 
z
" transform="scale(0.015625)"/>
       <path id="DejaVuSans-65" d="M 3597 1894 
L 3597 1613 
L 953 1613 
Q 991 1019 1311 708 
Q 1631 397 2203 397 
Q 2534 397 2845 478 
Q 3156 559 3463 722 
L 3463 178 
Q 3153 47 2828 -22 
Q 2503 -91 2169 -91 
Q 1331 -91 842 396 
Q 353 884 353 1716 
Q 353 2575 817 3079 
Q 1281 3584 2069 3584 
Q 2775 3584 3186 3129 
Q 3597 2675 3597 1894 
z
M 3022 2063 
Q 3016 2534 2758 2815 
Q 2500 3097 2075 3097 
Q 1594 3097 1305 2825 
Q 1016 2553 972 2059 
L 3022 2063 
z
" transform="scale(0.015625)"/>
       <path id="DejaVuSans-6c" d="M 603 4863 
L 1178 4863 
L 1178 0 
L 603 0 
L 603 4863 
z
" transform="scale(0.015625)"/>
       <path id="DejaVuSans-20" transform="scale(0.015625)"/>
       <path id="DejaVuSans-32" d="M 1228 531 
L 3431 531 
L 3431 0 
L 469 0 
L 469 531 
Q 828 903 1448 1529 
Q 2069 2156 2228 2338 
Q 2531 2678 2651 2914 
Q 2772 3150 2772 3378 
Q 2772 3750 2511 3984 
Q 2250 4219 1831 4219 
Q 1534 4219 1204 4116 
Q 875 4013 500 3803 
L 500 4441 
Q 881 4594 1212 4672 
Q 1544 4750 1819 4750 
Q 2544 4750 2975 4387 
Q 3406 4025 3406 3419 
Q 3406 3131 3298 2873 
Q 3191 2616 2906 2266 
Q 2828 2175 2409 1742 
Q 1991 1309 1228 531 
z
" transform="scale(0.015625)"/>
       <path id="DejaVuSans-2e" d="M 684 794 
L 1344 794 
L 1344 0 
L 684 0 
L 684 794 
z
" transform="scale(0.015625)"/>
       <path id="DejaVuSans-35" d="M 691 4666 
L 3169 4666 
L 3169 4134 
L 1269 4134 
L 1269 2991 
Q 1406 3038 1543 3061 
Q 1681 3084 1819 3084 
Q 2600 3084 3056 2656 
Q 3513 2228 3513 1497 
Q 3513 744 3044 326 
Q 2575 -91 1722 -91 
Q 1428 -91 1123 -41 
Q 819 9 494 109 
L 494 744 
Q 775 591 1075 516 
Q 1375 441 1709 441 
Q 2250 441 2565 725 
Q 2881 1009 2881 1497 
Q 2881 1984 2565 2268 
Q 2250 2553 1709 2553 
Q 1456 2553 1204 2497 
Q 953 2441 691 2322 
L 691 4666 
z
" transform="scale(0.015625)"/>
       <path id="DejaVuSans-25" d="M 4653 2053 
Q 4381 2053 4226 1822 
Q 4072 1591 4072 1178 
Q 4072 772 4226 539 
Q 4381 306 4653 306 
Q 4919 306 5073 539 
Q 5228 772 5228 1178 
Q 5228 1588 5073 1820 
Q 4919 2053 4653 2053 
z
M 4653 2450 
Q 5147 2450 5437 2106 
Q 5728 1763 5728 1178 
Q 5728 594 5436 251 
Q 5144 -91 4653 -91 
Q 4153 -91 3862 251 
Q 3572 594 3572 1178 
Q 3572 1766 3864 2108 
Q 4156 2450 4653 2450 
z
M 1428 4353 
Q 1159 4353 1004 4120 
Q 850 3888 850 3481 
Q 850 3069 1003 2837 
Q 1156 2606 1428 2606 
Q 1700 2606 1854 2837 
Q 2009 3069 2009 3481 
Q 2009 3884 1853 4118 
Q 1697 4353 1428 4353 
z
M 4250 4750 
L 4750 4750 
L 1831 -91 
L 1331 -91 
L 4250 4750 
z
M 1428 4750 
Q 1922 4750 2215 4408 
Q 2509 4066 2509 3481 
Q 2509 2891 2217 2550 
Q 1925 2209 1428 2209 
Q 931 2209 642 2551 
Q 353 2894 353 3481 
Q 353 4063 643 4406 
Q 934 4750 1428 4750 
z
" transform="scale(0.015625)"/>
      </defs>
      <use xlink:href="#DejaVuSans-53"/>
      <use xlink:href="#DejaVuSans-71" x="63.476562"/>
      <use xlink:href="#DejaVuSans-75" x="126.953125"/>
      <use xlink:href="#DejaVuSans-69" x="190.332031"/>
      <use xlink:href="#DejaVuSans-72" x="218.115234"/>
      <use xlink:href="#DejaVuSans-72" x="257.478516"/>
      <use xlink:href="#DejaVuSans-65" x="296.341797"/>
      <use xlink:href="#DejaVuSans-6c" x="357.865234"/>
      <use xlink:href="#DejaVuSans-20" x="385.648438"/>
      <use xlink:href="#DejaVuSans-32" x="417.435547"/>
      <use xlink:href="#DejaVuSans-2e" x="481.058594"/>
      <use xlink:href="#DejaVuSans-35" x="512.845703"/>
      <use xlink:href="#DejaVuSans-25" x="576.46875"/>
     </g>
    </g>
    <g id="patch_25">
     <path d="M 35.031042 184.19375 
L 51.031042 184.19375 
L 51.031042 178.59375 
L 35.031042 178.59375 
z
" style="fill: #89e051"/>
    </g>
    <g id="text_2">
     <!-- Shell 0.6% -->
     <g transform="translate(57.431042 184.19375) scale(0.08 -0.08)">
      <defs>
       <path id="DejaVuSans-68" d="M 3513 2113 
L 3513 0 
L 2938 0 
L 2938 2094 
Q 2938 2591 2744 2837 
Q 2550 3084 2163 3084 
Q 1697 3084 1428 2787 
Q 1159 2491 1159 1978 
L 1159 0 
L 581 0 
L 581 4863 
L 1159 4863 
L 1159 2956 
Q 1366 3272 1645 3428 
Q 1925 3584 2291 3584 
Q 2894 3584 3203 3211 
Q 3513 2838 3513 2113 
z
" transform="scale(0.015625)"/>
       <path id="DejaVuSans-30" d="M 2034 4250 
Q 1547 4250 1301 3770 
Q 1056 3291 1056 2328 
Q 1056 1369 1301 889 
Q 1547 409 2034 409 
Q 2525 409 2770 889 
Q 3016 1369 3016 2328 
Q 3016 3291 2770 3770 
Q 2525 4250 2034 4250 
z
M 2034 4750 
Q 2819 4750 3233 4129 
Q 3647 3509 3647 2328 
Q 3647 1150 3233 529 
Q 2819 -91 2034 -91 
Q 1250 -91 836 529 
Q 422 1150 422 2328 
Q 422 3509 836 4129 
Q 1250 4750 2034 4750 
z
" transform="scale(0.015625)"/>
       <path id="DejaVuSans-36" d="M 2113 2584 
Q 1688 2584 1439 2293 
Q 1191 2003 1191 1497 
Q 1191 994 1439 701 
Q 1688 409 2113 409 
Q 2538 409 2786 701 
Q 3034 994 3034 1497 
Q 3034 2003 2786 2293 
Q 2538 2584 2113 2584 
z
M 3366 4563 
L 3366 3988 
Q 3128 4100 2886 4159 
Q 2644 4219 2406 4219 
Q 1781 4219 1451 3797 
Q 1122 3375 1075 2522 
Q 1259 2794 1537 2939 
Q 1816 3084 2150 3084 
Q 2853 3084 3261 2657 
Q 3669 2231 3669 1497 
Q 3669 778 3244 343 
Q 2819 -91 2113 -91 
Q 1303 -91 875 529 
Q 447 1150 447 2328 
Q 447 3434 972 4092 
Q 1497 4750 2381 4750 
Q 2619 4750 2861 4703 
Q 3103 4656 3366 4563 
z
" transform="scale(0.015625)"/>
      </defs>
      <use xlink:href="#DejaVuSans-53"/>
      <use xlink:href="#DejaVuSans-68" x="63.476562"/>
      <use xlink:href="#DejaVuSans-65" x="126.855469"/>
      <use xlink:href="#DejaVuSans-6c" x="188.378906"/>
      <use xlink:href="#DejaVuSans-6c" x="216.162109"/>
      <use xlink:href="#DejaVuSans-20" x="243.945312"/>
      <use xlink:href="#DejaVuSans-30" x="275.732422"/>
      <use xlink:href="#DejaVuSans-2e" x="339.355469"/>
      <use xlink:href="#DejaVuSans-36" x="371.142578"/>
      <use xlink:href="#DejaVuSans-25" x="434.765625"/>
     </g>
    </g>
    <g id="patch_26">
     <path d="M 35.031042 195.93625 
L 51.031042 195.93625 
L 51.031042 190.33625 
L 35.031042 190.33625 
z
" style="fill: #178600"/>
    </g>
    <g id="text_3">
     <!-- C# 5.8% -->
     <g transform="translate(57.431042 195.93625) scale(0.08 -0.08)">
      <defs>
       <path id="DejaVuSans-43" d="M 4122 4306 
L 4122 3641 
Q 3803 3938 3442 4084 
Q 3081 4231 2675 4231 
Q 1875 4231 1450 3742 
Q 1025 3253 1025 2328 
Q 1025 1406 1450 917 
Q 1875 428 2675 428 
Q 3081 428 3442 575 
Q 3803 722 4122 1019 
L 4122 359 
Q 3791 134 3420 21 
Q 3050 -91 2638 -91 
Q 1578 -91 968 557 
Q 359 1206 359 2328 
Q 359 3453 968 4101 
Q 1578 4750 2638 4750 
Q 3056 4750 3426 4639 
Q 3797 4528 4122 4306 
z
" transform="scale(0.015625)"/>
       <path id="DejaVuSans-23" d="M 3272 2816 
L 2363 2816 
L 2100 1772 
L 3016 1772 
L 3272 2816 
z
M 2803 4594 
L 2478 3297 
L 3391 3297 
L 3719 4594 
L 4219 4594 
L 3897 3297 
L 4872 3297 
L 4872 2816 
L 3775 2816 
L 3519 1772 
L 4513 1772 
L 4513 1294 
L 3397 1294 
L 3072 0 
L 2572 0 
L 2894 1294 
L 1978 1294 
L 1656 0 
L 1153 0 
L 1478 1294 
L 494 1294 
L 494 1772 
L 1594 1772 
L 1856 2816 
L 850 2816 
L 850 3297 
L 1978 3297 
L 2297 4594 
L 2803 4594 
z
" transform="scale(0.015625)"/>
       <path id="DejaVuSans-38" d="M 2034 2216 
Q 1584 2216 1326 1975 
Q 1069 1734 1069 1313 
Q 1069 891 1326 650 
Q 1584 409 2034 409 
Q 2484 409 2743 651 
Q 3003 894 3003 1313 
Q 3003 1734 2745 1975 
Q 2488 2216 2034 2216 
z
M 1403 2484 
Q 997 2584 770 2862 
Q 544 3141 544 3541 
Q 544 4100 942 4425 
Q 1341 4750 2034 4750 
Q 2731 4750 3128 4425 
Q 3525 4100 3525 3541 
Q 3525 3141 3298 2862 
Q 3072 2584 2669 2484 
Q 3125 2378 3379 2068 
Q 3634 1759 3634 1313 
Q 3634 634 3220 271 
Q 2806 -91 2034 -91 
Q 1263 -91 848 271 
Q 434 634 434 1313 
Q 434 1759 690 2068 
Q 947 2378 1403 2484 
z
M 1172 3481 
Q 1172 3119 1398 2916 
Q 1625 2713 2034 2713 
Q 2441 2713 2670 2916 
Q 2900 3119 2900 3481 
Q 2900 3844 2670 4047 
Q 2441 4250 2034 4250 
Q 1625 4250 1398 4047 
Q 1172 3844 1172 3481 
z
" transform="scale(0.015625)"/>
      </defs>
      <use xlink:href="#DejaVuSans-43"/>
      <use xlink:href="#DejaVuSans-23" x="69.824219"/>
      <use xlink:href="#DejaVuSans-20" x="153.613281"/>
      <use xlink:href="#DejaVuSans-35" x="185.400391"/>
      <use xlink:href="#DejaVuSans-2e" x="249.023438"/>
      <use xlink:href="#DejaVuSans-38" x="280.810547"/>
      <use xlink:href="#DejaVuSans-25" x="344.433594"/>
     </g>
    </g>
    <g id="patch_27">
     <path d="M 35.031042 207.67875 
L 51.031042 207.67875 
L 51.031042 202.07875 
L 35.031042 202.07875 
z
" style="fill: #f1e05a"/>
    </g>
    <g id="text_4">
     <!-- JavaScript 3.8% -->
     <g transform="translate(57.431042 207.67875) scale(0.08 -0.08)">
      <defs>
       <path id="DejaVuSans-4a" d="M 628 4666 
L 1259 4666 
L 1259 325 
Q 1259 -519 939 -900 
Q 619 -1281 -91 -1281 
L -331 -1281 
L -331 -750 
L -134 -750 
Q 284 -750 456 -515 
Q 628 -281 628 325 
L 628 4666 
z
" transform="scale(0.015625)"/>
       <path id="DejaVuSans-61" d="M 2194 1759 
Q 1497 1759 1228 1600 
Q 959 1441 959 1056 
Q 959 750 1161 570 
Q 1363 391 1709 391 
Q 2188 391 2477 730 
Q 2766 1069 2766 1631 
L 2766 1759 
L 2194 1759 
z
M 3341 1997 
L 3341 0 
L 2766 0 
L 2766 531 
Q 2569 213 2275 61 
Q 1981 -91 1556 -91 
Q 1019 -91 701 211 
Q 384 513 384 1019 
Q 384 1609 779 1909 
Q 1175 2209 1959 2209 
L 2766 2209 
L 2766 2266 
Q 2766 2663 2505 2880 
Q 2244 3097 1772 3097 
Q 1472 3097 1187 3025 
Q 903 2953 641 2809 
L 641 3341 
Q 956 3463 1253 3523 
Q 1550 3584 1831 3584 
Q 2591 3584 2966 3190 
Q 3341 2797 3341 1997 
z
" transform="scale(0.015625)"/>
       <path id="DejaVuSans-76" d="M 191 3500 
L 800 3500 
L 1894 563 
L 2988 3500 
L 3597 3500 
L 2284 0 
L 1503 0 
L 191 3500 
z
" transform="scale(0.015625)"/>
       <path id="DejaVuSans-63" d="M 3122 3366 
L 3122 2828 
Q 2878 2963 2633 3030 
Q 2388 3097 2138 3097 
Q 1578 3097 1268 2742 
Q 959 2388 959 1747 
Q 959 1106 1268 751 
Q 1578 397 2138 397 
Q 2388 397 2633 464 
Q 2878 531 3122 666 
L 3122 134 
Q 2881 22 2623 -34 
Q 2366 -91 2075 -91 
Q 1284 -91 818 406 
Q 353 903 353 1747 
Q 353 2603 823 3093 
Q 1294 3584 2113 3584 
Q 2378 3584 2631 3529 
Q 2884 3475 3122 3366 
z
" transform="scale(0.015625)"/>
       <path id="DejaVuSans-70" d="M 1159 525 
L 1159 -1331 
L 581 -1331 
L 581 3500 
L 1159 3500 
L 1159 2969 
Q 1341 3281 1617 3432 
Q 1894 3584 2278 3584 
Q 2916 3584 3314 3078 
Q 3713 2572 3713 1747 
Q 3713 922 3314 415 
Q 2916 -91 2278 -91 
Q 1894 -91 1617 61 
Q 1341 213 1159 525 
z
M 3116 1747 
Q 3116 2381 2855 2742 
Q 2594 3103 2138 3103 
Q 1681 3103 1420 2742 
Q 1159 2381 1159 1747 
Q 1159 1113 1420 752 
Q 1681 391 2138 391 
Q 2594 391 2855 752 
Q 3116 1113 3116 1747 
z
" transform="scale(0.015625)"/>
       <path id="DejaVuSans-74" d="M 1172 4494 
L 1172 3500 
L 2356 3500 
L 2356 3053 
L 1172 3053 
L 1172 1153 
Q 1172 725 1289 603 
Q 1406 481 1766 481 
L 2356 481 
L 2356 0 
L 1766 0 
Q 1100 0 847 248 
Q 594 497 594 1153 
L 594 3053 
L 172 3053 
L 172 3500 
L 594 3500 
L 594 4494 
L 1172 4494 
z
" transform="scale(0.015625)"/>
       <path id="DejaVuSans-33" d="M 2597 2516 
Q 3050 2419 3304 2112 
Q 3559 1806 3559 1356 
Q 3559 666 3084 287 
Q 2609 -91 1734 -91 
Q 1441 -91 1130 -33 
Q 819 25 488 141 
L 488 750 
Q 750 597 1062 519 
Q 1375 441 1716 441 
Q 2309 441 2620 675 
Q 2931 909 2931 1356 
Q 2931 1769 2642 2001 
Q 2353 2234 1838 2234 
L 1294 2234 
L 1294 2753 
L 1863 2753 
Q 2328 2753 2575 2939 
Q 2822 3125 2822 3475 
Q 2822 3834 2567 4026 
Q 2313 4219 1838 4219 
Q 1578 4219 1281 4162 
Q 984 4106 628 3988 
L 628 4550 
Q 988 4650 1302 4700 
Q 1616 4750 1894 4750 
Q 2613 4750 3031 4423 
Q 3450 4097 3450 3541 
Q 3450 3153 3228 2886 
Q 3006 2619 2597 2516 
z
" transform="scale(0.015625)"/>
      </defs>
      <use xlink:href="#DejaVuSans-4a"/>
      <use xlink:href="#DejaVuSans-61" x="29.492188"/>
      <use xlink:href="#DejaVuSans-76" x="90.771484"/>
      <use xlink:href="#DejaVuSans-61" x="149.951172"/>
      <use xlink:href="#DejaVuSans-53" x="211.230469"/>
      <use xlink:href="#DejaVuSans-63" x="274.707031"/>
      <use xlink:href="#DejaVuSans-72" x="329.6875"/>
      <use xlink:href="#DejaVuSans-69" x="370.800781"/>
      <use xlink:href="#DejaVuSans-70" x="398.583984"/>
      <use xlink:href="#DejaVuSans-74" x="462.060547"/>
      <use xlink:href="#DejaVuSans-20" x="501.269531"/>
      <use xlink:href="#DejaVuSans-33" x="533.056641"/>
      <use xlink:href="#DejaVuSans-2e" x="596.679688"/>
      <use xlink:href="#DejaVuSans-38" x="628.466797"/>
      <use xlink:href="#DejaVuSans-25" x="692.089844"/>
     </g>
    </g>
    <g id="patch_28">
     <path d="M 35.031042 219.42125 
L 51.031042 219.42125 
L 51.031042 213.82125 
L 35.031042 213.82125 
z
" style="fill: #dea584"/>
    </g>
    <g id="text_5">
     <!-- Rust 6.5% -->
     <g transform="translate(57.431042 219.42125) scale(0.08 -0.08)">
      <defs>
       <path id="DejaVuSans-52" d="M 2841 2188 
Q 3044 2119 3236 1894 
Q 3428 1669 3622 1275 
L 4263 0 
L 3584 0 
L 2988 1197 
Q 2756 1666 2539 1819 
Q 2322 1972 1947 1972 
L 1259 1972 
L 1259 0 
L 628 0 
L 628 4666 
L 2053 4666 
Q 2853 4666 3247 4331 
Q 3641 3997 3641 3322 
Q 3641 2881 3436 2590 
Q 3231 2300 2841 2188 
z
M 1259 4147 
L 1259 2491 
L 2053 2491 
Q 2509 2491 2742 2702 
Q 2975 2913 2975 3322 
Q 2975 3731 2742 3939 
Q 2509 4147 2053 4147 
L 1259 4147 
z
" transform="scale(0.015625)"/>
       <path id="DejaVuSans-73" d="M 2834 3397 
L 2834 2853 
Q 2591 2978 2328 3040 
Q 2066 3103 1784 3103 
Q 1356 3103 1142 2972 
Q 928 2841 928 2578 
Q 928 2378 1081 2264 
Q 1234 2150 1697 2047 
L 1894 2003 
Q 2506 1872 2764 1633 
Q 3022 1394 3022 966 
Q 3022 478 2636 193 
Q 2250 -91 1575 -91 
Q 1294 -91 989 -36 
Q 684 19 347 128 
L 347 722 
Q 666 556 975 473 
Q 1284 391 1588 391 
Q 1994 391 2212 530 
Q 2431 669 2431 922 
Q 2431 1156 2273 1281 
Q 2116 1406 1581 1522 
L 1381 1569 
Q 847 1681 609 1914 
Q 372 2147 372 2553 
Q 372 3047 722 3315 
Q 1072 3584 1716 3584 
Q 2034 3584 2315 3537 
Q 2597 3491 2834 3397 
z
" transform="scale(0.015625)"/>
      </defs>
      <use xlink:href="#DejaVuSans-52"/>
      <use xlink:href="#DejaVuSans-75" x="64.982422"/>
      <use xlink:href="#DejaVuSans-73" x="128.361328"/>
      <use xlink:href="#DejaVuSans-74" x="180.460938"/>
      <use xlink:href="#DejaVuSans-20" x="219.669922"/>
      <use xlink:href="#DejaVuSans-36" x="251.457031"/>
      <use xlink:href="#DejaVuSans-2e" x="315.080078"/>
      <use xlink:href="#DejaVuSans-35" x="346.867188"/>
      <use xlink:href="#DejaVuSans-25" x="410.490234"/>
     </g>
    </g>
    <g id="patch_29">
     <path d="M 35.031042 231.16375 
L 51.031042 231.16375 
L 51.031042 225.56375 
L 35.031042 225.56375 
z
" style="fill: #0000fb"/>
    </g>
    <g id="text_6">
     <!-- Raku 4.5% -->
     <g transform="translate(57.431042 231.16375) scale(0.08 -0.08)">
      <defs>
       <path id="DejaVuSans-6b" d="M 581 4863 
L 1159 4863 
L 1159 1991 
L 2875 3500 
L 3609 3500 
L 1753 1863 
L 3688 0 
L 2938 0 
L 1159 1709 
L 1159 0 
L 581 0 
L 581 4863 
z
" transform="scale(0.015625)"/>
       <path id="DejaVuSans-34" d="M 2419 4116 
L 825 1625 
L 2419 1625 
L 2419 4116 
z
M 2253 4666 
L 3047 4666 
L 3047 1625 
L 3713 1625 
L 3713 1100 
L 3047 1100 
L 3047 0 
L 2419 0 
L 2419 1100 
L 313 1100 
L 313 1709 
L 2253 4666 
z
" transform="scale(0.015625)"/>
      </defs>
      <use xlink:href="#DejaVuSans-52"/>
      <use xlink:href="#DejaVuSans-61" x="67.232422"/>
      <use xlink:href="#DejaVuSans-6b" x="128.511719"/>
      <use xlink:href="#DejaVuSans-75" x="183.296875"/>
      <use xlink:href="#DejaVuSans-20" x="246.675781"/>
      <use xlink:href="#DejaVuSans-34" x="278.462891"/>
      <use xlink:href="#DejaVuSans-2e" x="342.085938"/>
      <use xlink:href="#DejaVuSans-35" x="373.873047"/>
      <use xlink:href="#DejaVuSans-25" x="437.496094"/>
     </g>
    </g>
    <g id="patch_30">
     <path d="M 136.401042 172.45125 
L 152.401042 172.45125 
L 152.401042 166.85125 
L 136.401042 166.85125 
z
" style="fill: #00add8"/>
    </g>
    <g id="text_7">
     <!-- Go 4.1% -->
     <g transform="translate(158.801042 172.45125) scale(0.08 -0.08)">
      <defs>
       <path id="DejaVuSans-47" d="M 3809 666 
L 3809 1919 
L 2778 1919 
L 2778 2438 
L 4434 2438 
L 4434 434 
Q 4069 175 3628 42 
Q 3188 -91 2688 -91 
Q 1594 -91 976 548 
Q 359 1188 359 2328 
Q 359 3472 976 4111 
Q 1594 4750 2688 4750 
Q 3144 4750 3555 4637 
Q 3966 4525 4313 4306 
L 4313 3634 
Q 3963 3931 3569 4081 
Q 3175 4231 2741 4231 
Q 1884 4231 1454 3753 
Q 1025 3275 1025 2328 
Q 1025 1384 1454 906 
Q 1884 428 2741 428 
Q 3075 428 3337 486 
Q 3600 544 3809 666 
z
" transform="scale(0.015625)"/>
       <path id="DejaVuSans-6f" d="M 1959 3097 
Q 1497 3097 1228 2736 
Q 959 2375 959 1747 
Q 959 1119 1226 758 
Q 1494 397 1959 397 
Q 2419 397 2687 759 
Q 2956 1122 2956 1747 
Q 2956 2369 2687 2733 
Q 2419 3097 1959 3097 
z
M 1959 3584 
Q 2709 3584 3137 3096 
Q 3566 2609 3566 1747 
Q 3566 888 3137 398 
Q 2709 -91 1959 -91 
Q 1206 -91 779 398 
Q 353 888 353 1747 
Q 353 2609 779 3096 
Q 1206 3584 1959 3584 
z
" transform="scale(0.015625)"/>
       <path id="DejaVuSans-31" d="M 794 531 
L 1825 531 
L 1825 4091 
L 703 3866 
L 703 4441 
L 1819 4666 
L 2450 4666 
L 2450 531 
L 3481 531 
L 3481 0 
L 794 0 
L 794 531 
z
" transform="scale(0.015625)"/>
      </defs>
      <use xlink:href="#DejaVuSans-47"/>
      <use xlink:href="#DejaVuSans-6f" x="77.490234"/>
      <use xlink:href="#DejaVuSans-20" x="138.671875"/>
      <use xlink:href="#DejaVuSans-34" x="170.458984"/>
      <use xlink:href="#DejaVuSans-2e" x="234.082031"/>
      <use xlink:href="#DejaVuSans-31" x="265.869141"/>
      <use xlink:href="#DejaVuSans-25" x="329.492188"/>
     </g>
    </g>
    <g id="patch_31">
     <path d="M 136.401042 184.19375 
L 152.401042 184.19375 
L 152.401042 178.59375 
L 136.401042 178.59375 
z
" style="fill: #ffaff3"/>
    </g>
    <g id="text_8">
     <!-- Gleam 2.0% -->
     <g transform="translate(158.801042 184.19375) scale(0.08 -0.08)">
      <defs>
       <path id="DejaVuSans-6d" d="M 3328 2828 
Q 3544 3216 3844 3400 
Q 4144 3584 4550 3584 
Q 5097 3584 5394 3201 
Q 5691 2819 5691 2113 
L 5691 0 
L 5113 0 
L 5113 2094 
Q 5113 2597 4934 2840 
Q 4756 3084 4391 3084 
Q 3944 3084 3684 2787 
Q 3425 2491 3425 1978 
L 3425 0 
L 2847 0 
L 2847 2094 
Q 2847 2600 2669 2842 
Q 2491 3084 2119 3084 
Q 1678 3084 1418 2786 
Q 1159 2488 1159 1978 
L 1159 0 
L 581 0 
L 581 3500 
L 1159 3500 
L 1159 2956 
Q 1356 3278 1631 3431 
Q 1906 3584 2284 3584 
Q 2666 3584 2933 3390 
Q 3200 3197 3328 2828 
z
" transform="scale(0.015625)"/>
      </defs>
      <use xlink:href="#DejaVuSans-47"/>
      <use xlink:href="#DejaVuSans-6c" x="77.490234"/>
      <use xlink:href="#DejaVuSans-65" x="105.273438"/>
      <use xlink:href="#DejaVuSans-61" x="166.796875"/>
      <use xlink:href="#DejaVuSans-6d" x="228.076172"/>
      <use xlink:href="#DejaVuSans-20" x="325.488281"/>
      <use xlink:href="#DejaVuSans-32" x="357.275391"/>
      <use xlink:href="#DejaVuSans-2e" x="420.898438"/>
      <use xlink:href="#DejaVuSans-30" x="452.685547"/>
      <use xlink:href="#DejaVuSans-25" x="516.308594"/>
     </g>
    </g>
    <g id="patch_32">
     <path d="M 136.401042 195.93625 
L 152.401042 195.93625 
L 152.401042 190.33625 
L 136.401042 190.33625 
z
" style="fill: #ffc200"/>
    </g>
    <g id="text_9">
     <!-- Nim 5.0% -->
     <g transform="translate(158.801042 195.93625) scale(0.08 -0.08)">
      <defs>
       <path id="DejaVuSans-4e" d="M 628 4666 
L 1478 4666 
L 3547 763 
L 3547 4666 
L 4159 4666 
L 4159 0 
L 3309 0 
L 1241 3903 
L 1241 0 
L 628 0 
L 628 4666 
z
" transform="scale(0.015625)"/>
      </defs>
      <use xlink:href="#DejaVuSans-4e"/>
      <use xlink:href="#DejaVuSans-69" x="74.804688"/>
      <use xlink:href="#DejaVuSans-6d" x="102.587891"/>
      <use xlink:href="#DejaVuSans-20" x="200"/>
      <use xlink:href="#DejaVuSans-35" x="231.787109"/>
      <use xlink:href="#DejaVuSans-2e" x="295.410156"/>
      <use xlink:href="#DejaVuSans-30" x="327.197266"/>
      <use xlink:href="#DejaVuSans-25" x="390.820312"/>
     </g>
    </g>
    <g id="patch_33">
     <path d="M 136.401042 207.67875 
L 152.401042 207.67875 
L 152.401042 202.07875 
L 136.401042 202.07875 
z
" style="fill: #60affe"/>
    </g>
    <g id="text_10">
     <!-- Odin 7.6% -->
     <g transform="translate(158.801042 207.67875) scale(0.08 -0.08)">
      <defs>
       <path id="DejaVuSans-4f" d="M 2522 4238 
Q 1834 4238 1429 3725 
Q 1025 3213 1025 2328 
Q 1025 1447 1429 934 
Q 1834 422 2522 422 
Q 3209 422 3611 934 
Q 4013 1447 4013 2328 
Q 4013 3213 3611 3725 
Q 3209 4238 2522 4238 
z
M 2522 4750 
Q 3503 4750 4090 4092 
Q 4678 3434 4678 2328 
Q 4678 1225 4090 567 
Q 3503 -91 2522 -91 
Q 1538 -91 948 565 
Q 359 1222 359 2328 
Q 359 3434 948 4092 
Q 1538 4750 2522 4750 
z
" transform="scale(0.015625)"/>
       <path id="DejaVuSans-64" d="M 2906 2969 
L 2906 4863 
L 3481 4863 
L 3481 0 
L 2906 0 
L 2906 525 
Q 2725 213 2448 61 
Q 2172 -91 1784 -91 
Q 1150 -91 751 415 
Q 353 922 353 1747 
Q 353 2572 751 3078 
Q 1150 3584 1784 3584 
Q 2172 3584 2448 3432 
Q 2725 3281 2906 2969 
z
M 947 1747 
Q 947 1113 1208 752 
Q 1469 391 1925 391 
Q 2381 391 2643 752 
Q 2906 1113 2906 1747 
Q 2906 2381 2643 2742 
Q 2381 3103 1925 3103 
Q 1469 3103 1208 2742 
Q 947 2381 947 1747 
z
" transform="scale(0.015625)"/>
       <path id="DejaVuSans-6e" d="M 3513 2113 
L 3513 0 
L 2938 0 
L 2938 2094 
Q 2938 2591 2744 2837 
Q 2550 3084 2163 3084 
Q 1697 3084 1428 2787 
Q 1159 2491 1159 1978 
L 1159 0 
L 581 0 
L 581 3500 
L 1159 3500 
L 1159 2956 
Q 1366 3272 1645 3428 
Q 1925 3584 2291 3584 
Q 2894 3584 3203 3211 
Q 3513 2838 3513 2113 
z
" transform="scale(0.015625)"/>
       <path id="DejaVuSans-37" d="M 525 4666 
L 3525 4666 
L 3525 4397 
L 1831 0 
L 1172 0 
L 2766 4134 
L 525 4134 
L 525 4666 
z
" transform="scale(0.015625)"/>
      </defs>
      <use xlink:href="#DejaVuSans-4f"/>
      <use xlink:href="#DejaVuSans-64" x="78.710938"/>
      <use xlink:href="#DejaVuSans-69" x="142.1875"/>
      <use xlink:href="#DejaVuSans-6e" x="169.970703"/>
      <use xlink:href="#DejaVuSans-20" x="233.349609"/>
      <use xlink:href="#DejaVuSans-37" x="265.136719"/>
      <use xlink:href="#DejaVuSans-2e" x="328.759766"/>
      <use xlink:href="#DejaVuSans-36" x="360.546875"/>
      <use xlink:href="#DejaVuSans-25" x="424.169922"/>
     </g>
    </g>
    <g id="patch_34">
     <path d="M 136.401042 219.42125 
L 152.401042 219.42125 
L 152.401042 213.82125 
L 136.401042 213.82125 
z
" style="fill: #3178c6"/>
    </g>
    <g id="text_11">
     <!-- TypeScript 5.2% -->
     <g transform="translate(158.801042 219.42125) scale(0.08 -0.08)">
      <defs>
       <path id="DejaVuSans-54" d="M -19 4666 
L 3928 4666 
L 3928 4134 
L 2272 4134 
L 2272 0 
L 1638 0 
L 1638 4134 
L -19 4134 
L -19 4666 
z
" transform="scale(0.015625)"/>
       <path id="DejaVuSans-79" d="M 2059 -325 
Q 1816 -950 1584 -1140 
Q 1353 -1331 966 -1331 
L 506 -1331 
L 506 -850 
L 844 -850 
Q 1081 -850 1212 -737 
Q 1344 -625 1503 -206 
L 1606 56 
L 191 3500 
L 800 3500 
L 1894 763 
L 2988 3500 
L 3597 3500 
L 2059 -325 
z
" transform="scale(0.015625)"/>
      </defs>
      <use xlink:href="#DejaVuSans-54"/>
      <use xlink:href="#DejaVuSans-79" x="45.458984"/>
      <use xlink:href="#DejaVuSans-70" x="104.638672"/>
      <use xlink:href="#DejaVuSans-65" x="168.115234"/>
      <use xlink:href="#DejaVuSans-53" x="229.638672"/>
      <use xlink:href="#DejaVuSans-63" x="293.115234"/>
      <use xlink:href="#DejaVuSans-72" x="348.095703"/>
      <use xlink:href="#DejaVuSans-69" x="389.208984"/>
      <use xlink:href="#DejaVuSans-70" x="416.992188"/>
      <use xlink:href="#DejaVuSans-74" x="480.46875"/>
      <use xlink:href="#DejaVuSans-20" x="519.677734"/>
      <use xlink:href="#DejaVuSans-35" x="551.464844"/>
      <use xlink:href="#DejaVuSans-2e" x="615.087891"/>
      <use xlink:href="#DejaVuSans-32" x="646.875"/>
      <use xlink:href="#DejaVuSans-25" x="710.498047"/>
     </g>
    </g>
    <g id="patch_35">
     <path d="M 239.243542 172.45125 
L 255.243542 172.45125 
L 255.243542 166.85125 
L 239.243542 166.85125 
z
" style="fill: #ff4c1f"/>
    </g>
    <g id="text_12">
     <!-- Mojo 4.9% -->
     <g transform="translate(261.643542 172.45125) scale(0.08 -0.08)">
      <defs>
       <path id="DejaVuSans-4d" d="M 628 4666 
L 1569 4666 
L 2759 1491 
L 3956 4666 
L 4897 4666 
L 4897 0 
L 4281 0 
L 4281 4097 
L 3078 897 
L 2444 897 
L 1241 4097 
L 1241 0 
L 628 0 
L 628 4666 
z
" transform="scale(0.015625)"/>
       <path id="DejaVuSans-6a" d="M 603 3500 
L 1178 3500 
L 1178 -63 
Q 1178 -731 923 -1031 
Q 669 -1331 103 -1331 
L -116 -1331 
L -116 -844 
L 38 -844 
Q 366 -844 484 -692 
Q 603 -541 603 -63 
L 603 3500 
z
M 603 4863 
L 1178 4863 
L 1178 4134 
L 603 4134 
L 603 4863 
z
" transform="scale(0.015625)"/>
       <path id="DejaVuSans-39" d="M 703 97 
L 703 672 
Q 941 559 1184 500 
Q 1428 441 1663 441 
Q 2288 441 2617 861 
Q 2947 1281 2994 2138 
Q 2813 1869 2534 1725 
Q 2256 1581 1919 1581 
Q 1219 1581 811 2004 
Q 403 2428 403 3163 
Q 403 3881 828 4315 
Q 1253 4750 1959 4750 
Q 2769 4750 3195 4129 
Q 3622 3509 3622 2328 
Q 3622 1225 3098 567 
Q 2575 -91 1691 -91 
Q 1453 -91 1209 -44 
Q 966 3 703 97 
z
M 1959 2075 
Q 2384 2075 2632 2365 
Q 2881 2656 2881 3163 
Q 2881 3666 2632 3958 
Q 2384 4250 1959 4250 
Q 1534 4250 1286 3958 
Q 1038 3666 1038 3163 
Q 1038 2656 1286 2365 
Q 1534 2075 1959 2075 
z
" transform="scale(0.015625)"/>
      </defs>
      <use xlink:href="#DejaVuSans-4d"/>
      <use xlink:href="#DejaVuSans-6f" x="86.279297"/>
      <use xlink:href="#DejaVuSans-6a" x="147.460938"/>
      <use xlink:href="#DejaVuSans-6f" x="175.244141"/>
      <use xlink:href="#DejaVuSans-20" x="236.425781"/>
      <use xlink:href="#DejaVuSans-34" x="268.212891"/>
      <use xlink:href="#DejaVuSans-2e" x="331.835938"/>
      <use xlink:href="#DejaVuSans-39" x="363.623047"/>
      <use xlink:href="#DejaVuSans-25" x="427.246094"/>
     </g>
    </g>
    <g id="patch_36">
     <path d="M 239.243542 184.19375 
L 255.243542 184.19375 
L 255.243542 178.59375 
L 239.243542 178.59375 
z
" style="fill: #5e5086"/>
    </g>
    <g id="text_13">
     <!-- Haskell 1.8% -->
     <g transform="translate(261.643542 184.19375) scale(0.08 -0.08)">
      <defs>
       <path id="DejaVuSans-48" d="M 628 4666 
L 1259 4666 
L 1259 2753 
L 3553 2753 
L 3553 4666 
L 4184 4666 
L 4184 0 
L 3553 0 
L 3553 2222 
L 1259 2222 
L 1259 0 
L 628 0 
L 628 4666 
z
" transform="scale(0.015625)"/>
      </defs>
      <use xlink:href="#DejaVuSans-48"/>
      <use xlink:href="#DejaVuSans-61" x="75.195312"/>
      <use xlink:href="#DejaVuSans-73" x="136.474609"/>
      <use xlink:href="#DejaVuSans-6b" x="188.574219"/>
      <use xlink:href="#DejaVuSans-65" x="242.859375"/>
      <use xlink:href="#DejaVuSans-6c" x="304.382812"/>
      <use xlink:href="#DejaVuSans-6c" x="332.166016"/>
      <use xlink:href="#DejaVuSans-20" x="359.949219"/>
      <use xlink:href="#DejaVuSans-31" x="391.736328"/>
      <use xlink:href="#DejaVuSans-2e" x="455.359375"/>
      <use xlink:href="#DejaVuSans-38" x="487.146484"/>
      <use xlink:href="#DejaVuSans-25" x="550.769531"/>
     </g>
    </g>
    <g id="patch_37">
     <path d="M 239.243542 195.93625 
L 255.243542 195.93625 
L 255.243542 190.33625 
L 239.243542 190.33625 
z
" style="fill: #000100"/>
    </g>
    <g id="text_14">
     <!-- Crystal 3.4% -->
     <g transform="translate(261.643542 195.93625) scale(0.08 -0.08)">
      <use xlink:href="#DejaVuSans-43"/>
      <use xlink:href="#DejaVuSans-72" x="69.824219"/>
      <use xlink:href="#DejaVuSans-79" x="110.9375"/>
      <use xlink:href="#DejaVuSans-73" x="170.117188"/>
      <use xlink:href="#DejaVuSans-74" x="222.216797"/>
      <use xlink:href="#DejaVuSans-61" x="261.425781"/>
      <use xlink:href="#DejaVuSans-6c" x="322.705078"/>
      <use xlink:href="#DejaVuSans-20" x="350.488281"/>
      <use xlink:href="#DejaVuSans-33" x="382.275391"/>
      <use xlink:href="#DejaVuSans-2e" x="445.898438"/>
      <use xlink:href="#DejaVuSans-34" x="477.685547"/>
      <use xlink:href="#DejaVuSans-25" x="541.308594"/>
     </g>
    </g>
    <g id="patch_38">
     <path d="M 239.243542 207.67875 
L 255.243542 207.67875 
L 255.243542 202.07875 
L 239.243542 202.07875 
z
" style="fill: #ec915c"/>
    </g>
    <g id="text_15">
     <!-- Zig 8.2% -->
     <g transform="translate(261.643542 207.67875) scale(0.08 -0.08)">
      <defs>
       <path id="DejaVuSans-5a" d="M 359 4666 
L 4025 4666 
L 4025 4184 
L 1075 531 
L 4097 531 
L 4097 0 
L 288 0 
L 288 481 
L 3238 4134 
L 359 4134 
L 359 4666 
z
" transform="scale(0.015625)"/>
       <path id="DejaVuSans-67" d="M 2906 1791 
Q 2906 2416 2648 2759 
Q 2391 3103 1925 3103 
Q 1463 3103 1205 2759 
Q 947 2416 947 1791 
Q 947 1169 1205 825 
Q 1463 481 1925 481 
Q 2391 481 2648 825 
Q 2906 1169 2906 1791 
z
M 3481 434 
Q 3481 -459 3084 -895 
Q 2688 -1331 1869 -1331 
Q 1566 -1331 1297 -1286 
Q 1028 -1241 775 -1147 
L 775 -588 
Q 1028 -725 1275 -790 
Q 1522 -856 1778 -856 
Q 2344 -856 2625 -561 
Q 2906 -266 2906 331 
L 2906 616 
Q 2728 306 2450 153 
Q 2172 0 1784 0 
Q 1141 0 747 490 
Q 353 981 353 1791 
Q 353 2603 747 3093 
Q 1141 3584 1784 3584 
Q 2172 3584 2450 3431 
Q 2728 3278 2906 2969 
L 2906 3500 
L 3481 3500 
L 3481 434 
z
" transform="scale(0.015625)"/>
      </defs>
      <use xlink:href="#DejaVuSans-5a"/>
      <use xlink:href="#DejaVuSans-69" x="68.505859"/>
      <use xlink:href="#DejaVuSans-67" x="96.289062"/>
      <use xlink:href="#DejaVuSans-20" x="159.765625"/>
      <use xlink:href="#DejaVuSans-38" x="191.552734"/>
      <use xlink:href="#DejaVuSans-2e" x="255.175781"/>
      <use xlink:href="#DejaVuSans-32" x="286.962891"/>
      <use xlink:href="#DejaVuSans-25" x="350.585938"/>
     </g>
    </g>
    <g id="patch_39">
     <path d="M 239.243542 219.42125 
L 255.243542 219.42125 
L 255.243542 213.82125 
L 239.243542 213.82125 
z
" style="fill: #b07219"/>
    </g>
    <g id="text_16">
     <!-- Java 6.7% -->
     <g transform="translate(261.643542 219.42125) scale(0.08 -0.08)">
      <use xlink:href="#DejaVuSans-4a"/>
      <use xlink:href="#DejaVuSans-61" x="29.492188"/>
      <use xlink:href="#DejaVuSans-76" x="90.771484"/>
      <use xlink:href="#DejaVuSans-61" x="149.951172"/>
      <use xlink:href="#DejaVuSans-20" x="211.230469"/>
      <use xlink:href="#DejaVuSans-36" x="243.017578"/>
      <use xlink:href="#DejaVuSans-2e" x="306.640625"/>
      <use xlink:href="#DejaVuSans-37" x="338.427734"/>
      <use xlink:href="#DejaVuSans-25" x="402.050781"/>
     </g>
    </g>
    <g id="patch_40">
     <path d="M 329.306042 172.45125 
L 345.306042 172.45125 
L 345.306042 166.85125 
L 329.306042 166.85125 
z
" style="fill: #701516"/>
    </g>
    <g id="text_17">
     <!-- Ruby 2.8% -->
     <g transform="translate(351.706042 172.45125) scale(0.08 -0.08)">
      <defs>
       <path id="DejaVuSans-62" d="M 3116 1747 
Q 3116 2381 2855 2742 
Q 2594 3103 2138 3103 
Q 1681 3103 1420 2742 
Q 1159 2381 1159 1747 
Q 1159 1113 1420 752 
Q 1681 391 2138 391 
Q 2594 391 2855 752 
Q 3116 1113 3116 1747 
z
M 1159 2969 
Q 1341 3281 1617 3432 
Q 1894 3584 2278 3584 
Q 2916 3584 3314 3078 
Q 3713 2572 3713 1747 
Q 3713 922 3314 415 
Q 2916 -91 2278 -91 
Q 1894 -91 1617 61 
Q 1341 213 1159 525 
L 1159 0 
L 581 0 
L 581 4863 
L 1159 4863 
L 1159 2969 
z
" transform="scale(0.015625)"/>
      </defs>
      <use xlink:href="#DejaVuSans-52"/>
      <use xlink:href="#DejaVuSans-75" x="64.982422"/>
      <use xlink:href="#DejaVuSans-62" x="128.361328"/>
      <use xlink:href="#DejaVuSans-79" x="191.837891"/>
      <use xlink:href="#DejaVuSans-20" x="251.017578"/>
      <use xlink:href="#DejaVuSans-32" x="282.804688"/>
      <use xlink:href="#DejaVuSans-2e" x="346.427734"/>
      <use xlink:href="#DejaVuSans-38" x="378.214844"/>
      <use xlink:href="#DejaVuSans-25" x="441.837891"/>
     </g>
    </g>
    <g id="patch_41">
     <path d="M 329.306042 184.19375 
L 345.306042 184.19375 
L 345.306042 178.59375 
L 329.306042 178.59375 
z
" style="fill: #3572a5"/>
    </g>
    <g id="text_18">
     <!-- Python 8.3% -->
     <g transform="translate(351.706042 184.19375) scale(0.08 -0.08)">
      <defs>
       <path id="DejaVuSans-50" d="M 1259 4147 
L 1259 2394 
L 2053 2394 
Q 2494 2394 2734 2622 
Q 2975 2850 2975 3272 
Q 2975 3691 2734 3919 
Q 2494 4147 2053 4147 
L 1259 4147 
z
M 628 4666 
L 2053 4666 
Q 2838 4666 3239 4311 
Q 3641 3956 3641 3272 
Q 3641 2581 3239 2228 
Q 2838 1875 2053 1875 
L 1259 1875 
L 1259 0 
L 628 0 
L 628 4666 
z
" transform="scale(0.015625)"/>
      </defs>
      <use xlink:href="#DejaVuSans-50"/>
      <use xlink:href="#DejaVuSans-79" x="60.302734"/>
      <use xlink:href="#DejaVuSans-74" x="119.482422"/>
      <use xlink:href="#DejaVuSans-68" x="158.691406"/>
      <use xlink:href="#DejaVuSans-6f" x="222.070312"/>
      <use xlink:href="#DejaVuSans-6e" x="283.251953"/>
      <use xlink:href="#DejaVuSans-20" x="346.630859"/>
      <use xlink:href="#DejaVuSans-38" x="378.417969"/>
      <use xlink:href="#DejaVuSans-2e" x="442.041016"/>
      <use xlink:href="#DejaVuSans-33" x="473.828125"/>
      <use xlink:href="#DejaVuSans-25" x="537.451172"/>
     </g>
    </g>
    <g id="patch_42">
     <path d="M 329.306042 195.93625 
L 345.306042 195.93625 
L 345.306042 190.33625 
L 329.306042 190.33625 
z
" style="fill: #555555"/>
    </g>
    <g id="text_19">
     <!-- C 4.8% -->
     <g transform="translate(351.706042 195.93625) scale(0.08 -0.08)">
      <use xlink:href="#DejaVuSans-43"/>
      <use xlink:href="#DejaVuSans-20" x="69.824219"/>
      <use xlink:href="#DejaVuSans-34" x="101.611328"/>
      <use xlink:href="#DejaVuSans-2e" x="165.234375"/>
      <use xlink:href="#DejaVuSans-38" x="197.021484"/>
      <use xlink:href="#DejaVuSans-25" x="260.644531"/>
     </g>
    </g>
    <g id="patch_43">
     <path d="M 329.306042 207.67875 
L 345.306042 207.67875 
L 345.306042 202.07875 
L 329.306042 202.07875 
z
" style="fill: #f34b7d"/>
    </g>
    <g id="text_20">
     <!-- C++ 8.9% -->
     <g transform="translate(351.706042 207.67875) scale(0.08 -0.08)">
      <defs>
       <path id="DejaVuSans-2b" d="M 2944 4013 
L 2944 2272 
L 4684 2272 
L 4684 1741 
L 2944 1741 
L 2944 0 
L 2419 0 
L 2419 1741 
L 678 1741 
L 678 2272 
L 2419 2272 
L 2419 4013 
L 2944 4013 
z
" transform="scale(0.015625)"/>
      </defs>
      <use xlink:href="#DejaVuSans-43"/>
      <use xlink:href="#DejaVuSans-2b" x="69.824219"/>
      <use xlink:href="#DejaVuSans-2b" x="153.613281"/>
      <use xlink:href="#DejaVuSans-20" x="237.402344"/>
      <use xlink:href="#DejaVuSans-38" x="269.189453"/>
      <use xlink:href="#DejaVuSans-2e" x="332.8125"/>
      <use xlink:href="#DejaVuSans-39" x="364.599609"/>
      <use xlink:href="#DejaVuSans-25" x="428.222656"/>
     </g>
    </g>
    <g id="patch_44">
     <path d="M 329.306042 219.42125 
L 345.306042 219.42125 
L 345.306042 213.82125 
L 329.306042 213.82125 
z
" style="fill: #000080"/>
    </g>
    <g id="text_21">
     <!-- Lua 2.4% -->
     <g transform="translate(351.706042 219.42125) scale(0.08 -0.08)">
      <defs>
       <path id="DejaVuSans-4c" d="M 628 4666 
L 1259 4666 
L 1259 531 
L 3531 531 
L 3531 0 
L 628 0 
L 628 4666 
z
" transform="scale(0.015625)"/>
      </defs>
      <use xlink:href="#DejaVuSans-4c"/>
      <use xlink:href="#DejaVuSans-75" x="53.962891"/>
      <use xlink:href="#DejaVuSans-61" x="117.341797"/>
      <use xlink:href="#DejaVuSans-20" x="178.621094"/>
      <use xlink:href="#DejaVuSans-32" x="210.408203"/>
      <use xlink:href="#DejaVuSans-2e" x="274.03125"/>
      <use xlink:href="#DejaVuSans-34" x="305.818359"/>
      <use xlink:href="#DejaVuSans-25" x="369.441406"/>
     </g>
    </g>
   </g>
  </g>
 </g>
 <defs>
  <clipPath id="pebff5748ab">
   <path d="M 288.666667 98.8 
C 288.666667 89.607684 286.855981 80.504752 283.338234 72.01216 
C 279.820487 63.519567 274.66409 55.802474 268.164141 49.302525 
C 261.664193 42.802576 253.947099 37.64618 245.454507 34.128433 
C 236.961915 30.610686 227.858982 28.8 218.666667 28.8 
C 209.474351 28.8 200.371419 30.610686 191.878826 34.128433 
C 183.386234 37.64618 175.669141 42.802576 169.169192 49.302525 
C 162.669243 55.802474 157.512846 63.519567 153.995099 72.01216 
C 150.477352 80.504752 148.666667 89.607684 148.666667 98.8 
C 148.666667 107.992316 150.477352 117.095248 153.995099 125.58784 
C 157.512846 134.080433 162.669243 141.797526 169.169192 148.297475 
C 175.669141 154.797424 183.386234 159.95382 191.878826 163.471567 
C 200.371419 166.989314 209.474351 168.8 218.666667 168.8 
C 227.858982 168.8 236.961915 166.989314 245.454507 163.471567 
C 253.947099 159.95382 261.664193 154.797424 268.164141 148.297475 
C 274.66409 141.797526 279.820487 134.080433 283.338234 125.58784 
C 286.855981 117.095248 288.666667 107.992316 288.666667 98.8 
M 218.666667 98.8 
C 218.666667 98.8 218.666667 98.8 218.666667 98.8 
C 218.666667 98.8 218.666667 98.8 218.666667 98.8 
C 218.666667 98.8 218.666667 98.8 218.666667 98.8 
C 218.666667 98.8 218.666667 98.8 218.666667 98.8 
C 218.666667 98.8 218.666667 98.8 218.666667 98.8 
C 218.666667 98.8 218.666667 98.8 218.666667 98.8 
C 218.666667 98.8 218.666667 98.8 218.666667 98.8 
C 218.666667 98.8 218.666667 98.8 218.666667 98.8 
C 218.666667 98.8 218.666667 98.8 218.666667 98.8 
C 218.666667 98.8 218.666667 98.8 218.666667 98.8 
C 218.666667 98.8 218.666667 98.8 218.666667 98.8 
C 218.666667 98.8 218.666667 98.8 218.666667 98.8 
C 218.666667 98.8 218.666667 98.8 218.666667 98.8 
C 218.666667 98.8 218.666667 98.8 218.666667 98.8 
C 218.666667 98.8 218.666667 98.8 218.666667 98.8 
C 218.666667 98.8 218.666667 98.8 218.666667 98.8 
z
"/>
  </clipPath>
 </defs>
</svg>
