<?xml version="1.0" encoding="utf-8" standalone="no"?>
<!DOCTYPE svg PUBLIC "-//W3C//DTD SVG 1.1//EN"
  "http://www.w3.org/Graphics/SVG/1.1/DTD/svg11.dtd">
<svg xmlns:xlink="http://www.w3.org/1999/xlink" width="480pt" height="240pt" viewBox="0 0 480 240" xmlns="http://www.w3.org/2000/svg" version="1.1">
 <metadata>
  <rdf:RDF xmlns:dc="http://purl.org/dc/elements/1.1/" xmlns:cc="http://creativecommons.org/ns#" xmlns:rdf="http://www.w3.org/1999/02/22-rdf-syntax-ns#">
   <cc:Work>
    <dc:type rdf:resource="http://purl.org/dc/dcmitype/StillImage"/>
    <dc:date>2025-01-07T06:46:21.859816</dc:date>
    <dc:format>image/svg+xml</dc:format>
    <dc:creator>
     <cc:Agent>
      <dc:title>Matplotlib v3.10.0, https://matplotlib.org/</dc:title>
     </cc:Agent>
    </dc:creator>
   </cc:Work>
  </rdf:RDF>
 </metadata>
 <defs>
  <style type="text/css">*{stroke-linejoin: round; stroke-linecap: butt}</style>
 </defs>
 <g id="figure_1">
  <g id="patch_1">
   <path d="M 0 240 
L 480 240 
L 480 0 
L 0 0 
L 0 240 
z
" style="fill: none"/>
  </g>
  <g id="axes_1">
   <g id="patch_2">
    <path d="M 294.275862 98.8 
C 294.275862 96.622317 294.128512 94.447128 293.834822 92.28934 
C 293.541131 90.131552 293.101773 87.996107 292.519759 85.89764 
L 312.456798 80.368057 
C 313.288248 83.365867 313.915902 86.416503 314.335459 89.499057 
C 314.755017 92.581611 314.965517 95.689025 314.965517 98.8 
z
" clip-path="url(#pbfb2c50c50)" style="fill: #ffc200"/>
   </g>
   <g id="patch_3">
    <path d="M 292.519759 85.89764 
C 291.475238 82.131596 289.977247 78.506288 288.058707 75.101391 
C 286.140167 71.696495 283.815237 68.537138 281.135013 65.692755 
L 296.192876 51.503935 
C 300.021767 55.56734 303.343096 60.080707 306.083867 64.944845 
C 308.824638 69.808983 310.964626 74.987994 312.456798 80.368057 
z
" clip-path="url(#pbfb2c50c50)" style="fill: #f34b7d"/>
   </g>
   <g id="patch_4">
    <path d="M 281.135013 65.692755 
C 280.583721 65.107696 280.017901 64.536499 279.438083 63.979698 
C 278.858265 63.422896 278.26463 62.880664 277.657733 62.353508 
L 291.225333 46.733583 
C 292.092329 47.486662 292.940379 48.26128 293.76869 49.056711 
C 294.597001 49.852142 295.405316 50.668138 296.192876 51.503935 
z
" clip-path="url(#pbfb2c50c50)" style="fill: #5e5086"/>
   </g>
   <g id="patch_5">
    <path d="M 277.657733 62.353508 
C 276.048414 60.95564 274.348275 59.665896 272.568481 58.492747 
C 270.788688 57.319598 268.933145 56.265618 267.01404 55.337729 
L 276.020057 36.711042 
C 278.761636 38.036597 281.412411 39.542283 283.954974 41.21821 
C 286.497536 42.894137 288.926306 44.736628 291.225333 46.733583 
z
" clip-path="url(#pbfb2c50c50)" style="fill: #ff4c1f"/>
   </g>
   <g id="patch_6">
    <path d="M 267.01404 55.337729 
C 265.434248 54.573899 263.813984 53.896771 262.160464 53.309361 
C 260.506943 52.721951 258.822625 52.225132 257.115009 51.821117 
L 261.878584 31.68731 
C 264.318036 32.264474 266.724205 32.974215 269.086377 33.813372 
C 271.448549 34.652529 273.763211 35.619855 276.020057 36.711042 
z
" clip-path="url(#pbfb2c50c50)" style="fill: #00b4ab"/>
   </g>
   <g id="patch_7">
    <path d="M 257.115009 51.821117 
C 255.063794 51.335808 252.982994 50.985361 250.885972 50.772028 
C 248.788951 50.558694 246.680207 50.482931 244.573283 50.545225 
L 243.961833 29.864607 
C 246.971724 29.775615 249.984216 29.883848 252.97996 30.188611 
C 255.975705 30.493373 258.948277 30.994012 261.878584 31.68731 
z
" clip-path="url(#pbfb2c50c50)" style="fill: #555555"/>
   </g>
   <g id="patch_8">
    <path d="M 244.573283 50.545225 
C 242.479844 50.60712 240.392649 50.80518 238.324933 51.138147 
C 236.257216 51.471115 234.213357 51.938286 232.206314 52.536698 
L 226.294735 32.709569 
C 229.161939 31.854694 232.081738 31.187307 235.035618 30.711639 
C 237.989499 30.235971 240.971205 29.953029 243.961833 29.864607 
z
" clip-path="url(#pbfb2c50c50)" style="fill: #6e4a7e"/>
   </g>
   <g id="patch_9">
    <path d="M 232.206314 52.536698 
C 230.032709 53.184772 227.907476 53.985226 225.846415 54.932109 
C 223.785354 55.878992 221.793585 56.969953 219.885913 58.19688 
L 208.694162 40.795543 
C 211.419407 39.042789 214.264791 37.484274 217.209164 36.131584 
C 220.153537 34.778894 223.189584 33.635388 226.294735 32.709569 
z
" clip-path="url(#pbfb2c50c50)" style="fill: #3178c6"/>
   </g>
   <g id="patch_10">
    <path d="M 219.885913 58.19688 
C 217.399221 59.796208 215.064702 61.620602 212.911799 63.647051 
C 210.758896 65.673501 208.7967 67.893451 207.049957 70.278902 
L 190.357082 58.055574 
C 192.852428 54.647787 195.655566 51.47643 198.731141 48.581502 
C 201.806717 45.686574 205.141745 43.080297 208.694162 40.795543 
z
" clip-path="url(#pbfb2c50c50)" style="fill: #a97bff"/>
   </g>
   <g id="patch_11">
    <path d="M 207.049957 70.278902 
C 206.102302 71.573075 205.219736 72.913675 204.405545 74.295712 
C 203.591353 75.677749 202.846548 77.099507 202.173901 78.555694 
L 183.391288 69.879563 
C 184.352212 67.799296 185.416219 65.768213 186.579349 63.793874 
C 187.74248 61.819535 189.003288 59.904393 190.357082 58.055574 
z
" clip-path="url(#pbfb2c50c50)" style="fill: #000100"/>
   </g>
   <g id="patch_12">
    <path d="M 202.173901 78.555694 
C 200.9757 81.149632 200.010152 83.844834 199.288635 86.609543 
C 198.567117 89.374252 198.092475 92.197568 197.8703 95.046224 
L 177.243286 93.437463 
C 177.560679 89.367954 178.238739 85.334646 179.269478 81.385062 
C 180.300218 77.435477 181.679571 73.585189 183.391288 69.879563 
z
" clip-path="url(#pbfb2c50c50)" style="fill: #dea584"/>
   </g>
   <g id="patch_13">
    <path d="M 197.8703 95.046224 
C 197.720469 96.967314 197.685791 98.895652 197.766455 100.820886 
C 197.847118 102.746121 198.042977 104.6648 198.352981 106.566623 
L 177.93283 109.895176 
C 177.489968 107.178286 177.210169 104.437315 177.094936 101.68698 
C 176.979702 98.936645 177.029241 96.181876 177.243286 93.437463 
z
" clip-path="url(#pbfb2c50c50)" style="fill: #ffaff3"/>
   </g>
   <g id="patch_14">
    <path d="M 198.352981 106.566623 
C 198.398001 106.842816 198.445422 107.118612 198.495238 107.393979 
C 198.545055 107.669347 198.597264 107.944277 198.651861 108.218737 
L 178.359802 112.255338 
C 178.281806 111.863252 178.207221 111.470496 178.136055 111.077113 
C 178.064889 110.683731 177.997145 110.289737 177.93283 109.895176 
z
" clip-path="url(#pbfb2c50c50)" style="fill: #89e051"/>
   </g>
   <g id="patch_15">
    <path d="M 198.651861 108.218737 
C 198.972551 109.830848 199.375365 111.42553 199.85873 112.99655 
C 200.342095 114.567571 200.905379 116.11288 201.546383 117.626439 
L 182.494833 125.694912 
C 181.579113 123.532685 180.774421 121.325101 180.0839 119.080786 
C 179.393379 116.836472 178.81793 114.558355 178.359802 112.255338 
z
" clip-path="url(#pbfb2c50c50)" style="fill: #f1e05a"/>
   </g>
   <g id="patch_16">
    <path d="M 201.546383 117.626439 
C 202.024693 118.75584 202.54587 119.866604 203.10878 120.956311 
C 203.67169 122.046019 204.275924 123.113878 204.920166 124.157565 
L 187.314523 135.025092 
C 186.394177 133.534111 185.530986 132.008598 184.726829 130.451873 
C 183.922672 128.895149 183.178133 127.308344 182.494833 125.694912 
z
" clip-path="url(#pbfb2c50c50)" style="fill: #701516"/>
   </g>
   <g id="patch_17">
    <path d="M 204.920166 124.157565 
C 205.851878 125.66696 206.866073 127.123859 207.958134 128.52163 
C 209.050195 129.919402 210.218465 131.255923 211.457626 132.525113 
L 196.653751 146.978733 
C 194.883521 145.165605 193.214565 143.256288 191.654477 141.259472 
C 190.09439 139.262655 188.645541 137.181372 187.314523 135.025092 
z
" clip-path="url(#pbfb2c50c50)" style="fill: #00add8"/>
   </g>
   <g id="patch_18">
    <path d="M 211.457626 132.525113 
C 212.228035 133.314192 213.025257 134.07664 213.847887 134.811117 
C 214.670518 135.545593 215.518074 136.251665 216.389064 136.928091 
L 203.698663 153.268702 
C 202.454392 152.302379 201.243597 151.293704 200.068411 150.244452 
C 198.893224 149.195201 197.754336 148.105988 196.653751 146.978733 
z
" clip-path="url(#pbfb2c50c50)" style="fill: #800000"/>
   </g>
   <g id="patch_19">
    <path d="M 216.389064 136.928091 
C 217.954182 138.143589 219.592658 139.261564 221.29519 140.27567 
C 222.997722 141.289776 224.761082 142.19809 226.575258 142.995455 
L 218.250369 161.936365 
C 215.658689 160.797272 213.139603 159.499681 210.707414 158.050958 
C 208.275226 156.602234 205.934546 155.005127 203.698663 153.268702 
z
" clip-path="url(#pbfb2c50c50)" style="fill: #0000fb"/>
   </g>
   <g id="patch_20">
    <path d="M 226.575258 142.995455 
C 229.174334 144.137798 231.86912 145.048646 234.628269 145.717402 
C 237.387419 146.386158 240.200191 146.81022 243.033866 146.984654 
L 241.762665 167.63522 
C 237.714558 167.386028 233.696312 166.780226 229.75467 165.82486 
C 225.813029 164.869494 221.963334 163.568283 218.250369 161.936365 
z
" clip-path="url(#pbfb2c50c50)" style="fill: #60affe"/>
   </g>
   <g id="patch_21">
    <path d="M 243.033866 146.984654 
C 244.062563 147.047978 245.093025 147.078344 246.123667 147.075704 
C 247.154308 147.073064 248.184601 147.037419 249.212961 146.968825 
L 250.589944 167.612608 
C 249.120859 167.710599 247.649012 167.761519 246.176667 167.765291 
C 244.704322 167.769063 243.232233 167.725684 241.762665 167.63522 
z
" clip-path="url(#pbfb2c50c50)" style="fill: #000080"/>
   </g>
   <g id="patch_22">
    <path d="M 249.212961 146.968825 
C 252.136849 146.773796 255.036917 146.312947 257.877231 145.591989 
C 260.717544 144.871031 263.486324 143.892954 266.149263 142.669877 
L 274.784661 161.471252 
C 270.980463 163.218506 267.025063 164.615759 262.967473 165.645699 
C 258.909882 166.675639 254.766928 167.333994 250.589944 167.612608 
z
" clip-path="url(#pbfb2c50c50)" style="fill: #b07219"/>
   </g>
   <g id="patch_23">
    <path d="M 266.149263 142.669877 
C 268.453525 141.611538 270.670826 140.373296 272.780576 138.966648 
C 274.890326 137.56 276.885975 135.989314 278.748991 134.269176 
L 292.784273 149.470251 
C 290.122822 151.927592 287.271895 154.171429 284.257966 156.180926 
C 281.244037 158.190422 278.076464 159.95934 274.784661 161.471252 
z
" clip-path="url(#pbfb2c50c50)" style="fill: #178600"/>
   </g>
   <g id="patch_24">
    <path d="M 278.748991 134.269176 
C 280.835469 132.342713 282.747898 130.235896 284.464017 127.973246 
C 286.180136 125.710596 287.693263 123.300926 288.985785 120.772282 
L 307.408264 130.188975 
C 305.561804 133.801322 303.400195 137.243708 300.948596 140.476065 
C 298.496996 143.708422 295.764956 146.718161 292.784273 149.470251 
z
" clip-path="url(#pbfb2c50c50)" style="fill: #3572a5"/>
   </g>
   <g id="patch_25">
    <path d="M 288.985785 120.772282 
C 289.387748 119.985896 289.768056 119.188628 290.126279 118.381377 
C 290.484503 117.574127 290.820507 116.757198 291.133913 115.931514 
L 310.477018 123.273591 
C 310.029296 124.45314 309.54929 125.620181 309.037542 126.773396 
C 308.525794 127.926611 307.982497 129.065566 307.408264 130.188975 
z
" clip-path="url(#pbfb2c50c50)" style="fill: #c22d40"/>
   </g>
   <g id="patch_26">
    <path d="M 291.133913 115.931514 
C 292.170428 113.200759 292.956977 110.381561 293.483878 107.508625 
C 294.01078 104.635689 294.275862 101.720853 294.275862 98.8 
L 314.965517 98.8 
C 314.965517 102.972648 314.586828 107.136699 313.834112 111.240893 
C 313.081396 115.345087 311.957754 119.372513 310.477018 123.273591 
z
" clip-path="url(#pbfb2c50c50)" style="fill: #ec915c"/>
   </g>
  </g>
  <g id="axes_2">
   <g id="legend_1">
    <g id="patch_27">
     <path d="M 14.705 230.15625 
L 477.295 230.15625 
Q 478.895 230.15625 478.895 228.55625 
L 478.895 170.64375 
Q 478.895 169.04375 477.295 169.04375 
L 14.705 169.04375 
Q 13.105 169.04375 13.105 170.64375 
L 13.105 228.55625 
Q 13.105 230.15625 14.705 230.15625 
z
" style="fill: #ffffff; opacity: 0.8; stroke: #cccccc; stroke-linejoin: miter"/>
    </g>
    <g id="patch_28">
     <path d="M 16.305 178.3225 
L 32.305 178.3225 
L 32.305 172.7225 
L 16.305 172.7225 
z
" style="fill: #ffc200"/>
    </g>
    <g id="text_1">
     <!-- Nim 4.3% -->
     <g transform="translate(38.705 178.3225) scale(0.08 -0.08)">
      <defs>
       <path id="DejaVuSans-4e" d="M 628 4666 
L 1478 4666 
L 3547 763 
L 3547 4666 
L 4159 4666 
L 4159 0 
L 3309 0 
L 1241 3903 
L 1241 0 
L 628 0 
L 628 4666 
z
" transform="scale(0.015625)"/>
       <path id="DejaVuSans-69" d="M 603 3500 
L 1178 3500 
L 1178 0 
L 603 0 
L 603 3500 
z
M 603 4863 
L 1178 4863 
L 1178 4134 
L 603 4134 
L 603 4863 
z
" transform="scale(0.015625)"/>
       <path id="DejaVuSans-6d" d="M 3328 2828 
Q 3544 3216 3844 3400 
Q 4144 3584 4550 3584 
Q 5097 3584 5394 3201 
Q 5691 2819 5691 2113 
L 5691 0 
L 5113 0 
L 5113 2094 
Q 5113 2597 4934 2840 
Q 4756 3084 4391 3084 
Q 3944 3084 3684 2787 
Q 3425 2491 3425 1978 
L 3425 0 
L 2847 0 
L 2847 2094 
Q 2847 2600 2669 2842 
Q 2491 3084 2119 3084 
Q 1678 3084 1418 2786 
Q 1159 2488 1159 1978 
L 1159 0 
L 581 0 
L 581 3500 
L 1159 3500 
L 1159 2956 
Q 1356 3278 1631 3431 
Q 1906 3584 2284 3584 
Q 2666 3584 2933 3390 
Q 3200 3197 3328 2828 
z
" transform="scale(0.015625)"/>
       <path id="DejaVuSans-20" transform="scale(0.015625)"/>
       <path id="DejaVuSans-34" d="M 2419 4116 
L 825 1625 
L 2419 1625 
L 2419 4116 
z
M 2253 4666 
L 3047 4666 
L 3047 1625 
L 3713 1625 
L 3713 1100 
L 3047 1100 
L 3047 0 
L 2419 0 
L 2419 1100 
L 313 1100 
L 313 1709 
L 2253 4666 
z
" transform="scale(0.015625)"/>
       <path id="DejaVuSans-2e" d="M 684 794 
L 1344 794 
L 1344 0 
L 684 0 
L 684 794 
z
" transform="scale(0.015625)"/>
       <path id="DejaVuSans-33" d="M 2597 2516 
Q 3050 2419 3304 2112 
Q 3559 1806 3559 1356 
Q 3559 666 3084 287 
Q 2609 -91 1734 -91 
Q 1441 -91 1130 -33 
Q 819 25 488 141 
L 488 750 
Q 750 597 1062 519 
Q 1375 441 1716 441 
Q 2309 441 2620 675 
Q 2931 909 2931 1356 
Q 2931 1769 2642 2001 
Q 2353 2234 1838 2234 
L 1294 2234 
L 1294 2753 
L 1863 2753 
Q 2328 2753 2575 2939 
Q 2822 3125 2822 3475 
Q 2822 3834 2567 4026 
Q 2313 4219 1838 4219 
Q 1578 4219 1281 4162 
Q 984 4106 628 3988 
L 628 4550 
Q 988 4650 1302 4700 
Q 1616 4750 1894 4750 
Q 2613 4750 3031 4423 
Q 3450 4097 3450 3541 
Q 3450 3153 3228 2886 
Q 3006 2619 2597 2516 
z
" transform="scale(0.015625)"/>
       <path id="DejaVuSans-25" d="M 4653 2053 
Q 4381 2053 4226 1822 
Q 4072 1591 4072 1178 
Q 4072 772 4226 539 
Q 4381 306 4653 306 
Q 4919 306 5073 539 
Q 5228 772 5228 1178 
Q 5228 1588 5073 1820 
Q 4919 2053 4653 2053 
z
M 4653 2450 
Q 5147 2450 5437 2106 
Q 5728 1763 5728 1178 
Q 5728 594 5436 251 
Q 5144 -91 4653 -91 
Q 4153 -91 3862 251 
Q 3572 594 3572 1178 
Q 3572 1766 3864 2108 
Q 4156 2450 4653 2450 
z
M 1428 4353 
Q 1159 4353 1004 4120 
Q 850 3888 850 3481 
Q 850 3069 1003 2837 
Q 1156 2606 1428 2606 
Q 1700 2606 1854 2837 
Q 2009 3069 2009 3481 
Q 2009 3884 1853 4118 
Q 1697 4353 1428 4353 
z
M 4250 4750 
L 4750 4750 
L 1831 -91 
L 1331 -91 
L 4250 4750 
z
M 1428 4750 
Q 1922 4750 2215 4408 
Q 2509 4066 2509 3481 
Q 2509 2891 2217 2550 
Q 1925 2209 1428 2209 
Q 931 2209 642 2551 
Q 353 2894 353 3481 
Q 353 4063 643 4406 
Q 934 4750 1428 4750 
z
" transform="scale(0.015625)"/>
      </defs>
      <use xlink:href="#DejaVuSans-4e"/>
      <use xlink:href="#DejaVuSans-69" transform="translate(74.804688 0)"/>
      <use xlink:href="#DejaVuSans-6d" transform="translate(102.587891 0)"/>
      <use xlink:href="#DejaVuSans-20" transform="translate(200 0)"/>
      <use xlink:href="#DejaVuSans-34" transform="translate(231.787109 0)"/>
      <use xlink:href="#DejaVuSans-2e" transform="translate(295.410156 0)"/>
      <use xlink:href="#DejaVuSans-33" transform="translate(327.197266 0)"/>
      <use xlink:href="#DejaVuSans-25" transform="translate(390.820312 0)"/>
     </g>
    </g>
    <g id="patch_29">
     <path d="M 16.305 190.065 
L 32.305 190.065 
L 32.305 184.465 
L 16.305 184.465 
z
" style="fill: #f34b7d"/>
    </g>
    <g id="text_2">
     <!-- C++ 7.7% -->
     <g transform="translate(38.705 190.065) scale(0.08 -0.08)">
      <defs>
       <path id="DejaVuSans-43" d="M 4122 4306 
L 4122 3641 
Q 3803 3938 3442 4084 
Q 3081 4231 2675 4231 
Q 1875 4231 1450 3742 
Q 1025 3253 1025 2328 
Q 1025 1406 1450 917 
Q 1875 428 2675 428 
Q 3081 428 3442 575 
Q 3803 722 4122 1019 
L 4122 359 
Q 3791 134 3420 21 
Q 3050 -91 2638 -91 
Q 1578 -91 968 557 
Q 359 1206 359 2328 
Q 359 3453 968 4101 
Q 1578 4750 2638 4750 
Q 3056 4750 3426 4639 
Q 3797 4528 4122 4306 
z
" transform="scale(0.015625)"/>
       <path id="DejaVuSans-2b" d="M 2944 4013 
L 2944 2272 
L 4684 2272 
L 4684 1741 
L 2944 1741 
L 2944 0 
L 2419 0 
L 2419 1741 
L 678 1741 
L 678 2272 
L 2419 2272 
L 2419 4013 
L 2944 4013 
z
" transform="scale(0.015625)"/>
       <path id="DejaVuSans-37" d="M 525 4666 
L 3525 4666 
L 3525 4397 
L 1831 0 
L 1172 0 
L 2766 4134 
L 525 4134 
L 525 4666 
z
" transform="scale(0.015625)"/>
      </defs>
      <use xlink:href="#DejaVuSans-43"/>
      <use xlink:href="#DejaVuSans-2b" transform="translate(69.824219 0)"/>
      <use xlink:href="#DejaVuSans-2b" transform="translate(153.613281 0)"/>
      <use xlink:href="#DejaVuSans-20" transform="translate(237.402344 0)"/>
      <use xlink:href="#DejaVuSans-37" transform="translate(269.189453 0)"/>
      <use xlink:href="#DejaVuSans-2e" transform="translate(332.8125 0)"/>
      <use xlink:href="#DejaVuSans-37" transform="translate(364.599609 0)"/>
      <use xlink:href="#DejaVuSans-25" transform="translate(428.222656 0)"/>
     </g>
    </g>
    <g id="patch_30">
     <path d="M 16.305 201.8075 
L 32.305 201.8075 
L 32.305 196.2075 
L 16.305 196.2075 
z
" style="fill: #5e5086"/>
    </g>
    <g id="text_3">
     <!-- Haskell 1.6% -->
     <g transform="translate(38.705 201.8075) scale(0.08 -0.08)">
      <defs>
       <path id="DejaVuSans-48" d="M 628 4666 
L 1259 4666 
L 1259 2753 
L 3553 2753 
L 3553 4666 
L 4184 4666 
L 4184 0 
L 3553 0 
L 3553 2222 
L 1259 2222 
L 1259 0 
L 628 0 
L 628 4666 
z
" transform="scale(0.015625)"/>
       <path id="DejaVuSans-61" d="M 2194 1759 
Q 1497 1759 1228 1600 
Q 959 1441 959 1056 
Q 959 750 1161 570 
Q 1363 391 1709 391 
Q 2188 391 2477 730 
Q 2766 1069 2766 1631 
L 2766 1759 
L 2194 1759 
z
M 3341 1997 
L 3341 0 
L 2766 0 
L 2766 531 
Q 2569 213 2275 61 
Q 1981 -91 1556 -91 
Q 1019 -91 701 211 
Q 384 513 384 1019 
Q 384 1609 779 1909 
Q 1175 2209 1959 2209 
L 2766 2209 
L 2766 2266 
Q 2766 2663 2505 2880 
Q 2244 3097 1772 3097 
Q 1472 3097 1187 3025 
Q 903 2953 641 2809 
L 641 3341 
Q 956 3463 1253 3523 
Q 1550 3584 1831 3584 
Q 2591 3584 2966 3190 
Q 3341 2797 3341 1997 
z
" transform="scale(0.015625)"/>
       <path id="DejaVuSans-73" d="M 2834 3397 
L 2834 2853 
Q 2591 2978 2328 3040 
Q 2066 3103 1784 3103 
Q 1356 3103 1142 2972 
Q 928 2841 928 2578 
Q 928 2378 1081 2264 
Q 1234 2150 1697 2047 
L 1894 2003 
Q 2506 1872 2764 1633 
Q 3022 1394 3022 966 
Q 3022 478 2636 193 
Q 2250 -91 1575 -91 
Q 1294 -91 989 -36 
Q 684 19 347 128 
L 347 722 
Q 666 556 975 473 
Q 1284 391 1588 391 
Q 1994 391 2212 530 
Q 2431 669 2431 922 
Q 2431 1156 2273 1281 
Q 2116 1406 1581 1522 
L 1381 1569 
Q 847 1681 609 1914 
Q 372 2147 372 2553 
Q 372 3047 722 3315 
Q 1072 3584 1716 3584 
Q 2034 3584 2315 3537 
Q 2597 3491 2834 3397 
z
" transform="scale(0.015625)"/>
       <path id="DejaVuSans-6b" d="M 581 4863 
L 1159 4863 
L 1159 1991 
L 2875 3500 
L 3609 3500 
L 1753 1863 
L 3688 0 
L 2938 0 
L 1159 1709 
L 1159 0 
L 581 0 
L 581 4863 
z
" transform="scale(0.015625)"/>
       <path id="DejaVuSans-65" d="M 3597 1894 
L 3597 1613 
L 953 1613 
Q 991 1019 1311 708 
Q 1631 397 2203 397 
Q 2534 397 2845 478 
Q 3156 559 3463 722 
L 3463 178 
Q 3153 47 2828 -22 
Q 2503 -91 2169 -91 
Q 1331 -91 842 396 
Q 353 884 353 1716 
Q 353 2575 817 3079 
Q 1281 3584 2069 3584 
Q 2775 3584 3186 3129 
Q 3597 2675 3597 1894 
z
M 3022 2063 
Q 3016 2534 2758 2815 
Q 2500 3097 2075 3097 
Q 1594 3097 1305 2825 
Q 1016 2553 972 2059 
L 3022 2063 
z
" transform="scale(0.015625)"/>
       <path id="DejaVuSans-6c" d="M 603 4863 
L 1178 4863 
L 1178 0 
L 603 0 
L 603 4863 
z
" transform="scale(0.015625)"/>
       <path id="DejaVuSans-31" d="M 794 531 
L 1825 531 
L 1825 4091 
L 703 3866 
L 703 4441 
L 1819 4666 
L 2450 4666 
L 2450 531 
L 3481 531 
L 3481 0 
L 794 0 
L 794 531 
z
" transform="scale(0.015625)"/>
       <path id="DejaVuSans-36" d="M 2113 2584 
Q 1688 2584 1439 2293 
Q 1191 2003 1191 1497 
Q 1191 994 1439 701 
Q 1688 409 2113 409 
Q 2538 409 2786 701 
Q 3034 994 3034 1497 
Q 3034 2003 2786 2293 
Q 2538 2584 2113 2584 
z
M 3366 4563 
L 3366 3988 
Q 3128 4100 2886 4159 
Q 2644 4219 2406 4219 
Q 1781 4219 1451 3797 
Q 1122 3375 1075 2522 
Q 1259 2794 1537 2939 
Q 1816 3084 2150 3084 
Q 2853 3084 3261 2657 
Q 3669 2231 3669 1497 
Q 3669 778 3244 343 
Q 2819 -91 2113 -91 
Q 1303 -91 875 529 
Q 447 1150 447 2328 
Q 447 3434 972 4092 
Q 1497 4750 2381 4750 
Q 2619 4750 2861 4703 
Q 3103 4656 3366 4563 
z
" transform="scale(0.015625)"/>
      </defs>
      <use xlink:href="#DejaVuSans-48"/>
      <use xlink:href="#DejaVuSans-61" transform="translate(75.195312 0)"/>
      <use xlink:href="#DejaVuSans-73" transform="translate(136.474609 0)"/>
      <use xlink:href="#DejaVuSans-6b" transform="translate(188.574219 0)"/>
      <use xlink:href="#DejaVuSans-65" transform="translate(242.859375 0)"/>
      <use xlink:href="#DejaVuSans-6c" transform="translate(304.382812 0)"/>
      <use xlink:href="#DejaVuSans-6c" transform="translate(332.166016 0)"/>
      <use xlink:href="#DejaVuSans-20" transform="translate(359.949219 0)"/>
      <use xlink:href="#DejaVuSans-31" transform="translate(391.736328 0)"/>
      <use xlink:href="#DejaVuSans-2e" transform="translate(455.359375 0)"/>
      <use xlink:href="#DejaVuSans-36" transform="translate(487.146484 0)"/>
      <use xlink:href="#DejaVuSans-25" transform="translate(550.769531 0)"/>
     </g>
    </g>
    <g id="patch_31">
     <path d="M 16.305 213.55 
L 32.305 213.55 
L 32.305 207.95 
L 16.305 207.95 
z
" style="fill: #ff4c1f"/>
    </g>
    <g id="text_4">
     <!-- Mojo 4.2% -->
     <g transform="translate(38.705 213.55) scale(0.08 -0.08)">
      <defs>
       <path id="DejaVuSans-4d" d="M 628 4666 
L 1569 4666 
L 2759 1491 
L 3956 4666 
L 4897 4666 
L 4897 0 
L 4281 0 
L 4281 4097 
L 3078 897 
L 2444 897 
L 1241 4097 
L 1241 0 
L 628 0 
L 628 4666 
z
" transform="scale(0.015625)"/>
       <path id="DejaVuSans-6f" d="M 1959 3097 
Q 1497 3097 1228 2736 
Q 959 2375 959 1747 
Q 959 1119 1226 758 
Q 1494 397 1959 397 
Q 2419 397 2687 759 
Q 2956 1122 2956 1747 
Q 2956 2369 2687 2733 
Q 2419 3097 1959 3097 
z
M 1959 3584 
Q 2709 3584 3137 3096 
Q 3566 2609 3566 1747 
Q 3566 888 3137 398 
Q 2709 -91 1959 -91 
Q 1206 -91 779 398 
Q 353 888 353 1747 
Q 353 2609 779 3096 
Q 1206 3584 1959 3584 
z
" transform="scale(0.015625)"/>
       <path id="DejaVuSans-6a" d="M 603 3500 
L 1178 3500 
L 1178 -63 
Q 1178 -731 923 -1031 
Q 669 -1331 103 -1331 
L -116 -1331 
L -116 -844 
L 38 -844 
Q 366 -844 484 -692 
Q 603 -541 603 -63 
L 603 3500 
z
M 603 4863 
L 1178 4863 
L 1178 4134 
L 603 4134 
L 603 4863 
z
" transform="scale(0.015625)"/>
       <path id="DejaVuSans-32" d="M 1228 531 
L 3431 531 
L 3431 0 
L 469 0 
L 469 531 
Q 828 903 1448 1529 
Q 2069 2156 2228 2338 
Q 2531 2678 2651 2914 
Q 2772 3150 2772 3378 
Q 2772 3750 2511 3984 
Q 2250 4219 1831 4219 
Q 1534 4219 1204 4116 
Q 875 4013 500 3803 
L 500 4441 
Q 881 4594 1212 4672 
Q 1544 4750 1819 4750 
Q 2544 4750 2975 4387 
Q 3406 4025 3406 3419 
Q 3406 3131 3298 2873 
Q 3191 2616 2906 2266 
Q 2828 2175 2409 1742 
Q 1991 1309 1228 531 
z
" transform="scale(0.015625)"/>
      </defs>
      <use xlink:href="#DejaVuSans-4d"/>
      <use xlink:href="#DejaVuSans-6f" transform="translate(86.279297 0)"/>
      <use xlink:href="#DejaVuSans-6a" transform="translate(147.460938 0)"/>
      <use xlink:href="#DejaVuSans-6f" transform="translate(175.244141 0)"/>
      <use xlink:href="#DejaVuSans-20" transform="translate(236.425781 0)"/>
      <use xlink:href="#DejaVuSans-34" transform="translate(268.212891 0)"/>
      <use xlink:href="#DejaVuSans-2e" transform="translate(331.835938 0)"/>
      <use xlink:href="#DejaVuSans-32" transform="translate(363.623047 0)"/>
      <use xlink:href="#DejaVuSans-25" transform="translate(427.246094 0)"/>
     </g>
    </g>
    <g id="patch_32">
     <path d="M 16.305 225.2925 
L 32.305 225.2925 
L 32.305 219.6925 
L 16.305 219.6925 
z
" style="fill: #00b4ab"/>
    </g>
    <g id="text_5">
     <!-- Dart 3.5% -->
     <g transform="translate(38.705 225.2925) scale(0.08 -0.08)">
      <defs>
       <path id="DejaVuSans-44" d="M 1259 4147 
L 1259 519 
L 2022 519 
Q 2988 519 3436 956 
Q 3884 1394 3884 2338 
Q 3884 3275 3436 3711 
Q 2988 4147 2022 4147 
L 1259 4147 
z
M 628 4666 
L 1925 4666 
Q 3281 4666 3915 4102 
Q 4550 3538 4550 2338 
Q 4550 1131 3912 565 
Q 3275 0 1925 0 
L 628 0 
L 628 4666 
z
" transform="scale(0.015625)"/>
       <path id="DejaVuSans-72" d="M 2631 2963 
Q 2534 3019 2420 3045 
Q 2306 3072 2169 3072 
Q 1681 3072 1420 2755 
Q 1159 2438 1159 1844 
L 1159 0 
L 581 0 
L 581 3500 
L 1159 3500 
L 1159 2956 
Q 1341 3275 1631 3429 
Q 1922 3584 2338 3584 
Q 2397 3584 2469 3576 
Q 2541 3569 2628 3553 
L 2631 2963 
z
" transform="scale(0.015625)"/>
       <path id="DejaVuSans-74" d="M 1172 4494 
L 1172 3500 
L 2356 3500 
L 2356 3053 
L 1172 3053 
L 1172 1153 
Q 1172 725 1289 603 
Q 1406 481 1766 481 
L 2356 481 
L 2356 0 
L 1766 0 
Q 1100 0 847 248 
Q 594 497 594 1153 
L 594 3053 
L 172 3053 
L 172 3500 
L 594 3500 
L 594 4494 
L 1172 4494 
z
" transform="scale(0.015625)"/>
       <path id="DejaVuSans-35" d="M 691 4666 
L 3169 4666 
L 3169 4134 
L 1269 4134 
L 1269 2991 
Q 1406 3038 1543 3061 
Q 1681 3084 1819 3084 
Q 2600 3084 3056 2656 
Q 3513 2228 3513 1497 
Q 3513 744 3044 326 
Q 2575 -91 1722 -91 
Q 1428 -91 1123 -41 
Q 819 9 494 109 
L 494 744 
Q 775 591 1075 516 
Q 1375 441 1709 441 
Q 2250 441 2565 725 
Q 2881 1009 2881 1497 
Q 2881 1984 2565 2268 
Q 2250 2553 1709 2553 
Q 1456 2553 1204 2497 
Q 953 2441 691 2322 
L 691 4666 
z
" transform="scale(0.015625)"/>
      </defs>
      <use xlink:href="#DejaVuSans-44"/>
      <use xlink:href="#DejaVuSans-61" transform="translate(77.001953 0)"/>
      <use xlink:href="#DejaVuSans-72" transform="translate(138.28125 0)"/>
      <use xlink:href="#DejaVuSans-74" transform="translate(179.394531 0)"/>
      <use xlink:href="#DejaVuSans-20" transform="translate(218.603516 0)"/>
      <use xlink:href="#DejaVuSans-33" transform="translate(250.390625 0)"/>
      <use xlink:href="#DejaVuSans-2e" transform="translate(314.013672 0)"/>
      <use xlink:href="#DejaVuSans-35" transform="translate(345.800781 0)"/>
      <use xlink:href="#DejaVuSans-25" transform="translate(409.423828 0)"/>
     </g>
    </g>
    <g id="patch_33">
     <path d="M 106.3675 178.3225 
L 122.3675 178.3225 
L 122.3675 172.7225 
L 106.3675 172.7225 
z
" style="fill: #555555"/>
    </g>
    <g id="text_6">
     <!-- C 4.2% -->
     <g transform="translate(128.7675 178.3225) scale(0.08 -0.08)">
      <use xlink:href="#DejaVuSans-43"/>
      <use xlink:href="#DejaVuSans-20" transform="translate(69.824219 0)"/>
      <use xlink:href="#DejaVuSans-34" transform="translate(101.611328 0)"/>
      <use xlink:href="#DejaVuSans-2e" transform="translate(165.234375 0)"/>
      <use xlink:href="#DejaVuSans-32" transform="translate(197.021484 0)"/>
      <use xlink:href="#DejaVuSans-25" transform="translate(260.644531 0)"/>
     </g>
    </g>
    <g id="patch_34">
     <path d="M 106.3675 190.065 
L 122.3675 190.065 
L 122.3675 184.465 
L 106.3675 184.465 
z
" style="fill: #6e4a7e"/>
    </g>
    <g id="text_7">
     <!-- Elixir 4.1% -->
     <g transform="translate(128.7675 190.065) scale(0.08 -0.08)">
      <defs>
       <path id="DejaVuSans-45" d="M 628 4666 
L 3578 4666 
L 3578 4134 
L 1259 4134 
L 1259 2753 
L 3481 2753 
L 3481 2222 
L 1259 2222 
L 1259 531 
L 3634 531 
L 3634 0 
L 628 0 
L 628 4666 
z
" transform="scale(0.015625)"/>
       <path id="DejaVuSans-78" d="M 3513 3500 
L 2247 1797 
L 3578 0 
L 2900 0 
L 1881 1375 
L 863 0 
L 184 0 
L 1544 1831 
L 300 3500 
L 978 3500 
L 1906 2253 
L 2834 3500 
L 3513 3500 
z
" transform="scale(0.015625)"/>
      </defs>
      <use xlink:href="#DejaVuSans-45"/>
      <use xlink:href="#DejaVuSans-6c" transform="translate(63.183594 0)"/>
      <use xlink:href="#DejaVuSans-69" transform="translate(90.966797 0)"/>
      <use xlink:href="#DejaVuSans-78" transform="translate(118.75 0)"/>
      <use xlink:href="#DejaVuSans-69" transform="translate(177.929688 0)"/>
      <use xlink:href="#DejaVuSans-72" transform="translate(205.712891 0)"/>
      <use xlink:href="#DejaVuSans-20" transform="translate(246.826172 0)"/>
      <use xlink:href="#DejaVuSans-34" transform="translate(278.613281 0)"/>
      <use xlink:href="#DejaVuSans-2e" transform="translate(342.236328 0)"/>
      <use xlink:href="#DejaVuSans-31" transform="translate(374.023438 0)"/>
      <use xlink:href="#DejaVuSans-25" transform="translate(437.646484 0)"/>
     </g>
    </g>
    <g id="patch_35">
     <path d="M 106.3675 201.8075 
L 122.3675 201.8075 
L 122.3675 196.2075 
L 106.3675 196.2075 
z
" style="fill: #3178c6"/>
    </g>
    <g id="text_8">
     <!-- TypeScript 4.5% -->
     <g transform="translate(128.7675 201.8075) scale(0.08 -0.08)">
      <defs>
       <path id="DejaVuSans-54" d="M -19 4666 
L 3928 4666 
L 3928 4134 
L 2272 4134 
L 2272 0 
L 1638 0 
L 1638 4134 
L -19 4134 
L -19 4666 
z
" transform="scale(0.015625)"/>
       <path id="DejaVuSans-79" d="M 2059 -325 
Q 1816 -950 1584 -1140 
Q 1353 -1331 966 -1331 
L 506 -1331 
L 506 -850 
L 844 -850 
Q 1081 -850 1212 -737 
Q 1344 -625 1503 -206 
L 1606 56 
L 191 3500 
L 800 3500 
L 1894 763 
L 2988 3500 
L 3597 3500 
L 2059 -325 
z
" transform="scale(0.015625)"/>
       <path id="DejaVuSans-70" d="M 1159 525 
L 1159 -1331 
L 581 -1331 
L 581 3500 
L 1159 3500 
L 1159 2969 
Q 1341 3281 1617 3432 
Q 1894 3584 2278 3584 
Q 2916 3584 3314 3078 
Q 3713 2572 3713 1747 
Q 3713 922 3314 415 
Q 2916 -91 2278 -91 
Q 1894 -91 1617 61 
Q 1341 213 1159 525 
z
M 3116 1747 
Q 3116 2381 2855 2742 
Q 2594 3103 2138 3103 
Q 1681 3103 1420 2742 
Q 1159 2381 1159 1747 
Q 1159 1113 1420 752 
Q 1681 391 2138 391 
Q 2594 391 2855 752 
Q 3116 1113 3116 1747 
z
" transform="scale(0.015625)"/>
       <path id="DejaVuSans-53" d="M 3425 4513 
L 3425 3897 
Q 3066 4069 2747 4153 
Q 2428 4238 2131 4238 
Q 1616 4238 1336 4038 
Q 1056 3838 1056 3469 
Q 1056 3159 1242 3001 
Q 1428 2844 1947 2747 
L 2328 2669 
Q 3034 2534 3370 2195 
Q 3706 1856 3706 1288 
Q 3706 609 3251 259 
Q 2797 -91 1919 -91 
Q 1588 -91 1214 -16 
Q 841 59 441 206 
L 441 856 
Q 825 641 1194 531 
Q 1563 422 1919 422 
Q 2459 422 2753 634 
Q 3047 847 3047 1241 
Q 3047 1584 2836 1778 
Q 2625 1972 2144 2069 
L 1759 2144 
Q 1053 2284 737 2584 
Q 422 2884 422 3419 
Q 422 4038 858 4394 
Q 1294 4750 2059 4750 
Q 2388 4750 2728 4690 
Q 3069 4631 3425 4513 
z
" transform="scale(0.015625)"/>
       <path id="DejaVuSans-63" d="M 3122 3366 
L 3122 2828 
Q 2878 2963 2633 3030 
Q 2388 3097 2138 3097 
Q 1578 3097 1268 2742 
Q 959 2388 959 1747 
Q 959 1106 1268 751 
Q 1578 397 2138 397 
Q 2388 397 2633 464 
Q 2878 531 3122 666 
L 3122 134 
Q 2881 22 2623 -34 
Q 2366 -91 2075 -91 
Q 1284 -91 818 406 
Q 353 903 353 1747 
Q 353 2603 823 3093 
Q 1294 3584 2113 3584 
Q 2378 3584 2631 3529 
Q 2884 3475 3122 3366 
z
" transform="scale(0.015625)"/>
      </defs>
      <use xlink:href="#DejaVuSans-54"/>
      <use xlink:href="#DejaVuSans-79" transform="translate(45.458984 0)"/>
      <use xlink:href="#DejaVuSans-70" transform="translate(104.638672 0)"/>
      <use xlink:href="#DejaVuSans-65" transform="translate(168.115234 0)"/>
      <use xlink:href="#DejaVuSans-53" transform="translate(229.638672 0)"/>
      <use xlink:href="#DejaVuSans-63" transform="translate(293.115234 0)"/>
      <use xlink:href="#DejaVuSans-72" transform="translate(348.095703 0)"/>
      <use xlink:href="#DejaVuSans-69" transform="translate(389.208984 0)"/>
      <use xlink:href="#DejaVuSans-70" transform="translate(416.992188 0)"/>
      <use xlink:href="#DejaVuSans-74" transform="translate(480.46875 0)"/>
      <use xlink:href="#DejaVuSans-20" transform="translate(519.677734 0)"/>
      <use xlink:href="#DejaVuSans-34" transform="translate(551.464844 0)"/>
      <use xlink:href="#DejaVuSans-2e" transform="translate(615.087891 0)"/>
      <use xlink:href="#DejaVuSans-35" transform="translate(646.875 0)"/>
      <use xlink:href="#DejaVuSans-25" transform="translate(710.498047 0)"/>
     </g>
    </g>
    <g id="patch_36">
     <path d="M 106.3675 213.55 
L 122.3675 213.55 
L 122.3675 207.95 
L 106.3675 207.95 
z
" style="fill: #a97bff"/>
    </g>
    <g id="text_9">
     <!-- Kotlin 5.8% -->
     <g transform="translate(128.7675 213.55) scale(0.08 -0.08)">
      <defs>
       <path id="DejaVuSans-4b" d="M 628 4666 
L 1259 4666 
L 1259 2694 
L 3353 4666 
L 4166 4666 
L 1850 2491 
L 4331 0 
L 3500 0 
L 1259 2247 
L 1259 0 
L 628 0 
L 628 4666 
z
" transform="scale(0.015625)"/>
       <path id="DejaVuSans-6e" d="M 3513 2113 
L 3513 0 
L 2938 0 
L 2938 2094 
Q 2938 2591 2744 2837 
Q 2550 3084 2163 3084 
Q 1697 3084 1428 2787 
Q 1159 2491 1159 1978 
L 1159 0 
L 581 0 
L 581 3500 
L 1159 3500 
L 1159 2956 
Q 1366 3272 1645 3428 
Q 1925 3584 2291 3584 
Q 2894 3584 3203 3211 
Q 3513 2838 3513 2113 
z
" transform="scale(0.015625)"/>
       <path id="DejaVuSans-38" d="M 2034 2216 
Q 1584 2216 1326 1975 
Q 1069 1734 1069 1313 
Q 1069 891 1326 650 
Q 1584 409 2034 409 
Q 2484 409 2743 651 
Q 3003 894 3003 1313 
Q 3003 1734 2745 1975 
Q 2488 2216 2034 2216 
z
M 1403 2484 
Q 997 2584 770 2862 
Q 544 3141 544 3541 
Q 544 4100 942 4425 
Q 1341 4750 2034 4750 
Q 2731 4750 3128 4425 
Q 3525 4100 3525 3541 
Q 3525 3141 3298 2862 
Q 3072 2584 2669 2484 
Q 3125 2378 3379 2068 
Q 3634 1759 3634 1313 
Q 3634 634 3220 271 
Q 2806 -91 2034 -91 
Q 1263 -91 848 271 
Q 434 634 434 1313 
Q 434 1759 690 2068 
Q 947 2378 1403 2484 
z
M 1172 3481 
Q 1172 3119 1398 2916 
Q 1625 2713 2034 2713 
Q 2441 2713 2670 2916 
Q 2900 3119 2900 3481 
Q 2900 3844 2670 4047 
Q 2441 4250 2034 4250 
Q 1625 4250 1398 4047 
Q 1172 3844 1172 3481 
z
" transform="scale(0.015625)"/>
      </defs>
      <use xlink:href="#DejaVuSans-4b"/>
      <use xlink:href="#DejaVuSans-6f" transform="translate(60.576172 0)"/>
      <use xlink:href="#DejaVuSans-74" transform="translate(121.757812 0)"/>
      <use xlink:href="#DejaVuSans-6c" transform="translate(160.966797 0)"/>
      <use xlink:href="#DejaVuSans-69" transform="translate(188.75 0)"/>
      <use xlink:href="#DejaVuSans-6e" transform="translate(216.533203 0)"/>
      <use xlink:href="#DejaVuSans-20" transform="translate(279.912109 0)"/>
      <use xlink:href="#DejaVuSans-35" transform="translate(311.699219 0)"/>
      <use xlink:href="#DejaVuSans-2e" transform="translate(375.322266 0)"/>
      <use xlink:href="#DejaVuSans-38" transform="translate(407.109375 0)"/>
      <use xlink:href="#DejaVuSans-25" transform="translate(470.732422 0)"/>
     </g>
    </g>
    <g id="patch_37">
     <path d="M 106.3675 225.2925 
L 122.3675 225.2925 
L 122.3675 219.6925 
L 106.3675 219.6925 
z
" style="fill: #000100"/>
    </g>
    <g id="text_10">
     <!-- Crystal 3.2% -->
     <g transform="translate(128.7675 225.2925) scale(0.08 -0.08)">
      <use xlink:href="#DejaVuSans-43"/>
      <use xlink:href="#DejaVuSans-72" transform="translate(69.824219 0)"/>
      <use xlink:href="#DejaVuSans-79" transform="translate(110.9375 0)"/>
      <use xlink:href="#DejaVuSans-73" transform="translate(170.117188 0)"/>
      <use xlink:href="#DejaVuSans-74" transform="translate(222.216797 0)"/>
      <use xlink:href="#DejaVuSans-61" transform="translate(261.425781 0)"/>
      <use xlink:href="#DejaVuSans-6c" transform="translate(322.705078 0)"/>
      <use xlink:href="#DejaVuSans-20" transform="translate(350.488281 0)"/>
      <use xlink:href="#DejaVuSans-33" transform="translate(382.275391 0)"/>
      <use xlink:href="#DejaVuSans-2e" transform="translate(445.898438 0)"/>
      <use xlink:href="#DejaVuSans-32" transform="translate(477.685547 0)"/>
      <use xlink:href="#DejaVuSans-25" transform="translate(541.308594 0)"/>
     </g>
    </g>
    <g id="patch_38">
     <path d="M 209.21 178.3225 
L 225.21 178.3225 
L 225.21 172.7225 
L 209.21 172.7225 
z
" style="fill: #dea584"/>
    </g>
    <g id="text_11">
     <!-- Rust 5.6% -->
     <g transform="translate(231.61 178.3225) scale(0.08 -0.08)">
      <defs>
       <path id="DejaVuSans-52" d="M 2841 2188 
Q 3044 2119 3236 1894 
Q 3428 1669 3622 1275 
L 4263 0 
L 3584 0 
L 2988 1197 
Q 2756 1666 2539 1819 
Q 2322 1972 1947 1972 
L 1259 1972 
L 1259 0 
L 628 0 
L 628 4666 
L 2053 4666 
Q 2853 4666 3247 4331 
Q 3641 3997 3641 3322 
Q 3641 2881 3436 2590 
Q 3231 2300 2841 2188 
z
M 1259 4147 
L 1259 2491 
L 2053 2491 
Q 2509 2491 2742 2702 
Q 2975 2913 2975 3322 
Q 2975 3731 2742 3939 
Q 2509 4147 2053 4147 
L 1259 4147 
z
" transform="scale(0.015625)"/>
       <path id="DejaVuSans-75" d="M 544 1381 
L 544 3500 
L 1119 3500 
L 1119 1403 
Q 1119 906 1312 657 
Q 1506 409 1894 409 
Q 2359 409 2629 706 
Q 2900 1003 2900 1516 
L 2900 3500 
L 3475 3500 
L 3475 0 
L 2900 0 
L 2900 538 
Q 2691 219 2414 64 
Q 2138 -91 1772 -91 
Q 1169 -91 856 284 
Q 544 659 544 1381 
z
M 1991 3584 
L 1991 3584 
z
" transform="scale(0.015625)"/>
      </defs>
      <use xlink:href="#DejaVuSans-52"/>
      <use xlink:href="#DejaVuSans-75" transform="translate(64.982422 0)"/>
      <use xlink:href="#DejaVuSans-73" transform="translate(128.361328 0)"/>
      <use xlink:href="#DejaVuSans-74" transform="translate(180.460938 0)"/>
      <use xlink:href="#DejaVuSans-20" transform="translate(219.669922 0)"/>
      <use xlink:href="#DejaVuSans-35" transform="translate(251.457031 0)"/>
      <use xlink:href="#DejaVuSans-2e" transform="translate(315.080078 0)"/>
      <use xlink:href="#DejaVuSans-36" transform="translate(346.867188 0)"/>
      <use xlink:href="#DejaVuSans-25" transform="translate(410.490234 0)"/>
     </g>
    </g>
    <g id="patch_39">
     <path d="M 209.21 190.065 
L 225.21 190.065 
L 225.21 184.465 
L 209.21 184.465 
z
" style="fill: #ffaff3"/>
    </g>
    <g id="text_12">
     <!-- Gleam 3.8% -->
     <g transform="translate(231.61 190.065) scale(0.08 -0.08)">
      <defs>
       <path id="DejaVuSans-47" d="M 3809 666 
L 3809 1919 
L 2778 1919 
L 2778 2438 
L 4434 2438 
L 4434 434 
Q 4069 175 3628 42 
Q 3188 -91 2688 -91 
Q 1594 -91 976 548 
Q 359 1188 359 2328 
Q 359 3472 976 4111 
Q 1594 4750 2688 4750 
Q 3144 4750 3555 4637 
Q 3966 4525 4313 4306 
L 4313 3634 
Q 3963 3931 3569 4081 
Q 3175 4231 2741 4231 
Q 1884 4231 1454 3753 
Q 1025 3275 1025 2328 
Q 1025 1384 1454 906 
Q 1884 428 2741 428 
Q 3075 428 3337 486 
Q 3600 544 3809 666 
z
" transform="scale(0.015625)"/>
      </defs>
      <use xlink:href="#DejaVuSans-47"/>
      <use xlink:href="#DejaVuSans-6c" transform="translate(77.490234 0)"/>
      <use xlink:href="#DejaVuSans-65" transform="translate(105.273438 0)"/>
      <use xlink:href="#DejaVuSans-61" transform="translate(166.796875 0)"/>
      <use xlink:href="#DejaVuSans-6d" transform="translate(228.076172 0)"/>
      <use xlink:href="#DejaVuSans-20" transform="translate(325.488281 0)"/>
      <use xlink:href="#DejaVuSans-33" transform="translate(357.275391 0)"/>
      <use xlink:href="#DejaVuSans-2e" transform="translate(420.898438 0)"/>
      <use xlink:href="#DejaVuSans-38" transform="translate(452.685547 0)"/>
      <use xlink:href="#DejaVuSans-25" transform="translate(516.308594 0)"/>
     </g>
    </g>
    <g id="patch_40">
     <path d="M 209.21 201.8075 
L 225.21 201.8075 
L 225.21 196.2075 
L 209.21 196.2075 
z
" style="fill: #89e051"/>
    </g>
    <g id="text_13">
     <!-- Shell 0.6% -->
     <g transform="translate(231.61 201.8075) scale(0.08 -0.08)">
      <defs>
       <path id="DejaVuSans-68" d="M 3513 2113 
L 3513 0 
L 2938 0 
L 2938 2094 
Q 2938 2591 2744 2837 
Q 2550 3084 2163 3084 
Q 1697 3084 1428 2787 
Q 1159 2491 1159 1978 
L 1159 0 
L 581 0 
L 581 4863 
L 1159 4863 
L 1159 2956 
Q 1366 3272 1645 3428 
Q 1925 3584 2291 3584 
Q 2894 3584 3203 3211 
Q 3513 2838 3513 2113 
z
" transform="scale(0.015625)"/>
       <path id="DejaVuSans-30" d="M 2034 4250 
Q 1547 4250 1301 3770 
Q 1056 3291 1056 2328 
Q 1056 1369 1301 889 
Q 1547 409 2034 409 
Q 2525 409 2770 889 
Q 3016 1369 3016 2328 
Q 3016 3291 2770 3770 
Q 2525 4250 2034 4250 
z
M 2034 4750 
Q 2819 4750 3233 4129 
Q 3647 3509 3647 2328 
Q 3647 1150 3233 529 
Q 2819 -91 2034 -91 
Q 1250 -91 836 529 
Q 422 1150 422 2328 
Q 422 3509 836 4129 
Q 1250 4750 2034 4750 
z
" transform="scale(0.015625)"/>
      </defs>
      <use xlink:href="#DejaVuSans-53"/>
      <use xlink:href="#DejaVuSans-68" transform="translate(63.476562 0)"/>
      <use xlink:href="#DejaVuSans-65" transform="translate(126.855469 0)"/>
      <use xlink:href="#DejaVuSans-6c" transform="translate(188.378906 0)"/>
      <use xlink:href="#DejaVuSans-6c" transform="translate(216.162109 0)"/>
      <use xlink:href="#DejaVuSans-20" transform="translate(243.945312 0)"/>
      <use xlink:href="#DejaVuSans-30" transform="translate(275.732422 0)"/>
      <use xlink:href="#DejaVuSans-2e" transform="translate(339.355469 0)"/>
      <use xlink:href="#DejaVuSans-36" transform="translate(371.142578 0)"/>
      <use xlink:href="#DejaVuSans-25" transform="translate(434.765625 0)"/>
     </g>
    </g>
    <g id="patch_41">
     <path d="M 209.21 213.55 
L 225.21 213.55 
L 225.21 207.95 
L 209.21 207.95 
z
" style="fill: #f1e05a"/>
    </g>
    <g id="text_14">
     <!-- JavaScript 3.3% -->
     <g transform="translate(231.61 213.55) scale(0.08 -0.08)">
      <defs>
       <path id="DejaVuSans-4a" d="M 628 4666 
L 1259 4666 
L 1259 325 
Q 1259 -519 939 -900 
Q 619 -1281 -91 -1281 
L -331 -1281 
L -331 -750 
L -134 -750 
Q 284 -750 456 -515 
Q 628 -281 628 325 
L 628 4666 
z
" transform="scale(0.015625)"/>
       <path id="DejaVuSans-76" d="M 191 3500 
L 800 3500 
L 1894 563 
L 2988 3500 
L 3597 3500 
L 2284 0 
L 1503 0 
L 191 3500 
z
" transform="scale(0.015625)"/>
      </defs>
      <use xlink:href="#DejaVuSans-4a"/>
      <use xlink:href="#DejaVuSans-61" transform="translate(29.492188 0)"/>
      <use xlink:href="#DejaVuSans-76" transform="translate(90.771484 0)"/>
      <use xlink:href="#DejaVuSans-61" transform="translate(149.951172 0)"/>
      <use xlink:href="#DejaVuSans-53" transform="translate(211.230469 0)"/>
      <use xlink:href="#DejaVuSans-63" transform="translate(274.707031 0)"/>
      <use xlink:href="#DejaVuSans-72" transform="translate(329.6875 0)"/>
      <use xlink:href="#DejaVuSans-69" transform="translate(370.800781 0)"/>
      <use xlink:href="#DejaVuSans-70" transform="translate(398.583984 0)"/>
      <use xlink:href="#DejaVuSans-74" transform="translate(462.060547 0)"/>
      <use xlink:href="#DejaVuSans-20" transform="translate(501.269531 0)"/>
      <use xlink:href="#DejaVuSans-33" transform="translate(533.056641 0)"/>
      <use xlink:href="#DejaVuSans-2e" transform="translate(596.679688 0)"/>
      <use xlink:href="#DejaVuSans-33" transform="translate(628.466797 0)"/>
      <use xlink:href="#DejaVuSans-25" transform="translate(692.089844 0)"/>
     </g>
    </g>
    <g id="patch_42">
     <path d="M 209.21 225.2925 
L 225.21 225.2925 
L 225.21 219.6925 
L 209.21 219.6925 
z
" style="fill: #701516"/>
    </g>
    <g id="text_15">
     <!-- Ruby 2.4% -->
     <g transform="translate(231.61 225.2925) scale(0.08 -0.08)">
      <defs>
       <path id="DejaVuSans-62" d="M 3116 1747 
Q 3116 2381 2855 2742 
Q 2594 3103 2138 3103 
Q 1681 3103 1420 2742 
Q 1159 2381 1159 1747 
Q 1159 1113 1420 752 
Q 1681 391 2138 391 
Q 2594 391 2855 752 
Q 3116 1113 3116 1747 
z
M 1159 2969 
Q 1341 3281 1617 3432 
Q 1894 3584 2278 3584 
Q 2916 3584 3314 3078 
Q 3713 2572 3713 1747 
Q 3713 922 3314 415 
Q 2916 -91 2278 -91 
Q 1894 -91 1617 61 
Q 1341 213 1159 525 
L 1159 0 
L 581 0 
L 581 4863 
L 1159 4863 
L 1159 2969 
z
" transform="scale(0.015625)"/>
      </defs>
      <use xlink:href="#DejaVuSans-52"/>
      <use xlink:href="#DejaVuSans-75" transform="translate(64.982422 0)"/>
      <use xlink:href="#DejaVuSans-62" transform="translate(128.361328 0)"/>
      <use xlink:href="#DejaVuSans-79" transform="translate(191.837891 0)"/>
      <use xlink:href="#DejaVuSans-20" transform="translate(251.017578 0)"/>
      <use xlink:href="#DejaVuSans-32" transform="translate(282.804688 0)"/>
      <use xlink:href="#DejaVuSans-2e" transform="translate(346.427734 0)"/>
      <use xlink:href="#DejaVuSans-34" transform="translate(378.214844 0)"/>
      <use xlink:href="#DejaVuSans-25" transform="translate(441.837891 0)"/>
     </g>
    </g>
    <g id="patch_43">
     <path d="M 310.58 178.3225 
L 326.58 178.3225 
L 326.58 172.7225 
L 310.58 172.7225 
z
" style="fill: #00add8"/>
    </g>
    <g id="text_16">
     <!-- Go 3.5% -->
     <g transform="translate(332.98 178.3225) scale(0.08 -0.08)">
      <use xlink:href="#DejaVuSans-47"/>
      <use xlink:href="#DejaVuSans-6f" transform="translate(77.490234 0)"/>
      <use xlink:href="#DejaVuSans-20" transform="translate(138.671875 0)"/>
      <use xlink:href="#DejaVuSans-33" transform="translate(170.458984 0)"/>
      <use xlink:href="#DejaVuSans-2e" transform="translate(234.082031 0)"/>
      <use xlink:href="#DejaVuSans-35" transform="translate(265.869141 0)"/>
      <use xlink:href="#DejaVuSans-25" transform="translate(329.492188 0)"/>
     </g>
    </g>
    <g id="patch_44">
     <path d="M 310.58 190.065 
L 326.58 190.065 
L 326.58 184.465 
L 310.58 184.465 
z
" style="fill: #800000"/>
    </g>
    <g id="text_17">
     <!-- Squirrel 2.2% -->
     <g transform="translate(332.98 190.065) scale(0.08 -0.08)">
      <defs>
       <path id="DejaVuSans-71" d="M 947 1747 
Q 947 1113 1208 752 
Q 1469 391 1925 391 
Q 2381 391 2643 752 
Q 2906 1113 2906 1747 
Q 2906 2381 2643 2742 
Q 2381 3103 1925 3103 
Q 1469 3103 1208 2742 
Q 947 2381 947 1747 
z
M 2906 525 
Q 2725 213 2448 61 
Q 2172 -91 1784 -91 
Q 1150 -91 751 415 
Q 353 922 353 1747 
Q 353 2572 751 3078 
Q 1150 3584 1784 3584 
Q 2172 3584 2448 3432 
Q 2725 3281 2906 2969 
L 2906 3500 
L 3481 3500 
L 3481 -1331 
L 2906 -1331 
L 2906 525 
z
" transform="scale(0.015625)"/>
      </defs>
      <use xlink:href="#DejaVuSans-53"/>
      <use xlink:href="#DejaVuSans-71" transform="translate(63.476562 0)"/>
      <use xlink:href="#DejaVuSans-75" transform="translate(126.953125 0)"/>
      <use xlink:href="#DejaVuSans-69" transform="translate(190.332031 0)"/>
      <use xlink:href="#DejaVuSans-72" transform="translate(218.115234 0)"/>
      <use xlink:href="#DejaVuSans-72" transform="translate(257.478516 0)"/>
      <use xlink:href="#DejaVuSans-65" transform="translate(296.341797 0)"/>
      <use xlink:href="#DejaVuSans-6c" transform="translate(357.865234 0)"/>
      <use xlink:href="#DejaVuSans-20" transform="translate(385.648438 0)"/>
      <use xlink:href="#DejaVuSans-32" transform="translate(417.435547 0)"/>
      <use xlink:href="#DejaVuSans-2e" transform="translate(481.058594 0)"/>
      <use xlink:href="#DejaVuSans-32" transform="translate(512.845703 0)"/>
      <use xlink:href="#DejaVuSans-25" transform="translate(576.46875 0)"/>
     </g>
    </g>
    <g id="patch_45">
     <path d="M 310.58 201.8075 
L 326.58 201.8075 
L 326.58 196.2075 
L 310.58 196.2075 
z
" style="fill: #0000fb"/>
    </g>
    <g id="text_18">
     <!-- Raku 3.9% -->
     <g transform="translate(332.98 201.8075) scale(0.08 -0.08)">
      <defs>
       <path id="DejaVuSans-39" d="M 703 97 
L 703 672 
Q 941 559 1184 500 
Q 1428 441 1663 441 
Q 2288 441 2617 861 
Q 2947 1281 2994 2138 
Q 2813 1869 2534 1725 
Q 2256 1581 1919 1581 
Q 1219 1581 811 2004 
Q 403 2428 403 3163 
Q 403 3881 828 4315 
Q 1253 4750 1959 4750 
Q 2769 4750 3195 4129 
Q 3622 3509 3622 2328 
Q 3622 1225 3098 567 
Q 2575 -91 1691 -91 
Q 1453 -91 1209 -44 
Q 966 3 703 97 
z
M 1959 2075 
Q 2384 2075 2632 2365 
Q 2881 2656 2881 3163 
Q 2881 3666 2632 3958 
Q 2384 4250 1959 4250 
Q 1534 4250 1286 3958 
Q 1038 3666 1038 3163 
Q 1038 2656 1286 2365 
Q 1534 2075 1959 2075 
z
" transform="scale(0.015625)"/>
      </defs>
      <use xlink:href="#DejaVuSans-52"/>
      <use xlink:href="#DejaVuSans-61" transform="translate(67.232422 0)"/>
      <use xlink:href="#DejaVuSans-6b" transform="translate(128.511719 0)"/>
      <use xlink:href="#DejaVuSans-75" transform="translate(183.296875 0)"/>
      <use xlink:href="#DejaVuSans-20" transform="translate(246.675781 0)"/>
      <use xlink:href="#DejaVuSans-33" transform="translate(278.462891 0)"/>
      <use xlink:href="#DejaVuSans-2e" transform="translate(342.085938 0)"/>
      <use xlink:href="#DejaVuSans-39" transform="translate(373.873047 0)"/>
      <use xlink:href="#DejaVuSans-25" transform="translate(437.496094 0)"/>
     </g>
    </g>
    <g id="patch_46">
     <path d="M 310.58 213.55 
L 326.58 213.55 
L 326.58 207.95 
L 310.58 207.95 
z
" style="fill: #60affe"/>
    </g>
    <g id="text_19">
     <!-- Odin 5.6% -->
     <g transform="translate(332.98 213.55) scale(0.08 -0.08)">
      <defs>
       <path id="DejaVuSans-4f" d="M 2522 4238 
Q 1834 4238 1429 3725 
Q 1025 3213 1025 2328 
Q 1025 1447 1429 934 
Q 1834 422 2522 422 
Q 3209 422 3611 934 
Q 4013 1447 4013 2328 
Q 4013 3213 3611 3725 
Q 3209 4238 2522 4238 
z
M 2522 4750 
Q 3503 4750 4090 4092 
Q 4678 3434 4678 2328 
Q 4678 1225 4090 567 
Q 3503 -91 2522 -91 
Q 1538 -91 948 565 
Q 359 1222 359 2328 
Q 359 3434 948 4092 
Q 1538 4750 2522 4750 
z
" transform="scale(0.015625)"/>
       <path id="DejaVuSans-64" d="M 2906 2969 
L 2906 4863 
L 3481 4863 
L 3481 0 
L 2906 0 
L 2906 525 
Q 2725 213 2448 61 
Q 2172 -91 1784 -91 
Q 1150 -91 751 415 
Q 353 922 353 1747 
Q 353 2572 751 3078 
Q 1150 3584 1784 3584 
Q 2172 3584 2448 3432 
Q 2725 3281 2906 2969 
z
M 947 1747 
Q 947 1113 1208 752 
Q 1469 391 1925 391 
Q 2381 391 2643 752 
Q 2906 1113 2906 1747 
Q 2906 2381 2643 2742 
Q 2381 3103 1925 3103 
Q 1469 3103 1208 2742 
Q 947 2381 947 1747 
z
" transform="scale(0.015625)"/>
      </defs>
      <use xlink:href="#DejaVuSans-4f"/>
      <use xlink:href="#DejaVuSans-64" transform="translate(78.710938 0)"/>
      <use xlink:href="#DejaVuSans-69" transform="translate(142.1875 0)"/>
      <use xlink:href="#DejaVuSans-6e" transform="translate(169.970703 0)"/>
      <use xlink:href="#DejaVuSans-20" transform="translate(233.349609 0)"/>
      <use xlink:href="#DejaVuSans-35" transform="translate(265.136719 0)"/>
      <use xlink:href="#DejaVuSans-2e" transform="translate(328.759766 0)"/>
      <use xlink:href="#DejaVuSans-36" transform="translate(360.546875 0)"/>
      <use xlink:href="#DejaVuSans-25" transform="translate(424.169922 0)"/>
     </g>
    </g>
    <g id="patch_47">
     <path d="M 310.58 225.2925 
L 326.58 225.2925 
L 326.58 219.6925 
L 310.58 219.6925 
z
" style="fill: #000080"/>
    </g>
    <g id="text_20">
     <!-- Lua 2.0% -->
     <g transform="translate(332.98 225.2925) scale(0.08 -0.08)">
      <defs>
       <path id="DejaVuSans-4c" d="M 628 4666 
L 1259 4666 
L 1259 531 
L 3531 531 
L 3531 0 
L 628 0 
L 628 4666 
z
" transform="scale(0.015625)"/>
      </defs>
      <use xlink:href="#DejaVuSans-4c"/>
      <use xlink:href="#DejaVuSans-75" transform="translate(53.962891 0)"/>
      <use xlink:href="#DejaVuSans-61" transform="translate(117.341797 0)"/>
      <use xlink:href="#DejaVuSans-20" transform="translate(178.621094 0)"/>
      <use xlink:href="#DejaVuSans-32" transform="translate(210.408203 0)"/>
      <use xlink:href="#DejaVuSans-2e" transform="translate(274.03125 0)"/>
      <use xlink:href="#DejaVuSans-30" transform="translate(305.818359 0)"/>
      <use xlink:href="#DejaVuSans-25" transform="translate(369.441406 0)"/>
     </g>
    </g>
    <g id="patch_48">
     <path d="M 402.69875 178.3225 
L 418.69875 178.3225 
L 418.69875 172.7225 
L 402.69875 172.7225 
z
" style="fill: #b07219"/>
    </g>
    <g id="text_21">
     <!-- Java 5.8% -->
     <g transform="translate(425.09875 178.3225) scale(0.08 -0.08)">
      <use xlink:href="#DejaVuSans-4a"/>
      <use xlink:href="#DejaVuSans-61" transform="translate(29.492188 0)"/>
      <use xlink:href="#DejaVuSans-76" transform="translate(90.771484 0)"/>
      <use xlink:href="#DejaVuSans-61" transform="translate(149.951172 0)"/>
      <use xlink:href="#DejaVuSans-20" transform="translate(211.230469 0)"/>
      <use xlink:href="#DejaVuSans-35" transform="translate(243.017578 0)"/>
      <use xlink:href="#DejaVuSans-2e" transform="translate(306.640625 0)"/>
      <use xlink:href="#DejaVuSans-38" transform="translate(338.427734 0)"/>
      <use xlink:href="#DejaVuSans-25" transform="translate(402.050781 0)"/>
     </g>
    </g>
    <g id="patch_49">
     <path d="M 402.69875 190.065 
L 418.69875 190.065 
L 418.69875 184.465 
L 402.69875 184.465 
z
" style="fill: #178600"/>
    </g>
    <g id="text_22">
     <!-- C# 5.0% -->
     <g transform="translate(425.09875 190.065) scale(0.08 -0.08)">
      <defs>
       <path id="DejaVuSans-23" d="M 3272 2816 
L 2363 2816 
L 2100 1772 
L 3016 1772 
L 3272 2816 
z
M 2803 4594 
L 2478 3297 
L 3391 3297 
L 3719 4594 
L 4219 4594 
L 3897 3297 
L 4872 3297 
L 4872 2816 
L 3775 2816 
L 3519 1772 
L 4513 1772 
L 4513 1294 
L 3397 1294 
L 3072 0 
L 2572 0 
L 2894 1294 
L 1978 1294 
L 1656 0 
L 1153 0 
L 1478 1294 
L 494 1294 
L 494 1772 
L 1594 1772 
L 1856 2816 
L 850 2816 
L 850 3297 
L 1978 3297 
L 2297 4594 
L 2803 4594 
z
" transform="scale(0.015625)"/>
      </defs>
      <use xlink:href="#DejaVuSans-43"/>
      <use xlink:href="#DejaVuSans-23" transform="translate(69.824219 0)"/>
      <use xlink:href="#DejaVuSans-20" transform="translate(153.613281 0)"/>
      <use xlink:href="#DejaVuSans-35" transform="translate(185.400391 0)"/>
      <use xlink:href="#DejaVuSans-2e" transform="translate(249.023438 0)"/>
      <use xlink:href="#DejaVuSans-30" transform="translate(280.810547 0)"/>
      <use xlink:href="#DejaVuSans-25" transform="translate(344.433594 0)"/>
     </g>
    </g>
    <g id="patch_50">
     <path d="M 402.69875 201.8075 
L 418.69875 201.8075 
L 418.69875 196.2075 
L 402.69875 196.2075 
z
" style="fill: #3572a5"/>
    </g>
    <g id="text_23">
     <!-- Python 5.6% -->
     <g transform="translate(425.09875 201.8075) scale(0.08 -0.08)">
      <defs>
       <path id="DejaVuSans-50" d="M 1259 4147 
L 1259 2394 
L 2053 2394 
Q 2494 2394 2734 2622 
Q 2975 2850 2975 3272 
Q 2975 3691 2734 3919 
Q 2494 4147 2053 4147 
L 1259 4147 
z
M 628 4666 
L 2053 4666 
Q 2838 4666 3239 4311 
Q 3641 3956 3641 3272 
Q 3641 2581 3239 2228 
Q 2838 1875 2053 1875 
L 1259 1875 
L 1259 0 
L 628 0 
L 628 4666 
z
" transform="scale(0.015625)"/>
      </defs>
      <use xlink:href="#DejaVuSans-50"/>
      <use xlink:href="#DejaVuSans-79" transform="translate(60.302734 0)"/>
      <use xlink:href="#DejaVuSans-74" transform="translate(119.482422 0)"/>
      <use xlink:href="#DejaVuSans-68" transform="translate(158.691406 0)"/>
      <use xlink:href="#DejaVuSans-6f" transform="translate(222.070312 0)"/>
      <use xlink:href="#DejaVuSans-6e" transform="translate(283.251953 0)"/>
      <use xlink:href="#DejaVuSans-20" transform="translate(346.630859 0)"/>
      <use xlink:href="#DejaVuSans-35" transform="translate(378.417969 0)"/>
      <use xlink:href="#DejaVuSans-2e" transform="translate(442.041016 0)"/>
      <use xlink:href="#DejaVuSans-36" transform="translate(473.828125 0)"/>
      <use xlink:href="#DejaVuSans-25" transform="translate(537.451172 0)"/>
     </g>
    </g>
    <g id="patch_51">
     <path d="M 402.69875 213.55 
L 418.69875 213.55 
L 418.69875 207.95 
L 402.69875 207.95 
z
" style="fill: #c22d40"/>
    </g>
    <g id="text_24">
     <!-- Scala 1.7% -->
     <g transform="translate(425.09875 213.55) scale(0.08 -0.08)">
      <use xlink:href="#DejaVuSans-53"/>
      <use xlink:href="#DejaVuSans-63" transform="translate(63.476562 0)"/>
      <use xlink:href="#DejaVuSans-61" transform="translate(118.457031 0)"/>
      <use xlink:href="#DejaVuSans-6c" transform="translate(179.736328 0)"/>
      <use xlink:href="#DejaVuSans-61" transform="translate(207.519531 0)"/>
      <use xlink:href="#DejaVuSans-20" transform="translate(268.798828 0)"/>
      <use xlink:href="#DejaVuSans-31" transform="translate(300.585938 0)"/>
      <use xlink:href="#DejaVuSans-2e" transform="translate(364.208984 0)"/>
      <use xlink:href="#DejaVuSans-37" transform="translate(395.996094 0)"/>
      <use xlink:href="#DejaVuSans-25" transform="translate(459.619141 0)"/>
     </g>
    </g>
    <g id="patch_52">
     <path d="M 402.69875 225.2925 
L 418.69875 225.2925 
L 418.69875 219.6925 
L 402.69875 219.6925 
z
" style="fill: #ec915c"/>
    </g>
    <g id="text_25">
     <!-- Zig 5.8% -->
     <g transform="translate(425.09875 225.2925) scale(0.08 -0.08)">
      <defs>
       <path id="DejaVuSans-5a" d="M 359 4666 
L 4025 4666 
L 4025 4184 
L 1075 531 
L 4097 531 
L 4097 0 
L 288 0 
L 288 481 
L 3238 4134 
L 359 4134 
L 359 4666 
z
" transform="scale(0.015625)"/>
       <path id="DejaVuSans-67" d="M 2906 1791 
Q 2906 2416 2648 2759 
Q 2391 3103 1925 3103 
Q 1463 3103 1205 2759 
Q 947 2416 947 1791 
Q 947 1169 1205 825 
Q 1463 481 1925 481 
Q 2391 481 2648 825 
Q 2906 1169 2906 1791 
z
M 3481 434 
Q 3481 -459 3084 -895 
Q 2688 -1331 1869 -1331 
Q 1566 -1331 1297 -1286 
Q 1028 -1241 775 -1147 
L 775 -588 
Q 1028 -725 1275 -790 
Q 1522 -856 1778 -856 
Q 2344 -856 2625 -561 
Q 2906 -266 2906 331 
L 2906 616 
Q 2728 306 2450 153 
Q 2172 0 1784 0 
Q 1141 0 747 490 
Q 353 981 353 1791 
Q 353 2603 747 3093 
Q 1141 3584 1784 3584 
Q 2172 3584 2450 3431 
Q 2728 3278 2906 2969 
L 2906 3500 
L 3481 3500 
L 3481 434 
z
" transform="scale(0.015625)"/>
      </defs>
      <use xlink:href="#DejaVuSans-5a"/>
      <use xlink:href="#DejaVuSans-69" transform="translate(68.505859 0)"/>
      <use xlink:href="#DejaVuSans-67" transform="translate(96.289062 0)"/>
      <use xlink:href="#DejaVuSans-20" transform="translate(159.765625 0)"/>
      <use xlink:href="#DejaVuSans-35" transform="translate(191.552734 0)"/>
      <use xlink:href="#DejaVuSans-2e" transform="translate(255.175781 0)"/>
      <use xlink:href="#DejaVuSans-38" transform="translate(286.962891 0)"/>
      <use xlink:href="#DejaVuSans-25" transform="translate(350.585938 0)"/>
     </g>
    </g>
   </g>
  </g>
 </g>
 <defs>
  <clipPath id="pbfb2c50c50">
   <path d="M 316 98.8 
C 316 89.607684 314.189314 80.504752 310.671567 72.01216 
C 307.15382 63.519567 301.997424 55.802474 295.497475 49.302525 
C 288.997526 42.802576 281.280433 37.64618 272.78784 34.128433 
C 264.295248 30.610686 255.192316 28.8 246 28.8 
C 236.807684 28.8 227.704752 30.610686 219.21216 34.128433 
C 210.719567 37.64618 203.002474 42.802576 196.502525 49.302525 
C 190.002576 55.802474 184.84618 63.519567 181.328433 72.01216 
C 177.810686 80.504752 176 89.607684 176 98.8 
C 176 107.992316 177.810686 117.095248 181.328433 125.58784 
C 184.84618 134.080433 190.002576 141.797526 196.502525 148.297475 
C 203.002474 154.797424 210.719567 159.95382 219.21216 163.471567 
C 227.704752 166.989314 236.807684 168.8 246 168.8 
C 255.192316 168.8 264.295248 166.989314 272.78784 163.471567 
C 281.280433 159.95382 288.997526 154.797424 295.497475 148.297475 
C 301.997424 141.797526 307.15382 134.080433 310.671567 125.58784 
C 314.189314 117.095248 316 107.992316 316 98.8 
M 246 98.8 
C 246 98.8 246 98.8 246 98.8 
C 246 98.8 246 98.8 246 98.8 
C 246 98.8 246 98.8 246 98.8 
C 246 98.8 246 98.8 246 98.8 
C 246 98.8 246 98.8 246 98.8 
C 246 98.8 246 98.8 246 98.8 
C 246 98.8 246 98.8 246 98.8 
C 246 98.8 246 98.8 246 98.8 
C 246 98.8 246 98.8 246 98.8 
C 246 98.8 246 98.8 246 98.8 
C 246 98.8 246 98.8 246 98.8 
C 246 98.8 246 98.8 246 98.8 
C 246 98.8 246 98.8 246 98.8 
C 246 98.8 246 98.8 246 98.8 
C 246 98.8 246 98.8 246 98.8 
C 246 98.8 246 98.8 246 98.8 
z
"/>
  </clipPath>
 </defs>
</svg>
