<?xml version="1.0" encoding="utf-8" standalone="no"?>
<!DOCTYPE svg PUBLIC "-//W3C//DTD SVG 1.1//EN"
  "http://www.w3.org/Graphics/SVG/1.1/DTD/svg11.dtd">
<svg xmlns:xlink="http://www.w3.org/1999/xlink" width="400pt" height="225pt" viewBox="0 0 400 225" xmlns="http://www.w3.org/2000/svg" version="1.1">
 <metadata>
  <rdf:RDF xmlns:dc="http://purl.org/dc/elements/1.1/" xmlns:cc="http://creativecommons.org/ns#" xmlns:rdf="http://www.w3.org/1999/02/22-rdf-syntax-ns#">
   <cc:Work>
    <dc:type rdf:resource="http://purl.org/dc/dcmitype/StillImage"/>
    <dc:date>2024-12-09T14:36:26.317369</dc:date>
    <dc:format>image/svg+xml</dc:format>
    <dc:creator>
     <cc:Agent>
      <dc:title>Matplotlib v3.9.3, https://matplotlib.org/</dc:title>
     </cc:Agent>
    </dc:creator>
   </cc:Work>
  </rdf:RDF>
 </metadata>
 <defs>
  <style type="text/css">*{stroke-linejoin: round; stroke-linecap: butt}</style>
 </defs>
 <g id="figure_1">
  <g id="patch_1">
   <path d="M 0 225 
L 400 225 
L 400 0 
L 0 0 
L 0 225 
z
" style="fill: none"/>
  </g>
  <g id="axes_1">
   <g id="patch_2">
    <path d="M 264.741379 113.625 
C 264.741379 99.633846 259.826384 86.077724 250.859653 75.337605 
C 241.892923 64.597487 229.432069 57.341265 215.665693 54.843409 
L 220.236704 29.651299 
C 239.902956 33.219665 257.704175 43.585695 270.51379 58.928722 
C 283.323406 74.271748 290.344828 93.637637 290.344828 113.625 
z
" clip-path="url(#p72ac1ea507)" style="fill: #f34b7d"/>
   </g>
   <g id="patch_3">
    <path d="M 215.665693 54.843409 
C 212.857563 54.333885 210.016526 54.026241 207.164418 53.922842 
C 204.312311 53.819443 201.456456 53.920554 198.618801 54.225398 
L 195.884002 28.768426 
C 199.937794 28.332934 204.017586 28.188489 208.092026 28.336203 
C 212.166466 28.483916 216.225089 28.923407 220.236704 29.651299 
z
" clip-path="url(#p72ac1ea507)" style="fill: #5e5086"/>
   </g>
   <g id="patch_4">
    <path d="M 198.618801 54.225398 
C 191.161857 55.026485 183.922016 57.224656 177.278484 60.704778 
C 170.634951 64.184899 164.70578 68.88513 159.801523 74.559285 
L 140.430747 57.816836 
C 147.436828 49.7109 155.907073 42.996284 165.397834 38.024682 
C 174.888594 33.053081 185.231224 29.912836 195.884002 28.768426 
z
" clip-path="url(#p72ac1ea507)" style="fill: #555555"/>
   </g>
   <g id="patch_5">
    <path d="M 159.801523 74.559285 
C 154.522136 80.667461 150.535323 87.782919 148.082487 95.474819 
C 145.62965 103.166719 144.761314 111.276616 145.530059 119.313454 
L 120.042941 121.751363 
C 118.944735 110.270165 120.185214 98.684599 123.689266 87.69617 
C 127.193319 76.707741 132.888766 66.542801 140.430747 57.816836 
z
" clip-path="url(#p72ac1ea507)" style="fill: #3178c6"/>
   </g>
   <g id="patch_6">
    <path d="M 145.530059 119.313454 
C 145.624627 120.302114 145.743834 121.288263 145.88757 122.27098 
C 146.031305 123.253697 146.199524 124.232677 146.392069 125.207006 
L 121.274385 130.170724 
C 120.99932 128.778824 120.759007 127.380281 120.553671 125.9764 
C 120.348334 124.572518 120.178038 123.163735 120.042941 121.751363 
z
" clip-path="url(#p72ac1ea507)" style="fill: #89e051"/>
   </g>
   <g id="patch_7">
    <path d="M 146.392069 125.207006 
C 147.614722 131.393941 149.809382 137.348429 152.894402 142.848947 
C 155.979423 148.349464 159.916066 153.326944 164.557878 157.596208 
L 147.22554 176.441012 
C 140.59438 170.342062 134.970604 163.231378 130.563432 155.373496 
C 126.15626 147.515613 123.021031 139.009202 121.274385 130.170724 
z
" clip-path="url(#p72ac1ea507)" style="fill: #00add8"/>
   </g>
   <g id="patch_8">
    <path d="M 164.557878 157.596208 
C 167.251701 160.073828 170.167514 162.298665 173.26852 164.242641 
C 176.369525 166.186617 179.642622 167.84152 183.046503 169.186465 
L 173.637862 192.998521 
C 168.775175 191.077172 164.099322 188.713025 159.669314 185.935916 
C 155.239306 183.158807 151.073858 179.980468 147.22554 176.441012 
z
" clip-path="url(#p72ac1ea507)" style="fill: #000080"/>
   </g>
   <g id="patch_9">
    <path d="M 183.046503 169.186465 
C 192.766479 173.027031 203.326207 174.250561 213.666857 172.734373 
C 224.007507 171.218185 233.771506 167.014706 241.979809 160.545423 
L 257.828299 180.654176 
C 246.102151 189.896009 232.153582 195.900978 217.381225 198.066962 
C 202.608868 200.232945 187.523541 198.485044 173.637862 192.998521 
z
" clip-path="url(#p72ac1ea507)" style="fill: #b07219"/>
   </g>
   <g id="patch_10">
    <path d="M 241.979809 160.545423 
C 249.073797 154.954376 254.808292 147.826622 258.750615 139.699965 
C 262.692938 131.573308 264.741379 122.657412 264.741379 113.625 
L 290.344828 113.625 
C 290.344828 126.528446 287.418483 139.26544 281.786593 150.87495 
C 276.154703 162.48446 267.962567 172.666965 257.828299 180.654176 
z
" clip-path="url(#p72ac1ea507)" style="fill: #178600"/>
   </g>
   <g id="legend_1">
    <g id="patch_11">
     <path d="M 32.049375 231.19125 
L 377.950625 231.19125 
Q 379.550625 231.19125 379.550625 229.59125 
L 379.550625 195.16375 
Q 379.550625 193.56375 377.950625 193.56375 
L 32.049375 193.56375 
Q 30.449375 193.56375 30.449375 195.16375 
L 30.449375 229.59125 
Q 30.449375 231.19125 32.049375 231.19125 
z
" style="fill: #ffffff; opacity: 0.8; stroke: #cccccc; stroke-linejoin: miter"/>
    </g>
    <g id="patch_12">
     <path d="M 33.649375 202.8425 
L 49.649375 202.8425 
L 49.649375 197.2425 
L 33.649375 197.2425 
z
" style="fill: #f34b7d"/>
    </g>
    <g id="text_1">
     <!-- C++ 22.1% -->
     <g transform="translate(56.049375 202.8425) scale(0.08 -0.08)">
      <defs>
       <path id="DejaVuSans-43" d="M 4122 4306 
L 4122 3641 
Q 3803 3938 3442 4084 
Q 3081 4231 2675 4231 
Q 1875 4231 1450 3742 
Q 1025 3253 1025 2328 
Q 1025 1406 1450 917 
Q 1875 428 2675 428 
Q 3081 428 3442 575 
Q 3803 722 4122 1019 
L 4122 359 
Q 3791 134 3420 21 
Q 3050 -91 2638 -91 
Q 1578 -91 968 557 
Q 359 1206 359 2328 
Q 359 3453 968 4101 
Q 1578 4750 2638 4750 
Q 3056 4750 3426 4639 
Q 3797 4528 4122 4306 
z
" transform="scale(0.015625)"/>
       <path id="DejaVuSans-2b" d="M 2944 4013 
L 2944 2272 
L 4684 2272 
L 4684 1741 
L 2944 1741 
L 2944 0 
L 2419 0 
L 2419 1741 
L 678 1741 
L 678 2272 
L 2419 2272 
L 2419 4013 
L 2944 4013 
z
" transform="scale(0.015625)"/>
       <path id="DejaVuSans-20" transform="scale(0.015625)"/>
       <path id="DejaVuSans-32" d="M 1228 531 
L 3431 531 
L 3431 0 
L 469 0 
L 469 531 
Q 828 903 1448 1529 
Q 2069 2156 2228 2338 
Q 2531 2678 2651 2914 
Q 2772 3150 2772 3378 
Q 2772 3750 2511 3984 
Q 2250 4219 1831 4219 
Q 1534 4219 1204 4116 
Q 875 4013 500 3803 
L 500 4441 
Q 881 4594 1212 4672 
Q 1544 4750 1819 4750 
Q 2544 4750 2975 4387 
Q 3406 4025 3406 3419 
Q 3406 3131 3298 2873 
Q 3191 2616 2906 2266 
Q 2828 2175 2409 1742 
Q 1991 1309 1228 531 
z
" transform="scale(0.015625)"/>
       <path id="DejaVuSans-2e" d="M 684 794 
L 1344 794 
L 1344 0 
L 684 0 
L 684 794 
z
" transform="scale(0.015625)"/>
       <path id="DejaVuSans-31" d="M 794 531 
L 1825 531 
L 1825 4091 
L 703 3866 
L 703 4441 
L 1819 4666 
L 2450 4666 
L 2450 531 
L 3481 531 
L 3481 0 
L 794 0 
L 794 531 
z
" transform="scale(0.015625)"/>
       <path id="DejaVuSans-25" d="M 4653 2053 
Q 4381 2053 4226 1822 
Q 4072 1591 4072 1178 
Q 4072 772 4226 539 
Q 4381 306 4653 306 
Q 4919 306 5073 539 
Q 5228 772 5228 1178 
Q 5228 1588 5073 1820 
Q 4919 2053 4653 2053 
z
M 4653 2450 
Q 5147 2450 5437 2106 
Q 5728 1763 5728 1178 
Q 5728 594 5436 251 
Q 5144 -91 4653 -91 
Q 4153 -91 3862 251 
Q 3572 594 3572 1178 
Q 3572 1766 3864 2108 
Q 4156 2450 4653 2450 
z
M 1428 4353 
Q 1159 4353 1004 4120 
Q 850 3888 850 3481 
Q 850 3069 1003 2837 
Q 1156 2606 1428 2606 
Q 1700 2606 1854 2837 
Q 2009 3069 2009 3481 
Q 2009 3884 1853 4118 
Q 1697 4353 1428 4353 
z
M 4250 4750 
L 4750 4750 
L 1831 -91 
L 1331 -91 
L 4250 4750 
z
M 1428 4750 
Q 1922 4750 2215 4408 
Q 2509 4066 2509 3481 
Q 2509 2891 2217 2550 
Q 1925 2209 1428 2209 
Q 931 2209 642 2551 
Q 353 2894 353 3481 
Q 353 4063 643 4406 
Q 934 4750 1428 4750 
z
" transform="scale(0.015625)"/>
      </defs>
      <use xlink:href="#DejaVuSans-43"/>
      <use xlink:href="#DejaVuSans-2b" x="69.824219"/>
      <use xlink:href="#DejaVuSans-2b" x="153.613281"/>
      <use xlink:href="#DejaVuSans-20" x="237.402344"/>
      <use xlink:href="#DejaVuSans-32" x="269.189453"/>
      <use xlink:href="#DejaVuSans-32" x="332.8125"/>
      <use xlink:href="#DejaVuSans-2e" x="396.435547"/>
      <use xlink:href="#DejaVuSans-31" x="428.222656"/>
      <use xlink:href="#DejaVuSans-25" x="491.845703"/>
     </g>
    </g>
    <g id="patch_13">
     <path d="M 33.649375 214.585 
L 49.649375 214.585 
L 49.649375 208.985 
L 33.649375 208.985 
z
" style="fill: #5e5086"/>
    </g>
    <g id="text_2">
     <!-- Haskell 4.6% -->
     <g transform="translate(56.049375 214.585) scale(0.08 -0.08)">
      <defs>
       <path id="DejaVuSans-48" d="M 628 4666 
L 1259 4666 
L 1259 2753 
L 3553 2753 
L 3553 4666 
L 4184 4666 
L 4184 0 
L 3553 0 
L 3553 2222 
L 1259 2222 
L 1259 0 
L 628 0 
L 628 4666 
z
" transform="scale(0.015625)"/>
       <path id="DejaVuSans-61" d="M 2194 1759 
Q 1497 1759 1228 1600 
Q 959 1441 959 1056 
Q 959 750 1161 570 
Q 1363 391 1709 391 
Q 2188 391 2477 730 
Q 2766 1069 2766 1631 
L 2766 1759 
L 2194 1759 
z
M 3341 1997 
L 3341 0 
L 2766 0 
L 2766 531 
Q 2569 213 2275 61 
Q 1981 -91 1556 -91 
Q 1019 -91 701 211 
Q 384 513 384 1019 
Q 384 1609 779 1909 
Q 1175 2209 1959 2209 
L 2766 2209 
L 2766 2266 
Q 2766 2663 2505 2880 
Q 2244 3097 1772 3097 
Q 1472 3097 1187 3025 
Q 903 2953 641 2809 
L 641 3341 
Q 956 3463 1253 3523 
Q 1550 3584 1831 3584 
Q 2591 3584 2966 3190 
Q 3341 2797 3341 1997 
z
" transform="scale(0.015625)"/>
       <path id="DejaVuSans-73" d="M 2834 3397 
L 2834 2853 
Q 2591 2978 2328 3040 
Q 2066 3103 1784 3103 
Q 1356 3103 1142 2972 
Q 928 2841 928 2578 
Q 928 2378 1081 2264 
Q 1234 2150 1697 2047 
L 1894 2003 
Q 2506 1872 2764 1633 
Q 3022 1394 3022 966 
Q 3022 478 2636 193 
Q 2250 -91 1575 -91 
Q 1294 -91 989 -36 
Q 684 19 347 128 
L 347 722 
Q 666 556 975 473 
Q 1284 391 1588 391 
Q 1994 391 2212 530 
Q 2431 669 2431 922 
Q 2431 1156 2273 1281 
Q 2116 1406 1581 1522 
L 1381 1569 
Q 847 1681 609 1914 
Q 372 2147 372 2553 
Q 372 3047 722 3315 
Q 1072 3584 1716 3584 
Q 2034 3584 2315 3537 
Q 2597 3491 2834 3397 
z
" transform="scale(0.015625)"/>
       <path id="DejaVuSans-6b" d="M 581 4863 
L 1159 4863 
L 1159 1991 
L 2875 3500 
L 3609 3500 
L 1753 1863 
L 3688 0 
L 2938 0 
L 1159 1709 
L 1159 0 
L 581 0 
L 581 4863 
z
" transform="scale(0.015625)"/>
       <path id="DejaVuSans-65" d="M 3597 1894 
L 3597 1613 
L 953 1613 
Q 991 1019 1311 708 
Q 1631 397 2203 397 
Q 2534 397 2845 478 
Q 3156 559 3463 722 
L 3463 178 
Q 3153 47 2828 -22 
Q 2503 -91 2169 -91 
Q 1331 -91 842 396 
Q 353 884 353 1716 
Q 353 2575 817 3079 
Q 1281 3584 2069 3584 
Q 2775 3584 3186 3129 
Q 3597 2675 3597 1894 
z
M 3022 2063 
Q 3016 2534 2758 2815 
Q 2500 3097 2075 3097 
Q 1594 3097 1305 2825 
Q 1016 2553 972 2059 
L 3022 2063 
z
" transform="scale(0.015625)"/>
       <path id="DejaVuSans-6c" d="M 603 4863 
L 1178 4863 
L 1178 0 
L 603 0 
L 603 4863 
z
" transform="scale(0.015625)"/>
       <path id="DejaVuSans-34" d="M 2419 4116 
L 825 1625 
L 2419 1625 
L 2419 4116 
z
M 2253 4666 
L 3047 4666 
L 3047 1625 
L 3713 1625 
L 3713 1100 
L 3047 1100 
L 3047 0 
L 2419 0 
L 2419 1100 
L 313 1100 
L 313 1709 
L 2253 4666 
z
" transform="scale(0.015625)"/>
       <path id="DejaVuSans-36" d="M 2113 2584 
Q 1688 2584 1439 2293 
Q 1191 2003 1191 1497 
Q 1191 994 1439 701 
Q 1688 409 2113 409 
Q 2538 409 2786 701 
Q 3034 994 3034 1497 
Q 3034 2003 2786 2293 
Q 2538 2584 2113 2584 
z
M 3366 4563 
L 3366 3988 
Q 3128 4100 2886 4159 
Q 2644 4219 2406 4219 
Q 1781 4219 1451 3797 
Q 1122 3375 1075 2522 
Q 1259 2794 1537 2939 
Q 1816 3084 2150 3084 
Q 2853 3084 3261 2657 
Q 3669 2231 3669 1497 
Q 3669 778 3244 343 
Q 2819 -91 2113 -91 
Q 1303 -91 875 529 
Q 447 1150 447 2328 
Q 447 3434 972 4092 
Q 1497 4750 2381 4750 
Q 2619 4750 2861 4703 
Q 3103 4656 3366 4563 
z
" transform="scale(0.015625)"/>
      </defs>
      <use xlink:href="#DejaVuSans-48"/>
      <use xlink:href="#DejaVuSans-61" x="75.195312"/>
      <use xlink:href="#DejaVuSans-73" x="136.474609"/>
      <use xlink:href="#DejaVuSans-6b" x="188.574219"/>
      <use xlink:href="#DejaVuSans-65" x="242.859375"/>
      <use xlink:href="#DejaVuSans-6c" x="304.382812"/>
      <use xlink:href="#DejaVuSans-6c" x="332.166016"/>
      <use xlink:href="#DejaVuSans-20" x="359.949219"/>
      <use xlink:href="#DejaVuSans-34" x="391.736328"/>
      <use xlink:href="#DejaVuSans-2e" x="455.359375"/>
      <use xlink:href="#DejaVuSans-36" x="487.146484"/>
      <use xlink:href="#DejaVuSans-25" x="550.769531"/>
     </g>
    </g>
    <g id="patch_14">
     <path d="M 33.649375 226.3275 
L 49.649375 226.3275 
L 49.649375 220.7275 
L 33.649375 220.7275 
z
" style="fill: #555555"/>
    </g>
    <g id="text_3">
     <!-- C 12.0% -->
     <g transform="translate(56.049375 226.3275) scale(0.08 -0.08)">
      <defs>
       <path id="DejaVuSans-30" d="M 2034 4250 
Q 1547 4250 1301 3770 
Q 1056 3291 1056 2328 
Q 1056 1369 1301 889 
Q 1547 409 2034 409 
Q 2525 409 2770 889 
Q 3016 1369 3016 2328 
Q 3016 3291 2770 3770 
Q 2525 4250 2034 4250 
z
M 2034 4750 
Q 2819 4750 3233 4129 
Q 3647 3509 3647 2328 
Q 3647 1150 3233 529 
Q 2819 -91 2034 -91 
Q 1250 -91 836 529 
Q 422 1150 422 2328 
Q 422 3509 836 4129 
Q 1250 4750 2034 4750 
z
" transform="scale(0.015625)"/>
      </defs>
      <use xlink:href="#DejaVuSans-43"/>
      <use xlink:href="#DejaVuSans-20" x="69.824219"/>
      <use xlink:href="#DejaVuSans-31" x="101.611328"/>
      <use xlink:href="#DejaVuSans-32" x="165.234375"/>
      <use xlink:href="#DejaVuSans-2e" x="228.857422"/>
      <use xlink:href="#DejaVuSans-30" x="260.644531"/>
      <use xlink:href="#DejaVuSans-25" x="324.267578"/>
     </g>
    </g>
    <g id="patch_15">
     <path d="M 123.711875 202.8425 
L 139.711875 202.8425 
L 139.711875 197.2425 
L 123.711875 197.2425 
z
" style="fill: #3178c6"/>
    </g>
    <g id="text_4">
     <!-- TypeScript 12.9% -->
     <g transform="translate(146.111875 202.8425) scale(0.08 -0.08)">
      <defs>
       <path id="DejaVuSans-54" d="M -19 4666 
L 3928 4666 
L 3928 4134 
L 2272 4134 
L 2272 0 
L 1638 0 
L 1638 4134 
L -19 4134 
L -19 4666 
z
" transform="scale(0.015625)"/>
       <path id="DejaVuSans-79" d="M 2059 -325 
Q 1816 -950 1584 -1140 
Q 1353 -1331 966 -1331 
L 506 -1331 
L 506 -850 
L 844 -850 
Q 1081 -850 1212 -737 
Q 1344 -625 1503 -206 
L 1606 56 
L 191 3500 
L 800 3500 
L 1894 763 
L 2988 3500 
L 3597 3500 
L 2059 -325 
z
" transform="scale(0.015625)"/>
       <path id="DejaVuSans-70" d="M 1159 525 
L 1159 -1331 
L 581 -1331 
L 581 3500 
L 1159 3500 
L 1159 2969 
Q 1341 3281 1617 3432 
Q 1894 3584 2278 3584 
Q 2916 3584 3314 3078 
Q 3713 2572 3713 1747 
Q 3713 922 3314 415 
Q 2916 -91 2278 -91 
Q 1894 -91 1617 61 
Q 1341 213 1159 525 
z
M 3116 1747 
Q 3116 2381 2855 2742 
Q 2594 3103 2138 3103 
Q 1681 3103 1420 2742 
Q 1159 2381 1159 1747 
Q 1159 1113 1420 752 
Q 1681 391 2138 391 
Q 2594 391 2855 752 
Q 3116 1113 3116 1747 
z
" transform="scale(0.015625)"/>
       <path id="DejaVuSans-53" d="M 3425 4513 
L 3425 3897 
Q 3066 4069 2747 4153 
Q 2428 4238 2131 4238 
Q 1616 4238 1336 4038 
Q 1056 3838 1056 3469 
Q 1056 3159 1242 3001 
Q 1428 2844 1947 2747 
L 2328 2669 
Q 3034 2534 3370 2195 
Q 3706 1856 3706 1288 
Q 3706 609 3251 259 
Q 2797 -91 1919 -91 
Q 1588 -91 1214 -16 
Q 841 59 441 206 
L 441 856 
Q 825 641 1194 531 
Q 1563 422 1919 422 
Q 2459 422 2753 634 
Q 3047 847 3047 1241 
Q 3047 1584 2836 1778 
Q 2625 1972 2144 2069 
L 1759 2144 
Q 1053 2284 737 2584 
Q 422 2884 422 3419 
Q 422 4038 858 4394 
Q 1294 4750 2059 4750 
Q 2388 4750 2728 4690 
Q 3069 4631 3425 4513 
z
" transform="scale(0.015625)"/>
       <path id="DejaVuSans-63" d="M 3122 3366 
L 3122 2828 
Q 2878 2963 2633 3030 
Q 2388 3097 2138 3097 
Q 1578 3097 1268 2742 
Q 959 2388 959 1747 
Q 959 1106 1268 751 
Q 1578 397 2138 397 
Q 2388 397 2633 464 
Q 2878 531 3122 666 
L 3122 134 
Q 2881 22 2623 -34 
Q 2366 -91 2075 -91 
Q 1284 -91 818 406 
Q 353 903 353 1747 
Q 353 2603 823 3093 
Q 1294 3584 2113 3584 
Q 2378 3584 2631 3529 
Q 2884 3475 3122 3366 
z
" transform="scale(0.015625)"/>
       <path id="DejaVuSans-72" d="M 2631 2963 
Q 2534 3019 2420 3045 
Q 2306 3072 2169 3072 
Q 1681 3072 1420 2755 
Q 1159 2438 1159 1844 
L 1159 0 
L 581 0 
L 581 3500 
L 1159 3500 
L 1159 2956 
Q 1341 3275 1631 3429 
Q 1922 3584 2338 3584 
Q 2397 3584 2469 3576 
Q 2541 3569 2628 3553 
L 2631 2963 
z
" transform="scale(0.015625)"/>
       <path id="DejaVuSans-69" d="M 603 3500 
L 1178 3500 
L 1178 0 
L 603 0 
L 603 3500 
z
M 603 4863 
L 1178 4863 
L 1178 4134 
L 603 4134 
L 603 4863 
z
" transform="scale(0.015625)"/>
       <path id="DejaVuSans-74" d="M 1172 4494 
L 1172 3500 
L 2356 3500 
L 2356 3053 
L 1172 3053 
L 1172 1153 
Q 1172 725 1289 603 
Q 1406 481 1766 481 
L 2356 481 
L 2356 0 
L 1766 0 
Q 1100 0 847 248 
Q 594 497 594 1153 
L 594 3053 
L 172 3053 
L 172 3500 
L 594 3500 
L 594 4494 
L 1172 4494 
z
" transform="scale(0.015625)"/>
       <path id="DejaVuSans-39" d="M 703 97 
L 703 672 
Q 941 559 1184 500 
Q 1428 441 1663 441 
Q 2288 441 2617 861 
Q 2947 1281 2994 2138 
Q 2813 1869 2534 1725 
Q 2256 1581 1919 1581 
Q 1219 1581 811 2004 
Q 403 2428 403 3163 
Q 403 3881 828 4315 
Q 1253 4750 1959 4750 
Q 2769 4750 3195 4129 
Q 3622 3509 3622 2328 
Q 3622 1225 3098 567 
Q 2575 -91 1691 -91 
Q 1453 -91 1209 -44 
Q 966 3 703 97 
z
M 1959 2075 
Q 2384 2075 2632 2365 
Q 2881 2656 2881 3163 
Q 2881 3666 2632 3958 
Q 2384 4250 1959 4250 
Q 1534 4250 1286 3958 
Q 1038 3666 1038 3163 
Q 1038 2656 1286 2365 
Q 1534 2075 1959 2075 
z
" transform="scale(0.015625)"/>
      </defs>
      <use xlink:href="#DejaVuSans-54"/>
      <use xlink:href="#DejaVuSans-79" x="45.458984"/>
      <use xlink:href="#DejaVuSans-70" x="104.638672"/>
      <use xlink:href="#DejaVuSans-65" x="168.115234"/>
      <use xlink:href="#DejaVuSans-53" x="229.638672"/>
      <use xlink:href="#DejaVuSans-63" x="293.115234"/>
      <use xlink:href="#DejaVuSans-72" x="348.095703"/>
      <use xlink:href="#DejaVuSans-69" x="389.208984"/>
      <use xlink:href="#DejaVuSans-70" x="416.992188"/>
      <use xlink:href="#DejaVuSans-74" x="480.46875"/>
      <use xlink:href="#DejaVuSans-20" x="519.677734"/>
      <use xlink:href="#DejaVuSans-31" x="551.464844"/>
      <use xlink:href="#DejaVuSans-32" x="615.087891"/>
      <use xlink:href="#DejaVuSans-2e" x="678.710938"/>
      <use xlink:href="#DejaVuSans-39" x="710.498047"/>
      <use xlink:href="#DejaVuSans-25" x="774.121094"/>
     </g>
    </g>
    <g id="patch_16">
     <path d="M 123.711875 214.585 
L 139.711875 214.585 
L 139.711875 208.985 
L 123.711875 208.985 
z
" style="fill: #89e051"/>
    </g>
    <g id="text_5">
     <!-- Shell 1.6% -->
     <g transform="translate(146.111875 214.585) scale(0.08 -0.08)">
      <defs>
       <path id="DejaVuSans-68" d="M 3513 2113 
L 3513 0 
L 2938 0 
L 2938 2094 
Q 2938 2591 2744 2837 
Q 2550 3084 2163 3084 
Q 1697 3084 1428 2787 
Q 1159 2491 1159 1978 
L 1159 0 
L 581 0 
L 581 4863 
L 1159 4863 
L 1159 2956 
Q 1366 3272 1645 3428 
Q 1925 3584 2291 3584 
Q 2894 3584 3203 3211 
Q 3513 2838 3513 2113 
z
" transform="scale(0.015625)"/>
      </defs>
      <use xlink:href="#DejaVuSans-53"/>
      <use xlink:href="#DejaVuSans-68" x="63.476562"/>
      <use xlink:href="#DejaVuSans-65" x="126.855469"/>
      <use xlink:href="#DejaVuSans-6c" x="188.378906"/>
      <use xlink:href="#DejaVuSans-6c" x="216.162109"/>
      <use xlink:href="#DejaVuSans-20" x="243.945312"/>
      <use xlink:href="#DejaVuSans-31" x="275.732422"/>
      <use xlink:href="#DejaVuSans-2e" x="339.355469"/>
      <use xlink:href="#DejaVuSans-36" x="371.142578"/>
      <use xlink:href="#DejaVuSans-25" x="434.765625"/>
     </g>
    </g>
    <g id="patch_17">
     <path d="M 231.644375 202.8425 
L 247.644375 202.8425 
L 247.644375 197.2425 
L 231.644375 197.2425 
z
" style="fill: #00add8"/>
    </g>
    <g id="text_6">
     <!-- Go 10.1% -->
     <g transform="translate(254.044375 202.8425) scale(0.08 -0.08)">
      <defs>
       <path id="DejaVuSans-47" d="M 3809 666 
L 3809 1919 
L 2778 1919 
L 2778 2438 
L 4434 2438 
L 4434 434 
Q 4069 175 3628 42 
Q 3188 -91 2688 -91 
Q 1594 -91 976 548 
Q 359 1188 359 2328 
Q 359 3472 976 4111 
Q 1594 4750 2688 4750 
Q 3144 4750 3555 4637 
Q 3966 4525 4313 4306 
L 4313 3634 
Q 3963 3931 3569 4081 
Q 3175 4231 2741 4231 
Q 1884 4231 1454 3753 
Q 1025 3275 1025 2328 
Q 1025 1384 1454 906 
Q 1884 428 2741 428 
Q 3075 428 3337 486 
Q 3600 544 3809 666 
z
" transform="scale(0.015625)"/>
       <path id="DejaVuSans-6f" d="M 1959 3097 
Q 1497 3097 1228 2736 
Q 959 2375 959 1747 
Q 959 1119 1226 758 
Q 1494 397 1959 397 
Q 2419 397 2687 759 
Q 2956 1122 2956 1747 
Q 2956 2369 2687 2733 
Q 2419 3097 1959 3097 
z
M 1959 3584 
Q 2709 3584 3137 3096 
Q 3566 2609 3566 1747 
Q 3566 888 3137 398 
Q 2709 -91 1959 -91 
Q 1206 -91 779 398 
Q 353 888 353 1747 
Q 353 2609 779 3096 
Q 1206 3584 1959 3584 
z
" transform="scale(0.015625)"/>
      </defs>
      <use xlink:href="#DejaVuSans-47"/>
      <use xlink:href="#DejaVuSans-6f" x="77.490234"/>
      <use xlink:href="#DejaVuSans-20" x="138.671875"/>
      <use xlink:href="#DejaVuSans-31" x="170.458984"/>
      <use xlink:href="#DejaVuSans-30" x="234.082031"/>
      <use xlink:href="#DejaVuSans-2e" x="297.705078"/>
      <use xlink:href="#DejaVuSans-31" x="329.492188"/>
      <use xlink:href="#DejaVuSans-25" x="393.115234"/>
     </g>
    </g>
    <g id="patch_18">
     <path d="M 231.644375 214.585 
L 247.644375 214.585 
L 247.644375 208.985 
L 231.644375 208.985 
z
" style="fill: #000080"/>
    </g>
    <g id="text_7">
     <!-- Lua 5.8% -->
     <g transform="translate(254.044375 214.585) scale(0.08 -0.08)">
      <defs>
       <path id="DejaVuSans-4c" d="M 628 4666 
L 1259 4666 
L 1259 531 
L 3531 531 
L 3531 0 
L 628 0 
L 628 4666 
z
" transform="scale(0.015625)"/>
       <path id="DejaVuSans-75" d="M 544 1381 
L 544 3500 
L 1119 3500 
L 1119 1403 
Q 1119 906 1312 657 
Q 1506 409 1894 409 
Q 2359 409 2629 706 
Q 2900 1003 2900 1516 
L 2900 3500 
L 3475 3500 
L 3475 0 
L 2900 0 
L 2900 538 
Q 2691 219 2414 64 
Q 2138 -91 1772 -91 
Q 1169 -91 856 284 
Q 544 659 544 1381 
z
M 1991 3584 
L 1991 3584 
z
" transform="scale(0.015625)"/>
       <path id="DejaVuSans-35" d="M 691 4666 
L 3169 4666 
L 3169 4134 
L 1269 4134 
L 1269 2991 
Q 1406 3038 1543 3061 
Q 1681 3084 1819 3084 
Q 2600 3084 3056 2656 
Q 3513 2228 3513 1497 
Q 3513 744 3044 326 
Q 2575 -91 1722 -91 
Q 1428 -91 1123 -41 
Q 819 9 494 109 
L 494 744 
Q 775 591 1075 516 
Q 1375 441 1709 441 
Q 2250 441 2565 725 
Q 2881 1009 2881 1497 
Q 2881 1984 2565 2268 
Q 2250 2553 1709 2553 
Q 1456 2553 1204 2497 
Q 953 2441 691 2322 
L 691 4666 
z
" transform="scale(0.015625)"/>
       <path id="DejaVuSans-38" d="M 2034 2216 
Q 1584 2216 1326 1975 
Q 1069 1734 1069 1313 
Q 1069 891 1326 650 
Q 1584 409 2034 409 
Q 2484 409 2743 651 
Q 3003 894 3003 1313 
Q 3003 1734 2745 1975 
Q 2488 2216 2034 2216 
z
M 1403 2484 
Q 997 2584 770 2862 
Q 544 3141 544 3541 
Q 544 4100 942 4425 
Q 1341 4750 2034 4750 
Q 2731 4750 3128 4425 
Q 3525 4100 3525 3541 
Q 3525 3141 3298 2862 
Q 3072 2584 2669 2484 
Q 3125 2378 3379 2068 
Q 3634 1759 3634 1313 
Q 3634 634 3220 271 
Q 2806 -91 2034 -91 
Q 1263 -91 848 271 
Q 434 634 434 1313 
Q 434 1759 690 2068 
Q 947 2378 1403 2484 
z
M 1172 3481 
Q 1172 3119 1398 2916 
Q 1625 2713 2034 2713 
Q 2441 2713 2670 2916 
Q 2900 3119 2900 3481 
Q 2900 3844 2670 4047 
Q 2441 4250 2034 4250 
Q 1625 4250 1398 4047 
Q 1172 3844 1172 3481 
z
" transform="scale(0.015625)"/>
      </defs>
      <use xlink:href="#DejaVuSans-4c"/>
      <use xlink:href="#DejaVuSans-75" x="53.962891"/>
      <use xlink:href="#DejaVuSans-61" x="117.341797"/>
      <use xlink:href="#DejaVuSans-20" x="178.621094"/>
      <use xlink:href="#DejaVuSans-35" x="210.408203"/>
      <use xlink:href="#DejaVuSans-2e" x="274.03125"/>
      <use xlink:href="#DejaVuSans-38" x="305.818359"/>
      <use xlink:href="#DejaVuSans-25" x="369.441406"/>
     </g>
    </g>
    <g id="patch_19">
     <path d="M 309.094375 202.8425 
L 325.094375 202.8425 
L 325.094375 197.2425 
L 309.094375 197.2425 
z
" style="fill: #b07219"/>
    </g>
    <g id="text_8">
     <!-- Java 16.6% -->
     <g transform="translate(331.494375 202.8425) scale(0.08 -0.08)">
      <defs>
       <path id="DejaVuSans-4a" d="M 628 4666 
L 1259 4666 
L 1259 325 
Q 1259 -519 939 -900 
Q 619 -1281 -91 -1281 
L -331 -1281 
L -331 -750 
L -134 -750 
Q 284 -750 456 -515 
Q 628 -281 628 325 
L 628 4666 
z
" transform="scale(0.015625)"/>
       <path id="DejaVuSans-76" d="M 191 3500 
L 800 3500 
L 1894 563 
L 2988 3500 
L 3597 3500 
L 2284 0 
L 1503 0 
L 191 3500 
z
" transform="scale(0.015625)"/>
      </defs>
      <use xlink:href="#DejaVuSans-4a"/>
      <use xlink:href="#DejaVuSans-61" x="29.492188"/>
      <use xlink:href="#DejaVuSans-76" x="90.771484"/>
      <use xlink:href="#DejaVuSans-61" x="149.951172"/>
      <use xlink:href="#DejaVuSans-20" x="211.230469"/>
      <use xlink:href="#DejaVuSans-31" x="243.017578"/>
      <use xlink:href="#DejaVuSans-36" x="306.640625"/>
      <use xlink:href="#DejaVuSans-2e" x="370.263672"/>
      <use xlink:href="#DejaVuSans-36" x="402.050781"/>
      <use xlink:href="#DejaVuSans-25" x="465.673828"/>
     </g>
    </g>
    <g id="patch_20">
     <path d="M 309.094375 214.585 
L 325.094375 214.585 
L 325.094375 208.985 
L 309.094375 208.985 
z
" style="fill: #178600"/>
    </g>
    <g id="text_9">
     <!-- C# 14.4% -->
     <g transform="translate(331.494375 214.585) scale(0.08 -0.08)">
      <defs>
       <path id="DejaVuSans-23" d="M 3272 2816 
L 2363 2816 
L 2100 1772 
L 3016 1772 
L 3272 2816 
z
M 2803 4594 
L 2478 3297 
L 3391 3297 
L 3719 4594 
L 4219 4594 
L 3897 3297 
L 4872 3297 
L 4872 2816 
L 3775 2816 
L 3519 1772 
L 4513 1772 
L 4513 1294 
L 3397 1294 
L 3072 0 
L 2572 0 
L 2894 1294 
L 1978 1294 
L 1656 0 
L 1153 0 
L 1478 1294 
L 494 1294 
L 494 1772 
L 1594 1772 
L 1856 2816 
L 850 2816 
L 850 3297 
L 1978 3297 
L 2297 4594 
L 2803 4594 
z
" transform="scale(0.015625)"/>
      </defs>
      <use xlink:href="#DejaVuSans-43"/>
      <use xlink:href="#DejaVuSans-23" x="69.824219"/>
      <use xlink:href="#DejaVuSans-20" x="153.613281"/>
      <use xlink:href="#DejaVuSans-31" x="185.400391"/>
      <use xlink:href="#DejaVuSans-34" x="249.023438"/>
      <use xlink:href="#DejaVuSans-2e" x="312.646484"/>
      <use xlink:href="#DejaVuSans-34" x="344.433594"/>
      <use xlink:href="#DejaVuSans-25" x="408.056641"/>
     </g>
    </g>
   </g>
  </g>
 </g>
 <defs>
  <clipPath id="p72ac1ea507">
   <path d="M 291.625 113.625 
C 291.625 102.249509 289.384276 90.984631 285.031065 80.475048 
C 280.677853 69.965465 274.296812 60.415562 266.253125 52.371875 
C 258.209438 44.328188 248.659535 37.947147 238.149952 33.593935 
C 227.640369 29.240724 216.375491 27 205 27 
C 193.624509 27 182.359631 29.240724 171.850048 33.593935 
C 161.340465 37.947147 151.790562 44.328188 143.746875 52.371875 
C 135.703188 60.415562 129.322147 69.965465 124.968935 80.475048 
C 120.615724 90.984631 118.375 102.249509 118.375 113.625 
C 118.375 125.000491 120.615724 136.265369 124.968935 146.774952 
C 129.322147 157.284535 135.703188 166.834438 143.746875 174.878125 
C 151.790562 182.921812 161.340465 189.302853 171.850048 193.656065 
C 182.359631 198.009276 193.624509 200.25 205 200.25 
C 216.375491 200.25 227.640369 198.009276 238.149952 193.656065 
C 248.659535 189.302853 258.209438 182.921812 266.253125 174.878125 
C 274.296812 166.834438 280.677853 157.284535 285.031065 146.774952 
C 289.384276 136.265369 291.625 125.000491 291.625 113.625 
M 205 113.625 
C 205 113.625 205 113.625 205 113.625 
C 205 113.625 205 113.625 205 113.625 
C 205 113.625 205 113.625 205 113.625 
C 205 113.625 205 113.625 205 113.625 
C 205 113.625 205 113.625 205 113.625 
C 205 113.625 205 113.625 205 113.625 
C 205 113.625 205 113.625 205 113.625 
C 205 113.625 205 113.625 205 113.625 
C 205 113.625 205 113.625 205 113.625 
C 205 113.625 205 113.625 205 113.625 
C 205 113.625 205 113.625 205 113.625 
C 205 113.625 205 113.625 205 113.625 
C 205 113.625 205 113.625 205 113.625 
C 205 113.625 205 113.625 205 113.625 
C 205 113.625 205 113.625 205 113.625 
C 205 113.625 205 113.625 205 113.625 
z
"/>
  </clipPath>
 </defs>
</svg>
