<?xml version="1.0" encoding="utf-8" standalone="no"?>
<!DOCTYPE svg PUBLIC "-//W3C//DTD SVG 1.1//EN"
  "http://www.w3.org/Graphics/SVG/1.1/DTD/svg11.dtd">
<svg xmlns:xlink="http://www.w3.org/1999/xlink" width="480pt" height="240pt" viewBox="0 0 480 240" xmlns="http://www.w3.org/2000/svg" version="1.1">
 <metadata>
  <rdf:RDF xmlns:dc="http://purl.org/dc/elements/1.1/" xmlns:cc="http://creativecommons.org/ns#" xmlns:rdf="http://www.w3.org/1999/02/22-rdf-syntax-ns#">
   <cc:Work>
    <dc:type rdf:resource="http://purl.org/dc/dcmitype/StillImage"/>
    <dc:date>2025-12-15T12:57:13.668354</dc:date>
    <dc:format>image/svg+xml</dc:format>
    <dc:creator>
     <cc:Agent>
      <dc:title>Matplotlib v3.10.8, https://matplotlib.org/</dc:title>
     </cc:Agent>
    </dc:creator>
   </cc:Work>
  </rdf:RDF>
 </metadata>
 <defs>
  <style type="text/css">*{stroke-linejoin: round; stroke-linecap: butt}</style>
 </defs>
 <g id="figure_1">
  <g id="patch_1">
   <path d="M 0 240 
L 480 240 
L 480 0 
L 0 0 
L 0 240 
z
" style="fill: none"/>
  </g>
  <g id="axes_1">
   <g id="patch_2">
    <path d="M 294.275862 98.8 
C 294.275862 88.072004 290.699855 77.644109 284.116241 69.173812 
C 277.532628 60.703515 268.309742 54.664706 257.913548 52.017244 
L 263.019355 31.967492 
C 277.87106 35.74958 291.046611 44.37645 300.451773 56.476874 
C 309.856935 68.577298 314.965517 83.474292 314.965517 98.8 
z
" clip-path="url(#p26186c5f99)" style="fill: #3178c6"/>
   </g>
   <g id="patch_3">
    <path d="M 257.913548 52.017244 
C 253.067961 50.783282 248.059944 50.309611 243.068931 50.6132 
C 238.077917 50.91679 233.164235 51.993971 228.503936 53.806149 
C 223.843636 55.618328 219.493051 58.1436 215.608055 61.291487 
C 211.72306 64.439374 208.350614 68.171827 205.611549 72.355116 
C 202.872484 76.538404 200.799908 81.121964 199.468079 85.941571 
C 198.13625 90.761179 197.561266 95.758577 197.763728 100.754714 
C 197.96619 105.750852 198.943651 110.685339 200.66109 115.381378 
C 202.378529 120.077418 204.815186 124.478247 207.883759 128.426188 
C 210.952332 132.37413 214.615729 135.821464 218.742696 138.644676 
C 222.869662 141.467889 227.410314 143.632854 232.201964 145.062005 
C 236.993614 146.491155 241.978345 147.167215 246.977558 147.065964 
C 251.97677 146.964712 256.930039 146.087371 261.659892 144.465377 
C 266.389746 142.843382 270.839013 140.496339 274.848282 137.508338 
C 278.857551 134.520338 282.37836 130.927498 285.284562 126.858546 
C 288.190764 122.789594 290.447232 118.293713 291.973117 113.531985 
C 293.499002 108.770257 294.275862 103.800238 294.275862 98.8 
L 314.965517 98.8 
C 314.965517 105.943197 313.855718 113.043224 311.675881 119.845693 
C 309.496045 126.648161 306.272521 133.070849 302.120803 138.883638 
C 297.969086 144.696426 292.939359 149.829055 287.211832 154.097626 
C 281.484305 158.366198 275.128209 161.719117 268.371275 164.036252 
C 261.614341 166.353388 254.538243 167.606731 247.396511 167.751377 
C 240.254778 167.896022 233.133735 166.930221 226.28852 164.888578 
C 219.443306 162.846935 212.956661 159.754127 207.060994 155.720966 
C 201.165327 151.687805 195.931902 146.763042 191.548227 141.123126 
C 187.164552 135.483209 183.683613 129.196311 181.230129 122.487683 
C 178.776645 115.779056 177.380271 108.729788 177.09104 101.592449 
C 176.801808 94.455109 177.623214 87.315969 179.525827 80.430816 
C 181.42844 73.545663 184.389263 66.997721 188.302213 61.021594 
C 192.215163 55.045467 197.032943 49.713391 202.582936 45.21641 
C 208.132929 40.719428 214.348052 37.111897 221.005622 34.523071 
C 227.663193 31.934244 234.682739 30.395414 241.812758 29.961714 
C 248.942777 29.528015 256.097087 30.204689 263.019355 31.967492 
z
" clip-path="url(#p26186c5f99)" style="fill: #f1e05a"/>
   </g>
  </g>
  <g id="axes_2">
   <g id="legend_1">
    <g id="patch_4">
     <path d="M 145.20375 206.67125 
L 346.79625 206.67125 
Q 348.39625 206.67125 348.39625 205.07125 
L 348.39625 194.12875 
Q 348.39625 192.52875 346.79625 192.52875 
L 145.20375 192.52875 
Q 143.60375 192.52875 143.60375 194.12875 
L 143.60375 205.07125 
Q 143.60375 206.67125 145.20375 206.67125 
z
" style="fill: #ffffff; opacity: 0.8; stroke: #cccccc; stroke-linejoin: miter"/>
    </g>
    <g id="patch_5">
     <path d="M 146.80375 201.8075 
L 162.80375 201.8075 
L 162.80375 196.2075 
L 146.80375 196.2075 
z
" style="fill: #3178c6"/>
    </g>
    <g id="text_1">
     <!-- TypeScript 21.0% -->
     <g transform="translate(169.20375 201.8075) scale(0.08 -0.08)">
      <defs>
       <path id="DejaVuSans-54" d="M -19 4666 
L 3928 4666 
L 3928 4134 
L 2272 4134 
L 2272 0 
L 1638 0 
L 1638 4134 
L -19 4134 
L -19 4666 
z
" transform="scale(0.015625)"/>
       <path id="DejaVuSans-79" d="M 2059 -325 
Q 1816 -950 1584 -1140 
Q 1353 -1331 966 -1331 
L 506 -1331 
L 506 -850 
L 844 -850 
Q 1081 -850 1212 -737 
Q 1344 -625 1503 -206 
L 1606 56 
L 191 3500 
L 800 3500 
L 1894 763 
L 2988 3500 
L 3597 3500 
L 2059 -325 
z
" transform="scale(0.015625)"/>
       <path id="DejaVuSans-70" d="M 1159 525 
L 1159 -1331 
L 581 -1331 
L 581 3500 
L 1159 3500 
L 1159 2969 
Q 1341 3281 1617 3432 
Q 1894 3584 2278 3584 
Q 2916 3584 3314 3078 
Q 3713 2572 3713 1747 
Q 3713 922 3314 415 
Q 2916 -91 2278 -91 
Q 1894 -91 1617 61 
Q 1341 213 1159 525 
z
M 3116 1747 
Q 3116 2381 2855 2742 
Q 2594 3103 2138 3103 
Q 1681 3103 1420 2742 
Q 1159 2381 1159 1747 
Q 1159 1113 1420 752 
Q 1681 391 2138 391 
Q 2594 391 2855 752 
Q 3116 1113 3116 1747 
z
" transform="scale(0.015625)"/>
       <path id="DejaVuSans-65" d="M 3597 1894 
L 3597 1613 
L 953 1613 
Q 991 1019 1311 708 
Q 1631 397 2203 397 
Q 2534 397 2845 478 
Q 3156 559 3463 722 
L 3463 178 
Q 3153 47 2828 -22 
Q 2503 -91 2169 -91 
Q 1331 -91 842 396 
Q 353 884 353 1716 
Q 353 2575 817 3079 
Q 1281 3584 2069 3584 
Q 2775 3584 3186 3129 
Q 3597 2675 3597 1894 
z
M 3022 2063 
Q 3016 2534 2758 2815 
Q 2500 3097 2075 3097 
Q 1594 3097 1305 2825 
Q 1016 2553 972 2059 
L 3022 2063 
z
" transform="scale(0.015625)"/>
       <path id="DejaVuSans-53" d="M 3425 4513 
L 3425 3897 
Q 3066 4069 2747 4153 
Q 2428 4238 2131 4238 
Q 1616 4238 1336 4038 
Q 1056 3838 1056 3469 
Q 1056 3159 1242 3001 
Q 1428 2844 1947 2747 
L 2328 2669 
Q 3034 2534 3370 2195 
Q 3706 1856 3706 1288 
Q 3706 609 3251 259 
Q 2797 -91 1919 -91 
Q 1588 -91 1214 -16 
Q 841 59 441 206 
L 441 856 
Q 825 641 1194 531 
Q 1563 422 1919 422 
Q 2459 422 2753 634 
Q 3047 847 3047 1241 
Q 3047 1584 2836 1778 
Q 2625 1972 2144 2069 
L 1759 2144 
Q 1053 2284 737 2584 
Q 422 2884 422 3419 
Q 422 4038 858 4394 
Q 1294 4750 2059 4750 
Q 2388 4750 2728 4690 
Q 3069 4631 3425 4513 
z
" transform="scale(0.015625)"/>
       <path id="DejaVuSans-63" d="M 3122 3366 
L 3122 2828 
Q 2878 2963 2633 3030 
Q 2388 3097 2138 3097 
Q 1578 3097 1268 2742 
Q 959 2388 959 1747 
Q 959 1106 1268 751 
Q 1578 397 2138 397 
Q 2388 397 2633 464 
Q 2878 531 3122 666 
L 3122 134 
Q 2881 22 2623 -34 
Q 2366 -91 2075 -91 
Q 1284 -91 818 406 
Q 353 903 353 1747 
Q 353 2603 823 3093 
Q 1294 3584 2113 3584 
Q 2378 3584 2631 3529 
Q 2884 3475 3122 3366 
z
" transform="scale(0.015625)"/>
       <path id="DejaVuSans-72" d="M 2631 2963 
Q 2534 3019 2420 3045 
Q 2306 3072 2169 3072 
Q 1681 3072 1420 2755 
Q 1159 2438 1159 1844 
L 1159 0 
L 581 0 
L 581 3500 
L 1159 3500 
L 1159 2956 
Q 1341 3275 1631 3429 
Q 1922 3584 2338 3584 
Q 2397 3584 2469 3576 
Q 2541 3569 2628 3553 
L 2631 2963 
z
" transform="scale(0.015625)"/>
       <path id="DejaVuSans-69" d="M 603 3500 
L 1178 3500 
L 1178 0 
L 603 0 
L 603 3500 
z
M 603 4863 
L 1178 4863 
L 1178 4134 
L 603 4134 
L 603 4863 
z
" transform="scale(0.015625)"/>
       <path id="DejaVuSans-74" d="M 1172 4494 
L 1172 3500 
L 2356 3500 
L 2356 3053 
L 1172 3053 
L 1172 1153 
Q 1172 725 1289 603 
Q 1406 481 1766 481 
L 2356 481 
L 2356 0 
L 1766 0 
Q 1100 0 847 248 
Q 594 497 594 1153 
L 594 3053 
L 172 3053 
L 172 3500 
L 594 3500 
L 594 4494 
L 1172 4494 
z
" transform="scale(0.015625)"/>
       <path id="DejaVuSans-20" transform="scale(0.015625)"/>
       <path id="DejaVuSans-32" d="M 1228 531 
L 3431 531 
L 3431 0 
L 469 0 
L 469 531 
Q 828 903 1448 1529 
Q 2069 2156 2228 2338 
Q 2531 2678 2651 2914 
Q 2772 3150 2772 3378 
Q 2772 3750 2511 3984 
Q 2250 4219 1831 4219 
Q 1534 4219 1204 4116 
Q 875 4013 500 3803 
L 500 4441 
Q 881 4594 1212 4672 
Q 1544 4750 1819 4750 
Q 2544 4750 2975 4387 
Q 3406 4025 3406 3419 
Q 3406 3131 3298 2873 
Q 3191 2616 2906 2266 
Q 2828 2175 2409 1742 
Q 1991 1309 1228 531 
z
" transform="scale(0.015625)"/>
       <path id="DejaVuSans-31" d="M 794 531 
L 1825 531 
L 1825 4091 
L 703 3866 
L 703 4441 
L 1819 4666 
L 2450 4666 
L 2450 531 
L 3481 531 
L 3481 0 
L 794 0 
L 794 531 
z
" transform="scale(0.015625)"/>
       <path id="DejaVuSans-2e" d="M 684 794 
L 1344 794 
L 1344 0 
L 684 0 
L 684 794 
z
" transform="scale(0.015625)"/>
       <path id="DejaVuSans-30" d="M 2034 4250 
Q 1547 4250 1301 3770 
Q 1056 3291 1056 2328 
Q 1056 1369 1301 889 
Q 1547 409 2034 409 
Q 2525 409 2770 889 
Q 3016 1369 3016 2328 
Q 3016 3291 2770 3770 
Q 2525 4250 2034 4250 
z
M 2034 4750 
Q 2819 4750 3233 4129 
Q 3647 3509 3647 2328 
Q 3647 1150 3233 529 
Q 2819 -91 2034 -91 
Q 1250 -91 836 529 
Q 422 1150 422 2328 
Q 422 3509 836 4129 
Q 1250 4750 2034 4750 
z
" transform="scale(0.015625)"/>
       <path id="DejaVuSans-25" d="M 4653 2053 
Q 4381 2053 4226 1822 
Q 4072 1591 4072 1178 
Q 4072 772 4226 539 
Q 4381 306 4653 306 
Q 4919 306 5073 539 
Q 5228 772 5228 1178 
Q 5228 1588 5073 1820 
Q 4919 2053 4653 2053 
z
M 4653 2450 
Q 5147 2450 5437 2106 
Q 5728 1763 5728 1178 
Q 5728 594 5436 251 
Q 5144 -91 4653 -91 
Q 4153 -91 3862 251 
Q 3572 594 3572 1178 
Q 3572 1766 3864 2108 
Q 4156 2450 4653 2450 
z
M 1428 4353 
Q 1159 4353 1004 4120 
Q 850 3888 850 3481 
Q 850 3069 1003 2837 
Q 1156 2606 1428 2606 
Q 1700 2606 1854 2837 
Q 2009 3069 2009 3481 
Q 2009 3884 1853 4118 
Q 1697 4353 1428 4353 
z
M 4250 4750 
L 4750 4750 
L 1831 -91 
L 1331 -91 
L 4250 4750 
z
M 1428 4750 
Q 1922 4750 2215 4408 
Q 2509 4066 2509 3481 
Q 2509 2891 2217 2550 
Q 1925 2209 1428 2209 
Q 931 2209 642 2551 
Q 353 2894 353 3481 
Q 353 4063 643 4406 
Q 934 4750 1428 4750 
z
" transform="scale(0.015625)"/>
      </defs>
      <use xlink:href="#DejaVuSans-54"/>
      <use xlink:href="#DejaVuSans-79" transform="translate(45.458984 0)"/>
      <use xlink:href="#DejaVuSans-70" transform="translate(104.638672 0)"/>
      <use xlink:href="#DejaVuSans-65" transform="translate(168.115234 0)"/>
      <use xlink:href="#DejaVuSans-53" transform="translate(229.638672 0)"/>
      <use xlink:href="#DejaVuSans-63" transform="translate(293.115234 0)"/>
      <use xlink:href="#DejaVuSans-72" transform="translate(348.095703 0)"/>
      <use xlink:href="#DejaVuSans-69" transform="translate(389.208984 0)"/>
      <use xlink:href="#DejaVuSans-70" transform="translate(416.992188 0)"/>
      <use xlink:href="#DejaVuSans-74" transform="translate(480.46875 0)"/>
      <use xlink:href="#DejaVuSans-20" transform="translate(519.677734 0)"/>
      <use xlink:href="#DejaVuSans-32" transform="translate(551.464844 0)"/>
      <use xlink:href="#DejaVuSans-31" transform="translate(615.087891 0)"/>
      <use xlink:href="#DejaVuSans-2e" transform="translate(678.710938 0)"/>
      <use xlink:href="#DejaVuSans-30" transform="translate(710.498047 0)"/>
      <use xlink:href="#DejaVuSans-25" transform="translate(774.121094 0)"/>
     </g>
    </g>
    <g id="patch_6">
     <path d="M 254.73625 201.8075 
L 270.73625 201.8075 
L 270.73625 196.2075 
L 254.73625 196.2075 
z
" style="fill: #f1e05a"/>
    </g>
    <g id="text_2">
     <!-- JavaScript 79.0% -->
     <g transform="translate(277.13625 201.8075) scale(0.08 -0.08)">
      <defs>
       <path id="DejaVuSans-4a" d="M 628 4666 
L 1259 4666 
L 1259 325 
Q 1259 -519 939 -900 
Q 619 -1281 -91 -1281 
L -331 -1281 
L -331 -750 
L -134 -750 
Q 284 -750 456 -515 
Q 628 -281 628 325 
L 628 4666 
z
" transform="scale(0.015625)"/>
       <path id="DejaVuSans-61" d="M 2194 1759 
Q 1497 1759 1228 1600 
Q 959 1441 959 1056 
Q 959 750 1161 570 
Q 1363 391 1709 391 
Q 2188 391 2477 730 
Q 2766 1069 2766 1631 
L 2766 1759 
L 2194 1759 
z
M 3341 1997 
L 3341 0 
L 2766 0 
L 2766 531 
Q 2569 213 2275 61 
Q 1981 -91 1556 -91 
Q 1019 -91 701 211 
Q 384 513 384 1019 
Q 384 1609 779 1909 
Q 1175 2209 1959 2209 
L 2766 2209 
L 2766 2266 
Q 2766 2663 2505 2880 
Q 2244 3097 1772 3097 
Q 1472 3097 1187 3025 
Q 903 2953 641 2809 
L 641 3341 
Q 956 3463 1253 3523 
Q 1550 3584 1831 3584 
Q 2591 3584 2966 3190 
Q 3341 2797 3341 1997 
z
" transform="scale(0.015625)"/>
       <path id="DejaVuSans-76" d="M 191 3500 
L 800 3500 
L 1894 563 
L 2988 3500 
L 3597 3500 
L 2284 0 
L 1503 0 
L 191 3500 
z
" transform="scale(0.015625)"/>
       <path id="DejaVuSans-37" d="M 525 4666 
L 3525 4666 
L 3525 4397 
L 1831 0 
L 1172 0 
L 2766 4134 
L 525 4134 
L 525 4666 
z
" transform="scale(0.015625)"/>
       <path id="DejaVuSans-39" d="M 703 97 
L 703 672 
Q 941 559 1184 500 
Q 1428 441 1663 441 
Q 2288 441 2617 861 
Q 2947 1281 2994 2138 
Q 2813 1869 2534 1725 
Q 2256 1581 1919 1581 
Q 1219 1581 811 2004 
Q 403 2428 403 3163 
Q 403 3881 828 4315 
Q 1253 4750 1959 4750 
Q 2769 4750 3195 4129 
Q 3622 3509 3622 2328 
Q 3622 1225 3098 567 
Q 2575 -91 1691 -91 
Q 1453 -91 1209 -44 
Q 966 3 703 97 
z
M 1959 2075 
Q 2384 2075 2632 2365 
Q 2881 2656 2881 3163 
Q 2881 3666 2632 3958 
Q 2384 4250 1959 4250 
Q 1534 4250 1286 3958 
Q 1038 3666 1038 3163 
Q 1038 2656 1286 2365 
Q 1534 2075 1959 2075 
z
" transform="scale(0.015625)"/>
      </defs>
      <use xlink:href="#DejaVuSans-4a"/>
      <use xlink:href="#DejaVuSans-61" transform="translate(29.492188 0)"/>
      <use xlink:href="#DejaVuSans-76" transform="translate(90.771484 0)"/>
      <use xlink:href="#DejaVuSans-61" transform="translate(149.951172 0)"/>
      <use xlink:href="#DejaVuSans-53" transform="translate(211.230469 0)"/>
      <use xlink:href="#DejaVuSans-63" transform="translate(274.707031 0)"/>
      <use xlink:href="#DejaVuSans-72" transform="translate(329.6875 0)"/>
      <use xlink:href="#DejaVuSans-69" transform="translate(370.800781 0)"/>
      <use xlink:href="#DejaVuSans-70" transform="translate(398.583984 0)"/>
      <use xlink:href="#DejaVuSans-74" transform="translate(462.060547 0)"/>
      <use xlink:href="#DejaVuSans-20" transform="translate(501.269531 0)"/>
      <use xlink:href="#DejaVuSans-37" transform="translate(533.056641 0)"/>
      <use xlink:href="#DejaVuSans-39" transform="translate(596.679688 0)"/>
      <use xlink:href="#DejaVuSans-2e" transform="translate(660.302734 0)"/>
      <use xlink:href="#DejaVuSans-30" transform="translate(692.089844 0)"/>
      <use xlink:href="#DejaVuSans-25" transform="translate(755.712891 0)"/>
     </g>
    </g>
   </g>
  </g>
 </g>
 <defs>
  <clipPath id="p26186c5f99">
   <path d="M 316 98.8 
C 316 89.607684 314.189314 80.504752 310.671567 72.01216 
C 307.15382 63.519567 301.997424 55.802474 295.497475 49.302525 
C 288.997526 42.802576 281.280433 37.64618 272.78784 34.128433 
C 264.295248 30.610686 255.192316 28.8 246 28.8 
C 236.807684 28.8 227.704752 30.610686 219.21216 34.128433 
C 210.719567 37.64618 203.002474 42.802576 196.502525 49.302525 
C 190.002576 55.802474 184.84618 63.519567 181.328433 72.01216 
C 177.810686 80.504752 176 89.607684 176 98.8 
C 176 107.992316 177.810686 117.095248 181.328433 125.58784 
C 184.84618 134.080433 190.002576 141.797526 196.502525 148.297475 
C 203.002474 154.797424 210.719567 159.95382 219.21216 163.471567 
C 227.704752 166.989314 236.807684 168.8 246 168.8 
C 255.192316 168.8 264.295248 166.989314 272.78784 163.471567 
C 281.280433 159.95382 288.997526 154.797424 295.497475 148.297475 
C 301.997424 141.797526 307.15382 134.080433 310.671567 125.58784 
C 314.189314 117.095248 316 107.992316 316 98.8 
M 246 98.8 
C 246 98.8 246 98.8 246 98.8 
C 246 98.8 246 98.8 246 98.8 
C 246 98.8 246 98.8 246 98.8 
C 246 98.8 246 98.8 246 98.8 
C 246 98.8 246 98.8 246 98.8 
C 246 98.8 246 98.8 246 98.8 
C 246 98.8 246 98.8 246 98.8 
C 246 98.8 246 98.8 246 98.8 
C 246 98.8 246 98.8 246 98.8 
C 246 98.8 246 98.8 246 98.8 
C 246 98.8 246 98.8 246 98.8 
C 246 98.8 246 98.8 246 98.8 
C 246 98.8 246 98.8 246 98.8 
C 246 98.8 246 98.8 246 98.8 
C 246 98.8 246 98.8 246 98.8 
C 246 98.8 246 98.8 246 98.8 
z
"/>
  </clipPath>
 </defs>
</svg>
